<?xml version="1.0" encoding="UTF-8"?>
<svg width="800" height="600" 
     viewBox="0 0 800 600"
     xmlns="http://www.w3.org/2000/svg"
     style="background-color: #000000;">
     
  <!-- Scalable constellation visualization -->
  <defs>
    <!-- Star symbol -->
    <g id="star">
      <polygon points="0,-1 0.3,-0.3 1,0 0.3,0.3 0,1 -0.3,0.3 -1,0 -0.3,-0.3" 
               fill="currentColor" stroke="none"/>
    </g>
    
    <!-- Bright star symbol -->
    <g id="bright-star">
      <polygon points="0,-1.2 0.35,-0.35 1.2,0 0.35,0.35 0,1.2 -0.35,0.35 -1.2,0 -0.35,-0.35" 
               fill="currentColor" stroke="none"/>
    </g>
  </defs>
  
  <!-- Grid lines -->
  <g id="grid" stroke="#333" stroke-width="0.1" opacity="0.3">
    <line x1="800.0" y1="0" x2="800.0" y2="600"/>
    <line x1="733.3333333333333" y1="0" x2="733.3333333333333" y2="600"/>
    <line x1="666.6666666666667" y1="0" x2="666.6666666666667" y2="600"/>
    <line x1="600.0" y1="0" x2="600.0" y2="600"/>
    <line x1="533.3333333333334" y1="0" x2="533.3333333333334" y2="600"/>
    <line x1="466.66666666666663" y1="0" x2="466.66666666666663" y2="600"/>
    <line x1="400.0" y1="0" x2="400.0" y2="600"/>
    <line x1="333.3333333333333" y1="0" x2="333.3333333333333" y2="600"/>
    <line x1="266.6666666666667" y1="0" x2="266.6666666666667" y2="600"/>
    <line x1="200.0" y1="0" x2="200.0" y2="600"/>
    <line x1="133.33333333333331" y1="0" x2="133.33333333333331" y2="600"/>
    <line x1="66.6666666666667" y1="0" x2="66.6666666666667" y2="600"/>
    <line x1="0.0" y1="0" x2="0.0" y2="600"/>
    <line x1="0" y1="600.0" x2="800" y2="600.0"/>
    <line x1="0" y1="500.0" x2="800" y2="500.0"/>
    <line x1="0" y1="400.00000000000006" x2="800" y2="400.00000000000006"/>
    <line x1="0" y1="300.0" x2="800" y2="300.0"/>
    <line x1="0" y1="200.00000000000003" x2="800" y2="200.00000000000003"/>
    <line x1="0" y1="99.99999999999997" x2="800" y2="99.99999999999997"/>
    <line x1="0" y1="0.0" x2="800" y2="0.0"/>
  </g>

  <!-- Constellation elements -->
  <use href="#star" x="267.3045736738558" y="387.04740628690126" transform="scale(0.7792207985226718)" fill="#FFFFFF" opacity="0.9"/>
  <use href="#star" x="266.48154375422905" y="375.40672548232095" transform="scale(0.8955224135533351)" fill="#FFFFFF" opacity="0.9"/>
  <use href="#star" x="263.64603162714377" y="366.0185409489633" transform="scale(0.8333333554091282)" fill="#FFFFFF" opacity="0.9"/>
  <use href="#star" x="250.32919141218954" y="388.1072081833388" transform="scale(1.4634146681858777)" fill="#FFFFFF" opacity="0.9"/>
  <use href="#star" x="246.7319962831448" y="394.0538609513517" transform="scale(0.7894736445841717)" fill="#FFFFFF" opacity="0.9"/>
  <use href="#star" x="238.80759487308003" y="414.3195885914804" transform="scale(0.9230769230769231)" fill="#FFFFFF" opacity="0.9"/>
  <use href="#star" x="237.8497077227884" y="426.82492108328336" transform="scale(0.75)" fill="#FFFFFF" opacity="0.9"/>
  <use href="#star" x="236.66918489974228" y="441.2068346978108" transform="scale(0.5263157630561145)" fill="#FFFFFF" opacity="0.9"/>
  <use href="#star" x="226.58201980636397" y="444.13729592169057" transform="scale(0.6976743876579468)" fill="#FFFFFF" opacity="0.9"/>
  <use href="#star" x="214.66176593444945" y="423.68006238704385" transform="scale(1.1538460903619203)" fill="#FFFFFF" opacity="0.9"/>
  <use href="#star" x="212.60052987410072" y="443.32610361638604" transform="scale(1.052631526112229)" fill="#FFFFFF" opacity="0.9"/>
  <use href="#star" x="209.72907045143634" y="430.1005316855526" transform="scale(0.8955224135533351)" fill="#FFFFFF" opacity="0.9"/>
  <use href="#star" x="206.89740032998037" y="433.7567780054207" transform="scale(0.7594936158752237)" fill="#FFFFFF" opacity="0.9"/>
  <line x1="214.66176593444945" y1="423.68006238704385" x2="209.72907045143634" y2="430.1005316855526" stroke="#87CEEB" stroke-width="0.5" opacity="0.8"/>
  <line x1="209.72907045143634" y1="430.1005316855526" x2="206.89740032998037" y2="433.7567780054207" stroke="#87CEEB" stroke-width="0.5" opacity="0.8"/>
  <line x1="206.89740032998037" y1="433.7567780054207" x2="212.60052987410072" y2="443.32610361638604" stroke="#87CEEB" stroke-width="0.5" opacity="0.8"/>
  <line x1="212.60052987410072" y1="443.32610361638604" x2="226.58201980636397" y2="444.13729592169057" stroke="#87CEEB" stroke-width="0.5" opacity="0.8"/>
  <line x1="226.58201980636397" y1="444.13729592169057" x2="236.66918489974228" y2="441.2068346978108" stroke="#87CEEB" stroke-width="0.5" opacity="0.8"/>
  <line x1="236.66918489974228" y1="441.2068346978108" x2="237.8497077227884" y2="426.82492108328336" stroke="#87CEEB" stroke-width="0.5" opacity="0.8"/>
  <line x1="237.8497077227884" y1="426.82492108328336" x2="238.80759487308003" y2="414.3195885914804" stroke="#87CEEB" stroke-width="0.5" opacity="0.8"/>
  <line x1="238.80759487308003" y1="414.3195885914804" x2="246.7319962831448" y2="394.0538609513517" stroke="#87CEEB" stroke-width="0.5" opacity="0.8"/>
  <line x1="246.7319962831448" y1="394.0538609513517" x2="250.32919141218954" y2="388.1072081833388" stroke="#87CEEB" stroke-width="0.5" opacity="0.8"/>
  <line x1="250.32919141218954" y1="388.1072081833388" x2="266.48154375422905" y2="375.40672548232095" stroke="#87CEEB" stroke-width="0.5" opacity="0.8"/>
  <line x1="250.32919141218954" y1="388.1072081833388" x2="267.3045736738558" y2="387.04740628690126" stroke="#87CEEB" stroke-width="0.5" opacity="0.8"/>
  <line x1="250.32919141218954" y1="388.1072081833388" x2="263.64603162714377" y2="366.0185409489633" stroke="#87CEEB" stroke-width="0.5" opacity="0.8"/>
  <use href="#bright-star" x="250.32911111111113" y="388.1073333333333" transform="scale(1.4634146341463417)" fill="#FFD700" opacity="0.95"/>
  <text x="253.32911111111113" y="385.1073333333333" fill="#FFD700" font-size="4.5" font-weight="bold">Antares</text>
  <g transform="translate(224.87466666666666,407.2673333333333) scale(0.5)">
    <line x1="-2" y1="0" x2="2" y2="0" stroke="#BA55D3" stroke-width="0.5"/>
    <line x1="0" y1="-2" x2="0" y2="2" stroke="#BA55D3" stroke-width="0.5"/>
  </g>
  <text x="226.87466666666666" y="409.2673333333333" fill="#BA55D3" font-size="3.5" font-weight="bold" opacity="0.9">Barnard252</text>
  <ellipse cx="259.54266666666666" cy="364.3366666666667" rx="2.2222222224444446" ry="2.2222222222222223" transform="rotate(1e-10 259.54266666666666 364.3366666666667)" fill="none" stroke="#BA55D3" stroke-width="0.2" stroke-dasharray="2,1" opacity="0.7"/>
  <text x="261.54266666666666" y="366.3366666666667" fill="#BA55D3" font-size="3.5" font-weight="bold" opacity="0.9">IC4592</text>
  <text x="237.04933333333335" y="437.04100000000005" fill="#BA55D3" font-size="3.5" font-weight="bold" opacity="0.9">IC4628</text>
  <ellipse cx="253.55555555555557" cy="388.4433333333333" rx="2.088888888888889" ry="3.1333333333333333" transform="rotate(1e-10 253.55555555555557 388.4433333333333)" fill="none" stroke="#FFA500" stroke-width="0.2" stroke-dasharray="2,1" opacity="0.7"/>
  <text x="255.55555555555557" y="390.4433333333333" fill="#FFA500" font-size="3.5" font-weight="bold" opacity="0.9">M4</text>
  <ellipse cx="211.0555555555556" cy="407.39" rx="1.2222222222222223" ry="1.8333333333333333" transform="rotate(90.0000000001 211.0555555555556 407.39)" fill="none" stroke="#FFA500" stroke-width="0.2" stroke-dasharray="2,1" opacity="0.7"/>
  <text x="213.0555555555556" y="409.39" fill="#FFA500" font-size="3.5" font-weight="bold" opacity="0.9">M6</text>
  <ellipse cx="203.3888888888888" cy="416.0566666666667" rx="3.707407407407407" ry="5.561111111111111" transform="rotate(1e-10 203.3888888888888 416.0566666666667)" fill="none" stroke="#FFA500" stroke-width="0.2" stroke-dasharray="2,1" opacity="0.7"/>
  <text x="205.3888888888888" y="418.0566666666667" fill="#FFA500" font-size="3.5" font-weight="bold" opacity="0.9">M7</text>
  <ellipse cx="257.2222222222222" cy="376.61" rx="0.4222222222222222" ry="0.6333333333333333" transform="rotate(1e-10 257.2222222222222 376.61)" fill="none" stroke="#FFA500" stroke-width="0.2" stroke-dasharray="2,1" opacity="0.7"/>
  <text x="259.2222222222222" y="378.61" fill="#FFA500" font-size="3.5" font-weight="bold" opacity="0.9">M80</text>
  <ellipse cx="251.2908888888889" cy="429.493" rx="0.3333333333333333" ry="0.5" transform="rotate(1e-10 251.2908888888889 429.493)" fill="none" stroke="#FFA500" stroke-width="0.2" stroke-dasharray="2,1" opacity="0.7"/>
  <text x="253.2908888888889" y="431.493" fill="#FFA500" font-size="3.5" font-weight="bold" opacity="0.9">NGC6139</text>
  <ellipse cx="236.58799999999997" cy="439.4223333333333" rx="0.6533333333333333" ry="0.9799999999999999" transform="rotate(90.0000000001 236.58799999999997 439.4223333333333)" fill="none" stroke="#FFA500" stroke-width="0.2" stroke-dasharray="2,1" opacity="0.7"/>
  <text x="238.58799999999997" y="441.4223333333333" fill="#FFA500" font-size="3.5" font-weight="bold" opacity="0.9">NGC6231</text>
  <ellipse cx="232.90466666666669" cy="448.8466666666667" rx="0.6407407407407407" ry="0.9611111111111111" transform="rotate(1e-10 232.90466666666669 448.8466666666667)" fill="none" stroke="#FFA500" stroke-width="0.2" stroke-dasharray="2,1" opacity="0.7"/>
  <text x="234.90466666666669" y="450.8466666666667" fill="#FFA500" font-size="3.5" font-weight="bold" opacity="0.9">NGC6259</text>
  <text x="223.75111111111113" y="422.3833333333333" fill="#BA55D3" font-size="3.5" font-weight="bold" opacity="0.9">NGC6334</text>
  <text x="220.62222222222218" y="415.99999999999994" fill="#BA55D3" font-size="3.5" font-weight="bold" opacity="0.9">NGC6357</text>
  <ellipse cx="214.1697777777778" cy="430.2296666666666" rx="0.13333333333333336" ry="0.2" transform="rotate(1e-10 214.1697777777778 430.2296666666666)" fill="none" stroke="#FFA500" stroke-width="0.2" stroke-dasharray="2,1" opacity="0.7"/>
  <text x="216.1697777777778" y="432.2296666666666" fill="#FFA500" font-size="3.5" font-weight="bold" opacity="0.9">NGC6380</text>
  <ellipse cx="213.15488888888882" cy="449.11733333333336" rx="0.4222222222222222" ry="0.6333333333333333" transform="rotate(1e-10 213.15488888888882 449.11733333333336)" fill="none" stroke="#FFA500" stroke-width="0.2" stroke-dasharray="2,1" opacity="0.7"/>
  <text x="215.15488888888882" y="451.11733333333336" fill="#FFA500" font-size="3.5" font-weight="bold" opacity="0.9">NGC6388</text>
  <path d="M 221.85002222222226,420.08566666666667 L 221.90291111111114,420.164 L 222.0033999999999,420.3516666666667 L 222.0122,420.4426666666667 L 221.95551111111112,420.5493333333333 L 221.84699999999998,420.61733333333336 L 221.77093333333335,420.65 L 221.64842222222214,420.6723333333333 L 221.58757777777777,420.64633333333336 L 221.53435555555552,420.591 L 221.5031111111111,420.491 L 221.50368888888892,420.41866666666664 L 221.52515555555556,420.3186666666667 L 221.56051111111105,420.2433333333333 L 221.63197777777785,420.1296666666667 L 221.6706888888888,420.1003333333333 L 221.76975555555546,420.07300000000004 L 221.85033333333334,420.08633333333336 Z" fill="#FF0000" fill-opacity="0.1" stroke="#FF0000" stroke-width="0.3" stroke-opacity="0.7"/>
  <path d="M 221.8916444444445,419.38533333333334 L 221.9445111111111,419.4596666666667 L 221.98597777777778,419.557 L 222.01239999999993,419.667 L 221.99888888888887,419.7883333333334 L 221.93793333333335,419.8846666666667 L 221.86633333333336,419.93066666666664 L 221.74026666666666,419.9626666666667 L 221.65831111111115,419.93100000000004 L 221.5747111111111,419.8846666666667 L 221.5408222222223,419.832 L 221.50680000000006,419.7633333333334 L 221.50835555555562,419.70300000000003 L 221.53351111111118,419.61766666666665 L 221.57740000000007,419.5303333333333 L 221.63948888888888,419.444 L 221.70722222222227,419.37166666666667 L 221.77544444444442,419.35533333333336 L 221.8554222222223,419.35633333333334 L 221.8925111111111,419.38699999999994 Z" fill="#FF0000" fill-opacity="0.1" stroke="#FF0000" stroke-width="0.3" stroke-opacity="0.7"/>
  <path d="M 222.43406666666664,420.0703333333334 L 222.5115333333334,420.1543333333334 L 222.5544888888889,420.23966666666666 L 222.57624444444443,420.3503333333333 L 222.51673333333324,420.474 L 222.4584444444444,420.532 L 222.3869333333333,420.5903333333333 L 222.3356,420.60533333333336 L 222.26939999999996,420.57366666666667 L 222.2000888888889,420.5203333333334 L 222.16591111111103,420.4626666666667 L 222.14744444444437,420.3893333333333 L 222.15591111111115,420.30499999999995 L 222.19728888888898,420.18833333333333 L 222.23522222222226,420.12533333333334 L 222.29448888888888,420.069 L 222.3659111111111,420.01899999999995 L 222.43502222222222,420.07133333333337 Z" fill="#FF0000" fill-opacity="0.1" stroke="#FF0000" stroke-width="0.3" stroke-opacity="0.7"/>
  <path d="M 222.04215555555552,418.71866666666665 L 222.00642222222226,418.7606666666666 L 221.97520000000006,418.82933333333335 L 221.94784444444446,418.89433333333335 L 221.93035555555554,419.0036666666666 L 221.92304444444443,419.0796666666667 L 221.93644444444445,419.1976666666667 L 221.95004444444447,419.27700000000004 L 221.97840000000008,419.3496666666666 L 222.00902222222228,419.4356666666667 L 222.03188888888894,419.52933333333334 L 222.01908888888892,419.6263333333333 L 222.02266666666662,419.69966666666664 L 222.00448888888883,419.77866666666665 L 221.98484444444438,419.8363333333333 L 221.94342222222224,419.899 L 221.9244,419.9866666666667 L 221.9581777777777,420.07733333333334 L 222.00675555555546,420.16166666666663 L 222.0656222222222,420.2126666666667 L 222.11686666666662,420.23300000000006 L 222.17995555555552,420.203 L 222.22135555555562,420.14 L 222.2736444444445,420.0743333333333 L 222.32348888888885,420.034 L 222.40666666666672,420.0156666666667 L 222.5084,420.0253333333333 L 222.58537777777772,419.99733333333336 L 222.63046666666673,419.9693333333334 L 222.70431111111117,419.93633333333327 L 222.8022222222223,419.87233333333336 L 222.8434444444444,419.8093333333333 L 222.89937777777772,419.73966666666666 L 222.9420888888889,419.6983333333333 L 222.98246666666665,419.6436666666667 L 223.00420000000008,419.59933333333333 L 223.0337111111111,419.50899999999996 L 223.08100000000007,419.41633333333334 L 223.11122222222224,419.3176666666667 L 223.14220000000003,419.21 L 223.16000000000003,419.13100000000003 L 223.17315555555552,419.06399999999996 L 223.19093333333333,418.98466666666667 L 223.18857777777782,418.89433333333335 L 223.17851111111116,418.8113333333334 L 223.16224444444435,418.75766666666664 L 223.12900000000005,418.6973333333333 L 223.1058222222223,418.6426666666667 L 223.0579111111111,418.58900000000006 L 222.9961333333333,418.53333333333336 L 222.95366666666672,418.4973333333333 L 222.87879999999998,418.4313333333333 L 222.8309333333333,418.416 L 222.72522222222227,418.38 L 222.6835333333333,418.3743333333333 L 222.62022222222225,418.3743333333333 L 222.57933333333338,418.36 L 222.49600000000004,418.34833333333336 L 222.4427111111111,418.354 L 222.36155555555558,418.394 L 222.30586666666667,418.42500000000007 L 222.25164444444445,418.4773333333333 L 222.20902222222216,418.51866666666666 L 222.14542222222224,418.59566666666666 L 222.09500000000003,418.64433333333335 Z" fill="#FF0000" fill-opacity="0.1" stroke="#FF0000" stroke-width="0.3" stroke-opacity="0.7"/>
  <path d="M 219.5613777777778,414.736 L 219.50571111111117,414.8053333333334 L 219.46082222222216,414.85033333333337 L 219.38124444444452,414.9236666666667 L 219.30266666666665,414.95 L 219.1942222222223,414.9466666666667 L 219.11286666666666,414.9363333333333 L 219.03471111111114,414.92233333333337 L 218.92417777777774,414.8753333333333 L 218.89424444444447,414.8133333333333 L 218.91017777777782,414.7643333333333 L 218.9467333333333,414.71466666666663 L 218.97868888888894,414.65 L 219.0234666666667,414.57233333333335 L 219.0935777777778,414.5413333333334 L 219.16044444444447,414.51366666666667 L 219.17311111111113,414.4683333333333 L 219.13217777777785,414.3973333333334 L 219.06822222222218,414.3563333333334 L 219.03799999999993,414.36699999999996 L 218.9762,414.37 L 218.96091111111113,414.41133333333335 L 218.90391111111109,414.49466666666666 L 218.83455555555554,414.551 L 218.7462666666666,414.554 L 218.71011111111116,414.531 L 218.68151111111106,414.4546666666667 L 218.67735555555558,414.3666666666666 L 218.68884444444444,414.3356666666667 L 218.73955555555548,414.29133333333334 L 218.78397777777775,414.2863333333333 L 218.83393333333333,414.21666666666664 L 218.8664666666667,414.14466666666664 L 218.83391111111106,414.046 L 218.79177777777778,413.957 L 218.75977777777774,413.8183333333333 L 218.75562222222217,413.7303333333333 L 218.73348888888887,413.6476666666667 L 218.71973333333335,413.56933333333336 L 218.6673777777778,413.46433333333334 L 218.6003111111111,413.361 L 218.5667111111112,413.2766666666667 L 218.6192444444445,413.04 L 218.68364444444444,412.936 L 218.7398666666666,412.8926666666667 L 218.81082222222227,412.84766666666667 L 218.89326666666662,412.804 L 218.95717777777782,412.7726666666667 L 219.00908888888884,412.7793333333333 L 219.01575555555564,412.83833333333337 L 219.0051111111111,412.895 L 218.97484444444447,413.011 L 218.92664444444446,413.13166666666666 L 218.88735555555553,413.25 L 218.90324444444448,413.37199999999996 L 218.9470222222222,413.40700000000004 L 219.02991111111118,413.42866666666663 L 219.1058222222223,413.464 L 219.20366666666675,413.51666666666665 L 219.29619999999997,413.529 L 219.34106666666668,413.5163333333333 L 219.39053333333325,413.51933333333335 L 219.44717777777782,413.54100000000005 L 219.51239999999999,413.60033333333337 L 219.57184444444442,413.65866666666665 L 219.71191111111114,413.66200000000003 L 219.766,413.68 L 219.85802222222216,413.69866666666667 L 219.91824444444444,413.6773333333333 L 219.97646666666668,413.6446666666667 L 220.03062222222223,413.5896666666667 L 220.07722222222216,413.55566666666664 L 220.12959999999993,413.5223333333334 L 220.17300000000003,413.4913333333333 L 220.2554444444445,413.44733333333335 L 220.29851111111105,413.38366666666667 L 220.3812222222223,413.44466666666665 L 220.41857777777773,413.52566666666667 L 220.45282222222227,413.68233333333336 L 220.4708222222222,413.74966666666666 L 220.49086666666665,413.8286666666667 L 220.52251111111119,413.9086666666667 L 220.51791111111118,413.966 L 220.5020666666667,414.055 L 220.47631111111113,414.12066666666664 L 220.41377777777774,414.2436666666666 L 220.37408888888885,414.337 L 220.31433333333342,414.4239999999999 L 220.26531111111112,414.48699999999997 L 220.23539999999997,414.603 L 220.18166666666667,414.6506666666666 L 220.0832,414.6713333333333 L 219.99835555555558,414.7043333333333 L 219.9379111111111,414.7256666666667 L 219.84462222222217,414.75399999999996 L 219.8079777777778,414.77099999999996 L 219.7434666666667,414.7699999999999 L 219.67375555555552,414.76133333333337 L 219.63108888888883,414.745 Z" fill="#FF0000" fill-opacity="0.1" stroke="#FF0000" stroke-width="0.3" stroke-opacity="0.7"/>
  <path d="M 234.33173333333332,435.161 L 234.33306666666667,435.114 L 234.33582222222222,435.084 L 234.3273777777777,435.0436666666667 L 234.3245333333334,435.00866666666667 L 234.34360000000004,434.989 L 234.36724444444445,434.98766666666666 L 234.35902222222217,434.9626666666667 L 234.3408,434.9293333333333 L 234.3262444444444,434.9026666666666 L 234.34900000000002,434.8646666666666 L 234.3776,434.823 L 234.3998444444444,434.77933333333334 L 234.44813333333335,434.7386666666667 L 234.4803333333333,434.70366666666666 L 234.49797777777778,434.64166666666665 L 234.50073333333333,434.587 L 234.52537777777778,434.548 L 234.55606666666665,434.52 L 234.5604,434.5476666666667 L 234.5679111111111,434.57633333333337 L 234.58857777777783,434.5896666666667 L 234.62291111111108,434.56800000000004 L 234.6674444444444,434.54566666666665 L 234.6876444444445,434.52833333333336 L 234.7037111111111,434.52299999999997 L 234.73435555555557,434.51966666666664 L 234.76137777777774,434.5096666666667 L 234.81148888888885,434.4676666666667 L 234.8411555555556,434.4526666666667 L 234.87131111111114,434.4433333333333 L 234.89173333333335,434.466 L 234.94962222222222,434.468 L 234.9902222222222,434.44800000000004 L 235.01940000000002,434.42733333333337 L 235.0483111111111,434.4156666666666 L 235.09671111111112,434.4153333333333 L 235.1207777777778,434.41966666666667 L 235.17891111111115,434.43666666666667 L 235.22119999999998,434.425 L 235.2503555555556,434.404 L 235.3014,434.3983333333333 L 235.35731111111113,434.40166666666664 L 235.4161333333334,434.3903333333334 L 235.4484666666666,434.395 Z" fill="#FF0000" fill-opacity="0.1" stroke="#FF0000" stroke-width="0.3" stroke-opacity="0.7"/>
  <path d="M 234.33173333333332,435.161 L 234.33306666666667,435.114 L 234.33582222222222,435.084 L 234.3273777777777,435.0436666666667 L 234.3245333333334,435.00866666666667 L 234.34360000000004,434.989 L 234.36724444444445,434.98766666666666 L 234.35902222222217,434.9626666666667 L 234.3408,434.9293333333333 L 234.3262444444444,434.9026666666666 L 234.34900000000002,434.8646666666666 L 234.3776,434.823 L 234.3998444444444,434.77933333333334 L 234.44813333333335,434.7386666666667 L 234.4803333333333,434.70366666666666 L 234.49797777777778,434.64166666666665 L 234.50073333333333,434.587 L 234.52537777777778,434.548 L 234.55606666666665,434.52 L 234.5604,434.5476666666667 L 234.5679111111111,434.57633333333337 L 234.58857777777783,434.5896666666667 L 234.62291111111108,434.56800000000004 L 234.6674444444444,434.54566666666665 L 234.6876444444445,434.52833333333336 L 234.7037111111111,434.52299999999997 L 234.73435555555557,434.51966666666664 L 234.76137777777774,434.5096666666667 L 234.81148888888885,434.4676666666667 L 234.8411555555556,434.4526666666667 L 234.87131111111114,434.4433333333333 L 234.89173333333335,434.466 L 234.94962222222222,434.468 L 234.9902222222222,434.44800000000004 L 235.01940000000002,434.42733333333337 L 235.0483111111111,434.4156666666666 L 235.09671111111112,434.4153333333333 L 235.1207777777778,434.41966666666667 L 235.17891111111115,434.43666666666667 L 235.22119999999998,434.425 L 235.2503555555556,434.404 L 235.3014,434.3983333333333 L 235.35731111111113,434.40166666666664 L 235.4161333333334,434.3903333333334 L 235.4484666666666,434.395 L 235.47217777777777,434.443 L 235.44888888888886,434.45966666666664 L 235.42508888888892,434.4706666666667 L 235.40982222222215,434.49699999999996 L 235.39455555555557,434.52366666666666 L 235.38684444444442,434.554 L 235.3886222222222,434.5866666666667 L 235.39235555555553,434.61799999999994 L 235.41802222222225,434.6646666666667 L 235.44660000000005,434.697 L 235.4758888888889,434.7253333333333 L 235.46962222222226,434.7486666666667 L 235.48768888888887,434.76666666666665 L 235.5288,434.75233333333335 L 235.56968888888886,434.748 L 235.6101555555556,434.762 L 235.63982222222225,434.747 L 235.6913555555556,434.7223333333333 L 235.7228222222222,434.73999999999995 L 235.7490888888889,434.7923333333334 L 235.75704444444438,434.8363333333333 L 235.7377111111111,434.87500000000006 L 235.70426666666665,434.91766666666666 L 235.68286666666668,434.933 L 235.6115555555556,434.95633333333336 L 235.56015555555553,434.9716666666667 L 235.49682222222225,434.97999999999996 L 235.45631111111112,434.9656666666666 L 235.41186666666664,434.9293333333333 L 235.34913333333333,434.88466666666665 L 235.33735555555558,434.84333333333336 L 235.3250666666667,434.7966666666667 L 235.30502222222225,434.755 L 235.27646666666672,434.72299999999996 L 235.20315555555555,434.698 L 235.15008888888894,434.705 L 235.12113333333335,434.7616666666666 L 235.08991111111106,434.8013333333333 L 235.04646666666665,434.8666666666667 L 234.98462222222224,434.95433333333335 L 234.92444444444445,435.01 L 234.84617777777777,435.0400000000001 L 234.81146666666666,435.0733333333333 L 234.7450888888889,435.125 L 234.6895777777778,435.13433333333336 L 234.64668888888892,435.1386666666667 L 234.62315555555557,435.1856666666667 L 234.6462,435.29 L 234.5970666666667,435.35966666666667 L 234.50911111111114,435.3786666666667 L 234.41988888888883,435.347 L 234.35666666666668,435.28000000000003 L 234.3370666666667,435.216 Z" fill="#FF0000" fill-opacity="0.1" stroke="#FF0000" stroke-width="0.3" stroke-opacity="0.7"/>
  
  <!-- Title and info -->
  <text x="400.0" y="25" text-anchor="middle" 
        fill="white" font-size="12.0" font-weight="bold">
    Constellation View
  </text>
  
  <text x="10" y="590" fill="white" font-size="5.0">
    RA: 0.0째 to 360.0째 | DE: -90.0째 to 90.0째 | 
    Stars: 13 | DSO: 14 | Vector SVG
  </text>
  
</svg>