<?xml version="1.0" encoding="UTF-8"?>
<svg width="800" height="600" 
     viewBox="0 0 800 600"
     xmlns="http://www.w3.org/2000/svg"
     style="background-color: #000000;">
     
  <!-- Scalable constellation visualization -->
  <defs>
    <!-- Star symbol -->
    <g id="star">
      <polygon points="0,-1 0.3,-0.3 1,0 0.3,0.3 0,1 -0.3,0.3 -1,0 -0.3,-0.3" 
               fill="currentColor" stroke="none"/>
    </g>
    
    <!-- Bright star symbol -->
    <g id="bright-star">
      <polygon points="0,-1.2 0.35,-0.35 1.2,0 0.35,0.35 0,1.2 -0.35,0.35 -1.2,0 -0.35,-0.35" 
               fill="currentColor" stroke="none"/>
    </g>
  </defs>
  
  <!-- Grid lines -->
  <g id="grid" stroke="#333" stroke-width="0.1" opacity="0.3">
    <line x1="800.0" y1="0" x2="800.0" y2="600"/>
    <line x1="733.3333333333333" y1="0" x2="733.3333333333333" y2="600"/>
    <line x1="666.6666666666667" y1="0" x2="666.6666666666667" y2="600"/>
    <line x1="600.0" y1="0" x2="600.0" y2="600"/>
    <line x1="533.3333333333334" y1="0" x2="533.3333333333334" y2="600"/>
    <line x1="466.66666666666663" y1="0" x2="466.66666666666663" y2="600"/>
    <line x1="400.0" y1="0" x2="400.0" y2="600"/>
    <line x1="333.3333333333333" y1="0" x2="333.3333333333333" y2="600"/>
    <line x1="266.6666666666667" y1="0" x2="266.6666666666667" y2="600"/>
    <line x1="200.0" y1="0" x2="200.0" y2="600"/>
    <line x1="133.33333333333331" y1="0" x2="133.33333333333331" y2="600"/>
    <line x1="66.6666666666667" y1="0" x2="66.6666666666667" y2="600"/>
    <line x1="0.0" y1="0" x2="0.0" y2="600"/>
    <line x1="0" y1="600.0" x2="800" y2="600.0"/>
    <line x1="0" y1="500.0" x2="800" y2="500.0"/>
    <line x1="0" y1="400.00000000000006" x2="800" y2="400.00000000000006"/>
    <line x1="0" y1="300.0" x2="800" y2="300.0"/>
    <line x1="0" y1="200.00000000000003" x2="800" y2="200.00000000000003"/>
    <line x1="0" y1="99.99999999999997" x2="800" y2="99.99999999999997"/>
    <line x1="0" y1="0.0" x2="800" y2="0.0"/>
  </g>

  <!-- Constellation elements -->
  <use href="#star" x="289.497452754655" y="528.931471205474" transform="scale(0.7792207985226718)" fill="#FFFFFF" opacity="0.9"/>
  <use href="#star" x="269.3742471712519" y="511.4380570730675" transform="scale(0.7894736445841717)" fill="#FFFFFF" opacity="0.9"/>
  <use href="#star" x="239.63029081232355" y="530.0931197144494" transform="scale(1.034482724601393)" fill="#FFFFFF" opacity="0.9"/>
  <line x1="239.63029081232355" y1="530.0931197144494" x2="289.497452754655" y2="528.931471205474" stroke="#87CEEB" stroke-width="0.5" opacity="0.8"/>
  <line x1="289.497452754655" y1="528.931471205474" x2="269.3742471712519" y2="511.4380570730675" stroke="#87CEEB" stroke-width="0.5" opacity="0.8"/>
  <line x1="269.3742471712519" y1="511.4380570730675" x2="239.63029081232355" y2="530.0931197144494" stroke="#87CEEB" stroke-width="0.5" opacity="0.8"/>
  <ellipse cx="264.81755555555554" cy="501.4436666666667" rx="1.2962962962962963" ry="1.9444444444444444" transform="rotate(1e-10 264.81755555555554 501.4436666666667)" fill="none" stroke="#FFA500" stroke-width="0.2" stroke-dasharray="2,1" opacity="0.7"/>
  <text x="266.81755555555554" y="503.4436666666667" fill="#FFA500" font-size="3.5" font-weight="bold" opacity="0.9">NGC6025</text>
  
  <!-- Title and info -->
  <text x="400.0" y="25" text-anchor="middle" 
        fill="white" font-size="12.0" font-weight="bold">
    Constellation View
  </text>
  
  <text x="10" y="590" fill="white" font-size="5.0">
    RA: 0.0째 to 360.0째 | DE: -90.0째 to 90.0째 | 
    Stars: 3 | DSO: 1 | Vector SVG
  </text>
  
</svg>