<?xml version="1.0" encoding="UTF-8"?>
<svg width="800" height="600" 
     viewBox="0 0 800 600"
     xmlns="http://www.w3.org/2000/svg"
     style="background-color: #000000;">
     
  <!-- Scalable constellation visualization -->
  <defs>
    <!-- Star symbol -->
    <g id="star">
      <polygon points="0,-1 0.3,-0.3 1,0 0.3,0.3 0,1 -0.3,0.3 -1,0 -0.3,-0.3" 
               fill="currentColor" stroke="none"/>
    </g>
    
    <!-- Bright star symbol -->
    <g id="bright-star">
      <polygon points="0,-1.2 0.35,-0.35 1.2,0 0.35,0.35 0,1.2 -0.35,0.35 -1.2,0 -0.35,-0.35" 
               fill="currentColor" stroke="none"/>
    </g>
  </defs>
  
  <!-- Grid lines -->
  <g id="grid" stroke="#333" stroke-width="0.1" opacity="0.3">
  </g>

  <!-- Constellation elements -->
  <use href="#star" x="460.4522032886254" y="405.0916787579819" transform="scale(0.5769230451809602)" fill="#FFFFFF" opacity="0.9"/>
  <use href="#star" x="460.0406307789257" y="105.47222751007696" transform="scale(0.631578947368421)" fill="#FFFFFF" opacity="0.9"/>
  <use href="#star" x="405.75778908142394" y="146.19417614989732" transform="scale(0.7692307504206254)" fill="#FFFFFF" opacity="0.9"/>
  <use href="#star" x="404.2788340866995" y="396.2008207143885" transform="scale(0.6976743876579468)" fill="#FFFFFF" opacity="0.9"/>
  <use href="#star" x="392.77351326000087" y="360.1314248245304" transform="scale(0.983606495866213)" fill="#FFFFFF" opacity="0.9"/>
  <use href="#star" x="330.5752920269665" y="208.3329117740507" transform="scale(1.0909090909090908)" fill="#FFFFFF" opacity="0.9"/>
  <use href="#star" x="258.9560484730334" y="243.68247390013437" transform="scale(0.5)" fill="#FFFFFF" opacity="0.9"/>
  <use href="#star" x="253.58683715625398" y="507.8697985394798" transform="scale(0.5)" fill="#FFFFFF" opacity="0.9"/>
  <use href="#star" x="215.80810916871638" y="514.7713194461708" transform="scale(0.7894736445841717)" fill="#FFFFFF" opacity="0.9"/>
  <use href="#star" x="201.4783233618048" y="376.24865244974836" transform="scale(0.7692307504206254)" fill="#FFFFFF" opacity="0.9"/>
  <use href="#star" x="197.2006647030768" y="448.1657451503874" transform="scale(0.6060605710312484)" fill="#FFFFFF" opacity="0.9"/>
  <line x1="253.58683715625398" y1="507.8697985394798" x2="215.80810916871638" y2="514.7713194461708" stroke="#87CEEB" stroke-width="0.5" opacity="0.8"/>
  <line x1="215.80810916871638" y1="514.7713194461708" x2="197.2006647030768" y2="448.1657451503874" stroke="#87CEEB" stroke-width="0.5" opacity="0.8"/>
  <line x1="197.2006647030768" y1="448.1657451503874" x2="201.4783233618048" y2="376.24865244974836" stroke="#87CEEB" stroke-width="0.5" opacity="0.8"/>
  <line x1="201.4783233618048" y1="376.24865244974836" x2="258.9560484730334" y2="243.68247390013437" stroke="#87CEEB" stroke-width="0.5" opacity="0.8"/>
  <line x1="258.9560484730334" y1="243.68247390013437" x2="330.5752920269665" y2="208.3329117740507" stroke="#87CEEB" stroke-width="0.5" opacity="0.8"/>
  <line x1="330.5752920269665" y1="208.3329117740507" x2="405.75778908142394" y2="146.19417614989732" stroke="#87CEEB" stroke-width="0.5" opacity="0.8"/>
  <line x1="405.75778908142394" y1="146.19417614989732" x2="460.0406307789257" y2="105.47222751007696" stroke="#87CEEB" stroke-width="0.5" opacity="0.8"/>
  <line x1="330.5752920269665" y1="208.3329117740507" x2="392.77351326000087" y2="360.1314248245304" stroke="#87CEEB" stroke-width="0.5" opacity="0.8"/>
  <line x1="392.77351326000087" y1="360.1314248245304" x2="404.2788340866995" y2="396.2008207143885" stroke="#87CEEB" stroke-width="0.5" opacity="0.8"/>
  <line x1="404.2788340866995" y1="396.2008207143885" x2="460.4522032886254" y2="405.0916787579819" stroke="#87CEEB" stroke-width="0.5" opacity="0.8"/>
  <ellipse cx="493.527894351827" cy="328.982706937781" rx="1.7925925925925923" ry="2.688888888888889" transform="rotate(1e-10 493.527894351827 328.982706937781)" fill="none" stroke="#FFA500" stroke-width="0.2" stroke-dasharray="2,1" opacity="0.7"/>
  <text x="495.527894351827" y="330.982706937781" fill="#FFA500" font-size="3.5" font-weight="bold" opacity="0.9">M34</text>
  <ellipse cx="722.996958379856" cy="179.25296094081378" rx="0.08544444444444443" ry="0.12816666666666668" transform="rotate(90.0000000001 722.996958379856 179.25296094081378)" fill="none" stroke="#BA55D3" stroke-width="0.2" stroke-dasharray="2,1" opacity="0.7"/>
  <text x="724.996958379856" y="181.25296094081378" fill="#BA55D3" font-size="3.5" font-weight="bold" opacity="0.9">M76</text>
  <ellipse cx="499.68813768143843" cy="392.38773154899684" rx="0.2740740740740741" ry="0.17" transform="rotate(1e-10 499.68813768143843 392.38773154899684)" fill="none" stroke="#4682B4" stroke-width="0.2" stroke-dasharray="2,1" opacity="0.7"/>
  <text x="501.68813768143843" y="394.38773154899684" fill="#4682B4" font-size="3.5" font-weight="bold" opacity="0.9">NGC1023</text>
  <ellipse cx="367.10276055904217" cy="252.76610706571367" rx="0.48518518518518516" ry="0.7277777777777777" transform="rotate(1e-10 367.10276055904217 252.76610706571367)" fill="none" stroke="#FFA500" stroke-width="0.2" stroke-dasharray="2,1" opacity="0.7"/>
  <text x="369.10276055904217" y="254.76610706571367" fill="#FFA500" font-size="3.5" font-weight="bold" opacity="0.9">NGC1245</text>
  <ellipse cx="347.9690447772687" cy="350.6120414887319" rx="0.0974074074074074" ry="0.09888888888888889" transform="rotate(110.0000000001 347.9690447772687 350.6120414887319)" fill="none" stroke="#4682B4" stroke-width="0.2" stroke-dasharray="2,1" opacity="0.7"/>
  <text x="349.9690447772687" y="352.6120414887319" fill="#4682B4" font-size="3.5" font-weight="bold" opacity="0.9">NGC1275</text>
  <ellipse cx="180.64451545836073" cy="183.54848644072678" rx="0.3333333333333333" ry="0.3333333333333333" transform="rotate(90.0000000001 180.64451545836073 183.54848644072678)" fill="none" stroke="#BA55D3" stroke-width="0.2" stroke-dasharray="2,1" opacity="0.7"/>
  <text x="182.64451545836073" y="185.54848644072678" fill="#BA55D3" font-size="3.5" font-weight="bold" opacity="0.9">NGC1491</text>
  <text x="182.5105301659416" y="439.4106343383627" fill="#BA55D3" font-size="3.5" font-weight="bold" opacity="0.9">NGC1499</text>
  <text x="79.00304162014397" y="458.89391071296797" fill="#BA55D3" font-size="3.5" font-weight="bold" opacity="0.9">NGC1579</text>
  <g transform="translate(578.2312401339854,85.22868055382935) scale(0.5)">
    <line x1="-2" y1="0" x2="2" y2="0" stroke="#FFA500" stroke-width="0.5"/>
    <line x1="0" y1="-2" x2="0" y2="2" stroke="#FFA500" stroke-width="0.5"/>
  </g>
  <text x="580.2312401339854" y="87.22868055382935" fill="#FFA500" font-size="3.5" font-weight="bold" opacity="0.9">NGC884_869</text>
  <path d="M 165.37250221383752,447.1335222159436 L 169.0600238709429,450.2938016908794 L 174.4063450506296,453.2768055102635 L 183.84445385592744,447.97387700620425 L 189.3652639279253,442.9027705132513 L 193.87625611211652,440.78909923551646 L 195.46944904323738,439.83794716053563 L 198.31871558926588,438.644745632782 L 200.73984522388645,437.87257378696444 L 202.9174912409041,437.9100744064081 L 206.39002040580613,438.0788271939046 L 209.08882300850883,438.00041680779515 L 211.1534285604282,435.77594824534026 L 211.38135756362377,434.41740307731214 L 212.7233665729797,432.79976272040045 L 212.39317753051256,430.0196031607345 L 212.4372232703193,428.2690060621589 L 214.1910445462597,425.8774892858185 L 211.1666730835869,424.46269318862477 L 209.21433796634972,425.4752099136044 L 206.41481538520782,426.0053323066493 L 205.02906864821168,426.0820381191477 L 200.70026566049367,425.9882865705384 L 198.75978901166596,425.64396270110103 L 196.22746698494603,426.1280616066467 L 193.9775921148886,426.6104559385814 L 190.93859007430805,427.72695165383664 L 190.0612174180881,426.5064769483057 L 187.8931197782313,426.3530653233088 L 186.09032456782043,427.7985437455017 L 183.45897662957694,429.95312478990263 L 173.79817502791371,438.85099903972235 L 167.37997150887472,444.095972041005 L 165.38328263966432,447.15738624649856 Z" fill="#FF0000" fill-opacity="0.1" stroke="#FF0000" stroke-width="0.3" stroke-opacity="0.7"/>
  <path d="M 79.5715550764256,455.2745657824452 L 79.11985523428173,455.1978599699468 L 78.58699418627042,455.26092919355665 L 78.0778500750781,455.2455880310569 L 77.56500981788781,455.27627035605633 L 77.12455241982062,455.28138407688954 L 76.73214491972438,455.3529761685548 L 76.39656566434381,455.601843915772 L 76.11596658068001,456.0620787907626 L 75.93362337812346,456.38424320325606 L 75.68829168752167,456.84618265185793 L 75.6695029453665,457.3370998518479 L 75.6564124282911,457.74960666572844 L 76.01524660224088,458.11949913933216 L 76.62218457629093,458.45870928793636 L 77.06341200477426,458.6598489740433 L 77.68297847764991,458.82519261431776 L 78.13483232587694,458.8865572643165 L 78.54880067762693,458.7536005226526 L 78.97000731528907,458.5251876587683 L 78.741770299927,458.0666573573887 L 78.66091710622581,457.7427883712841 L 79.02529549917246,457.5757401573987 L 79.37812343587582,457.32687241018147 L 79.75112616948383,457.049026911576 L 80.04512378238937,456.4319712643662 L 80.11196242251569,456.02287359770787 L 80.05128402571904,455.67002686021505 L 79.82458707118934,455.41774996577567 L 79.57525122242339,455.27967950327854 Z" fill="#FF0000" fill-opacity="0.1" stroke="#FF0000" stroke-width="0.3" stroke-opacity="0.7"/>
  
  <!-- Title and info -->
  <text x="400.0" y="25" text-anchor="middle" 
        fill="white" font-size="12.0" font-weight="bold">
    Constellation View
  </text>
  
  <text x="10" y="590" fill="white" font-size="5.0">
    RA: 20.6째 to 72.5째 | DE: 26.9째 to 62.1째 | 
    Stars: 11 | DSO: 9 | Vector SVG
  </text>
  
</svg>