<?xml version="1.0" encoding="UTF-8"?>
<svg width="800" height="600" 
     viewBox="0 0 800 600"
     xmlns="http://www.w3.org/2000/svg"
     style="background-color: #000000;">
     
  <!-- Scalable constellation visualization -->
  <defs>
    <!-- Star symbol -->
    <g id="star">
      <polygon points="0,-1 0.3,-0.3 1,0 0.3,0.3 0,1 -0.3,0.3 -1,0 -0.3,-0.3" 
               fill="currentColor" stroke="none"/>
    </g>
    
    <!-- Bright star symbol -->
    <g id="bright-star">
      <polygon points="0,-1.2 0.35,-0.35 1.2,0 0.35,0.35 0,1.2 -0.35,0.35 -1.2,0 -0.35,-0.35" 
               fill="currentColor" stroke="none"/>
    </g>
  </defs>
  
  <!-- Grid lines -->
  <g id="grid" stroke="#333" stroke-width="0.1" opacity="0.3">
    <line x1="800.0" y1="0" x2="800.0" y2="600"/>
    <line x1="733.3333333333333" y1="0" x2="733.3333333333333" y2="600"/>
    <line x1="666.6666666666667" y1="0" x2="666.6666666666667" y2="600"/>
    <line x1="600.0" y1="0" x2="600.0" y2="600"/>
    <line x1="533.3333333333334" y1="0" x2="533.3333333333334" y2="600"/>
    <line x1="466.66666666666663" y1="0" x2="466.66666666666663" y2="600"/>
    <line x1="400.0" y1="0" x2="400.0" y2="600"/>
    <line x1="333.3333333333333" y1="0" x2="333.3333333333333" y2="600"/>
    <line x1="266.6666666666667" y1="0" x2="266.6666666666667" y2="600"/>
    <line x1="200.0" y1="0" x2="200.0" y2="600"/>
    <line x1="133.33333333333331" y1="0" x2="133.33333333333331" y2="600"/>
    <line x1="66.6666666666667" y1="0" x2="66.6666666666667" y2="600"/>
    <line x1="0.0" y1="0" x2="0.0" y2="600"/>
    <line x1="0" y1="600.0" x2="800" y2="600.0"/>
    <line x1="0" y1="500.0" x2="800" y2="500.0"/>
    <line x1="0" y1="400.00000000000006" x2="800" y2="400.00000000000006"/>
    <line x1="0" y1="300.0" x2="800" y2="300.0"/>
    <line x1="0" y1="200.00000000000003" x2="800" y2="200.00000000000003"/>
    <line x1="0" y1="99.99999999999997" x2="800" y2="99.99999999999997"/>
    <line x1="0" y1="0.0" x2="800" y2="0.0"/>
  </g>

  <!-- Constellation elements -->
  <use href="#star" x="789.2069180673934" y="329.4138739533706" transform="scale(0.6593406317012648)" fill="#FFFFFF" opacity="0.9"/>
  <use href="#star" x="775.7814193229696" y="359.9545953303413" transform="scale(1.0)" fill="#FFFFFF" opacity="0.9"/>
  <use href="#star" x="761.8912167821577" y="333.9433025235538" transform="scale(0.6741572600274294)" fill="#FFFFFF" opacity="0.9"/>
  <use href="#star" x="753.3209194907973" y="327.28048110921293" transform="scale(0.652173926564381)" fill="#FFFFFF" opacity="0.9"/>
  <use href="#star" x="742.2039534313" y="353.12020386207615" transform="scale(0.6741572600274294)" fill="#FFFFFF" opacity="0.9"/>
  <use href="#star" x="738.076822909301" y="334.4508423065046" transform="scale(0.6382978334854309)" fill="#FFFFFF" opacity="0.9"/>
  <use href="#star" x="726.1114883165262" y="270.51120021298897" transform="scale(0.5607476735471151)" fill="#FFFFFF" opacity="0.9"/>
  <use href="#star" x="722.5852649681258" y="309.9306075685195" transform="scale(0.5)" fill="#FFFFFF" opacity="0.9"/>
  <use href="#star" x="718.9167839774007" y="340.96845113118286" transform="scale(0.5128205211805771)" fill="#FFFFFF" opacity="0.9"/>
  <use href="#star" x="717.6889084812544" y="271.7998724921007" transform="scale(0.5660377154786554)" fill="#FFFFFF" opacity="0.9"/>
  <use href="#star" x="715.5082142587671" y="350.8179354127198" transform="scale(0.5263157630561145)" fill="#FFFFFF" opacity="0.9"/>
  <use href="#star" x="713.4034374764807" y="281.35648415132863" transform="scale(0.5128205211805771)" fill="#FFFFFF" opacity="0.9"/>
  <use href="#star" x="711.398420830742" y="298.9050089780689" transform="scale(0.5940593835033989)" fill="#FFFFFF" opacity="0.9"/>
  <use href="#star" x="711.3509460623949" y="339.57867114588936" transform="scale(0.5)" fill="#FFFFFF" opacity="0.9"/>
  <use href="#star" x="709.2789361715143" y="289.21581314094607" transform="scale(0.6593406317012648)" fill="#FFFFFF" opacity="0.9"/>
  <use href="#star" x="708.8209605965515" y="346.19595247299753" transform="scale(0.5769230451809602)" fill="#FFFFFF" opacity="0.9"/>
  <use href="#star" x="708.3613149789134" y="266.28667330573876" transform="scale(0.5714285714285714)" fill="#FFFFFF" opacity="0.9"/>
  <use href="#star" x="700.1582637432257" y="270.3090417885257" transform="scale(0.5263157630561145)" fill="#FFFFFF" opacity="0.9"/>
  <use href="#star" x="698.7337431047708" y="286.3691615962001" transform="scale(0.8571428571428571)" fill="#FFFFFF" opacity="0.9"/>
  <line x1="726.1114883165262" y1="270.51120021298897" x2="717.6889084812544" y2="271.7998724921007" stroke="#87CEEB" stroke-width="0.5" opacity="0.8"/>
  <line x1="742.2039534313" y1="353.12020386207615" x2="775.7814193229696" y2="359.9545953303413" stroke="#87CEEB" stroke-width="0.5" opacity="0.8"/>
  <line x1="775.7814193229696" y1="359.9545953303413" x2="789.2069180673934" y2="329.4138739533706" stroke="#87CEEB" stroke-width="0.5" opacity="0.8"/>
  <line x1="775.7814193229696" y1="359.9545953303413" x2="761.8912167821577" y2="333.9433025235538" stroke="#87CEEB" stroke-width="0.5" opacity="0.8"/>
  <line x1="761.8912167821577" y1="333.9433025235538" x2="753.3209194907973" y2="327.28048110921293" stroke="#87CEEB" stroke-width="0.5" opacity="0.8"/>
  <line x1="753.3209194907973" y1="327.28048110921293" x2="738.076822909301" y2="334.4508423065046" stroke="#87CEEB" stroke-width="0.5" opacity="0.8"/>
  <line x1="738.076822909301" y1="334.4508423065046" x2="718.9167839774007" y2="340.96845113118286" stroke="#87CEEB" stroke-width="0.5" opacity="0.8"/>
  <line x1="718.9167839774007" y1="340.96845113118286" x2="711.3509460623949" y2="339.57867114588936" stroke="#87CEEB" stroke-width="0.5" opacity="0.8"/>
  <line x1="711.3509460623949" y1="339.57867114588936" x2="708.8209605965515" y2="346.19595247299753" stroke="#87CEEB" stroke-width="0.5" opacity="0.8"/>
  <line x1="708.8209605965515" y1="346.19595247299753" x2="715.5082142587671" y2="350.8179354127198" stroke="#87CEEB" stroke-width="0.5" opacity="0.8"/>
  <line x1="715.5082142587671" y1="350.8179354127198" x2="742.2039534313" y2="353.12020386207615" stroke="#87CEEB" stroke-width="0.5" opacity="0.8"/>
  <line x1="722.5852649681258" y1="309.9306075685195" x2="711.3509460623949" y2="339.57867114588936" stroke="#87CEEB" stroke-width="0.5" opacity="0.8"/>
  <line x1="722.5852649681258" y1="309.9306075685195" x2="711.398420830742" y2="298.9050089780689" stroke="#87CEEB" stroke-width="0.5" opacity="0.8"/>
  <line x1="711.398420830742" y1="298.9050089780689" x2="709.2789361715143" y2="289.21581314094607" stroke="#87CEEB" stroke-width="0.5" opacity="0.8"/>
  <line x1="709.2789361715143" y1="289.21581314094607" x2="698.7337431047708" y2="286.3691615962001" stroke="#87CEEB" stroke-width="0.5" opacity="0.8"/>
  <line x1="698.7337431047708" y1="286.3691615962001" x2="700.1582637432257" y2="270.3090417885257" stroke="#87CEEB" stroke-width="0.5" opacity="0.8"/>
  <line x1="700.1582637432257" y1="270.3090417885257" x2="708.3613149789134" y2="266.28667330573876" stroke="#87CEEB" stroke-width="0.5" opacity="0.8"/>
  <line x1="708.3613149789134" y1="266.28667330573876" x2="717.6889084812544" y2="271.7998724921007" stroke="#87CEEB" stroke-width="0.5" opacity="0.8"/>
  <line x1="717.6889084812544" y1="271.7998724921007" x2="713.4034374764807" y2="281.35648415132863" stroke="#87CEEB" stroke-width="0.5" opacity="0.8"/>
  <line x1="713.4034374764807" y1="281.35648415132863" x2="709.2789361715143" y2="289.21581314094607" stroke="#87CEEB" stroke-width="0.5" opacity="0.8"/>
  <use href="#bright-star" x="722.5751111111111" y="309.9286666666667" transform="scale(0.8)" fill="#FFD700" opacity="0.95"/>
  <text x="725.5751111111111" y="306.9286666666667" fill="#FFD700" font-size="4.5" font-weight="bold">Mira</text>
  <g transform="translate(1172.8537777777779,437.686) scale(0.5)">
    <line x1="-2" y1="0" x2="2" y2="0" stroke="#4682B4" stroke-width="0.5"/>
    <line x1="0" y1="-2" x2="0" y2="2" stroke="#4682B4" stroke-width="0.5"/>
  </g>
  <text x="1174.8537777777779" y="439.686" fill="#4682B4" font-size="3.5" font-weight="bold" opacity="0.9">ACO3526</text>
  <ellipse cx="709.6111111111111" cy="299.9433333333334" rx="0.2562962962962963" ry="0.335" transform="rotate(72.0000000001 709.6111111111111 299.9433333333334)" fill="none" stroke="#4682B4" stroke-width="0.2" stroke-dasharray="2,1" opacity="0.7"/>
  <text x="711.6111111111111" y="301.9433333333334" fill="#4682B4" font-size="3.5" font-weight="bold" opacity="0.9">M77</text>
  <ellipse cx="710.1366666666667" cy="298.5226666666666" rx="0.2285185185185185" ry="0.16388888888888892" transform="rotate(104.0000000001 710.1366666666667 298.5226666666666)" fill="none" stroke="#4682B4" stroke-width="0.2" stroke-dasharray="2,1" opacity="0.7"/>
  <text x="712.1366666666667" y="300.5226666666666" fill="#4682B4" font-size="3.5" font-weight="bold" opacity="0.9">NGC1055</text>
  <ellipse cx="709.0684444444445" cy="295.41366666666664" rx="0.15444444444444444" ry="0.17555555555555558" transform="rotate(34.0000000001 709.0684444444445 295.41366666666664)" fill="none" stroke="#4682B4" stroke-width="0.2" stroke-dasharray="2,1" opacity="0.7"/>
  <text x="711.0684444444445" y="297.41366666666664" fill="#4682B4" font-size="3.5" font-weight="bold" opacity="0.9">NGC1073</text>
  <text x="775.858" y="341.573" fill="#BA55D3" font-size="3.5" font-weight="bold" opacity="0.9">NGC246</text>
  <ellipse cx="773.8097777777778" cy="369.2013333333333" rx="0.7562962962962965" ry="0.285" transform="rotate(165.0000000001 773.8097777777778 369.2013333333333)" fill="none" stroke="#4682B4" stroke-width="0.2" stroke-dasharray="2,1" opacity="0.7"/>
  <text x="775.8097777777778" y="371.2013333333333" fill="#4682B4" font-size="3.5" font-weight="bold" opacity="0.9">NGC247</text>
  <ellipse cx="724.744" cy="279.99133333333333" rx="0.15074074074074076" ry="0.15666666666666668" transform="rotate(24.0000000001 724.744 279.99133333333333)" fill="none" stroke="#4682B4" stroke-width="0.2" stroke-dasharray="2,1" opacity="0.7"/>
  <text x="726.744" y="281.99133333333333" fill="#4682B4" font-size="3.5" font-weight="bold" opacity="0.9">NGC864</text>
  <path d="M 773.7898888888889,339.54866666666663 L 773.7788222222222,339.57533333333333 L 773.7731111111111,339.60166666666663 L 773.7786,339.6240000000001 L 773.7909555555556,339.64899999999994 L 773.8074888888889,339.64899999999994 L 773.8214666666667,339.6533333333333 L 773.8418,339.6596666666666 L 773.8772222222221,339.648 L 773.9096222222222,339.6296666666667 L 773.9217777777778,339.59066666666666 L 773.9170666666666,339.563 L 773.9166222222221,339.547 L 773.9220666666666,339.5226666666666 L 773.903688888889,339.484 L 773.8757555555555,339.47066666666666 L 773.8482444444444,339.4776666666667 L 773.8268222222223,339.48866666666663 L 773.8061333333334,339.504 L 773.7910222222222,339.52633333333335 L 773.7906666666667,339.5476666666666 Z" fill="#FF0000" fill-opacity="0.1" stroke="#FF0000" stroke-width="0.3" stroke-opacity="0.7"/>
  
  <!-- Title and info -->
  <text x="400.0" y="25" text-anchor="middle" 
        fill="white" font-size="12.0" font-weight="bold">
    Constellation View
  </text>
  
  <text x="10" y="590" fill="white" font-size="5.0">
    RA: 0.0째 to 360.0째 | DE: -90.0째 to 90.0째 | 
    Stars: 19 | DSO: 7 | Vector SVG
  </text>
  
</svg>