<?xml version="1.0" encoding="UTF-8"?>
<svg width="800" height="600" 
     viewBox="0 0 800 600"
     xmlns="http://www.w3.org/2000/svg"
     style="background-color: #000000;">
     
  <!-- Scalable constellation visualization -->
  <defs>
    <!-- Star symbol -->
    <g id="star">
      <polygon points="0,-1 0.3,-0.3 1,0 0.3,0.3 0,1 -0.3,0.3 -1,0 -0.3,-0.3" 
               fill="currentColor" stroke="none"/>
    </g>
    
    <!-- Bright star symbol -->
    <g id="bright-star">
      <polygon points="0,-1.2 0.35,-0.35 1.2,0 0.35,0.35 0,1.2 -0.35,0.35 -1.2,0 -0.35,-0.35" 
               fill="currentColor" stroke="none"/>
    </g>
  </defs>
  
  <!-- Grid lines -->
  <g id="grid" stroke="#333" stroke-width="0.1" opacity="0.3">
    <line x1="800.0" y1="0" x2="800.0" y2="600"/>
    <line x1="733.3333333333333" y1="0" x2="733.3333333333333" y2="600"/>
    <line x1="666.6666666666667" y1="0" x2="666.6666666666667" y2="600"/>
    <line x1="600.0" y1="0" x2="600.0" y2="600"/>
    <line x1="533.3333333333334" y1="0" x2="533.3333333333334" y2="600"/>
    <line x1="466.66666666666663" y1="0" x2="466.66666666666663" y2="600"/>
    <line x1="400.0" y1="0" x2="400.0" y2="600"/>
    <line x1="333.3333333333333" y1="0" x2="333.3333333333333" y2="600"/>
    <line x1="266.6666666666667" y1="0" x2="266.6666666666667" y2="600"/>
    <line x1="200.0" y1="0" x2="200.0" y2="600"/>
    <line x1="133.33333333333331" y1="0" x2="133.33333333333331" y2="600"/>
    <line x1="66.6666666666667" y1="0" x2="66.6666666666667" y2="600"/>
    <line x1="0.0" y1="0" x2="0.0" y2="600"/>
    <line x1="0" y1="600.0" x2="800" y2="600.0"/>
    <line x1="0" y1="500.0" x2="800" y2="500.0"/>
    <line x1="0" y1="400.00000000000006" x2="800" y2="400.00000000000006"/>
    <line x1="0" y1="300.0" x2="800" y2="300.0"/>
    <line x1="0" y1="200.00000000000003" x2="800" y2="200.00000000000003"/>
    <line x1="0" y1="99.99999999999997" x2="800" y2="99.99999999999997"/>
    <line x1="0" y1="0.0" x2="800" y2="0.0"/>
  </g>

  <!-- Constellation elements -->
  <use href="#star" x="512.414263389498" y="280.9875120421363" transform="scale(0.588235305117351)" fill="#FFFFFF" opacity="0.9"/>
  <use href="#star" x="511.8017821288003" y="288.86221023010705" transform="scale(0.5504586866995425)" fill="#FFFFFF" opacity="0.9"/>
  <use href="#star" x="509.3199512737273" y="288.6711543907463" transform="scale(0.5660377154786554)" fill="#FFFFFF" opacity="0.9"/>
  <use href="#star" x="507.35261251033705" y="278.6022692550831" transform="scale(0.5)" fill="#FFFFFF" opacity="0.9"/>
  <use href="#star" x="506.4264933875528" y="280.5412602695605" transform="scale(0.5607476735471151)" fill="#FFFFFF" opacity="0.9"/>
  <use href="#star" x="502.5600489116277" y="280.18180210074553" transform="scale(0.7317073340929389)" fill="#FFFFFF" opacity="0.9"/>
  <use href="#star" x="492.0178263462235" y="292.29221295411844" transform="scale(0.6185567131938484)" fill="#FFFFFF" opacity="0.9"/>
  <use href="#star" x="484.67387752400055" y="328.86123851514145" transform="scale(1.016949136104436)" fill="#FFFFFF" opacity="0.9"/>
  <use href="#star" x="483.805376832077" y="309.2299088506809" transform="scale(0.540540521963978)" fill="#FFFFFF" opacity="0.9"/>
  <use href="#star" x="482.2324313356537" y="303.94900748805367" transform="scale(0.5454545454545454)" fill="#FFFFFF" opacity="0.9"/>
  <use href="#star" x="471.4007043761525" y="349.4892073211128" transform="scale(0.588235305117351)" fill="#FFFFFF" opacity="0.9"/>
  <use href="#star" x="460.7878409133269" y="341.18119006895324" transform="scale(0.652173926564381)" fill="#FFFFFF" opacity="0.9"/>
  <use href="#star" x="452.1741450898299" y="356.1222069776915" transform="scale(0.6249999751647324)" fill="#FFFFFF" opacity="0.9"/>
  <use href="#star" x="439.0961694724275" y="353.9764386708971" transform="scale(0.7317073340929389)" fill="#FFFFFF" opacity="0.9"/>
  <use href="#star" x="415.00240368737485" y="406.19279763935896" transform="scale(0.6666666666666666)" fill="#FFFFFF" opacity="0.9"/>
  <use href="#star" x="403.9405965442383" y="413.02701965052154" transform="scale(0.5357142948374458)" fill="#FFFFFF" opacity="0.9"/>
  <use href="#star" x="361.63669111966925" y="377.06107953825375" transform="scale(0.508474568052218)" fill="#FFFFFF" opacity="0.9"/>
  <use href="#star" x="356.1538502403265" y="377.2387479181332" transform="scale(0.7594936158752237)" fill="#FFFFFF" opacity="0.9"/>
  <line x1="509.3199512737273" y1="288.6711543907463" x2="511.8017821288003" y2="288.86221023010705" stroke="#87CEEB" stroke-width="0.5" opacity="0.8"/>
  <line x1="511.8017821288003" y1="288.86221023010705" x2="512.414263389498" y2="280.9875120421363" stroke="#87CEEB" stroke-width="0.5" opacity="0.8"/>
  <line x1="512.414263389498" y1="280.9875120421363" x2="507.35261251033705" y2="278.6022692550831" stroke="#87CEEB" stroke-width="0.5" opacity="0.8"/>
  <line x1="507.35261251033705" y1="278.6022692550831" x2="506.4264933875528" y2="280.5412602695605" stroke="#87CEEB" stroke-width="0.5" opacity="0.8"/>
  <line x1="506.4264933875528" y1="280.5412602695605" x2="509.3199512737273" y2="288.6711543907463" stroke="#87CEEB" stroke-width="0.5" opacity="0.8"/>
  <line x1="506.4264933875528" y1="280.5412602695605" x2="502.5600489116277" y2="280.18180210074553" stroke="#87CEEB" stroke-width="0.5" opacity="0.8"/>
  <line x1="502.5600489116277" y1="280.18180210074553" x2="492.0178263462235" y2="292.29221295411844" stroke="#87CEEB" stroke-width="0.5" opacity="0.8"/>
  <line x1="492.0178263462235" y1="292.29221295411844" x2="482.2324313356537" y2="303.94900748805367" stroke="#87CEEB" stroke-width="0.5" opacity="0.8"/>
  <line x1="482.2324313356537" y1="303.94900748805367" x2="483.805376832077" y2="309.2299088506809" stroke="#87CEEB" stroke-width="0.5" opacity="0.8"/>
  <line x1="483.805376832077" y1="309.2299088506809" x2="484.67387752400055" y2="328.86123851514145" stroke="#87CEEB" stroke-width="0.5" opacity="0.8"/>
  <line x1="484.67387752400055" y1="328.86123851514145" x2="471.4007043761525" y2="349.4892073211128" stroke="#87CEEB" stroke-width="0.5" opacity="0.8"/>
  <line x1="471.4007043761525" y1="349.4892073211128" x2="460.7878409133269" y2="341.18119006895324" stroke="#87CEEB" stroke-width="0.5" opacity="0.8"/>
  <line x1="460.7878409133269" y1="341.18119006895324" x2="452.1741450898299" y2="356.1222069776915" stroke="#87CEEB" stroke-width="0.5" opacity="0.8"/>
  <line x1="452.1741450898299" y1="356.1222069776915" x2="439.0961694724275" y2="353.9764386708971" stroke="#87CEEB" stroke-width="0.5" opacity="0.8"/>
  <line x1="439.0961694724275" y1="353.9764386708971" x2="415.00240368737485" y2="406.19279763935896" stroke="#87CEEB" stroke-width="0.5" opacity="0.8"/>
  <line x1="415.00240368737485" y1="406.19279763935896" x2="403.9405965442383" y2="413.02701965052154" stroke="#87CEEB" stroke-width="0.5" opacity="0.8"/>
  <line x1="403.9405965442383" y1="413.02701965052154" x2="361.63669111966925" y2="377.06107953825375" stroke="#87CEEB" stroke-width="0.5" opacity="0.8"/>
  <line x1="361.63669111966925" y1="377.06107953825375" x2="356.1538502403265" y2="377.2387479181332" stroke="#87CEEB" stroke-width="0.5" opacity="0.8"/>
  <ellipse cx="446.33733333333333" cy="391.7133333333333" rx="7.666666666666667" ry="11.5" transform="rotate(1e-10 446.33733333333333 391.7133333333333)" fill="none" stroke="#4682B4" stroke-width="0.2" stroke-dasharray="2,1" opacity="0.7"/>
  <text x="448.33733333333333" y="393.7133333333333" fill="#4682B4" font-size="3.5" font-weight="bold" opacity="0.9">ACO1060</text>
  <ellipse cx="525.6666666666666" cy="319.3333333333333" rx="1.6407407407407406" ry="2.4611111111111112" transform="rotate(1e-10 525.6666666666666 319.3333333333333)" fill="none" stroke="#FFA500" stroke-width="0.2" stroke-dasharray="2,1" opacity="0.7"/>
  <text x="527.6666666666666" y="321.3333333333333" fill="#FFA500" font-size="3.5" font-weight="bold" opacity="0.9">M48</text>
  <ellipse cx="378.0555555555556" cy="389.1666666666667" rx="0.4888888888888889" ry="0.7333333333333333" transform="rotate(1e-10 378.0555555555556 389.1666666666667)" fill="none" stroke="#FFA500" stroke-width="0.2" stroke-dasharray="2,1" opacity="0.7"/>
  <text x="380.0555555555556" y="391.1666666666667" fill="#FFA500" font-size="3.5" font-weight="bold" opacity="0.9">M68</text>
  <ellipse cx="346.11111111111114" cy="399.5566666666667" rx="0.5111111111111111" ry="0.7155555555555556" transform="rotate(1e-10 346.11111111111114 399.5566666666667)" fill="none" stroke="#4682B4" stroke-width="0.2" stroke-dasharray="2,1" opacity="0.7"/>
  <text x="348.11111111111114" y="401.5566666666667" fill="#4682B4" font-size="3.5" font-weight="bold" opacity="0.9">M83</text>
  <ellipse cx="464.9362222222223" cy="387.19866666666667" rx="0.6740740740740742" ry="0.1838888888888889" transform="rotate(94.0000000001 464.9362222222223 387.19866666666667)" fill="none" stroke="#4682B4" stroke-width="0.2" stroke-dasharray="2,1" opacity="0.7"/>
  <text x="466.9362222222223" y="389.19866666666667" fill="#4682B4" font-size="3.5" font-weight="bold" opacity="0.9">NGC3109</text>
  <g transform="translate(452.9064444444444,362.1413333333333) scale(0.5)">
    <line x1="-2" y1="0" x2="2" y2="0" stroke="#BA55D3" stroke-width="0.5"/>
    <line x1="0" y1="-2" x2="0" y2="2" stroke="#BA55D3" stroke-width="0.5"/>
  </g>
  <text x="454.9064444444444" y="364.1413333333333" fill="#BA55D3" font-size="3.5" font-weight="bold" opacity="0.9">NGC3242</text>
  <ellipse cx="423.18244444444446" cy="409.3753333333334" rx="0.4059259259259259" ry="0.26611111111111113" transform="rotate(161.0000000001 423.18244444444446 409.3753333333334)" fill="none" stroke="#4682B4" stroke-width="0.2" stroke-dasharray="2,1" opacity="0.7"/>
  <text x="425.18244444444446" y="411.3753333333334" fill="#4682B4" font-size="3.5" font-weight="bold" opacity="0.9">NGC3621</text>
  <ellipse cx="311.3153333333334" cy="388.46633333333335" rx="0.24444444444444444" ry="0.36666666666666664" transform="rotate(1e-10 311.3153333333334 388.46633333333335)" fill="none" stroke="#FFA500" stroke-width="0.2" stroke-dasharray="2,1" opacity="0.7"/>
  <text x="313.3153333333334" y="390.46633333333335" fill="#FFA500" font-size="3.5" font-weight="bold" opacity="0.9">NGC5694</text>
  
  <!-- Title and info -->
  <text x="400.0" y="25" text-anchor="middle" 
        fill="white" font-size="12.0" font-weight="bold">
    Constellation View
  </text>
  
  <text x="10" y="590" fill="white" font-size="5.0">
    RA: 0.0째 to 360.0째 | DE: -90.0째 to 90.0째 | 
    Stars: 18 | DSO: 8 | Vector SVG
  </text>
  
</svg>