<?xml version="1.0" encoding="UTF-8"?>
<svg width="800" height="600" 
     viewBox="0 0 800 600"
     xmlns="http://www.w3.org/2000/svg"
     style="background-color: #000000;">
     
  <!-- Scalable constellation visualization -->
  <defs>
    <!-- Star symbol -->
    <g id="star">
      <polygon points="0,-1 0.3,-0.3 1,0 0.3,0.3 0,1 -0.3,0.3 -1,0 -0.3,-0.3" 
               fill="currentColor" stroke="none"/>
    </g>
    
    <!-- Bright star symbol -->
    <g id="bright-star">
      <polygon points="0,-1.2 0.35,-0.35 1.2,0 0.35,0.35 0,1.2 -0.35,0.35 -1.2,0 -0.35,-0.35" 
               fill="currentColor" stroke="none"/>
    </g>
  </defs>
  
  <!-- Grid lines -->
  <g id="grid" stroke="#333" stroke-width="0.1" opacity="0.3">
  </g>

  <!-- Constellation elements -->
  <use href="#star" x="684.1263076257793" y="106.11677229961407" transform="scale(0.5714285714285714)" fill="#FFFFFF" opacity="0.9"/>
  <use href="#star" x="580.0115954085786" y="181.66483750571493" transform="scale(0.652173926564381)" fill="#FFFFFF" opacity="0.9"/>
  <use href="#star" x="234.554056286031" y="339.66686250731925" transform="scale(0.631578947368421)" fill="#FFFFFF" opacity="0.9"/>
  <use href="#star" x="169.97927364248042" y="408.5517590985347" transform="scale(0.5660377154786554)" fill="#FFFFFF" opacity="0.9"/>
  <use href="#star" x="115.87369237422074" y="352.3269104561439" transform="scale(0.5309734423650312)" fill="#FFFFFF" opacity="0.9"/>
  <line x1="169.97927364248042" y1="408.5517590985347" x2="115.87369237422074" y2="352.3269104561439" stroke="#87CEEB" stroke-width="0.5" opacity="0.8"/>
  <line x1="115.87369237422074" y1="352.3269104561439" x2="234.554056286031" y2="339.66686250731925" stroke="#87CEEB" stroke-width="0.5" opacity="0.8"/>
  <line x1="234.554056286031" y1="339.66686250731925" x2="169.97927364248042" y2="408.5517590985347" stroke="#87CEEB" stroke-width="0.5" opacity="0.8"/>
  <line x1="234.554056286031" y1="339.66686250731925" x2="580.0115954085786" y2="181.66483750571493" stroke="#87CEEB" stroke-width="0.5" opacity="0.8"/>
  <line x1="580.0115954085786" y1="181.66483750571493" x2="684.1263076257793" y2="106.11677229961407" stroke="#87CEEB" stroke-width="0.5" opacity="0.8"/>
  <ellipse cx="292.7357520054815" cy="493.88322770038593" rx="23.91296296296296" ry="30.529999999999998" transform="rotate(170.0000000001 292.7357520054815 493.88322770038593)" fill="none" stroke="#4682B4" stroke-width="0.2" stroke-dasharray="2,1" opacity="0.7"/>
  <text x="294.7357520054815" y="495.88322770038593" fill="#4682B4" font-size="3.5" font-weight="bold" opacity="0.9">LMC</text>
  <ellipse cx="448.76663120891214" cy="424.4170662176126" rx="0.044444444444444446" ry="0.06666666666666667" transform="rotate(1e-10 448.76663120891214 424.4170662176126)" fill="none" stroke="#BA55D3" stroke-width="0.2" stroke-dasharray="2,1" opacity="0.7"/>
  <text x="450.76663120891214" y="426.4170662176126" fill="#BA55D3" font-size="3.5" font-weight="bold" opacity="0.9">NGC1761</text>
  <ellipse cx="277.57483809523836" cy="445.95877099443425" rx="0.06666666666666668" ry="0.1" transform="rotate(1e-10 277.57483809523836 445.95877099443425)" fill="none" stroke="#BA55D3" stroke-width="0.2" stroke-dasharray="2,1" opacity="0.7"/>
  <text x="279.57483809523836" y="447.95877099443425" fill="#BA55D3" font-size="3.5" font-weight="bold" opacity="0.9">NGC1955</text>
  <g transform="translate(241.65399345923007,449.9912083418195) scale(0.5)">
    <line x1="-2" y1="0" x2="2" y2="0" stroke="#BA55D3" stroke-width="0.5"/>
    <line x1="0" y1="-2" x2="0" y2="2" stroke="#BA55D3" stroke-width="0.5"/>
  </g>
  <text x="243.65399345923007" y="451.9912083418195" fill="#BA55D3" font-size="3.5" font-weight="bold" opacity="0.9">NGC2014</text>
  <text x="207.15378036135044" y="481.9585848392304" fill="#BA55D3" font-size="3.5" font-weight="bold" opacity="0.9">NGC2070</text>
  <path d="M 200.9589209500189,480.65471086551605 L 200.09195398367473,480.1602067065997 L 199.79021888873234,479.8949147758506 L 198.22685103121947,479.8333670479169 L 198.59417063604576,479.5022827183423 L 199.5494333559787,479.2794374965129 L 200.5519725424006,479.0608369455757 L 201.82913237974915,479.03536892022385 L 203.180683127602,479.0884273063736 L 203.19644194976493,478.87619376177463 L 201.6177787648587,478.6363698563773 L 201.1804714498382,478.2479824697608 L 201.7732812600249,477.96571185544383 L 202.7285439799578,477.91053113384805 L 204.04533262009858,477.5858138106112 L 203.2006134026904,476.6668425624965 L 204.13293313153355,476.6307628599147 L 204.8084767580753,477.0042938984094 L 205.72619640167895,477.7407442981687 L 206.0928207643511,478.2246367798547 L 206.0107821901502,478.5918008120115 L 207.48121934637913,478.53449775496966 L 208.84157649485218,478.39866828642613 L 210.1718064833082,478.7637099831369 L 210.25060059412272,479.0459805974539 L 209.7004323027301,479.3155171990948 L 207.2216622754608,479.29853851552696 L 206.37787004759164,479.36857558524457 L 208.19592828094324,479.5808091298439 L 210.04689464292906,479.58717613618177 L 211.5120016093087,480.0073985544883 L 212.23180898633726,480.46794534626855 L 211.5303096527037,480.7014022453279 L 210.3147946196983,480.87331141645325 L 209.22395967968725,480.87331141645325 L 208.04784170208873,481.0091408849968 L 207.12780458463752,480.7332372770177 L 206.75654527427056,481.42511863241117 L 205.55331285265677,481.6394745124562 L 204.35100742058188,481.5630704364007 L 204.7725559134391,481.29777850565165 L 205.7878412060222,481.01763022678074 L 205.49792522770173,480.2302437763173 L 205.0487987960593,480.63773218194814 L 204.65297426290886,480.8223753657492 L 203.778591380253,481.2659434739619 L 202.99505347241853,480.98367285964486 L 203.0798730152367,480.6165088274881 L 202.70791846271524,479.9649518455686 L 202.69517235655402,479.62750050965576 L 202.52947297645898,479.54472942726204 L 201.14941730028198,479.86520207960695 L 201.39437428596105,480.3979082765509 Z" fill="#FF0000" fill-opacity="0.1" stroke="#FF0000" stroke-width="0.3" stroke-opacity="0.7"/>
  
  <!-- Title and info -->
  <text x="400.0" y="25" text-anchor="middle" 
        fill="white" font-size="12.0" font-weight="bold">
    Constellation View
  </text>
  
  <text x="10" y="590" fill="white" font-size="5.0">
    RA: 59.0째 to 93.5째 | DE: -74.8째 to -46.5째 | 
    Stars: 5 | DSO: 5 | Vector SVG
  </text>
  
</svg>