<?xml version="1.0" encoding="UTF-8"?>
<svg width="800" height="600" 
     viewBox="0 0 800 600"
     xmlns="http://www.w3.org/2000/svg"
     style="background-color: #000000;">
     
  <!-- Scalable constellation visualization -->
  <defs>
    <!-- Star symbol -->
    <g id="star">
      <polygon points="0,-1 0.3,-0.3 1,0 0.3,0.3 0,1 -0.3,0.3 -1,0 -0.3,-0.3" 
               fill="currentColor" stroke="none"/>
    </g>
    
    <!-- Bright star symbol -->
    <g id="bright-star">
      <polygon points="0,-1.2 0.35,-0.35 1.2,0 0.35,0.35 0,1.2 -0.35,0.35 -1.2,0 -0.35,-0.35" 
               fill="currentColor" stroke="none"/>
    </g>
  </defs>
  
  <!-- Grid lines -->
  <g id="grid" stroke="#333" stroke-width="0.1" opacity="0.3">
    <line x1="800.0" y1="0" x2="800.0" y2="600"/>
    <line x1="733.3333333333333" y1="0" x2="733.3333333333333" y2="600"/>
    <line x1="666.6666666666667" y1="0" x2="666.6666666666667" y2="600"/>
    <line x1="600.0" y1="0" x2="600.0" y2="600"/>
    <line x1="533.3333333333334" y1="0" x2="533.3333333333334" y2="600"/>
    <line x1="466.66666666666663" y1="0" x2="466.66666666666663" y2="600"/>
    <line x1="400.0" y1="0" x2="400.0" y2="600"/>
    <line x1="333.3333333333333" y1="0" x2="333.3333333333333" y2="600"/>
    <line x1="266.6666666666667" y1="0" x2="266.6666666666667" y2="600"/>
    <line x1="200.0" y1="0" x2="200.0" y2="600"/>
    <line x1="133.33333333333331" y1="0" x2="133.33333333333331" y2="600"/>
    <line x1="66.6666666666667" y1="0" x2="66.6666666666667" y2="600"/>
    <line x1="0.0" y1="0" x2="0.0" y2="600"/>
    <line x1="0" y1="600.0" x2="800" y2="600.0"/>
    <line x1="0" y1="500.0" x2="800" y2="500.0"/>
    <line x1="0" y1="400.00000000000006" x2="800" y2="400.00000000000006"/>
    <line x1="0" y1="300.0" x2="800" y2="300.0"/>
    <line x1="0" y1="200.00000000000003" x2="800" y2="200.00000000000003"/>
    <line x1="0" y1="99.99999999999997" x2="800" y2="99.99999999999997"/>
    <line x1="0" y1="0.0" x2="800" y2="0.0"/>
  </g>

  <!-- Constellation elements -->
  <use href="#star" x="407.85615195025116" y="278.2393156651002" transform="scale(0.6)" fill="#FFFFFF" opacity="0.9"/>
  <use href="#star" x="389.6262070402852" y="302.6242952649046" transform="scale(0.5)" fill="#FFFFFF" opacity="0.9"/>
  <use href="#star" x="376.86072719658546" y="304.83126007552426" transform="scale(0.6818181670401711)" fill="#FFFFFF" opacity="0.9"/>
  <use href="#star" x="369.1159286450945" y="288.6753381322812" transform="scale(0.6896551875334813)" fill="#FFFFFF" opacity="0.9"/>
  <use href="#star" x="365.4614128871197" y="263.468522477083" transform="scale(0.7792207985226718)" fill="#FFFFFF" opacity="0.9"/>
  <use href="#star" x="352.6711623649799" y="337.20517579752294" transform="scale(1.5384615008412508)" fill="#FFFFFF" opacity="0.9"/>
  <use href="#star" x="347.39550100341665" y="301.98634365616033" transform="scale(0.6896551875334813)" fill="#FFFFFF" opacity="0.9"/>
  <use href="#star" x="332.41831168335915" y="294.85210330935485" transform="scale(0.5769230451809602)" fill="#FFFFFF" opacity="0.9"/>
  <use href="#star" x="326.1688494502781" y="334.2424369418318" transform="scale(0.5825242610575063)" fill="#FFFFFF" opacity="0.9"/>
  <use href="#star" x="324.436776411909" y="320.0084751546081" transform="scale(0.5940593835033989)" fill="#FFFFFF" opacity="0.9"/>
  <use href="#star" x="309.41004850086654" y="318.86482463411" transform="scale(0.6185567131938484)" fill="#FFFFFF" opacity="0.9"/>
  <use href="#star" x="307.6414310529188" y="293.69087491861234" transform="scale(0.6382978334854309)" fill="#FFFFFF" opacity="0.9"/>
  <line x1="407.85615195025116" y1="278.2393156651002" x2="389.6262070402852" y2="302.6242952649046" stroke="#87CEEB" stroke-width="0.5" opacity="0.8"/>
  <line x1="389.6262070402852" y1="302.6242952649046" x2="376.86072719658546" y2="304.83126007552426" stroke="#87CEEB" stroke-width="0.5" opacity="0.8"/>
  <line x1="376.86072719658546" y1="304.83126007552426" x2="352.6711623649799" y2="337.20517579752294" stroke="#87CEEB" stroke-width="0.5" opacity="0.8"/>
  <line x1="352.6711623649799" y1="337.20517579752294" x2="326.1688494502781" y2="334.2424369418318" stroke="#87CEEB" stroke-width="0.5" opacity="0.8"/>
  <line x1="326.1688494502781" y1="334.2424369418318" x2="324.436776411909" y2="320.0084751546081" stroke="#87CEEB" stroke-width="0.5" opacity="0.8"/>
  <line x1="324.436776411909" y1="320.0084751546081" x2="309.41004850086654" y2="318.86482463411" stroke="#87CEEB" stroke-width="0.5" opacity="0.8"/>
  <line x1="352.6711623649799" y1="337.20517579752294" x2="347.39550100341665" y2="301.98634365616033" stroke="#87CEEB" stroke-width="0.5" opacity="0.8"/>
  <line x1="347.39550100341665" y1="301.98634365616033" x2="332.41831168335915" y2="294.85210330935485" stroke="#87CEEB" stroke-width="0.5" opacity="0.8"/>
  <line x1="332.41831168335915" y1="294.85210330935485" x2="307.6414310529188" y2="293.69087491861234" stroke="#87CEEB" stroke-width="0.5" opacity="0.8"/>
  <line x1="347.39550100341665" y1="301.98634365616033" x2="369.1159286450945" y2="288.6753381322812" stroke="#87CEEB" stroke-width="0.5" opacity="0.8"/>
  <line x1="369.1159286450945" y1="288.6753381322812" x2="365.4614128871197" y2="263.468522477083" stroke="#87CEEB" stroke-width="0.5" opacity="0.8"/>
  <line x1="369.1159286450945" y1="288.6753381322812" x2="376.86072719658546" y2="304.83126007552426" stroke="#87CEEB" stroke-width="0.5" opacity="0.8"/>
  <ellipse cx="377.77777777777777" cy="338.72333333333336" rx="0.3151851851851852" ry="0.2783333333333333" transform="rotate(90.0000000001 377.77777777777777 338.72333333333336)" fill="none" stroke="#4682B4" stroke-width="0.2" stroke-dasharray="2,1" opacity="0.7"/>
  <text x="379.77777777777777" y="340.72333333333336" fill="#4682B4" font-size="3.5" font-weight="bold" opacity="0.9">M104</text>
  <ellipse cx="383.44444444444446" cy="273.33333333333337" rx="0.4059259259259259" ry="0.495" transform="rotate(157.0000000001 383.44444444444446 273.33333333333337)" fill="none" stroke="#4682B4" stroke-width="0.2" stroke-dasharray="2,1" opacity="0.7"/>
  <text x="385.44444444444446" y="275.33333333333337" fill="#4682B4" font-size="3.5" font-weight="bold" opacity="0.9">M49</text>
  <ellipse cx="379.05555555555554" cy="260.61" rx="0.2081481481481481" ry="0.2427777777777778" transform="rotate(88.0000000001 379.05555555555554 260.61)" fill="none" stroke="#4682B4" stroke-width="0.2" stroke-dasharray="2,1" opacity="0.7"/>
  <text x="381.05555555555554" y="262.61" fill="#4682B4" font-size="3.5" font-weight="bold" opacity="0.9">M58</text>
  <ellipse cx="376.6666666666667" cy="261.1666666666667" rx="0.2037037037037037" ry="0.2211111111111111" transform="rotate(164.0000000001 376.6666666666667 261.1666666666667)" fill="none" stroke="#4682B4" stroke-width="0.2" stroke-dasharray="2,1" opacity="0.7"/>
  <text x="378.6666666666667" y="263.1666666666667" fill="#4682B4" font-size="3.5" font-weight="bold" opacity="0.9">M59</text>
  <ellipse cx="375.7222222222222" cy="261.5" rx="0.29407407407407404" ry="0.3672222222222223" transform="rotate(104.0000000001 375.7222222222222 261.5)" fill="none" stroke="#4682B4" stroke-width="0.2" stroke-dasharray="2,1" opacity="0.7"/>
  <text x="377.7222222222222" y="263.5" fill="#4682B4" font-size="3.5" font-weight="bold" opacity="0.9">M60</text>
  <ellipse cx="387.83333333333337" cy="285.10999999999996" rx="0.2285185185185185" ry="0.3055555555555555" transform="rotate(1e-10 387.83333333333337 285.10999999999996)" fill="none" stroke="#4682B4" stroke-width="0.2" stroke-dasharray="2,1" opacity="0.7"/>
  <text x="389.83333333333337" y="287.10999999999996" fill="#4682B4" font-size="3.5" font-weight="bold" opacity="0.9">M61</text>
  <ellipse cx="386.0555555555555" cy="257.05666666666673" rx="0.23925925925925923" ry="0.3194444444444445" transform="rotate(133.0000000001 386.0555555555555 257.05666666666673)" fill="none" stroke="#4682B4" stroke-width="0.2" stroke-dasharray="2,1" opacity="0.7"/>
  <text x="388.0555555555555" y="259.05666666666673" fill="#4682B4" font-size="3.5" font-weight="bold" opacity="0.9">M84</text>
  <ellipse cx="385.4444444444444" cy="256.8333333333333" rx="0.38777777777777783" ry="0.4216666666666667" transform="rotate(127.0000000001 385.4444444444444 256.8333333333333)" fill="none" stroke="#4682B4" stroke-width="0.2" stroke-dasharray="2,1" opacity="0.7"/>
  <text x="387.4444444444444" y="258.8333333333333" fill="#4682B4" font-size="3.5" font-weight="bold" opacity="0.9">M86</text>
  <ellipse cx="382.88888888888886" cy="258.6666666666667" rx="0.3377777777777778" ry="0.44111111111111106" transform="rotate(1e-10 382.88888888888886 258.6666666666667)" fill="none" stroke="#4682B4" stroke-width="0.2" stroke-dasharray="2,1" opacity="0.7"/>
  <text x="384.88888888888886" y="260.6666666666667" fill="#4682B4" font-size="3.5" font-weight="bold" opacity="0.9">M87</text>
  <ellipse cx="380.1666666666667" cy="258.16666666666663" rx="0.2562962962962963" ry="0.35888888888888887" transform="rotate(1e-10 380.1666666666667 258.16666666666663)" fill="none" stroke="#4682B4" stroke-width="0.2" stroke-dasharray="2,1" opacity="0.7"/>
  <text x="382.1666666666667" y="260.16666666666663" fill="#4682B4" font-size="3.5" font-weight="bold" opacity="0.9">M89</text>
  <ellipse cx="379.55555555555554" cy="256.10999999999996" rx="0.3618518518518518" ry="0.2427777777777778" transform="rotate(23.0000000001 379.55555555555554 256.10999999999996)" fill="none" stroke="#4682B4" stroke-width="0.2" stroke-dasharray="2,1" opacity="0.7"/>
  <text x="381.55555555555554" y="258.10999999999996" fill="#4682B4" font-size="3.5" font-weight="bold" opacity="0.9">M90</text>
  <ellipse cx="391.1624444444445" cy="256.1686666666667" rx="0.29407407407407404" ry="0.10333333333333335" transform="rotate(19.0000000001 391.1624444444445 256.1686666666667)" fill="none" stroke="#4682B4" stroke-width="0.2" stroke-dasharray="2,1" opacity="0.7"/>
  <text x="393.1624444444445" y="258.1686666666667" fill="#4682B4" font-size="3.5" font-weight="bold" opacity="0.9">NGC4216</text>
  <ellipse cx="384.56688888888897" cy="256.642" rx="0.33" ry="0.2783333333333333" transform="rotate(1e-10 384.56688888888897 256.642)" fill="none" stroke="#4682B4" stroke-width="0.2" stroke-dasharray="2,1" opacity="0.7"/>
  <text x="386.56688888888897" y="258.642" fill="#4682B4" font-size="3.5" font-weight="bold" opacity="0.9">NGC4438</text>
  <ellipse cx="380.9231111111111" cy="272.674" rx="0.26222222222222225" ry="0.3427777777777778" transform="rotate(1e-10 380.9231111111111 272.674)" fill="none" stroke="#4682B4" stroke-width="0.2" stroke-dasharray="2,1" opacity="0.7"/>
  <text x="382.9231111111111" y="274.674" fill="#4682B4" font-size="3.5" font-weight="bold" opacity="0.9">NGC4535</text>
  <ellipse cx="379.69711111111104" cy="262.47366666666665" rx="0.10666666666666666" ry="0.12444444444444445" transform="rotate(88.0000000001 379.69711111111104 262.47366666666665)" fill="none" stroke="#4682B4" stroke-width="0.2" stroke-dasharray="2,1" opacity="0.7"/>
  <text x="381.69711111111104" y="264.47366666666665" fill="#4682B4" font-size="3.5" font-weight="bold" opacity="0.9">NGC4567</text>
  <ellipse cx="373.00088888888894" cy="319.33599999999996" rx="0.2285185185185185" ry="0.2211111111111111" transform="rotate(86.0000000001 373.00088888888894 319.33599999999996)" fill="none" stroke="#4682B4" stroke-width="0.2" stroke-dasharray="2,1" opacity="0.7"/>
  <text x="375.00088888888894" y="321.33599999999996" fill="#4682B4" font-size="3.5" font-weight="bold" opacity="0.9">NGC4697</text>
  <ellipse cx="322.03066666666666" cy="286.8866666666667" rx="0.24444444444444444" ry="0.18333333333333332" transform="rotate(1e-10 322.03066666666666 286.8866666666667)" fill="none" stroke="#4682B4" stroke-width="0.2" stroke-dasharray="2,1" opacity="0.7"/>
  <text x="324.03066666666666" y="288.8866666666667" fill="#4682B4" font-size="3.5" font-weight="bold" opacity="0.9">NGC5566</text>
  <ellipse cx="316.8651111111111" cy="319.92766666666665" rx="0.3333333333333333" ry="0.5" transform="rotate(1e-10 316.8651111111111 319.92766666666665)" fill="none" stroke="#FFA500" stroke-width="0.2" stroke-dasharray="2,1" opacity="0.7"/>
  <text x="318.8651111111111" y="321.92766666666665" fill="#FFA500" font-size="3.5" font-weight="bold" opacity="0.9">NGC5634</text>
  
  <!-- Title and info -->
  <text x="400.0" y="25" text-anchor="middle" 
        fill="white" font-size="12.0" font-weight="bold">
    Constellation View
  </text>
  
  <text x="10" y="590" fill="white" font-size="5.0">
    RA: 0.0째 to 360.0째 | DE: -90.0째 to 90.0째 | 
    Stars: 12 | DSO: 18 | Vector SVG
  </text>
  
</svg>