<?xml version="1.0" encoding="UTF-8"?>
<svg width="800" height="600" 
     viewBox="0 0 800 600"
     xmlns="http://www.w3.org/2000/svg"
     style="background-color: #000000;">
     
  <!-- Scalable constellation visualization -->
  <defs>
    <!-- Star symbol -->
    <g id="star">
      <polygon points="0,-1 0.3,-0.3 1,0 0.3,0.3 0,1 -0.3,0.3 -1,0 -0.3,-0.3" 
               fill="currentColor" stroke="none"/>
    </g>
    
    <!-- Bright star symbol -->
    <g id="bright-star">
      <polygon points="0,-1.2 0.35,-0.35 1.2,0 0.35,0.35 0,1.2 -0.35,0.35 -1.2,0 -0.35,-0.35" 
               fill="currentColor" stroke="none"/>
    </g>
  </defs>
  
  <!-- Grid lines -->
  <g id="grid" stroke="#333" stroke-width="0.1" opacity="0.3">
  </g>

  <!-- Constellation elements -->
  <use href="#star" x="8212.3670328437" y="201.5685971675284" transform="scale(0.5)" fill="#FFFFFF" opacity="0.9"/>
  <use href="#star" x="8236.521681335598" y="206.63799698057764" transform="scale(0.5)" fill="#FFFFFF" opacity="0.9"/>
  <use href="#star" x="8244.363809597504" y="398.4314028324716" transform="scale(0.6122448860432199)" fill="#FFFFFF" opacity="0.9"/>
  <use href="#star" x="8285.614979676453" y="335.3859575806156" transform="scale(0.5)" fill="#FFFFFF" opacity="0.9"/>
  <line x1="8212.3670328437" y1="201.5685971675284" x2="8236.521681335598" y2="206.63799698057764" stroke="#87CEEB" stroke-width="0.5" opacity="0.8"/>
  <line x1="8236.521681335598" y1="206.63799698057764" x2="8285.614979676453" y2="335.3859575806156" stroke="#87CEEB" stroke-width="0.5" opacity="0.8"/>
  <line x1="8285.614979676453" y1="335.3859575806156" x2="8244.363809597504" y2="398.4314028324716" stroke="#87CEEB" stroke-width="0.5" opacity="0.8"/>
  <line x1="8244.363809597504" y1="398.4314028324716" x2="8212.3670328437" y2="201.5685971675284" stroke="#87CEEB" stroke-width="0.5" opacity="0.8"/>
  
  <!-- Title and info -->
  <text x="400.0" y="25" text-anchor="middle" 
        fill="white" font-size="12.0" font-weight="bold">
    Constellation View
  </text>
  
  <text x="10" y="590" fill="white" font-size="5.0">
    RA: 0.0째 to -34.3째 | DE: 0.2째 to 15.1째 | 
    Stars: 4 | DSO: 0 | Vector SVG
  </text>
  
</svg>