<?xml version="1.0" encoding="UTF-8"?>
<svg width="800" height="600" 
     viewBox="0 0 800 600"
     xmlns="http://www.w3.org/2000/svg"
     style="background-color: #000000;">
     
  <!-- Scalable constellation visualization -->
  <defs>
    <!-- Star symbol -->
    <g id="star">
      <polygon points="0,-1 0.3,-0.3 1,0 0.3,0.3 0,1 -0.3,0.3 -1,0 -0.3,-0.3" 
               fill="currentColor" stroke="none"/>
    </g>
    
    <!-- Bright star symbol -->
    <g id="bright-star">
      <polygon points="0,-1.2 0.35,-0.35 1.2,0 0.35,0.35 0,1.2 -0.35,0.35 -1.2,0 -0.35,-0.35" 
               fill="currentColor" stroke="none"/>
    </g>
  </defs>
  
  <!-- Grid lines -->
  <g id="grid" stroke="#333" stroke-width="0.1" opacity="0.3">
    <line x1="800.0" y1="0" x2="800.0" y2="600"/>
    <line x1="733.3333333333333" y1="0" x2="733.3333333333333" y2="600"/>
    <line x1="666.6666666666667" y1="0" x2="666.6666666666667" y2="600"/>
    <line x1="600.0" y1="0" x2="600.0" y2="600"/>
    <line x1="533.3333333333334" y1="0" x2="533.3333333333334" y2="600"/>
    <line x1="466.66666666666663" y1="0" x2="466.66666666666663" y2="600"/>
    <line x1="400.0" y1="0" x2="400.0" y2="600"/>
    <line x1="333.3333333333333" y1="0" x2="333.3333333333333" y2="600"/>
    <line x1="266.6666666666667" y1="0" x2="266.6666666666667" y2="600"/>
    <line x1="200.0" y1="0" x2="200.0" y2="600"/>
    <line x1="133.33333333333331" y1="0" x2="133.33333333333331" y2="600"/>
    <line x1="66.6666666666667" y1="0" x2="66.6666666666667" y2="600"/>
    <line x1="0.0" y1="0" x2="0.0" y2="600"/>
    <line x1="0" y1="600.0" x2="800" y2="600.0"/>
    <line x1="0" y1="500.0" x2="800" y2="500.0"/>
    <line x1="0" y1="400.00000000000006" x2="800" y2="400.00000000000006"/>
    <line x1="0" y1="300.0" x2="800" y2="300.0"/>
    <line x1="0" y1="200.00000000000003" x2="800" y2="200.00000000000003"/>
    <line x1="0" y1="99.99999999999997" x2="800" y2="99.99999999999997"/>
    <line x1="0" y1="0.0" x2="800" y2="0.0"/>
  </g>

  <!-- Constellation elements -->
  <use href="#star" x="106.84618461207691" y="331.65333014583507" transform="scale(0.631578947368421)" fill="#FFFFFF" opacity="0.9"/>
  <use href="#star" x="82.46712562023033" y="318.57067905112336" transform="scale(0.7692307504206254)" fill="#FFFFFF" opacity="0.9"/>
  <use href="#star" x="63.45309132778869" y="301.06644482020465" transform="scale(0.7594936158752237)" fill="#FFFFFF" opacity="0.9"/>
  <use href="#star" x="63.08981772261042" y="346.23339714646403" transform="scale(0.5714285714285714)" fill="#FFFFFF" opacity="0.9"/>
  <use href="#star" x="57.3126668260378" y="325.9451962109501" transform="scale(0.5825242610575063)" fill="#FFFFFF" opacity="0.9"/>
  <use href="#star" x="54.63410082615461" y="304.62479813834227" transform="scale(0.6185567131938484)" fill="#FFFFFF" opacity="0.9"/>
  <use href="#star" x="50.647049418865905" y="300.0666522857231" transform="scale(0.588235305117351)" fill="#FFFFFF" opacity="0.9"/>
  <use href="#star" x="49.64014975630171" y="335.59030205544013" transform="scale(0.5)" fill="#FFFFFF" opacity="0.9"/>
  <use href="#star" x="47.02336951585995" y="300.39275056370934" transform="scale(0.6)" fill="#FFFFFF" opacity="0.9"/>
  <use href="#star" x="39.115971213616604" y="345.3095323804349" transform="scale(0.5940593835033989)" fill="#FFFFFF" opacity="0.9"/>
  <use href="#star" x="37.43616529224036" y="325.2649101753991" transform="scale(0.6382978334854309)" fill="#FFFFFF" opacity="0.9"/>
  <use href="#star" x="36.30587648772688" y="352.7363687709557" transform="scale(0.7058823529411765)" fill="#FFFFFF" opacity="0.9"/>
  <use href="#star" x="28.084642149821892" y="370.5744039289118" transform="scale(0.6451612770908873)" fill="#FFFFFF" opacity="0.9"/>
  <use href="#star" x="24.499386213339136" y="330.29335789365217" transform="scale(0.5769230451809602)" fill="#FFFFFF" opacity="0.9"/>
  <use href="#star" x="20.573223048375322" y="367.00306943893986" transform="scale(0.6060605710312484)" fill="#FFFFFF" opacity="0.9"/>
  <line x1="82.46712562023033" y1="318.57067905112336" x2="63.45309132778869" y2="301.06644482020465" stroke="#87CEEB" stroke-width="0.5" opacity="0.8"/>
  <line x1="63.45309132778869" y1="301.06644482020465" x2="54.63410082615461" y2="304.62479813834227" stroke="#87CEEB" stroke-width="0.5" opacity="0.8"/>
  <line x1="54.63410082615461" y1="304.62479813834227" x2="50.647049418865905" y2="300.0666522857231" stroke="#87CEEB" stroke-width="0.5" opacity="0.8"/>
  <line x1="50.647049418865905" y1="300.0666522857231" x2="47.02336951585995" y2="300.39275056370934" stroke="#87CEEB" stroke-width="0.5" opacity="0.8"/>
  <line x1="47.02336951585995" y1="300.39275056370934" x2="37.43616529224036" y2="325.2649101753991" stroke="#87CEEB" stroke-width="0.5" opacity="0.8"/>
  <line x1="37.43616529224036" y1="325.2649101753991" x2="24.499386213339136" y2="330.29335789365217" stroke="#87CEEB" stroke-width="0.5" opacity="0.8"/>
  <line x1="24.499386213339136" y1="330.29335789365217" x2="20.573223048375322" y2="367.00306943893986" stroke="#87CEEB" stroke-width="0.5" opacity="0.8"/>
  <line x1="63.45309132778869" y1="301.06644482020465" x2="57.3126668260378" y2="325.9451962109501" stroke="#87CEEB" stroke-width="0.5" opacity="0.8"/>
  <line x1="57.3126668260378" y1="325.9451962109501" x2="63.08981772261042" y2="346.23339714646403" stroke="#87CEEB" stroke-width="0.5" opacity="0.8"/>
  <line x1="57.3126668260378" y1="325.9451962109501" x2="49.64014975630171" y2="335.59030205544013" stroke="#87CEEB" stroke-width="0.5" opacity="0.8"/>
  <line x1="49.64014975630171" y1="335.59030205544013" x2="39.115971213616604" y2="345.3095323804349" stroke="#87CEEB" stroke-width="0.5" opacity="0.8"/>
  <line x1="39.115971213616604" y1="345.3095323804349" x2="36.30587648772688" y2="352.7363687709557" stroke="#87CEEB" stroke-width="0.5" opacity="0.8"/>
  <line x1="36.30587648772688" y1="352.7363687709557" x2="28.084642149821892" y2="370.5744039289118" stroke="#87CEEB" stroke-width="0.5" opacity="0.8"/>
  <line x1="106.84618461207691" y1="331.65333014583507" x2="82.46712562023033" y2="318.57067905112336" stroke="#87CEEB" stroke-width="0.5" opacity="0.8"/>
  <use href="#bright-star" x="100.61111111111103" y="342.10999999999996" transform="scale(0.8)" fill="#FFD700" opacity="0.95"/>
  <text x="103.61111111111103" y="339.10999999999996" fill="#FFD700" font-size="4.5" font-weight="bold">M73</text>
  <ellipse cx="81.38888888888891" cy="302.7233333333333" rx="0.6222222222222223" ry="0.9333333333333335" transform="rotate(1e-10 81.38888888888891 302.7233333333333)" fill="none" stroke="#FFA500" stroke-width="0.2" stroke-dasharray="2,1" opacity="0.7"/>
  <text x="83.38888888888891" y="304.7233333333333" fill="#FFA500" font-size="3.5" font-weight="bold" opacity="0.9">M2</text>
  <ellipse cx="103.61111111111114" cy="341.7766666666667" rx="0.3333333333333333" ry="0.5" transform="rotate(1e-10 103.61111111111114 341.7766666666667)" fill="none" stroke="#FFA500" stroke-width="0.2" stroke-dasharray="2,1" opacity="0.7"/>
  <text x="105.61111111111114" y="343.7766666666667" fill="#FFA500" font-size="3.5" font-weight="bold" opacity="0.9">M72</text>
  <g transform="translate(97.67711111111109,337.878) scale(0.5)">
    <line x1="-2" y1="0" x2="2" y2="0" stroke="#BA55D3" stroke-width="0.5"/>
    <line x1="0" y1="-2" x2="0" y2="2" stroke="#BA55D3" stroke-width="0.5"/>
  </g>
  <text x="99.67711111111109" y="339.878" fill="#BA55D3" font-size="3.5" font-weight="bold" opacity="0.9">NGC7009</text>
  <text x="52.198666666666725" y="371.457" fill="#BA55D3" font-size="3.5" font-weight="bold" opacity="0.9">NGC7293</text>
  <path d="M 49.89342222222221,369.75166666666667 L 49.901422222222266,369.5546666666667 L 49.92911111111109,369.401 L 49.96393333333336,369.3336666666667 L 50.03348888888883,369.23533333333336 L 50.09513333333331,369.18600000000004 L 50.1558444444445,369.15799999999996 L 50.22226666666665,369.11699999999996 L 50.321577777777726,369.0876666666666 L 50.37724444444444,369.1203333333333 L 50.46244444444446,369.14366666666666 L 50.49640000000002,369.20933333333335 L 50.4979333333333,369.3446666666666 L 50.47528888888895,369.3986666666667 L 50.47128888888892,369.55 L 50.43026666666668,369.6210000000001 L 50.29459999999997,369.76633333333336 L 50.22486666666657,369.8256666666667 L 50.15448888888887,369.8366666666667 L 50.023044444444494,369.79733333333337 L 49.89377777777779,369.75533333333334 Z" fill="#FF0000" fill-opacity="0.1" stroke="#FF0000" stroke-width="0.3" stroke-opacity="0.7"/>
  
  <!-- Title and info -->
  <text x="400.0" y="25" text-anchor="middle" 
        fill="white" font-size="12.0" font-weight="bold">
    Constellation View
  </text>
  
  <text x="10" y="590" fill="white" font-size="5.0">
    RA: 0.0째 to 360.0째 | DE: -90.0째 to 90.0째 | 
    Stars: 15 | DSO: 4 | Vector SVG
  </text>
  
</svg>