<?xml version="1.0" encoding="UTF-8"?>
<svg width="800" height="600" 
     viewBox="0 0 800 600"
     xmlns="http://www.w3.org/2000/svg"
     style="background-color: #000000;">
     
  <!-- Scalable constellation visualization -->
  <defs>
    <!-- Star symbol -->
    <g id="star">
      <polygon points="0,-1 0.3,-0.3 1,0 0.3,0.3 0,1 -0.3,0.3 -1,0 -0.3,-0.3" 
               fill="currentColor" stroke="none"/>
    </g>
    
    <!-- Bright star symbol -->
    <g id="bright-star">
      <polygon points="0,-1.2 0.35,-0.35 1.2,0 0.35,0.35 0,1.2 -0.35,0.35 -1.2,0 -0.35,-0.35" 
               fill="currentColor" stroke="none"/>
    </g>
  </defs>
  
  <!-- Grid lines -->
  <g id="grid" stroke="#333" stroke-width="0.1" opacity="0.3">
    <line x1="800.0" y1="0" x2="800.0" y2="600"/>
    <line x1="733.3333333333333" y1="0" x2="733.3333333333333" y2="600"/>
    <line x1="666.6666666666667" y1="0" x2="666.6666666666667" y2="600"/>
    <line x1="600.0" y1="0" x2="600.0" y2="600"/>
    <line x1="533.3333333333334" y1="0" x2="533.3333333333334" y2="600"/>
    <line x1="466.66666666666663" y1="0" x2="466.66666666666663" y2="600"/>
    <line x1="400.0" y1="0" x2="400.0" y2="600"/>
    <line x1="333.3333333333333" y1="0" x2="333.3333333333333" y2="600"/>
    <line x1="266.6666666666667" y1="0" x2="266.6666666666667" y2="600"/>
    <line x1="200.0" y1="0" x2="200.0" y2="600"/>
    <line x1="133.33333333333331" y1="0" x2="133.33333333333331" y2="600"/>
    <line x1="66.6666666666667" y1="0" x2="66.6666666666667" y2="600"/>
    <line x1="0.0" y1="0" x2="0.0" y2="600"/>
    <line x1="0" y1="600.0" x2="800" y2="600.0"/>
    <line x1="0" y1="500.0" x2="800" y2="500.0"/>
    <line x1="0" y1="400.00000000000006" x2="800" y2="400.00000000000006"/>
    <line x1="0" y1="300.0" x2="800" y2="300.0"/>
    <line x1="0" y1="200.00000000000003" x2="800" y2="200.00000000000003"/>
    <line x1="0" y1="99.99999999999997" x2="800" y2="99.99999999999997"/>
    <line x1="0" y1="0.0" x2="800" y2="0.0"/>
  </g>

  <!-- Constellation elements -->
  <use href="#star" x="414.0232599738349" y="480.88049195857513" transform="scale(0.5357142948374458)" fill="#FFFFFF" opacity="0.9"/>
  <use href="#star" x="413.45486187918976" y="510.0669961717681" transform="scale(0.7317073340929389)" fill="#FFFFFF" opacity="0.9"/>
  <use href="#star" x="395.3571400904462" y="469.07496423791656" transform="scale(0.8450703771311597)" fill="#FFFFFF" opacity="0.9"/>
  <use href="#star" x="384.4230636523097" y="467.4358068898758" transform="scale(0.6122448860432199)" fill="#FFFFFF" opacity="0.9"/>
  <use href="#star" x="376.93808617344285" y="463.1982697842509" transform="scale(0.7894736445841717)" fill="#FFFFFF" opacity="0.9"/>
  <use href="#star" x="355.23041821233346" y="422.3742042976167" transform="scale(0.8)" fill="#FFFFFF" opacity="0.9"/>
  <use href="#star" x="349.42025931988843" y="431.35783241844194" transform="scale(0.5357142948374458)" fill="#FFFFFF" opacity="0.9"/>
  <use href="#star" x="344.50731415537666" y="478.2214983264733" transform="scale(0.9230769230769231)" fill="#FFFFFF" opacity="0.9"/>
  <use href="#star" x="339.1646370664816" y="438.9593633167848" transform="scale(0.6818181670401711)" fill="#FFFFFF" opacity="0.9"/>
  <use href="#star" x="339.1025048680139" y="441.57939402223457" transform="scale(0.6741572600274294)" fill="#FFFFFF" opacity="0.9"/>
  <use href="#star" x="335.8126243205289" y="457.6286536644082" transform="scale(0.8450703771311597)" fill="#FFFFFF" opacity="0.9"/>
  <use href="#star" x="334.06777695797086" y="449.3456696696117" transform="scale(0.6185567131938484)" fill="#FFFFFF" opacity="0.9"/>
  <use href="#star" x="331.21043955819164" y="501.2431187013138" transform="scale(1.935483930510365)" fill="#FFFFFF" opacity="0.9"/>
  <use href="#star" x="329.6311523371554" y="421.24245063129325" transform="scale(0.983606495866213)" fill="#FFFFFF" opacity="0.9"/>
  <use href="#star" x="313.60788401952703" y="440.5267237350186" transform="scale(0.9090908565468726)" fill="#FFFFFF" opacity="0.9"/>
  <use href="#star" x="311.397657940004" y="502.71366816093837" transform="scale(2.727272372600507)" fill="#FFFFFF" opacity="0.9"/>
  <use href="#star" x="300.46621982788713" y="440.3477398422739" transform="scale(0.6976743876579468)" fill="#FFFFFF" opacity="0.9"/>
  <line x1="311.397657940004" y1="502.71366816093837" x2="331.21043955819164" y2="501.2431187013138" stroke="#87CEEB" stroke-width="0.5" opacity="0.8"/>
  <line x1="331.21043955819164" y1="501.2431187013138" x2="344.50731415537666" y2="478.2214983264733" stroke="#87CEEB" stroke-width="0.5" opacity="0.8"/>
  <line x1="344.50731415537666" y1="478.2214983264733" x2="335.8126243205289" y2="457.6286536644082" stroke="#87CEEB" stroke-width="0.5" opacity="0.8"/>
  <line x1="335.8126243205289" y1="457.6286536644082" x2="334.06777695797086" y2="449.3456696696117" stroke="#87CEEB" stroke-width="0.5" opacity="0.8"/>
  <line x1="334.06777695797086" y1="449.3456696696117" x2="339.1025048680139" y2="441.57939402223457" stroke="#87CEEB" stroke-width="0.5" opacity="0.8"/>
  <line x1="339.1025048680139" y1="441.57939402223457" x2="339.1646370664816" y2="438.9593633167848" stroke="#87CEEB" stroke-width="0.5" opacity="0.8"/>
  <line x1="339.1646370664816" y1="438.9593633167848" x2="349.42025931988843" y2="431.35783241844194" stroke="#87CEEB" stroke-width="0.5" opacity="0.8"/>
  <line x1="349.42025931988843" y1="431.35783241844194" x2="355.23041821233346" y2="422.3742042976167" stroke="#87CEEB" stroke-width="0.5" opacity="0.8"/>
  <line x1="339.1646370664816" y1="438.9593633167848" x2="329.6311523371554" y2="421.24245063129325" stroke="#87CEEB" stroke-width="0.5" opacity="0.8"/>
  <line x1="339.1025048680139" y1="441.57939402223457" x2="313.60788401952703" y2="440.5267237350186" stroke="#87CEEB" stroke-width="0.5" opacity="0.8"/>
  <line x1="313.60788401952703" y1="440.5267237350186" x2="300.46621982788713" y2="440.3477398422739" stroke="#87CEEB" stroke-width="0.5" opacity="0.8"/>
  <line x1="335.8126243205289" y1="457.6286536644082" x2="376.93808617344285" y2="463.1982697842509" stroke="#87CEEB" stroke-width="0.5" opacity="0.8"/>
  <line x1="376.93808617344285" y1="463.1982697842509" x2="384.4230636523097" y2="467.4358068898758" stroke="#87CEEB" stroke-width="0.5" opacity="0.8"/>
  <line x1="384.4230636523097" y1="467.4358068898758" x2="395.3571400904462" y2="469.07496423791656" stroke="#87CEEB" stroke-width="0.5" opacity="0.8"/>
  <line x1="395.3571400904462" y1="469.07496423791656" x2="414.0232599738349" y2="480.88049195857513" stroke="#87CEEB" stroke-width="0.5" opacity="0.8"/>
  <line x1="414.0232599738349" y1="480.88049195857513" x2="413.45486187918976" y2="510.0669961717681" stroke="#87CEEB" stroke-width="0.5" opacity="0.8"/>
  <use href="#bright-star" x="311.3984444444444" y="502.713" transform="scale(2.727272727272727)" fill="#FFD700" opacity="0.95"/>
  <text x="314.3984444444444" y="499.713" fill="#FFD700" font-size="4.5" font-weight="bold">Alpha_Centauri</text>
  <text x="419.2968888888889" y="511.77000000000004" fill="#BA55D3" font-size="3.5" font-weight="bold" opacity="0.9">GUM39</text>
  <text x="414.0333333333333" y="513.2426666666667" fill="#BA55D3" font-size="3.5" font-weight="bold" opacity="0.9">IC2944</text>
  <ellipse cx="412.7391111111111" cy="505.38533333333334" rx="0.5148148148148147" ry="0.7722222222222223" transform="rotate(1e-10 412.7391111111111 505.38533333333334)" fill="none" stroke="#FFA500" stroke-width="0.2" stroke-dasharray="2,1" opacity="0.7"/>
  <text x="414.7391111111111" y="507.38533333333334" fill="#FFA500" font-size="3.5" font-weight="bold" opacity="0.9">NGC3766</text>
  <g transform="translate(405.3913333333333,490.6083333333333) scale(0.5)">
    <line x1="-2" y1="0" x2="2" y2="0" stroke="#BA55D3" stroke-width="0.5"/>
    <line x1="0" y1="-2" x2="0" y2="2" stroke="#BA55D3" stroke-width="0.5"/>
  </g>
  <text x="407.3913333333333" y="492.6083333333333" fill="#BA55D3" font-size="3.5" font-weight="bold" opacity="0.9">NGC3918</text>
  <ellipse cx="363.6362222222222" cy="464.893" rx="0.7562962962962965" ry="0.2372222222222222" transform="rotate(43.0000000001 363.6362222222222 464.893)" fill="none" stroke="#4682B4" stroke-width="0.2" stroke-dasharray="2,1" opacity="0.7"/>
  <text x="365.6362222222222" y="466.893" fill="#4682B4" font-size="3.5" font-weight="bold" opacity="0.9">NGC4945</text>
  <ellipse cx="352.522" cy="443.39700000000005" rx="0.951851851851852" ry="0.9877777777777779" transform="rotate(33.0000000001 352.522 443.39700000000005)" fill="none" stroke="#4682B4" stroke-width="0.2" stroke-dasharray="2,1" opacity="0.7"/>
  <text x="354.522" y="445.39700000000005" fill="#4682B4" font-size="3.5" font-weight="bold" opacity="0.9">NGC5128</text>
  <ellipse cx="351.78444444444443" cy="458.265" rx="2.0" ry="3.0" transform="rotate(1e-10 351.78444444444443 458.265)" fill="none" stroke="#FFA500" stroke-width="0.2" stroke-dasharray="2,1" opacity="0.7"/>
  <text x="353.78444444444443" y="460.265" fill="#FFA500" font-size="3.5" font-weight="bold" opacity="0.9">NGC5139</text>
  <ellipse cx="340.7866666666667" cy="509.7233333333333" rx="0.20444444444444443" ry="0.30666666666666664" transform="rotate(90.0000000001 340.7866666666667 509.7233333333333)" fill="none" stroke="#FFA500" stroke-width="0.2" stroke-dasharray="2,1" opacity="0.7"/>
  <text x="342.7866666666667" y="511.7233333333333" fill="#FFA500" font-size="3.5" font-weight="bold" opacity="0.9">NGC5281</text>
  <ellipse cx="340.8497777777778" cy="471.2606666666667" rx="0.3333333333333333" ry="0.5" transform="rotate(1e-10 340.8497777777778 471.2606666666667)" fill="none" stroke="#FFA500" stroke-width="0.2" stroke-dasharray="2,1" opacity="0.7"/>
  <text x="342.8497777777778" y="473.2606666666667" fill="#FFA500" font-size="3.5" font-weight="bold" opacity="0.9">NGC5286</text>
  <path d="M 413.22097777777776,509.05199999999996 L 413.41777777777776,509.054 L 413.5958888888889,509.089 L 413.91617777777776,509.186 L 414.14953333333335,509.259 L 414.27942222222214,509.3183333333333 L 414.38857777777775,509.43333333333334 L 414.5047333333333,509.535 L 414.7027333333334,509.75033333333334 L 414.79166666666674,509.88233333333335 L 414.8909333333333,510.0556666666667 L 414.92657777777777,510.1813333333334 L 414.8964888888889,510.3043333333333 L 414.8944222222223,510.55066666666664 L 414.82604444444445,510.7403333333333 L 414.68446666666665,510.91833333333335 L 414.63435555555554,511.09566666666666 L 414.55539999999996,511.1993333333333 L 414.4684,511.284 L 414.4042222222222,511.3676666666667 L 414.3134222222222,511.47499999999997 L 414.2324666666667,511.5466666666667 L 414.16611111111115,511.6143333333333 L 414.0523999999999,511.6846666666667 L 413.9362888888889,511.77733333333333 L 413.7800222222222,511.8976666666666 L 413.60580000000004,511.99 L 413.3974666666667,512.081 L 413.19097777777773,512.1493333333333 L 413.0416222222222,512.2176666666667 L 412.8899555555556,512.27 L 412.69357777777776,512.3656666666666 L 412.5455777777778,512.411 L 412.4039777777778,512.4656666666667 L 412.21546666666666,512.5383333333334 L 412.0341777777778,512.5980000000001 L 411.8663333333334,512.6373333333333 L 411.65693333333337,512.666 L 411.46577777777776,512.6676666666667 L 411.3365333333333,512.6636666666667 L 411.1796444444445,512.6286666666667 L 410.81111111111113,512.5509999999999 L 410.64326666666665,512.4970000000001 L 410.4616666666667,512.408 L 410.31051111111105,512.3116666666667 L 410.18897777777784,512.2236666666666 L 410.0353999999999,512.095 L 409.9780666666667,511.979 L 409.9151777777777,511.8373333333333 L 409.8728888888889,511.7176666666667 L 409.8111333333334,511.59200000000004 L 409.7387111111111,511.4476666666667 L 409.7364444444445,511.33900000000006 L 409.77526666666665,511.21933333333334 L 409.8022888888889,511.09 L 409.8204222222222,510.94866666666667 L 409.9354666666667,510.79733333333326 L 410.0002,510.7086666666667 L 410.11733333333336,510.589 L 410.2762666666667,510.4193333333333 L 410.4107333333333,510.3053333333333 L 410.5209333333333,510.21433333333334 L 410.67451111111114,510.06699999999995 L 410.89631111111106,509.9233333333333 L 411.069,509.804 L 411.28682222222216,509.6823333333333 L 411.4357111111111,509.6176666666667 L 411.6585555555556,509.52099999999996 L 411.90071111111115,509.4066666666667 L 412.0332444444445,509.32966666666664 L 412.2619333333333,509.219 L 412.5041555555555,509.14233333333334 L 412.7578222222223,509.0843333333333 L 412.9629111111111,509.0506666666667 Z" fill="#FF0000" fill-opacity="0.1" stroke="#FF0000" stroke-width="0.3" stroke-opacity="0.7"/>
  <path d="M 416.5814444444444,512.4626666666667 L 416.3672,512.41 L 416.18351111111116,512.4176666666666 L 416.05539999999996,512.5243333333333 L 415.96035555555557,512.6289999999999 L 415.8813333333334,512.759 L 415.93997777777776,512.9026666666667 L 416.06815555555556,513.0103333333333 L 416.3080444444445,513.0923333333333 L 416.4851777777778,513.116 L 416.77482222222227,513.0266666666666 L 416.90031111111114,512.9416666666667 L 416.951711111111,512.817 L 416.9497555555555,512.7003333333333 L 416.927,512.6213333333334 L 416.7674666666667,512.5293333333333 Z" fill="#FF0000" fill-opacity="0.1" stroke="#FF0000" stroke-width="0.3" stroke-opacity="0.7"/>
  <path d="M 418.1920666666667,508.98366666666664 L 418.16108888888886,508.86066666666665 L 418.1117333333333,508.74333333333334 L 417.9976222222223,508.6623333333333 L 417.8738444444445,508.60033333333337 L 417.6852888888889,508.54299999999995 L 417.5151777777778,508.47999999999996 L 417.35851111111106,508.45133333333337 L 417.1564222222223,508.4216666666666 L 416.82866666666666,508.455 L 416.65351111111113,508.51666666666665 L 416.5224,508.611 L 416.397688888889,508.74966666666666 L 416.30395555555555,508.993 L 416.2898,509.0966666666667 L 416.30495555555564,509.22933333333333 L 416.3992888888889,509.44033333333334 L 416.5622222222222,509.50433333333336 L 416.6766444444445,509.54533333333336 L 416.6415777777778,509.6326666666667 L 416.57162222222223,509.7536666666666 L 416.55295555555546,509.8666666666667 L 416.5821555555556,509.9493333333333 L 416.71031111111114,509.9936666666667 L 416.9520666666667,509.93966666666665 L 417.11428888888884,509.8646666666666 L 417.27215555555557,509.884 L 417.44406666666663,509.9916666666667 L 417.64019999999994,510.08366666666666 L 417.82231111111105,510.05600000000004 L 417.9276,509.99800000000005 L 417.87602222222216,509.82733333333334 L 417.73817777777776,509.61366666666663 L 417.6467777777777,509.5176666666666 L 417.6376222222222,509.442 L 417.73711111111106,509.3933333333333 L 417.86871111111117,509.3426666666667 L 418.02808888888893,509.267 L 418.15557777777775,509.1213333333334 Z" fill="#FF0000" fill-opacity="0.1" stroke="#FF0000" stroke-width="0.3" stroke-opacity="0.7"/>
  
  <!-- Title and info -->
  <text x="400.0" y="25" text-anchor="middle" 
        fill="white" font-size="12.0" font-weight="bold">
    Constellation View
  </text>
  
  <text x="10" y="590" fill="white" font-size="5.0">
    RA: 0.0째 to 360.0째 | DE: -90.0째 to 90.0째 | 
    Stars: 17 | DSO: 9 | Vector SVG
  </text>
  
</svg>