<?xml version="1.0" encoding="UTF-8"?>
<svg width="800" height="600" 
     viewBox="0 0 800 600"
     xmlns="http://www.w3.org/2000/svg"
     style="background-color: #000000;">
     
  <!-- Scalable constellation visualization -->
  <defs>
    <!-- Star symbol -->
    <g id="star">
      <polygon points="0,-1 0.3,-0.3 1,0 0.3,0.3 0,1 -0.3,0.3 -1,0 -0.3,-0.3" 
               fill="currentColor" stroke="none"/>
    </g>
    
    <!-- Bright star symbol -->
    <g id="bright-star">
      <polygon points="0,-1.2 0.35,-0.35 1.2,0 0.35,0.35 0,1.2 -0.35,0.35 -1.2,0 -0.35,-0.35" 
               fill="currentColor" stroke="none"/>
    </g>
  </defs>
  
  <!-- Grid lines -->
  <g id="grid" stroke="#333" stroke-width="0.1" opacity="0.3">
  </g>

  <!-- Constellation elements -->
  <use href="#star" x="424.21452917607263" y="405.3185208160945" transform="scale(0.6818181670401711)" fill="#FFFFFF" opacity="0.9"/>
  <use href="#star" x="266.30369708559425" y="194.68147918390542" transform="scale(0.75)" fill="#FFFFFF" opacity="0.9"/>
  <use href="#star" x="191.80979908442578" y="239.0793798074139" transform="scale(0.6)" fill="#FFFFFF" opacity="0.9"/>
  <line x1="191.80979908442578" y1="239.0793798074139" x2="266.30369708559425" y2="194.68147918390542" stroke="#87CEEB" stroke-width="0.5" opacity="0.8"/>
  <line x1="266.30369708559425" y1="194.68147918390542" x2="424.21452917607263" y2="405.3185208160945" stroke="#87CEEB" stroke-width="0.5" opacity="0.8"/>
  <line x1="424.21452917607263" y1="405.3185208160945" x2="191.80979908442578" y2="239.0793798074139" stroke="#87CEEB" stroke-width="0.5" opacity="0.8"/>
  <ellipse cx="608.1902009155742" cy="363.554637984147" rx="2.231851851851852" ry="1.9711111111111108" transform="rotate(22.0000000001 608.1902009155742 363.554637984147)" fill="none" stroke="#4682B4" stroke-width="0.2" stroke-dasharray="2,1" opacity="0.7"/>
  <text x="610.1902009155742" y="365.554637984147" fill="#4682B4" font-size="3.5" font-weight="bold" opacity="0.9">M33</text>
  
  <!-- Title and info -->
  <text x="400.0" y="25" text-anchor="middle" 
        fill="white" font-size="12.0" font-weight="bold">
    Constellation View
  </text>
  
  <text x="10" y="590" fill="white" font-size="5.0">
    RA: 18.5째 to 39.3째 | DE: 24.6째 to 40.0째 | 
    Stars: 3 | DSO: 1 | Vector SVG
  </text>
  
</svg>