<?xml version="1.0" encoding="UTF-8"?>
<svg width="800" height="600" 
     viewBox="0 0 800 600"
     xmlns="http://www.w3.org/2000/svg"
     style="background-color: #000000;">
     
  <!-- Scalable constellation visualization -->
  <defs>
    <!-- Star symbol -->
    <g id="star">
      <polygon points="0,-1 0.3,-0.3 1,0 0.3,0.3 0,1 -0.3,0.3 -1,0 -0.3,-0.3" 
               fill="currentColor" stroke="none"/>
    </g>
    
    <!-- Bright star symbol -->
    <g id="bright-star">
      <polygon points="0,-1.2 0.35,-0.35 1.2,0 0.35,0.35 0,1.2 -0.35,0.35 -1.2,0 -0.35,-0.35" 
               fill="currentColor" stroke="none"/>
    </g>
  </defs>
  
  <!-- Grid lines -->
  <g id="grid" stroke="#333" stroke-width="0.1" opacity="0.3">
  </g>

  <!-- Constellation elements -->
  <use href="#star" x="694.243148445669" y="390.57823966547585" transform="scale(0.821917786744058)" fill="#FFFFFF" opacity="0.9"/>
  <use href="#star" x="665.241253572955" y="217.3033825285765" transform="scale(0.6451612770908873)" fill="#FFFFFF" opacity="0.9"/>
  <use href="#star" x="590.0689024389643" y="109.53305334469874" transform="scale(2.8571429868944707)" fill="#FFFFFF" opacity="0.9"/>
  <use href="#star" x="539.3178822192509" y="490.4669466553013" transform="scale(1.132075430957311)" fill="#FFFFFF" opacity="0.9"/>
  <use href="#star" x="363.57767923900593" y="132.48656339649648" transform="scale(1.034482724601393)" fill="#FFFFFF" opacity="0.9"/>
  <use href="#star" x="362.5448494137605" y="301.9391312044964" transform="scale(0.821917786744058)" fill="#FFFFFF" opacity="0.9"/>
  <line x1="362.5448494137605" y1="301.9391312044964" x2="363.57767923900593" y2="132.48656339649648" stroke="#87CEEB" stroke-width="0.5" opacity="0.8"/>
  <line x1="363.57767923900593" y1="132.48656339649648" x2="590.0689024389643" y2="109.53305334469874" stroke="#87CEEB" stroke-width="0.5" opacity="0.8"/>
  <line x1="590.0689024389643" y1="109.53305334469874" x2="665.241253572955" y2="217.3033825285765" stroke="#87CEEB" stroke-width="0.5" opacity="0.8"/>
  <line x1="665.241253572955" y1="217.3033825285765" x2="694.243148445669" y2="390.57823966547585" stroke="#87CEEB" stroke-width="0.5" opacity="0.8"/>
  <line x1="539.3178822192509" y1="490.4669466553013" x2="694.243148445669" y2="390.57823966547585" stroke="#87CEEB" stroke-width="0.5" opacity="0.8"/>
  <line x1="539.3178822192509" y1="490.4669466553013" x2="362.5448494137605" y2="301.9391312044964" stroke="#87CEEB" stroke-width="0.5" opacity="0.8"/>
  <use href="#bright-star" x="590.0682381103587" y="109.53330277661459" transform="scale(2.857142857142857)" fill="#FFD700" opacity="0.95"/>
  <text x="593.0682381103587" y="106.53330277661459" fill="#FFD700" font-size="4.5" font-weight="bold">Capella</text>
  <text x="590.5559151331317" y="363.9325082598707" fill="#BA55D3" font-size="3.5" font-weight="bold" opacity="0.9">IC405</text>
  <ellipse cx="558.142359763137" cy="385.18856614601714" rx="1.4814814814814812" ry="1.6666666666666667" transform="rotate(1e-10 558.142359763137 385.18856614601714)" fill="none" stroke="#BA55D3" stroke-width="0.2" stroke-dasharray="2,1" opacity="0.7"/>
  <text x="560.142359763137" y="387.18856614601714" fill="#BA55D3" font-size="3.5" font-weight="bold" opacity="0.9">IC410</text>
  <ellipse cx="529.6514639544004" cy="363.1067025917258" rx="0.4814814814814815" ry="0.5555555555555556" transform="rotate(90.0000000001 529.6514639544004 363.1067025917258)" fill="none" stroke="#BA55D3" stroke-width="0.2" stroke-dasharray="2,1" opacity="0.7"/>
  <text x="531.6514639544004" y="365.1067025917258" fill="#BA55D3" font-size="3.5" font-weight="bold" opacity="0.9">IC417</text>
  <ellipse cx="487.45448018422223" cy="369.39389985371145" rx="0.38148148148148153" ry="0.5722222222222223" transform="rotate(1e-10 487.45448018422223 369.39389985371145)" fill="none" stroke="#FFA500" stroke-width="0.2" stroke-dasharray="2,1" opacity="0.7"/>
  <text x="489.45448018422223" y="371.39389985371145" fill="#FFA500" font-size="3.5" font-weight="bold" opacity="0.9">M36</text>
  <ellipse cx="401.26264616744277" cy="404.07206454264326" rx="0.7148148148148148" ry="1.0722222222222222" transform="rotate(1e-10 401.26264616744277 404.07206454264326)" fill="none" stroke="#FFA500" stroke-width="0.2" stroke-dasharray="2,1" opacity="0.7"/>
  <text x="403.26264616744277" y="406.07206454264326" fill="#FFA500" font-size="3.5" font-weight="bold" opacity="0.9">M37</text>
  <ellipse cx="526.5845152593249" cy="332.152661716514" rx="0.7259259259259261" ry="1.088888888888889" transform="rotate(1e-10 526.5845152593249 332.152661716514)" fill="none" stroke="#FFA500" stroke-width="0.2" stroke-dasharray="2,1" opacity="0.7"/>
  <text x="528.5845152593249" y="334.152661716514" fill="#FFA500" font-size="3.5" font-weight="bold" opacity="0.9">M38</text>
  <ellipse cx="512.4130971510444" cy="367.2032387868176" rx="0.14814814814814817" ry="0.2222222222222222" transform="rotate(1e-10 512.4130971510444 367.2032387868176)" fill="none" stroke="#BA55D3" stroke-width="0.2" stroke-dasharray="2,1" opacity="0.7"/>
  <text x="514.4130971510444" y="369.2032387868176" fill="#BA55D3" font-size="3.5" font-weight="bold" opacity="0.9">NGC1931</text>
  <ellipse cx="105.756851554331" cy="217.25248875792494" rx="1.851851851851852" ry="2.7777777777777777" transform="rotate(1e-10 105.756851554331 217.25248875792494)" fill="none" stroke="#FFA500" stroke-width="0.2" stroke-dasharray="2,1" opacity="0.7"/>
  <text x="107.756851554331" y="219.25248875792494" fill="#FFA500" font-size="3.5" font-weight="bold" opacity="0.9">NGC2281</text>
  <path d="M 582.2492110475405,366.3116397325918 L 582.2623248971336,365.35651150742586 L 582.5872099451084,364.69931318735786 L 583.1714107930945,363.97201371314895 L 583.8844234862739,363.185566390134 L 584.6221832827168,362.8482045858323 L 584.8977856378674,362.47360154339344 L 585.1420839649579,362.12528643375737 L 585.6059335158752,361.575430505967 L 586.292506996166,360.87441896456085 L 586.7569910881924,360.32237237570365 L 587.2081498169233,360.1361661850176 L 587.6415413945929,359.6147888510969 L 587.8350764329374,358.90501466542315 L 587.8088487337518,358.4011626200376 L 587.6076992020955,357.70672306183224 L 587.7502594379907,357.2817348148548 L 588.5654332497717,357.10867259057005 L 589.6843407392164,356.4229956766324 L 590.2911735534351,356.035248667792 L 590.9756318966947,355.86875842670815 L 591.6770113362032,356.0396299899258 L 592.3039379522173,356.04620197312653 L 592.9006181086868,355.43500753546306 L 593.611515664835,355.12831498609796 L 594.5051610604689,355.1808908517035 L 594.9303036037173,355.7833226450993 L 595.5420012331076,356.15573502647135 L 596.8142561573064,355.85780512137364 L 597.9735627640447,355.9607661915177 L 598.4266251161035,355.7767506618985 L 599.3591890331096,355.9695288357852 L 600.1572302349385,356.11192180513336 L 601.1020619467251,356.58510459558244 L 602.5511423267224,357.29706944232305 L 603.9020803484775,357.8732133029161 L 605.1402815664754,357.7001510786315 L 606.861791596077,357.91264520212025 L 608.090051670029,358.44059451924164 L 608.4870628907639,359.5885009182942 L 608.058959155672,360.5304851770586 L 607.3668863191004,361.64553166010757 L 606.9053634189172,362.68609566688224 L 606.054020763905,363.6740838080513 L 605.1925254511434,364.39700196012643 L 604.4723212920585,364.78474896896654 L 603.3163989045695,364.95342987111735 L 601.5893895186874,364.47805641960144 L 600.83703527673,364.1385039542329 L 599.427719472917,363.85371801553674 L 598.2159574678071,363.66313050271697 L 597.7480891565311,363.6105546371115 L 596.508195828908,363.6543678584493 L 595.4021906753528,364.0574494947578 L 594.3420839953721,363.7967608277974 L 593.1688174842284,364.40138328226016 L 591.8515101412677,365.2119278770109 L 591.1478040510253,365.86912619707914 L 591.1676863391175,366.26563585018704 L 591.8771032993437,366.50441790647847 L 592.77497896904,366.6380482315589 L 592.3434910146985,367.317153162296 L 591.7480799404477,367.8034799191466 L 591.2235259567383,368.1539856898496 L 590.6253652043467,368.5745926146932 L 589.8326118450955,368.96891160673414 L 589.1071198434327,369.1616897806208 L 588.3012526345886,369.29093878356747 L 586.9008204063063,369.1463551531525 L 585.9160126046323,368.8199466541853 L 585.1224131905686,368.4519155949471 L 584.284395898852,367.98749544876557 L 583.4019607294829,367.4244955545738 L 582.9939507961863,367.0433205289344 Z" fill="#FF0000" fill-opacity="0.1" stroke="#FF0000" stroke-width="0.3" stroke-opacity="0.7"/>
  
  <!-- Title and info -->
  <text x="400.0" y="25" text-anchor="middle" 
        fill="white" font-size="12.0" font-weight="bold">
    Constellation View
  </text>
  
  <text x="10" y="590" fill="white" font-size="5.0">
    RA: 69.2째 to 107.1째 | DE: 23.6째 to 51.0째 | 
    Stars: 6 | DSO: 8 | Vector SVG
  </text>
  
</svg>