<?xml version="1.0" encoding="UTF-8"?>
<svg width="800" height="600" 
     viewBox="0 0 800 600"
     xmlns="http://www.w3.org/2000/svg"
     style="background-color: #000000;">
     
  <!-- Scalable constellation visualization -->
  <defs>
    <!-- Star symbol -->
    <g id="star">
      <polygon points="0,-1 0.3,-0.3 1,0 0.3,0.3 0,1 -0.3,0.3 -1,0 -0.3,-0.3" 
               fill="currentColor" stroke="none"/>
    </g>
    
    <!-- Bright star symbol -->
    <g id="bright-star">
      <polygon points="0,-1.2 0.35,-0.35 1.2,0 0.35,0.35 0,1.2 -0.35,0.35 -1.2,0 -0.35,-0.35" 
               fill="currentColor" stroke="none"/>
    </g>
  </defs>
  
  <!-- Grid lines -->
  <g id="grid" stroke="#333" stroke-width="0.1" opacity="0.3">
    <line x1="800.0" y1="0" x2="800.0" y2="600"/>
    <line x1="733.3333333333333" y1="0" x2="733.3333333333333" y2="600"/>
    <line x1="666.6666666666667" y1="0" x2="666.6666666666667" y2="600"/>
    <line x1="600.0" y1="0" x2="600.0" y2="600"/>
    <line x1="533.3333333333334" y1="0" x2="533.3333333333334" y2="600"/>
    <line x1="466.66666666666663" y1="0" x2="466.66666666666663" y2="600"/>
    <line x1="400.0" y1="0" x2="400.0" y2="600"/>
    <line x1="333.3333333333333" y1="0" x2="333.3333333333333" y2="600"/>
    <line x1="266.6666666666667" y1="0" x2="266.6666666666667" y2="600"/>
    <line x1="200.0" y1="0" x2="200.0" y2="600"/>
    <line x1="133.33333333333331" y1="0" x2="133.33333333333331" y2="600"/>
    <line x1="66.6666666666667" y1="0" x2="66.6666666666667" y2="600"/>
    <line x1="0.0" y1="0" x2="0.0" y2="600"/>
    <line x1="0" y1="600.0" x2="800" y2="600.0"/>
    <line x1="0" y1="500.0" x2="800" y2="500.0"/>
    <line x1="0" y1="400.00000000000006" x2="800" y2="400.00000000000006"/>
    <line x1="0" y1="300.0" x2="800" y2="300.0"/>
    <line x1="0" y1="200.00000000000003" x2="800" y2="200.00000000000003"/>
    <line x1="0" y1="99.99999999999997" x2="800" y2="99.99999999999997"/>
    <line x1="0" y1="0.0" x2="800" y2="0.0"/>
  </g>

  <!-- Constellation elements -->
  <use href="#star" x="415.88806112512503" y="68.8955898899248" transform="scale(0.6249999751647324)" fill="#FFFFFF" opacity="0.9"/>
  <use href="#star" x="381.39891326678895" y="67.37386681299012" transform="scale(0.6185567131938484)" fill="#FFFFFF" opacity="0.9"/>
  <use href="#star" x="330.8958588081716" y="85.41478648506822" transform="scale(0.6451612770908873)" fill="#FFFFFF" opacity="0.9"/>
  <use href="#star" x="286.15067631239697" y="103.44630104785722" transform="scale(0.7058823529411765)" fill="#FFFFFF" opacity="0.9"/>
  <use href="#star" x="265.6288883422797" y="104.77935747760836" transform="scale(0.6)" fill="#FFFFFF" opacity="0.9"/>
  <use href="#star" x="253.33898345202596" y="94.95209515511067" transform="scale(0.8108107481149146)" fill="#FFFFFF" opacity="0.9"/>
  <use href="#star" x="228.45242900559617" y="80.95089749168758" transform="scale(0.7228915496529372)" fill="#FFFFFF" opacity="0.9"/>
  <use href="#star" x="216.4265423440626" y="125.66191616685707" transform="scale(0.8)" fill="#FFFFFF" opacity="0.9"/>
  <use href="#star" x="215.40518526531434" y="116.08896086834788" transform="scale(0.5128205211805771)" fill="#FFFFFF" opacity="0.9"/>
  <use href="#star" x="203.59274966942945" y="110.42276204584094" transform="scale(0.6382978334854309)" fill="#FFFFFF" opacity="0.9"/>
  <use href="#star" x="201.8855791090191" y="128.37067691446828" transform="scale(0.9374999161809757)" fill="#FFFFFF" opacity="0.9"/>
  <use href="#star" x="188.28787709261655" y="57.562713026866085" transform="scale(0.6593406317012648)" fill="#FFFFFF" opacity="0.9"/>
  <use href="#star" x="159.68736373587316" y="74.46027163195498" transform="scale(0.7407407058555365)" fill="#FFFFFF" opacity="0.9"/>
  <use href="#star" x="158.0325309171318" y="55.4787447122506" transform="scale(0.5504586866995425)" fill="#FFFFFF" opacity="0.9"/>
  <use href="#star" x="139.8991709473215" y="65.77117032901678" transform="scale(0.5)" fill="#FFFFFF" opacity="0.9"/>
  <line x1="203.59274966942945" y1="110.42276204584094" x2="201.8855791090191" y2="128.37067691446828" stroke="#87CEEB" stroke-width="0.5" opacity="0.8"/>
  <line x1="201.8855791090191" y1="128.37067691446828" x2="216.4265423440626" y2="125.66191616685707" stroke="#87CEEB" stroke-width="0.5" opacity="0.8"/>
  <line x1="216.4265423440626" y1="125.66191616685707" x2="215.40518526531434" y2="116.08896086834788" stroke="#87CEEB" stroke-width="0.5" opacity="0.8"/>
  <line x1="215.40518526531434" y1="116.08896086834788" x2="203.59274966942945" y2="110.42276204584094" stroke="#87CEEB" stroke-width="0.5" opacity="0.8"/>
  <line x1="203.59274966942945" y1="110.42276204584094" x2="159.68736373587316" y2="74.46027163195498" stroke="#87CEEB" stroke-width="0.5" opacity="0.8"/>
  <line x1="159.68736373587316" y1="74.46027163195498" x2="139.8991709473215" y2="65.77117032901678" stroke="#87CEEB" stroke-width="0.5" opacity="0.8"/>
  <line x1="139.8991709473215" y1="65.77117032901678" x2="158.0325309171318" y2="55.4787447122506" stroke="#87CEEB" stroke-width="0.5" opacity="0.8"/>
  <line x1="158.0325309171318" y1="55.4787447122506" x2="188.28787709261655" y2="57.562713026866085" stroke="#87CEEB" stroke-width="0.5" opacity="0.8"/>
  <line x1="188.28787709261655" y1="57.562713026866085" x2="228.45242900559617" y2="80.95089749168758" stroke="#87CEEB" stroke-width="0.5" opacity="0.8"/>
  <line x1="228.45242900559617" y1="80.95089749168758" x2="253.33898345202596" y2="94.95209515511067" stroke="#87CEEB" stroke-width="0.5" opacity="0.8"/>
  <line x1="253.33898345202596" y1="94.95209515511067" x2="265.6288883422797" y2="104.77935747760836" stroke="#87CEEB" stroke-width="0.5" opacity="0.8"/>
  <line x1="265.6288883422797" y1="104.77935747760836" x2="286.15067631239697" y2="103.44630104785722" stroke="#87CEEB" stroke-width="0.5" opacity="0.8"/>
  <line x1="286.15067631239697" y1="103.44630104785722" x2="330.8958588081716" y2="85.41478648506822" stroke="#87CEEB" stroke-width="0.5" opacity="0.8"/>
  <line x1="330.8958588081716" y1="85.41478648506822" x2="381.39891326678895" y2="67.37386681299012" stroke="#87CEEB" stroke-width="0.5" opacity="0.8"/>
  <line x1="381.39891326678895" y1="67.37386681299012" x2="415.88806112512503" y2="68.8955898899248" stroke="#87CEEB" stroke-width="0.5" opacity="0.8"/>
  <ellipse cx="390.69022222222225" cy="68.46699999999997" rx="0.7737037037037038" ry="0.3427777777777778" transform="rotate(162.0000000001 390.69022222222225 68.46699999999997)" fill="none" stroke="#4682B4" stroke-width="0.2" stroke-dasharray="2,1" opacity="0.7"/>
  <text x="392.69022222222225" y="70.46699999999997" fill="#4682B4" font-size="3.5" font-weight="bold" opacity="0.9">NGC4236</text>
  <ellipse cx="291.1695555555555" cy="112.23700000000001" rx="0.41555555555555557" ry="0.07833333333333334" transform="rotate(156.0000000001 291.1695555555555 112.23700000000001)" fill="none" stroke="#4682B4" stroke-width="0.2" stroke-dasharray="2,1" opacity="0.7"/>
  <text x="293.1695555555555" y="114.23700000000001" fill="#4682B4" font-size="3.5" font-weight="bold" opacity="0.9">NGC5907</text>
  <ellipse cx="278.5206666666667" cy="102.14700000000005" rx="0.06174074074074074" ry="0.06483333333333334" transform="rotate(105.0000000001 278.5206666666667 102.14700000000005)" fill="none" stroke="#4682B4" stroke-width="0.2" stroke-dasharray="2,1" opacity="0.7"/>
  <text x="280.5206666666667" y="104.14700000000005" fill="#4682B4" font-size="3.5" font-weight="bold" opacity="0.9">NGC5982</text>
  <g transform="translate(200.80155555555558,77.88933333333334) scale(0.5)">
    <line x1="-2" y1="0" x2="2" y2="0" stroke="#BA55D3" stroke-width="0.5"/>
    <line x1="0" y1="-2" x2="0" y2="2" stroke="#BA55D3" stroke-width="0.5"/>
  </g>
  <text x="202.80155555555558" y="79.88933333333334" fill="#BA55D3" font-size="3.5" font-weight="bold" opacity="0.9">NGC6543</text>
  
  <!-- Title and info -->
  <text x="400.0" y="25" text-anchor="middle" 
        fill="white" font-size="12.0" font-weight="bold">
    Constellation View
  </text>
  
  <text x="10" y="590" fill="white" font-size="5.0">
    RA: 0.0째 to 360.0째 | DE: -90.0째 to 90.0째 | 
    Stars: 15 | DSO: 4 | Vector SVG
  </text>
  
</svg>