<?xml version="1.0" encoding="UTF-8"?>
<svg width="800" height="600" 
     viewBox="0 0 800 600"
     xmlns="http://www.w3.org/2000/svg"
     style="background-color: #000000;">
     
  <!-- Scalable constellation visualization -->
  <defs>
    <!-- Star symbol -->
    <g id="star">
      <polygon points="0,-1 0.3,-0.3 1,0 0.3,0.3 0,1 -0.3,0.3 -1,0 -0.3,-0.3" 
               fill="currentColor" stroke="none"/>
    </g>
    
    <!-- Bright star symbol -->
    <g id="bright-star">
      <polygon points="0,-1.2 0.35,-0.35 1.2,0 0.35,0.35 0,1.2 -0.35,0.35 -1.2,0 -0.35,-0.35" 
               fill="currentColor" stroke="none"/>
    </g>
  </defs>
  
  <!-- Grid lines -->
  <g id="grid" stroke="#333" stroke-width="0.1" opacity="0.3">
    <line x1="800.0" y1="0" x2="800.0" y2="600"/>
    <line x1="733.3333333333333" y1="0" x2="733.3333333333333" y2="600"/>
    <line x1="666.6666666666667" y1="0" x2="666.6666666666667" y2="600"/>
    <line x1="600.0" y1="0" x2="600.0" y2="600"/>
    <line x1="533.3333333333334" y1="0" x2="533.3333333333334" y2="600"/>
    <line x1="466.66666666666663" y1="0" x2="466.66666666666663" y2="600"/>
    <line x1="400.0" y1="0" x2="400.0" y2="600"/>
    <line x1="333.3333333333333" y1="0" x2="333.3333333333333" y2="600"/>
    <line x1="266.6666666666667" y1="0" x2="266.6666666666667" y2="600"/>
    <line x1="200.0" y1="0" x2="200.0" y2="600"/>
    <line x1="133.33333333333331" y1="0" x2="133.33333333333331" y2="600"/>
    <line x1="66.6666666666667" y1="0" x2="66.6666666666667" y2="600"/>
    <line x1="0.0" y1="0" x2="0.0" y2="600"/>
    <line x1="0" y1="600.0" x2="800" y2="600.0"/>
    <line x1="0" y1="500.0" x2="800" y2="500.0"/>
    <line x1="0" y1="400.00000000000006" x2="800" y2="400.00000000000006"/>
    <line x1="0" y1="300.0" x2="800" y2="300.0"/>
    <line x1="0" y1="200.00000000000003" x2="800" y2="200.00000000000003"/>
    <line x1="0" y1="99.99999999999997" x2="800" y2="99.99999999999997"/>
    <line x1="0" y1="0.0" x2="800" y2="0.0"/>
  </g>

  <!-- Constellation elements -->
  <use href="#star" x="318.78850406073946" y="451.26459772243265" transform="scale(0.508474568052218)" fill="#FFFFFF" opacity="0.9"/>
  <use href="#star" x="312.2855935928661" y="464.7533654163089" transform="scale(0.5940593835033989)" fill="#FFFFFF" opacity="0.9"/>
  <use href="#star" x="310.0397605273705" y="457.9611572527634" transform="scale(0.9090908565468726)" fill="#FFFFFF" opacity="0.9"/>
  <use href="#star" x="300.81618160391656" y="443.78070524123825" transform="scale(0.821917786744058)" fill="#FFFFFF" opacity="0.9"/>
  <use href="#star" x="293.17751407488214" y="473.665793620606" transform="scale(0.6818181670401711)" fill="#FFFFFF" opacity="0.9"/>
  <use href="#star" x="288.1268500043773" y="435.4921701186497" transform="scale(0.7142856656288648)" fill="#FFFFFF" opacity="0.9"/>
  <use href="#star" x="287.8869593845868" y="420.8731349354979" transform="scale(0.6593406317012648)" fill="#FFFFFF" opacity="0.9"/>
  <use href="#star" x="280.4779465220488" y="437.2231610071902" transform="scale(0.7594936158752237)" fill="#FFFFFF" opacity="0.9"/>
  <use href="#star" x="278.86218578565047" y="441.89026405008804" transform="scale(0.5660377154786554)" fill="#FFFFFF" opacity="0.9"/>
  <use href="#star" x="271.68953067137113" y="412.0911854903492" transform="scale(0.6060605710312484)" fill="#FFFFFF" opacity="0.9"/>
  <use href="#star" x="266.59903239791305" y="427.9895913478733" transform="scale(0.6818181670401711)" fill="#FFFFFF" opacity="0.9"/>
  <use href="#star" x="262.6266760972232" y="422.51977609886757" transform="scale(0.5)" fill="#FFFFFF" opacity="0.9"/>
  <line x1="271.68953067137113" y1="412.0911854903492" x2="262.6266760972232" y2="422.51977609886757" stroke="#87CEEB" stroke-width="0.5" opacity="0.8"/>
  <line x1="262.6266760972232" y1="422.51977609886757" x2="266.59903239791305" y2="427.9895913478733" stroke="#87CEEB" stroke-width="0.5" opacity="0.8"/>
  <line x1="266.59903239791305" y1="427.9895913478733" x2="271.68953067137113" y2="412.0911854903492" stroke="#87CEEB" stroke-width="0.5" opacity="0.8"/>
  <line x1="266.59903239791305" y1="427.9895913478733" x2="280.4779465220488" y2="437.2231610071902" stroke="#87CEEB" stroke-width="0.5" opacity="0.8"/>
  <line x1="280.4779465220488" y1="437.2231610071902" x2="288.1268500043773" y2="435.4921701186497" stroke="#87CEEB" stroke-width="0.5" opacity="0.8"/>
  <line x1="288.1268500043773" y1="435.4921701186497" x2="287.8869593845868" y2="420.8731349354979" stroke="#87CEEB" stroke-width="0.5" opacity="0.8"/>
  <line x1="288.1268500043773" y1="435.4921701186497" x2="300.81618160391656" y2="443.78070524123825" stroke="#87CEEB" stroke-width="0.5" opacity="0.8"/>
  <line x1="280.4779465220488" y1="437.2231610071902" x2="278.86218578565047" y2="441.89026405008804" stroke="#87CEEB" stroke-width="0.5" opacity="0.8"/>
  <line x1="278.86218578565047" y1="441.89026405008804" x2="293.17751407488214" y2="473.665793620606" stroke="#87CEEB" stroke-width="0.5" opacity="0.8"/>
  <line x1="293.17751407488214" y1="473.665793620606" x2="310.0397605273705" y2="457.9611572527634" stroke="#87CEEB" stroke-width="0.5" opacity="0.8"/>
  <line x1="293.17751407488214" y1="473.665793620606" x2="312.2855935928661" y2="464.7533654163089" stroke="#87CEEB" stroke-width="0.5" opacity="0.8"/>
  <line x1="310.0397605273705" y1="457.9611572527634" x2="318.78850406073946" y2="451.26459772243265" stroke="#87CEEB" stroke-width="0.5" opacity="0.8"/>
  <line x1="310.0397605273705" y1="457.9611572527634" x2="300.81618160391656" y2="443.78070524123825" stroke="#87CEEB" stroke-width="0.5" opacity="0.8"/>
  <ellipse cx="297.79044444444446" cy="410.2273333333334" rx="0.37925925925925924" ry="0.5688888888888889" transform="rotate(80.0000000001 297.79044444444446 410.2273333333334)" fill="none" stroke="#FFA500" stroke-width="0.2" stroke-dasharray="2,1" opacity="0.7"/>
  <text x="299.79044444444446" y="412.2273333333334" fill="#FFA500" font-size="3.5" font-weight="bold" opacity="0.9">NGC5824</text>
  <ellipse cx="284.4188888888889" cy="468.9136666666667" rx="0.34444444444444444" ry="0.5166666666666667" transform="rotate(1e-10 284.4188888888889 468.9136666666667)" fill="none" stroke="#FFA500" stroke-width="0.2" stroke-dasharray="2,1" opacity="0.7"/>
  <text x="286.4188888888889" y="470.9136666666667" fill="#FFA500" font-size="3.5" font-weight="bold" opacity="0.9">NGC5927</text>
  
  <!-- Title and info -->
  <text x="400.0" y="25" text-anchor="middle" 
        fill="white" font-size="12.0" font-weight="bold">
    Constellation View
  </text>
  
  <text x="10" y="590" fill="white" font-size="5.0">
    RA: 0.0째 to 360.0째 | DE: -90.0째 to 90.0째 | 
    Stars: 12 | DSO: 2 | Vector SVG
  </text>
  
</svg>