<?xml version="1.0" encoding="UTF-8"?>
<svg width="800" height="600" 
     viewBox="0 0 800 600"
     xmlns="http://www.w3.org/2000/svg"
     style="background-color: #000000;">
     
  <!-- Scalable constellation visualization -->
  <defs>
    <!-- Star symbol -->
    <g id="star">
      <polygon points="0,-1 0.3,-0.3 1,0 0.3,0.3 0,1 -0.3,0.3 -1,0 -0.3,-0.3" 
               fill="currentColor" stroke="none"/>
    </g>
    
    <!-- Bright star symbol -->
    <g id="bright-star">
      <polygon points="0,-1.2 0.35,-0.35 1.2,0 0.35,0.35 0,1.2 -0.35,0.35 -1.2,0 -0.35,-0.35" 
               fill="currentColor" stroke="none"/>
    </g>
  </defs>
  
  <!-- Grid lines -->
  <g id="grid" stroke="#333" stroke-width="0.1" opacity="0.3">
  </g>

  <!-- Constellation elements -->
  <use href="#star" x="634.1177999817414" y="342.4839417399996" transform="scale(0.5454545454545454)" fill="#FFFFFF" opacity="0.9"/>
  <use href="#star" x="624.9086794617457" y="302.4898309273691" transform="scale(0.8333333554091282)" fill="#FFFFFF" opacity="0.9"/>
  <use href="#star" x="520.9422652682392" y="232.38055049351055" transform="scale(1.0)" fill="#FFFFFF" opacity="0.9"/>
  <use href="#star" x="165.88220001825863" y="132.06731513773013" transform="scale(0.652173926564381)" fill="#FFFFFF" opacity="0.9"/>
  <line x1="165.88220001825863" y1="132.06731513773013" x2="520.9422652682392" y2="232.38055049351055" stroke="#87CEEB" stroke-width="0.5" opacity="0.8"/>
  <line x1="520.9422652682392" y1="232.38055049351055" x2="624.9086794617457" y2="302.4898309273691" stroke="#87CEEB" stroke-width="0.5" opacity="0.8"/>
  <line x1="624.9086794617457" y1="302.4898309273691" x2="634.1177999817414" y2="342.4839417399996" stroke="#87CEEB" stroke-width="0.5" opacity="0.8"/>
  <g transform="translate(431.22637228800187,467.93268486227) scale(0.5)">
    <line x1="-2" y1="0" x2="2" y2="0" stroke="#4682B4" stroke-width="0.5"/>
    <line x1="0" y1="-2" x2="0" y2="2" stroke="#4682B4" stroke-width="0.5"/>
  </g>
  <text x="433.22637228800187" y="469.93268486227" fill="#4682B4" font-size="3.5" font-weight="bold" opacity="0.9">NGC877_876_871</text>
  
  <!-- Title and info -->
  <text x="400.0" y="25" text-anchor="middle" 
        fill="white" font-size="12.0" font-weight="bold">
    Constellation View
  </text>
  
  <text x="10" y="590" fill="white" font-size="5.0">
    RA: 23.4째 to 47.5째 | DE: 9.5째 to 32.3째 | 
    Stars: 4 | DSO: 1 | Vector SVG
  </text>
  
</svg>