<?xml version="1.0" encoding="UTF-8"?>
<svg width="800" height="600" 
     viewBox="0 0 800 600"
     xmlns="http://www.w3.org/2000/svg"
     style="background-color: #000000;">
     
  <!-- Scalable constellation visualization -->
  <defs>
    <!-- Star symbol -->
    <g id="star">
      <polygon points="0,-1 0.3,-0.3 1,0 0.3,0.3 0,1 -0.3,0.3 -1,0 -0.3,-0.3" 
               fill="currentColor" stroke="none"/>
    </g>
    
    <!-- Bright star symbol -->
    <g id="bright-star">
      <polygon points="0,-1.2 0.35,-0.35 1.2,0 0.35,0.35 0,1.2 -0.35,0.35 -1.2,0 -0.35,-0.35" 
               fill="currentColor" stroke="none"/>
    </g>
  </defs>
  
  <!-- Grid lines -->
  <g id="grid" stroke="#333" stroke-width="0.1" opacity="0.3">
  </g>

  <!-- Constellation elements -->
  <use href="#star" x="606.1496919929543" y="284.55870798219934" transform="scale(0.5769230451809602)" fill="#FFFFFF" opacity="0.9"/>
  <use href="#star" x="496.84145784243583" y="237.49726497979358" transform="scale(0.5607476735471151)" fill="#FFFFFF" opacity="0.9"/>
  <use href="#star" x="1775.5080795752356" y="171.58162250559556" transform="scale(0.7792207985226718)" fill="#FFFFFF" opacity="0.9"/>
  <use href="#star" x="1209.1768694273753" y="122.12509432036083" transform="scale(0.6060605710312484)" fill="#FFFFFF" opacity="0.9"/>
  <ellipse cx="568.4777071900198" cy="460.3157596182579" rx="1.6222222222222222" ry="2.433333333333333" transform="rotate(1e-10 568.4777071900198 460.3157596182579)" fill="none" stroke="#FFA500" stroke-width="0.2" stroke-dasharray="2,1" opacity="0.7"/>
  <text x="570.4777071900198" y="462.3157596182579" fill="#FFA500" font-size="3.5" font-weight="bold" opacity="0.9">NGC104</text>
  <ellipse cx="294.1401482022547" cy="477.8749056796392" rx="5.856037037037036" ry="5.172499999999999" transform="rotate(45.0000000001 294.1401482022547 477.8749056796392)" fill="none" stroke="#4682B4" stroke-width="0.2" stroke-dasharray="2,1" opacity="0.7"/>
  <text x="296.1401482022547" y="479.8749056796392" fill="#4682B4" font-size="3.5" font-weight="bold" opacity="0.9">NGC292</text>
  <ellipse cx="192.22082328178612" cy="430.20948136640243" rx="0.6444444444444444" ry="0.9666666666666667" transform="rotate(1e-10 192.22082328178612 430.20948136640243)" fill="none" stroke="#FFA500" stroke-width="0.2" stroke-dasharray="2,1" opacity="0.7"/>
  <text x="194.22082328178612" y="432.20948136640243" fill="#FFA500" font-size="3.5" font-weight="bold" opacity="0.9">NGC362</text>
  
  <!-- Title and info -->
  <text x="400.0" y="25" text-anchor="middle" 
        fill="white" font-size="12.0" font-weight="bold">
    Constellation View
  </text>
  
  <text x="10" y="590" fill="white" font-size="5.0">
    RA: 0.0째 to 20.8째 | DE: -77.8째 to -53.2째 | 
    Stars: 4 | DSO: 3 | Vector SVG
  </text>
  
</svg>