<?xml version="1.0" encoding="UTF-8"?>
<svg width="800" height="600" 
     viewBox="0 0 800 600"
     xmlns="http://www.w3.org/2000/svg"
     style="background-color: #000000;">
     
  <!-- Scalable constellation visualization -->
  <defs>
    <!-- Star symbol -->
    <g id="star">
      <polygon points="0,-1 0.3,-0.3 1,0 0.3,0.3 0,1 -0.3,0.3 -1,0 -0.3,-0.3" 
               fill="currentColor" stroke="none"/>
    </g>
    
    <!-- Bright star symbol -->
    <g id="bright-star">
      <polygon points="0,-1.2 0.35,-0.35 1.2,0 0.35,0.35 0,1.2 -0.35,0.35 -1.2,0 -0.35,-0.35" 
               fill="currentColor" stroke="none"/>
    </g>
  </defs>
  
  <!-- Grid lines -->
  <g id="grid" stroke="#333" stroke-width="0.1" opacity="0.3">
    <line x1="800.0" y1="0" x2="800.0" y2="600"/>
    <line x1="733.3333333333333" y1="0" x2="733.3333333333333" y2="600"/>
    <line x1="666.6666666666667" y1="0" x2="666.6666666666667" y2="600"/>
    <line x1="600.0" y1="0" x2="600.0" y2="600"/>
    <line x1="533.3333333333334" y1="0" x2="533.3333333333334" y2="600"/>
    <line x1="466.66666666666663" y1="0" x2="466.66666666666663" y2="600"/>
    <line x1="400.0" y1="0" x2="400.0" y2="600"/>
    <line x1="333.3333333333333" y1="0" x2="333.3333333333333" y2="600"/>
    <line x1="266.6666666666667" y1="0" x2="266.6666666666667" y2="600"/>
    <line x1="200.0" y1="0" x2="200.0" y2="600"/>
    <line x1="133.33333333333331" y1="0" x2="133.33333333333331" y2="600"/>
    <line x1="66.6666666666667" y1="0" x2="66.6666666666667" y2="600"/>
    <line x1="0.0" y1="0" x2="0.0" y2="600"/>
    <line x1="0" y1="600.0" x2="800" y2="600.0"/>
    <line x1="0" y1="500.0" x2="800" y2="500.0"/>
    <line x1="0" y1="400.00000000000006" x2="800" y2="400.00000000000006"/>
    <line x1="0" y1="300.0" x2="800" y2="300.0"/>
    <line x1="0" y1="200.00000000000003" x2="800" y2="200.00000000000003"/>
    <line x1="0" y1="99.99999999999997" x2="800" y2="99.99999999999997"/>
    <line x1="0" y1="0.0" x2="800" y2="0.0"/>
  </g>

  <!-- Constellation elements -->
  <use href="#star" x="305.0690102786256" y="353.47403789580284" transform="scale(0.8)" fill="#FFFFFF" opacity="0.9"/>
  <use href="#star" x="297.7398578238207" y="384.2741508626091" transform="scale(0.7058823529411765)" fill="#FFFFFF" opacity="0.9"/>
  <use href="#star" x="290.5527085597361" y="331.27664623518444" transform="scale(0.8333333554091282)" fill="#FFFFFF" opacity="0.9"/>
  <use href="#star" x="280.26253939788387" y="349.29835768079107" transform="scale(0.6122448860432199)" fill="#FFFFFF" opacity="0.9"/>
  <use href="#star" x="270.09527847151844" y="355.7613762407832" transform="scale(0.588235305117351)" fill="#FFFFFF" opacity="0.9"/>
  <line x1="270.09527847151844" y1="355.7613762407832" x2="280.26253939788387" y2="349.29835768079107" stroke="#87CEEB" stroke-width="0.5" opacity="0.8"/>
  <line x1="280.26253939788387" y1="349.29835768079107" x2="290.5527085597361" y2="331.27664623518444" stroke="#87CEEB" stroke-width="0.5" opacity="0.8"/>
  <line x1="290.5527085597361" y1="331.27664623518444" x2="305.0690102786256" y2="353.47403789580284" stroke="#87CEEB" stroke-width="0.5" opacity="0.8"/>
  <line x1="305.0690102786256" y1="353.47403789580284" x2="297.7398578238207" y2="384.2741508626091" stroke="#87CEEB" stroke-width="0.5" opacity="0.8"/>
  <line x1="297.7398578238207" y1="384.2741508626091" x2="280.26253939788387" y2="349.29835768079107" stroke="#87CEEB" stroke-width="0.5" opacity="0.8"/>
  <use href="#bright-star" x="280.25222222222214" y="349.30100000000004" transform="scale(0.8)" fill="#FFD700" opacity="0.95"/>
  <text x="283.25222222222214" y="346.30100000000004" fill="#FFD700" font-size="4.5" font-weight="bold">Gamma_Librae</text>
  <ellipse cx="290.32955555555554" cy="370.03366666666665" rx="0.7333333333333333" ry="1.1" transform="rotate(1e-10 290.32955555555554 370.03366666666665)" fill="none" stroke="#FFA500" stroke-width="0.2" stroke-dasharray="2,1" opacity="0.7"/>
  <text x="292.32955555555554" y="372.03366666666665" fill="#FFA500" font-size="3.5" font-weight="bold" opacity="0.9">NGC5897</text>
  
  <!-- Title and info -->
  <text x="400.0" y="25" text-anchor="middle" 
        fill="white" font-size="12.0" font-weight="bold">
    Constellation View
  </text>
  
  <text x="10" y="590" fill="white" font-size="5.0">
    RA: 0.0째 to 360.0째 | DE: -90.0째 to 90.0째 | 
    Stars: 5 | DSO: 1 | Vector SVG
  </text>
  
</svg>