<?xml version="1.0" encoding="UTF-8"?>
<svg width="800" height="600" 
     viewBox="0 0 800 600"
     xmlns="http://www.w3.org/2000/svg"
     style="background-color: #000000;">
     
  <!-- Scalable constellation visualization -->
  <defs>
    <!-- Star symbol -->
    <g id="star">
      <polygon points="0,-1 0.3,-0.3 1,0 0.3,0.3 0,1 -0.3,0.3 -1,0 -0.3,-0.3" 
               fill="currentColor" stroke="none"/>
    </g>
    
    <!-- Bright star symbol -->
    <g id="bright-star">
      <polygon points="0,-1.2 0.35,-0.35 1.2,0 0.35,0.35 0,1.2 -0.35,0.35 -1.2,0 -0.35,-0.35" 
               fill="currentColor" stroke="none"/>
    </g>
  </defs>
  
  <!-- Grid lines -->
  <g id="grid" stroke="#333" stroke-width="0.1" opacity="0.3">
    <line x1="800.0" y1="0" x2="800.0" y2="600"/>
    <line x1="733.3333333333333" y1="0" x2="733.3333333333333" y2="600"/>
    <line x1="666.6666666666667" y1="0" x2="666.6666666666667" y2="600"/>
    <line x1="600.0" y1="0" x2="600.0" y2="600"/>
    <line x1="533.3333333333334" y1="0" x2="533.3333333333334" y2="600"/>
    <line x1="466.66666666666663" y1="0" x2="466.66666666666663" y2="600"/>
    <line x1="400.0" y1="0" x2="400.0" y2="600"/>
    <line x1="333.3333333333333" y1="0" x2="333.3333333333333" y2="600"/>
    <line x1="266.6666666666667" y1="0" x2="266.6666666666667" y2="600"/>
    <line x1="200.0" y1="0" x2="200.0" y2="600"/>
    <line x1="133.33333333333331" y1="0" x2="133.33333333333331" y2="600"/>
    <line x1="66.6666666666667" y1="0" x2="66.6666666666667" y2="600"/>
    <line x1="0.0" y1="0" x2="0.0" y2="600"/>
    <line x1="0" y1="600.0" x2="800" y2="600.0"/>
    <line x1="0" y1="500.0" x2="800" y2="500.0"/>
    <line x1="0" y1="400.00000000000006" x2="800" y2="400.00000000000006"/>
    <line x1="0" y1="300.0" x2="800" y2="300.0"/>
    <line x1="0" y1="200.00000000000003" x2="800" y2="200.00000000000003"/>
    <line x1="0" y1="99.99999999999997" x2="800" y2="99.99999999999997"/>
    <line x1="0" y1="0.0" x2="800" y2="0.0"/>
  </g>

  <!-- Constellation elements -->
  <use href="#star" x="179.47671279174563" y="170.71390865604315" transform="scale(3.0)" fill="#FFFFFF" opacity="0.9"/>
  <use href="#star" x="175.12605588446348" y="174.64897679352774" transform="scale(0.5660377154786554)" fill="#FFFFFF" opacity="0.9"/>
  <use href="#star" x="172.17779770901976" y="188.79117801162704" transform="scale(0.6666666666666666)" fill="#FFFFFF" opacity="0.9"/>
  <use href="#star" x="169.71973991691448" y="177.00464065275023" transform="scale(0.5769230451809602)" fill="#FFFFFF" opacity="0.9"/>
  <use href="#star" x="167.25356061318584" y="191.0348016542588" transform="scale(0.7058823529411765)" fill="#FFFFFF" opacity="0.9"/>
  <line x1="179.47671279174563" y1="170.71390865604315" x2="175.12605588446348" y2="174.64897679352774" stroke="#87CEEB" stroke-width="0.5" opacity="0.8"/>
  <line x1="175.12605588446348" y1="174.64897679352774" x2="172.17779770901976" y2="188.79117801162704" stroke="#87CEEB" stroke-width="0.5" opacity="0.8"/>
  <line x1="172.17779770901976" y1="188.79117801162704" x2="167.25356061318584" y2="191.0348016542588" stroke="#87CEEB" stroke-width="0.5" opacity="0.8"/>
  <line x1="167.25356061318584" y1="191.0348016542588" x2="169.71973991691448" y2="177.00464065275023" stroke="#87CEEB" stroke-width="0.5" opacity="0.8"/>
  <line x1="169.71973991691448" y1="177.00464065275023" x2="175.12605588446348" y2="174.64897679352774" stroke="#87CEEB" stroke-width="0.5" opacity="0.8"/>
  <use href="#bright-star" x="175.36755555555547" y="167.76333333333332" transform="scale(0.8)" fill="#FFD700" opacity="0.95"/>
  <text x="178.36755555555547" y="164.76333333333332" fill="#FFD700" font-size="4.5" font-weight="bold">Epsilon_Lyrae</text>
  <use href="#bright-star" x="179.4766666666667" y="170.71366666666668" transform="scale(3.0)" fill="#FFD700" opacity="0.95"/>
  <text x="182.4766666666667" y="167.71366666666668" fill="#FFD700" font-size="4.5" font-weight="bold">Vega</text>
  <ellipse cx="157.44444444444446" cy="199.39000000000001" rx="0.37777777777777777" ry="0.5666666666666665" transform="rotate(1e-10 157.44444444444446 199.39000000000001)" fill="none" stroke="#FFA500" stroke-width="0.2" stroke-dasharray="2,1" opacity="0.7"/>
  <text x="159.44444444444446" y="201.39000000000001" fill="#FFA500" font-size="3.5" font-weight="bold" opacity="0.9">M56</text>
  <ellipse cx="170.22222222222229" cy="189.89000000000001" rx="0.0427037037037037" ry="0.06405555555555555" transform="rotate(90.0000000001 170.22222222222229 189.89000000000001)" fill="none" stroke="#BA55D3" stroke-width="0.2" stroke-dasharray="2,1" opacity="0.7"/>
  <text x="172.22222222222229" y="191.89000000000001" fill="#BA55D3" font-size="3.5" font-weight="bold" opacity="0.9">M57</text>
  <ellipse cx="155.05288888888887" cy="174.1033333333333" rx="0.3037037037037037" ry="0.45555555555555555" transform="rotate(1e-10 155.05288888888887 174.1033333333333)" fill="none" stroke="#FFA500" stroke-width="0.2" stroke-dasharray="2,1" opacity="0.7"/>
  <text x="157.05288888888887" y="176.1033333333333" fill="#FFA500" font-size="3.5" font-weight="bold" opacity="0.9">NGC6791</text>
  
  <!-- Title and info -->
  <text x="400.0" y="25" text-anchor="middle" 
        fill="white" font-size="12.0" font-weight="bold">
    Constellation View
  </text>
  
  <text x="10" y="590" fill="white" font-size="5.0">
    RA: 0.0째 to 360.0째 | DE: -90.0째 to 90.0째 | 
    Stars: 5 | DSO: 3 | Vector SVG
  </text>
  
</svg>