<?xml version="1.0" encoding="UTF-8"?>
<svg width="800" height="600" 
     viewBox="0 0 800 600"
     xmlns="http://www.w3.org/2000/svg"
     style="background-color: #000000;">
     
  <!-- Scalable constellation visualization -->
  <defs>
    <!-- Star symbol -->
    <g id="star">
      <polygon points="0,-1 0.3,-0.3 1,0 0.3,0.3 0,1 -0.3,0.3 -1,0 -0.3,-0.3" 
               fill="currentColor" stroke="none"/>
    </g>
    
    <!-- Bright star symbol -->
    <g id="bright-star">
      <polygon points="0,-1.2 0.35,-0.35 1.2,0 0.35,0.35 0,1.2 -0.35,0.35 -1.2,0 -0.35,-0.35" 
               fill="currentColor" stroke="none"/>
    </g>
  </defs>
  
  <!-- Grid lines -->
  <g id="grid" stroke="#333" stroke-width="0.1" opacity="0.3">
    <line x1="800.0" y1="0" x2="800.0" y2="600"/>
    <line x1="733.3333333333333" y1="0" x2="733.3333333333333" y2="600"/>
    <line x1="666.6666666666667" y1="0" x2="666.6666666666667" y2="600"/>
    <line x1="600.0" y1="0" x2="600.0" y2="600"/>
    <line x1="533.3333333333334" y1="0" x2="533.3333333333334" y2="600"/>
    <line x1="466.66666666666663" y1="0" x2="466.66666666666663" y2="600"/>
    <line x1="400.0" y1="0" x2="400.0" y2="600"/>
    <line x1="333.3333333333333" y1="0" x2="333.3333333333333" y2="600"/>
    <line x1="266.6666666666667" y1="0" x2="266.6666666666667" y2="600"/>
    <line x1="200.0" y1="0" x2="200.0" y2="600"/>
    <line x1="133.33333333333331" y1="0" x2="133.33333333333331" y2="600"/>
    <line x1="66.6666666666667" y1="0" x2="66.6666666666667" y2="600"/>
    <line x1="0.0" y1="0" x2="0.0" y2="600"/>
    <line x1="0" y1="600.0" x2="800" y2="600.0"/>
    <line x1="0" y1="500.0" x2="800" y2="500.0"/>
    <line x1="0" y1="400.00000000000006" x2="800" y2="400.00000000000006"/>
    <line x1="0" y1="300.0" x2="800" y2="300.0"/>
    <line x1="0" y1="200.00000000000003" x2="800" y2="200.00000000000003"/>
    <line x1="0" y1="99.99999999999997" x2="800" y2="99.99999999999997"/>
    <line x1="0" y1="0.0" x2="800" y2="0.0"/>
  </g>

  <!-- Constellation elements -->
  <use href="#star" x="150.72093285824852" y="217.78649764631558" transform="scale(0.5555555457440916)" fill="#FFFFFF" opacity="0.9"/>
  <use href="#star" x="132.72085236027502" y="207.48783131902672" transform="scale(0.5309734423650312)" fill="#FFFFFF" opacity="0.9"/>
  <line x1="150.72093285824852" y1="217.78649764631558" x2="132.72085236027502" y2="207.48783131902672" stroke="#87CEEB" stroke-width="0.5" opacity="0.8"/>
  <use href="#bright-star" x="152.55555555555551" y="232.7223333333333" transform="scale(0.8)" fill="#FFD700" opacity="0.95"/>
  <text x="155.55555555555551" y="229.7223333333333" fill="#FFD700" font-size="4.5" font-weight="bold">COLLINDER399</text>
  <text x="135.55555555555566" y="226.27666666666667" fill="#BA55D3" font-size="3.5" font-weight="bold" opacity="0.9">M27</text>
  <text x="144.69355555555558" y="224.33333333333331" fill="#BA55D3" font-size="3.5" font-weight="bold" opacity="0.9">NGC6823</text>
  <path d="M 133.4109333333333,224.37499999999997 L 133.42075555555556,224.25900000000001 L 133.44808888888898,224.16933333333336 L 133.4965555555555,224.11099999999996 L 133.57282222222224,224.097 L 133.65,224.12633333333335 L 133.70302222222224,224.1523333333333 L 133.69973333333326,224.21366666666665 L 133.67284444444448,224.295 L 133.6421111111112,224.36433333333338 L 133.60562222222222,224.409 L 133.5490222222222,224.438 L 133.45406666666665,224.42566666666664 L 133.4109333333333,224.37566666666672 Z" fill="#FF0000" fill-opacity="0.1" stroke="#FF0000" stroke-width="0.3" stroke-opacity="0.7"/>
  <path d="M 142.58624444444445,222.3816666666667 L 142.59560000000002,222.33266666666665 L 142.60184444444448,222.284 L 142.59017777777768,222.25066666666672 L 142.5716888888889,222.2096666666667 L 142.58135555555552,222.16500000000002 L 142.61686666666674,222.13 L 142.65128888888893,222.12566666666663 L 142.70531111111114,222.08433333333335 L 142.71895555555557,222.0043333333333 L 142.7334666666666,221.93733333333333 L 142.72720000000004,221.89033333333333 L 142.65864444444443,221.8556666666667 L 142.6316,221.82866666666666 L 142.59575555555557,221.8113333333333 L 142.54708888888885,221.79133333333337 L 142.51748888888898,221.77366666666666 L 142.4730888888889,221.7703333333333 L 142.43553333333327,221.77499999999998 L 142.40137777777778,221.78366666666665 L 142.38371111111113,221.75566666666666 L 142.35304444444444,221.816 L 142.3516666666666,221.84233333333336 L 142.36255555555556,221.91033333333334 L 142.3668888888888,221.97500000000002 L 142.33675555555553,221.99599999999998 L 142.30228888888882,221.9526666666667 L 142.2496,221.92033333333333 L 142.2319999999999,221.94 L 142.1919777777777,222.00166666666667 L 142.18577777777784,222.04999999999998 L 142.1651111111112,222.11800000000005 L 142.17286666666675,222.18633333333335 L 142.17351111111105,222.24266666666665 L 142.1579333333333,222.29266666666666 L 142.14148888888883,222.32933333333335 L 142.14693333333335,222.36333333333332 L 142.1868,222.44099999999995 L 142.19224444444444,222.47500000000005 L 142.19286666666662,222.53133333333335 L 142.19802222222216,222.561 L 142.23588888888887,222.65600000000003 L 142.27540000000002,222.7293333333333 L 142.29075555555556,222.77066666666664 L 142.32966666666672,222.78733333333335 L 142.36435555555556,222.88299999999998 L 142.38311111111113,222.92833333333334 L 142.4328222222222,223.00933333333336 L 142.4966666666666,223.02300000000002 L 142.55031111111114,223.02499999999998 L 142.62551111111117,223.02 L 142.6658,223.01066666666668 L 142.7404444444445,222.997 L 142.79835555555556,222.96800000000002 L 142.84322222222218,222.932 L 142.89355555555554,222.83466666666666 L 142.89622222222215,222.73 L 142.88293333333337,222.671 L 142.8772888888889,222.63266666666667 L 142.85377777777776,222.56166666666667 L 142.8359111111111,222.52933333333334 L 142.79135555555547,222.47399999999996 L 142.7635333333333,222.43399999999997 L 142.7524666666667,222.40933333333334 L 142.7024444444444,222.4153333333333 L 142.64048888888885,222.43200000000002 L 142.6052666666667,222.42333333333337 Z" fill="#FF0000" fill-opacity="0.1" stroke="#FF0000" stroke-width="0.3" stroke-opacity="0.7"/>
  
  <!-- Title and info -->
  <text x="400.0" y="25" text-anchor="middle" 
        fill="white" font-size="12.0" font-weight="bold">
    Constellation View
  </text>
  
  <text x="10" y="590" fill="white" font-size="5.0">
    RA: 0.0째 to 360.0째 | DE: -90.0째 to 90.0째 | 
    Stars: 2 | DSO: 2 | Vector SVG
  </text>
  
</svg>