<?xml version="1.0" encoding="UTF-8"?>
<svg width="800" height="600" 
     viewBox="0 0 800 600"
     xmlns="http://www.w3.org/2000/svg"
     style="background-color: #000000;">
     
  <!-- Scalable constellation visualization -->
  <defs>
    <!-- Star symbol -->
    <g id="star">
      <polygon points="0,-1 0.3,-0.3 1,0 0.3,0.3 0,1 -0.3,0.3 -1,0 -0.3,-0.3" 
               fill="currentColor" stroke="none"/>
    </g>
    
    <!-- Bright star symbol -->
    <g id="bright-star">
      <polygon points="0,-1.2 0.35,-0.35 1.2,0 0.35,0.35 0,1.2 -0.35,0.35 -1.2,0 -0.35,-0.35" 
               fill="currentColor" stroke="none"/>
    </g>
  </defs>
  
  <!-- Grid lines -->
  <g id="grid" stroke="#333" stroke-width="0.1" opacity="0.3">
  </g>

  <!-- Constellation elements -->
  <use href="#star" x="641.1014526883986" y="410.09862310422494" transform="scale(0.7228915496529372)" fill="#FFFFFF" opacity="0.9"/>
  <use href="#star" x="586.7788949443593" y="132.27152704154437" transform="scale(0.5504586866995425)" fill="#FFFFFF" opacity="0.9"/>
  <use href="#star" x="581.7469900803553" y="246.98162405125885" transform="scale(0.7058823529411765)" fill="#FFFFFF" opacity="0.9"/>
  <use href="#star" x="579.3756423690425" y="160.6121999042043" transform="scale(0.5)" fill="#FFFFFF" opacity="0.9"/>
  <use href="#star" x="528.9701358236757" y="166.85886267156744" transform="scale(0.5714285714285714)" fill="#FFFFFF" opacity="0.9"/>
  <use href="#star" x="525.7281666542523" y="144.07525455552573" transform="scale(0.5)" fill="#FFFFFF" opacity="0.9"/>
  <use href="#star" x="460.0863323221748" y="367.4619729992092" transform="scale(0.7894736445841717)" fill="#FFFFFF" opacity="0.9"/>
  <use href="#star" x="424.4547119678924" y="289.75148016542846" transform="scale(0.8450703771311597)" fill="#FFFFFF" opacity="0.9"/>
  <use href="#star" x="331.27055171256205" y="412.1753649716725" transform="scale(0.6593406317012648)" fill="#FFFFFF" opacity="0.9"/>
  <use href="#star" x="311.4372790236527" y="210.37986462284613" transform="scale(0.6593406317012648)" fill="#FFFFFF" opacity="0.9"/>
  <use href="#star" x="276.6789028040372" y="370.73196421922177" transform="scale(0.631578947368421)" fill="#FFFFFF" opacity="0.9"/>
  <use href="#star" x="236.3705641199017" y="193.0569243191113" transform="scale(0.6382978334854309)" fill="#FFFFFF" opacity="0.9"/>
  <use href="#star" x="158.8985473116014" y="213.37484365290817" transform="scale(0.5309734423650312)" fill="#FFFFFF" opacity="0.9"/>
  <line x1="158.8985473116014" y1="213.37484365290817" x2="236.3705641199017" y2="193.0569243191113" stroke="#87CEEB" stroke-width="0.5" opacity="0.8"/>
  <line x1="236.3705641199017" y1="193.0569243191113" x2="311.4372790236527" y2="210.37986462284613" stroke="#87CEEB" stroke-width="0.5" opacity="0.8"/>
  <line x1="311.4372790236527" y1="210.37986462284613" x2="424.4547119678924" y2="289.75148016542846" stroke="#87CEEB" stroke-width="0.5" opacity="0.8"/>
  <line x1="424.4547119678924" y1="289.75148016542846" x2="581.7469900803553" y2="246.98162405125885" stroke="#87CEEB" stroke-width="0.5" opacity="0.8"/>
  <line x1="424.4547119678924" y1="289.75148016542846" x2="276.6789028040372" y2="370.73196421922177" stroke="#87CEEB" stroke-width="0.5" opacity="0.8"/>
  <line x1="276.6789028040372" y1="370.73196421922177" x2="331.27055171256205" y2="412.1753649716725" stroke="#87CEEB" stroke-width="0.5" opacity="0.8"/>
  <line x1="331.27055171256205" y1="412.1753649716725" x2="460.0863323221748" y2="367.4619729992092" stroke="#87CEEB" stroke-width="0.5" opacity="0.8"/>
  <line x1="460.0863323221748" y1="367.4619729992092" x2="641.1014526883986" y2="410.09862310422494" stroke="#87CEEB" stroke-width="0.5" opacity="0.8"/>
  <line x1="424.4547119678924" y1="289.75148016542846" x2="460.0863323221748" y2="367.4619729992092" stroke="#87CEEB" stroke-width="0.5" opacity="0.8"/>
  <line x1="581.7469900803553" y1="246.98162405125885" x2="528.9701358236757" y2="166.85886267156744" stroke="#87CEEB" stroke-width="0.5" opacity="0.8"/>
  <line x1="581.7469900803553" y1="246.98162405125885" x2="579.3756423690425" y2="160.6121999042043" stroke="#87CEEB" stroke-width="0.5" opacity="0.8"/>
  <line x1="641.1014526883986" y1="410.09862310422494" x2="581.7469900803553" y2="246.98162405125885" stroke="#87CEEB" stroke-width="0.5" opacity="0.8"/>
  <line x1="579.3756423690425" y1="160.6121999042043" x2="586.7788949443593" y2="132.27152704154437" stroke="#87CEEB" stroke-width="0.5" opacity="0.8"/>
  <line x1="528.9701358236757" y1="166.85886267156744" x2="525.7281666542523" y2="144.07525455552573" stroke="#87CEEB" stroke-width="0.5" opacity="0.8"/>
  <ellipse cx="489.84408032835984" cy="467.72847295845565" rx="0.5333333333333334" ry="0.8" transform="rotate(1e-10 489.84408032835984 467.72847295845565)" fill="none" stroke="#FFA500" stroke-width="0.2" stroke-dasharray="2,1" opacity="0.7"/>
  <text x="491.84408032835984" y="469.72847295845565" fill="#FFA500" font-size="3.5" font-weight="bold" opacity="0.9">M79</text>
  
  <!-- Title and info -->
  <text x="400.0" y="25" text-anchor="middle" 
        fill="white" font-size="12.0" font-weight="bold">
    Constellation View
  </text>
  
  <text x="10" y="590" fill="white" font-size="5.0">
    RA: 71.4째 to 96.5째 | DE: -29.6째 to -6.9째 | 
    Stars: 13 | DSO: 1 | Vector SVG
  </text>
  
</svg>