<?xml version="1.0" encoding="UTF-8"?>
<svg width="800" height="600" 
     viewBox="0 0 800 600"
     xmlns="http://www.w3.org/2000/svg"
     style="background-color: #000000;">
     
  <!-- Scalable constellation visualization -->
  <defs>
    <!-- Star symbol -->
    <g id="star">
      <polygon points="0,-1 0.3,-0.3 1,0 0.3,0.3 0,1 -0.3,0.3 -1,0 -0.3,-0.3" 
               fill="currentColor" stroke="none"/>
    </g>
    
    <!-- Bright star symbol -->
    <g id="bright-star">
      <polygon points="0,-1.2 0.35,-0.35 1.2,0 0.35,0.35 0,1.2 -0.35,0.35 -1.2,0 -0.35,-0.35" 
               fill="currentColor" stroke="none"/>
    </g>
  </defs>
  
  <!-- Grid lines -->
  <g id="grid" stroke="#333" stroke-width="0.1" opacity="0.3">
  </g>

  <!-- Constellation elements -->
  <use href="#star" x="733.3333333333334" y="265.1547935047184" transform="scale(8.571427987546377)" fill="#FFFFFF" opacity="0.9"/>
  <use href="#star" x="701.9722774001862" y="122.78650142922531" transform="scale(0.7228915496529372)" fill="#FFFFFF" opacity="0.9"/>
  <use href="#star" x="507.05997272819275" y="74.93434167847614" transform="scale(0.9374999161809757)" fill="#FFFFFF" opacity="0.9"/>
  <use href="#star" x="464.0698213737137" y="367.2746539445812" transform="scale(0.9523809235472627)" fill="#FFFFFF" opacity="0.9"/>
  <use href="#star" x="422.9526279955953" y="371.0445687443637" transform="scale(0.5660377154786554)" fill="#FFFFFF" opacity="0.9"/>
  <use href="#star" x="354.02272185477796" y="359.1432986296159" transform="scale(0.6818181670401711)" fill="#FFFFFF" opacity="0.9"/>
  <use href="#star" x="348.98461537884435" y="520.2605432574378" transform="scale(1.132075430957311)" fill="#FFFFFF" opacity="0.9"/>
  <use href="#star" x="340.118552129702" y="363.76540619115457" transform="scale(0.9374999161809757)" fill="#FFFFFF" opacity="0.9"/>
  <use href="#star" x="211.46974081206906" y="525.0656583215239" transform="scale(0.7058823529411765)" fill="#FFFFFF" opacity="0.9"/>
  <use href="#star" x="203.86799783048747" y="394.5954250427651" transform="scale(0.6896551875334813)" fill="#FFFFFF" opacity="0.9"/>
  <use href="#star" x="179.34853413959263" y="355.73418097783974" transform="scale(0.6249999751647324)" fill="#FFFFFF" opacity="0.9"/>
  <use href="#star" x="145.1050256375023" y="440.48719125679764" transform="scale(0.8108107481149146)" fill="#FFFFFF" opacity="0.9"/>
  <use href="#star" x="143.7837562392298" y="383.11951009974473" transform="scale(0.540540521963978)" fill="#FFFFFF" opacity="0.9"/>
  <use href="#star" x="121.16452265796394" y="357.43325592580305" transform="scale(0.631578947368421)" fill="#FFFFFF" opacity="0.9"/>
  <use href="#star" x="86.8878626079428" y="359.26556977933535" transform="scale(0.6122448860432199)" fill="#FFFFFF" opacity="0.9"/>
  <line x1="348.98461537884435" y1="520.2605432574378" x2="211.46974081206906" y2="525.0656583215239" stroke="#87CEEB" stroke-width="0.5" opacity="0.8"/>
  <line x1="211.46974081206906" y1="525.0656583215239" x2="145.1050256375023" y2="440.48719125679764" stroke="#87CEEB" stroke-width="0.5" opacity="0.8"/>
  <line x1="145.1050256375023" y1="440.48719125679764" x2="143.7837562392298" y2="383.11951009974473" stroke="#87CEEB" stroke-width="0.5" opacity="0.8"/>
  <line x1="143.7837562392298" y1="383.11951009974473" x2="86.8878626079428" y2="359.26556977933535" stroke="#87CEEB" stroke-width="0.5" opacity="0.8"/>
  <line x1="86.8878626079428" y1="359.26556977933535" x2="121.16452265796394" y2="357.43325592580305" stroke="#87CEEB" stroke-width="0.5" opacity="0.8"/>
  <line x1="121.16452265796394" y1="357.43325592580305" x2="179.34853413959263" y2="355.73418097783974" stroke="#87CEEB" stroke-width="0.5" opacity="0.8"/>
  <line x1="179.34853413959263" y1="355.73418097783974" x2="203.86799783048747" y2="394.5954250427651" stroke="#87CEEB" stroke-width="0.5" opacity="0.8"/>
  <line x1="203.86799783048747" y1="394.5954250427651" x2="340.118552129702" y2="363.76540619115457" stroke="#87CEEB" stroke-width="0.5" opacity="0.8"/>
  <line x1="422.9526279955953" y1="371.0445687443637" x2="464.0698213737137" y2="367.2746539445812" stroke="#87CEEB" stroke-width="0.5" opacity="0.8"/>
  <line x1="464.0698213737137" y1="367.2746539445812" x2="733.3333333333334" y2="265.1547935047184" stroke="#87CEEB" stroke-width="0.5" opacity="0.8"/>
  <line x1="354.02272185477796" y1="359.1432986296159" x2="340.118552129702" y2="363.76540619115457" stroke="#87CEEB" stroke-width="0.5" opacity="0.8"/>
  <line x1="354.02272185477796" y1="359.1432986296159" x2="422.9526279955953" y2="371.0445687443637" stroke="#87CEEB" stroke-width="0.5" opacity="0.8"/>
  <line x1="733.3333333333334" y1="265.1547935047184" x2="701.9722774001862" y2="122.78650142922531" stroke="#87CEEB" stroke-width="0.5" opacity="0.8"/>
  <line x1="464.0698213737137" y1="367.2746539445812" x2="507.05997272819275" y2="74.93434167847614" stroke="#87CEEB" stroke-width="0.5" opacity="0.8"/>
  <use href="#bright-star" x="733.322827922374" y="265.2373065000836" transform="scale(8.571428571428571)" fill="#FFD700" opacity="0.95"/>
  <text x="736.322827922374" y="262.2373065000836" fill="#FFD700" font-size="4.5" font-weight="bold">Canopus</text>
  <ellipse cx="145.07761898115473" cy="440.5686791593822" rx="6.44" ry="9.66" transform="rotate(1e-10 145.07761898115473 440.5686791593822)" fill="none" stroke="#FFA500" stroke-width="0.2" stroke-dasharray="2,1" opacity="0.7"/>
  <text x="147.07761898115473" y="442.5686791593822" fill="#FFA500" font-size="3.5" font-weight="bold" opacity="0.9">IC2602</text>
  <ellipse cx="66.6666666666666" cy="415.61254600678245" rx="0.7592592592592592" ry="1.1388888888888888" transform="rotate(1e-10 66.6666666666666 415.61254600678245)" fill="none" stroke="#FFA500" stroke-width="0.2" stroke-dasharray="2,1" opacity="0.7"/>
  <text x="68.6666666666666" y="417.61254600678245" fill="#FFA500" font-size="3.5" font-weight="bold" opacity="0.9">IC2714</text>
  <ellipse cx="519.5856895110595" cy="385.9115703391016" rx="2.2037037037037037" ry="3.3055555555555554" transform="rotate(1e-10 519.5856895110595 385.9115703391016)" fill="none" stroke="#FFA500" stroke-width="0.2" stroke-dasharray="2,1" opacity="0.7"/>
  <text x="521.5856895110595" y="387.9115703391016" fill="#FFA500" font-size="3.5" font-weight="bold" opacity="0.9">NGC2516</text>
  <ellipse cx="351.5598842541992" cy="447.51509263297686" rx="0.6666666666666666" ry="1.0" transform="rotate(1e-10 351.5598842541992 447.51509263297686)" fill="none" stroke="#FFA500" stroke-width="0.2" stroke-dasharray="2,1" opacity="0.7"/>
  <text x="353.5598842541992" y="449.51509263297686" fill="#FFA500" font-size="3.5" font-weight="bold" opacity="0.9">NGC2808</text>
  <ellipse cx="236.7582847855888" cy="376.4248826826065" rx="1.8222222222222222" ry="2.733333333333334" transform="rotate(1e-10 236.7582847855888 376.4248826826065)" fill="none" stroke="#FFA500" stroke-width="0.2" stroke-dasharray="2,1" opacity="0.7"/>
  <text x="238.7582847855888" y="378.4248826826065" fill="#FFA500" font-size="3.5" font-weight="bold" opacity="0.9">NGC3114</text>
  <ellipse cx="205.08339601623496" cy="343.6620898139432" rx="0.7407407407407406" ry="0.8333333333333334" transform="rotate(1e-10 205.08339601623496 343.6620898139432)" fill="none" stroke="#BA55D3" stroke-width="0.2" stroke-dasharray="2,1" opacity="0.7"/>
  <text x="207.08339601623496" y="345.6620898139432" fill="#BA55D3" font-size="3.5" font-weight="bold" opacity="0.9">NGC3199</text>
  <ellipse cx="184.63875289367442" cy="340.38895776942735" rx="0.18518518518518515" ry="0.2777777777777778" transform="rotate(1e-10 184.63875289367442 340.38895776942735)" fill="none" stroke="#BA55D3" stroke-width="0.2" stroke-dasharray="2,1" opacity="0.7"/>
  <text x="186.63875289367442" y="342.38895776942735" fill="#BA55D3" font-size="3.5" font-weight="bold" opacity="0.9">NGC3247</text>
  <ellipse cx="161.31160132286323" cy="348.09970152814253" rx="0.29333333333333333" ry="0.44" transform="rotate(90.0000000001 161.31160132286323 348.09970152814253)" fill="none" stroke="#FFA500" stroke-width="0.2" stroke-dasharray="2,1" opacity="0.7"/>
  <text x="163.31160132286323" y="350.09970152814253" fill="#FFA500" font-size="3.5" font-weight="bold" opacity="0.9">NGC3293</text>
  <ellipse cx="157.87766437537263" cy="354.2742912824491" rx="0.2177777777777778" ry="0.3266666666666667" transform="rotate(90.0000000001 157.87766437537263 354.2742912824491)" fill="none" stroke="#BA55D3" stroke-width="0.2" stroke-dasharray="2,1" opacity="0.7"/>
  <text x="159.87766437537263" y="356.2742912824491" fill="#BA55D3" font-size="3.5" font-weight="bold" opacity="0.9">NGC3324</text>
  <text x="142.3282479860537" y="371.8981015224113" fill="#BA55D3" font-size="3.5" font-weight="bold" opacity="0.9">NGC3372</text>
  <ellipse cx="93.55948027951504" cy="355.9378336677111" rx="2.3814814814814813" ry="3.5722222222222215" transform="rotate(1e-10 93.55948027951504 355.9378336677111)" fill="none" stroke="#FFA500" stroke-width="0.2" stroke-dasharray="2,1" opacity="0.7"/>
  <text x="95.55948027951504" y="357.9378336677111" fill="#FFA500" font-size="3.5" font-weight="bold" opacity="0.9">NGC3532</text>
  <text x="81.52848658798226" y="396.1678361052361" fill="#BA55D3" font-size="3.5" font-weight="bold" opacity="0.9">NGC3576</text>
  <path d="M 132.32444955161674,368.0187482331151 L 133.96628929902397,368.5253043828616 L 134.61119719294584,368.69015993455423 L 136.0669865999176,369.21320163947007 L 137.06337338404663,369.87412253307406 L 138.13143678858762,370.1993375759588 L 139.00009565345286,370.49607756900554 L 139.9660493984971,371.1300220996054 L 140.78692384975415,371.67404542019113 L 141.38413817496067,371.37880411397794 L 141.9134005203598,370.9022217009028 L 142.0581164345755,371.31735795380166 L 142.2567942151087,371.671048046524 L 142.0257756527418,371.9992604630757 L 141.33426432881873,372.6601813566799 L 140.52674407680152,373.06332811491006 L 139.92698609459708,373.3570707342898 L 139.55733822583136,373.1337663960878 L 139.431154669745,372.63470368050923 L 139.20722200901565,372.3109873244582 L 138.30594982763859,371.8568852138866 L 137.46045641043514,371.34133694313874 L 136.92919547739476,371.110539170769 L 135.67826130366603,370.85875978272935 L 134.75754831523173,370.810801804055 L 133.85436839110588,370.487085448004 L 132.943466651093,370.2982509069743 L 132.4882428933184,370.2997495938079 L 132.0510064243165,370.78382544105085 L 131.81399209902534,370.9202059429056 L 131.29326917354865,371.49570168699637 L 131.0181908381785,371.98727096840713 L 130.6049374208733,372.63020762000843 L 130.1816910653611,373.21919154560135 L 129.8225812041591,373.6118474959965 L 129.662421658169,374.4151436387898 L 129.62272244001954,374.9591669593755 L 129.48073187258763,375.67853663948887 L 129.26488440731677,376.35294571459525 L 129.3426476355455,377.20869589656337 L 129.31902796341996,378.04945921019595 L 129.59274362539855,378.6938945486308 L 129.7843355042942,379.2394165560501 L 130.13345242728914,379.9303111863257 L 130.89227981677024,380.68265197677755 L 131.74667603346748,381.39602690955667 L 132.8272760332137,382.05395042949374 L 133.93803653736614,382.4930656717296 L 134.84421434295396,382.7088765757635 L 135.31497257739557,381.81416053612253 L 135.45859835289792,380.9569116673208 L 135.99285716740033,380.24353673454175 L 136.4427210765002,379.6200830117767 L 136.99178760852755,378.82128292948414 L 137.56265691482463,378.50655869443455 L 138.01342927285242,378.26077405372916 L 138.6003781251734,377.86212335599964 L 138.95812531298358,377.6538058861335 L 139.2742655398954,378.4541046552597 L 139.152805918234,379.0385925203518 L 139.84486231151428,380.0621956276797 L 139.6010346192637,380.5267885460864 L 139.50964465711627,381.27013721553686 L 139.42988284124604,381.5518903402479 L 140.02736970113068,382.23529153635553 L 141.3304488433213,383.0985351524917 L 142.48508743069203,383.35630928786566 L 143.87310654764187,383.9348024056234 L 145.10559920813418,384.8849698581065 L 145.85179915751755,385.4095102498558 L 146.34281580305145,384.8549961214351 L 146.57147239820586,384.3349517901864 L 146.57665055709498,383.87335624544704 L 146.38078896823822,383.246905149015 L 145.86542589143602,382.5305328425688 L 145.01575360916422,381.802171041454 L 144.49212364711812,381.3570610518839 L 144.11729761946344,380.4833266279128 L 143.80688062079753,379.92881249949204 L 143.8688368376809,379.4042721077428 L 143.7699067494316,378.73885515363787 L 143.83177212142212,378.21581344872214 L 144.354130254969,378.0104933525231 L 144.66391133938546,378.5665061677774 L 145.3937592080665,379.5526421042661 L 145.83526538702952,380.0906706775176 L 146.19728228480068,378.7658315166422 L 146.86508309170554,379.1090308015296 L 147.66896954801103,379.62308038544387 L 148.28044652138556,380.16260764552896 L 148.94052551240335,380.4518542044079 L 149.46515476827003,380.56875177742626 L 150.65867496975505,379.9108282574893 L 151.18076056862347,379.23791786921646 L 152.12227703750676,378.6684168724601 L 152.5199959781447,378.20232526722 L 152.56105786968624,377.6253308362957 L 152.34502871462965,377.0858035762107 L 152.22011698704253,376.5058117716193 L 152.27271617996826,375.98127137987 L 152.3515695469106,375.4252585646157 L 152.1744220059687,374.90821160703416 L 151.66323779423524,374.0569574855668 L 151.76489322926807,373.60735143549584 L 152.33158367049677,373.3345904317862 L 152.8452206943358,373.1232755882529 L 154.40339229548277,372.729120951024 L 155.0861825096983,372.245045103781 L 155.53677317794038,371.9048431925608 L 155.97782513243956,371.3758067403108 L 156.18767683478626,370.9891455372499 L 156.3739088650073,370.4990749426727 L 156.4474023832749,369.94306212741833 L 156.4832861159272,369.36456900966044 L 156.56813524579388,368.86250892041477 L 156.54987542234284,368.48334115152164 L 156.24736192934964,367.84939662092177 L 155.92613438844154,367.57213955671136 L 155.2532462675403,367.32036016867175 L 154.95282220708145,367.28439168466605 L 154.5749982979645,367.3413417843417 L 154.32617413661066,367.2439271401596 L 154.32408470407663,366.78083290858666 L 153.94489812156795,366.3761874635229 L 153.37566402334087,366.5979931148912 L 152.80597570065018,366.8183000794259 L 151.71002291402235,366.54553907571625 L 151.46210720159647,366.4466257447006 L 150.4566359281883,366.1319015096511 L 150.0682740115077,366.1334001964846 L 149.6234974164042,366.3342242321829 L 149.2781959789067,366.5470377625498 L 148.91736006474164,366.842279068763 L 148.5975860421181,367.0251188624585 L 148.10974896783176,367.33834441067455 L 147.78942987585165,367.51968551753635 L 147.3163096741975,367.7489846030726 L 146.92158861502156,367.88686379176096 L 146.56865620652945,367.58263036454633 L 146.26332652185968,367.68004500872837 L 145.91575396204215,367.8913598522617 L 145.81001050683372,368.33946721549904 L 145.6989072029507,368.60023872454013 L 145.35051703909804,368.81005488123975 L 145.55591734169803,369.02586578527377 L 146.09953318015778,368.9779078065996 L 146.34763058236933,369.0798185112823 L 146.2842208472014,369.4140256751683 L 146.0253129027479,369.5863746610288 L 145.70272268844784,369.76621708105716 L 145.19517227242585,369.83665536223486 L 144.70351971264242,369.8216684938992 L 144.15881373546887,369.86962647257343 L 143.86801923364575,369.881615967242 L 143.46039819969363,369.96404374308827 L 143.26362816190885,369.2851386074814 L 143.16133681262625,368.75610215523125 L 143.4432285149561,368.36494489166967 L 143.99374856526802,367.85689005508954 L 144.3847449838394,367.531675012205 L 144.75439285260512,367.1015518909706 L 145.7385155762074,366.34171766635075 L 146.08000152820776,365.94006959495414 L 146.84010074618817,365.37206728503133 L 147.51453323026684,364.70665033092644 L 148.0783166349263,364.3005061990291 L 148.69315486933408,363.83291590695546 L 148.96796067002614,363.44025995656017 L 149.27274528533897,362.87975108080514 L 149.41727950976934,362.64145987426764 L 149.18598841272396,361.80669130796934 L 149.23104747954827,361.55491191992974 L 149.12348712648392,361.0273741545132 L 149.15773565106605,360.7231407272986 L 149.15982508360014,360.26154518255925 L 149.60087703809936,359.59912560212155 L 150.3114657895085,358.542551384455 L 150.53530760534503,357.61186686080833 L 150.61634124971457,356.91947354369916 L 150.95855396085724,356.10718527990446 L 151.16195567581573,355.3968077207926 L 151.24553297718322,354.5680339018286 L 150.86689146403148,353.64634149918334 L 150.25795814765485,353.1397853494368 L 149.0564435956043,352.5043421320034 L 148.17143265003665,352.33648920664365 L 147.0061652102097,352.18062577595236 L 145.89776667326947,352.15215072611454 L 144.95752203288515,352.5028434451698 L 144.35331265093393,352.96893505041 L 143.76690886796962,353.86664846371815 L 143.30178301688096,354.7448789481898 L 142.93858513550336,355.5017157991424 L 142.4246755769861,356.30501194193573 L 141.65531017994118,357.2776596969223 L 140.95435098716774,357.7797197861682 L 140.0919604199051,358.2757851280796 L 139.79117297987491,358.37020239859453 L 138.87999870518354,358.0854519002162 L 138.35427931060335,357.99103462970146 L 137.80257827668504,357.9280897826915 L 137.2341617824933,357.9490713983614 L 136.69390720506664,358.1274151315562 L 135.98540788619147,358.434645932438 L 135.15290528865708,358.94719682951876 L 134.4700242295488,359.4117897479253 L 134.14189247678854,359.7235166093078 L 133.3582644315756,359.9842881183489 L 132.96608702939787,360.1131751860358 L 132.2167075087668,360.20459508288354 L 131.71715144331043,360.8340435529828 L 131.43108087591236,361.2207047560437 L 130.9207142682138,361.79620050013443 L 130.66008027079727,362.34022382072015 L 130.57813817750005,362.9996460274908 L 130.52344955203995,363.4387612697266 L 130.16270448276774,363.96929640881024 L 130.00745056098833,364.7710938647699 L 130.05941383966464,365.4679832423798 L 130.16633827847946,365.91459191878346 L 130.20031426838318,366.69540775907313 L 130.78653636156182,367.4912104676986 L 131.78255976611987,368.02174560678225 Z" fill="#FF0000" fill-opacity="0.1" stroke="#FF0000" stroke-width="0.3" stroke-opacity="0.7"/>
  <path d="M 132.32444955161674,368.0187482331151 L 133.96628929902397,368.5253043828616 L 134.61119719294584,368.69015993455423 L 136.0669865999176,369.21320163947007 L 137.06337338404663,369.87412253307406 L 138.13143678858762,370.1993375759588 L 139.00009565345286,370.49607756900554 L 139.9660493984971,371.1300220996054 L 140.78692384975415,371.67404542019113 L 141.38413817496067,371.37880411397794 L 141.9134005203598,370.9022217009028 L 142.0581164345755,371.31735795380166 L 142.2567942151087,371.671048046524 L 142.0257756527418,371.9992604630757 L 141.33426432881873,372.6601813566799 L 140.52674407680152,373.06332811491006 L 139.92698609459708,373.3570707342898 L 139.55733822583136,373.1337663960878 L 139.431154669745,372.63470368050923 L 139.20722200901565,372.3109873244582 L 138.30594982763859,371.8568852138866 L 137.46045641043514,371.34133694313874 L 136.92919547739476,371.110539170769 L 135.67826130366603,370.85875978272935 L 134.75754831523173,370.810801804055 L 133.85436839110588,370.487085448004 L 132.943466651093,370.2982509069743 L 132.4882428933184,370.2997495938079 Z" fill="#FF0000" fill-opacity="0.1" stroke="#FF0000" stroke-width="0.3" stroke-opacity="0.7"/>
  <path d="M 79.88405349836532,393.9160567171965 L 79.79484381364487,393.8036552046787 L 79.62360119073412,393.7347156103345 L 79.46880149341888,393.691253692161 L 79.46589445684947,393.62531147148394 L 79.45308532696602,393.5099125852991 L 79.42619523869992,393.4199913752849 L 79.3180898162789,393.39301501228067 L 79.18790908490978,393.3840228912793 L 79.08053042163105,393.3750307702778 L 79.05609314547037,393.3390622862722 L 79.0373790975555,393.2611305709266 L 79.01085238886063,393.17720410824666 L 79.01975518835415,393.03183148539034 L 78.99086651244653,392.8924536098684 L 78.97896583149108,392.79653765252004 L 79.00549254018587,392.70511775567223 L 79.0252058819215,392.63168210082733 L 79.05173259061628,392.54026220397964 L 79.05636568014884,392.4728212964691 L 79.03147417952398,392.4248633177948 L 79.00576507486434,392.35892109711773 L 78.97923836616955,392.2749946344378 L 78.96243206100308,392.2390261504321 L 78.99649889579959,392.1476062535844 L 78.99286510008805,392.06218110407093 L 78.97578626024338,392.02021787273105 L 79.04946146829657,391.9647664598889 L 79.05491216186427,391.9153097943811 L 79.02266222492331,391.87334656304114 L 78.99804325897702,391.83288201853486 L 78.98886792480528,391.79541484769567 L 78.8740399803177,391.78042797935984 L 78.81380981639748,391.79541484769567 L 78.73904446963067,391.8268872712006 L 78.6724551632151,391.8718478762076 L 78.64356648730748,391.90781636021336 L 78.63148411656633,391.9812520150582 L 78.62548835364206,392.0187191858974 L 78.57270747093068,392.03220736739956 L 78.51111463361863,392.01572181223025 L 78.47732033350053,391.9377900968846 L 78.49685198545062,391.8583596947055 L 78.47986399049844,391.81639646336555 L 78.492763965275,391.7609450505235 L 78.49721536502159,391.68900808251215 L 78.50230267901796,391.6275619223358 L 78.51365829061675,391.53614202548806 L 78.48013652517692,391.4642050574767 L 78.50121254030435,391.42224182613677 L 78.53001037131912,391.3847746552975 L 78.59578207369964,391.32182980828753 L 78.58687927420611,391.2918560716163 L 78.54872441923408,391.2873600111154 L 78.45806121622871,391.30234687945114 L 78.3894733221719,391.29785081895056 L 78.38365924903323,391.33981405029044 L 78.39301627299058,391.38177728163043 L 78.39510570552494,391.4312339471382 L 78.35867690351562,391.4672024311438 L 78.29890096405938,391.4941787941482 L 78.30017279255834,391.52415253081944 L 78.31915937515177,391.61407374083365 L 78.3287889337875,391.66203171950787 L 78.30217138019987,391.7534516163556 L 78.2753721368266,391.8403754527027 L 78.20941874466057,391.9018216128791 L 78.15064209902482,391.9512782783868 L 78.09940557949089,392.0022336307281 L 78.15591110280681,392.0786666592402 L 78.4100042679424,392.1446088799173 L 78.50284774837463,392.17907867708936 L 78.57388845453706,392.2375274635986 L 78.63602636120604,392.2660025134364 L 78.72314661339219,392.3424355419484 L 78.71360789964923,392.4758186701361 L 78.70334242676398,392.591217556321 L 78.66355236372158,392.73209411867657 L 78.62966721871052,392.8295087628585 L 78.61040810143889,392.914933912372 L 78.63766156927605,393.0168446170547 L 78.65019816448128,393.1322435032396 L 78.68481006863463,393.22815946058796 L 78.69562061087656,393.3000964285994 L 78.6679129185754,393.36753733611005 L 78.58560744570688,393.40650319378284 L 78.4706886563268,393.39751107278136 L 78.39265289341952,393.3570465282751 L 78.33033329696492,393.3285714784372 L 78.23930671438859,393.3435583467729 L 78.14782590734843,393.3450570336065 L 78.10867175855564,393.3225767311029 L 77.9640466892328,393.33156885210434 L 77.86566167034037,393.3525504677742 L 77.79925405371016,393.40950056745 L 77.68033808904704,393.4904296564627 L 77.59031080029146,393.52939551413544 L 77.45295332239186,393.5323928878026 Z" fill="#FF0000" fill-opacity="0.1" stroke="#FF0000" stroke-width="0.3" stroke-opacity="0.7"/>
  <path d="M 79.88405349836532,393.9160567171965 L 79.79484381364487,393.8036552046787 L 79.62360119073412,393.7347156103345 L 79.46880149341888,393.691253692161 L 79.46589445684947,393.62531147148394 L 79.45308532696602,393.5099125852991 L 79.42619523869992,393.4199913752849 L 79.3180898162789,393.39301501228067 L 79.18790908490978,393.3840228912793 L 79.08053042163105,393.3750307702778 L 79.05609314547037,393.3390622862722 L 79.0373790975555,393.2611305709266 L 79.01085238886063,393.17720410824666 L 79.01975518835415,393.03183148539034 L 78.99086651244653,392.8924536098684 L 78.97896583149108,392.79653765252004 L 79.00549254018587,392.70511775567223 L 79.0252058819215,392.63168210082733 L 79.05173259061628,392.54026220397964 L 79.05636568014884,392.4728212964691 L 79.03147417952398,392.4248633177948 L 79.00576507486434,392.35892109711773 L 78.97923836616955,392.2749946344378 L 78.96243206100308,392.2390261504321 L 78.99649889579959,392.1476062535844 L 78.99286510008805,392.06218110407093 L 78.97578626024338,392.02021787273105 L 79.04946146829657,391.9647664598889 L 79.05491216186427,391.9153097943811 L 79.02266222492331,391.87334656304114 L 78.99804325897702,391.83288201853486 L 78.98886792480528,391.79541484769567 L 78.8740399803177,391.78042797935984 L 78.81380981639748,391.79541484769567 L 78.73904446963067,391.8268872712006 L 78.6724551632151,391.8718478762076 L 78.64356648730748,391.90781636021336 L 78.63148411656633,391.9812520150582 L 78.62548835364206,392.0187191858974 L 78.57270747093068,392.03220736739956 L 78.51111463361863,392.01572181223025 L 78.47732033350053,391.9377900968846 L 78.49685198545062,391.8583596947055 L 78.47986399049844,391.81639646336555 L 78.492763965275,391.7609450505235 L 78.49721536502159,391.68900808251215 L 78.50230267901796,391.6275619223358 L 78.51365829061675,391.53614202548806 L 78.48013652517692,391.4642050574767 L 78.50121254030435,391.42224182613677 L 78.53001037131912,391.3847746552975 L 78.59578207369964,391.32182980828753 L 78.58687927420611,391.2918560716163 L 78.54872441923408,391.2873600111154 L 78.45806121622871,391.30234687945114 L 78.3894733221719,391.29785081895056 L 78.38365924903323,391.33981405029044 L 78.39301627299058,391.38177728163043 L 78.39510570552494,391.4312339471382 L 78.35867690351562,391.4672024311438 L 78.29890096405938,391.4941787941482 L 78.30017279255834,391.52415253081944 L 78.31915937515177,391.61407374083365 L 78.3287889337875,391.66203171950787 L 78.30217138019987,391.7534516163556 L 78.2753721368266,391.8403754527027 L 78.20941874466057,391.9018216128791 L 78.15064209902482,391.9512782783868 L 78.09940557949089,392.0022336307281 L 78.15591110280681,392.0786666592402 L 78.4100042679424,392.1446088799173 L 78.50284774837463,392.17907867708936 L 78.57388845453706,392.2375274635986 L 78.63602636120604,392.2660025134364 L 78.72314661339219,392.3424355419484 L 78.71360789964923,392.4758186701361 L 78.70334242676398,392.591217556321 L 78.66355236372158,392.73209411867657 L 78.62966721871052,392.8295087628585 L 78.61040810143889,392.914933912372 L 78.63766156927605,393.0168446170547 L 78.65019816448128,393.1322435032396 L 78.68481006863463,393.22815946058796 L 78.69562061087656,393.3000964285994 L 78.6679129185754,393.36753733611005 L 78.58560744570688,393.40650319378284 L 78.4706886563268,393.39751107278136 L 78.39265289341952,393.3570465282751 L 78.33033329696492,393.3285714784372 L 78.23930671438859,393.3435583467729 L 78.14782590734843,393.3450570336065 L 78.10867175855564,393.3225767311029 L 77.9640466892328,393.33156885210434 L 77.86566167034037,393.3525504677742 L 77.79925405371016,393.40950056745 L 77.68033808904704,393.4904296564627 L 77.59031080029146,393.52939551413544 L 77.45295332239186,393.5323928878026 L 77.24519105257927,393.5054165247984 L 77.09338923672604,393.44247167778843 L 76.96166414217949,393.3435583467729 L 76.69167312080533,393.24914107625807 L 76.56839660128813,393.09177895873324 L 76.46783130496884,392.96738795154687 L 76.37698641217821,392.8175192681899 L 76.35027801369753,392.6736453321673 L 76.31039710576263,392.4638291754676 L 76.2736957690751,392.3379394814478 L 76.26706409190137,392.15959574825297 L 76.31212315872543,391.9482809047197 L 76.56585294428994,391.6380527301708 L 76.61172961514939,391.4507168759746 L 76.65052038437095,391.35629960545975 L 76.77316098963871,391.2349059719405 L 76.93740855580442,391.09552809641866 L 77.18768623544285,390.98762264440165 L 77.31277965281569,390.9336699183931 L 77.5734136502325,390.8257644663761 L 77.74965274224641,390.72834982219405 L 77.99030086324912,390.65491416734915 L 78.14555478502845,390.5664916441686 L 78.38565783667448,390.48256518148867 L 78.5765229564281,390.4870612419894 L 78.94635251497917,390.467578313153 L 79.14993591972328,390.52153103916146 L 79.33280668891109,390.5844758861714 L 79.57990479730191,390.66240760151703 L 79.74506081239552,390.80028679020546 L 79.91076189684571,390.9486567867288 L 80.03376588168445,391.08803466225066 L 80.15449874420355,391.1779558722649 L 80.27922878200506,391.35180354495895 L 80.30030479713277,391.57960394366154 L 80.32937516282574,391.74745686902133 L 80.346999072027,391.89882423921193 L 80.47863332168079,391.988745449226 L 80.61744431786524,392.2300340294307 L 80.60381758394648,392.6196926061589 L 80.6849420732088,392.76056916851434 L 80.7709721866816,393.0033564355526 L 80.77106303157437,393.2311568342551 L 80.66441112743803,393.45446117245706 L 80.59037253981352,393.69425106582815 L 80.50007271637955,393.8141460125137 L 80.38878772271092,393.9445317670343 L 80.24352673913828,394.03295429021483 L 79.99642863074747,393.9984844930428 Z" fill="#FF0000" fill-opacity="0.1" stroke="#FF0000" stroke-width="0.3" stroke-opacity="0.7"/>
  
  <!-- Title and info -->
  <text x="400.0" y="25" text-anchor="middle" 
        fill="white" font-size="12.0" font-weight="bold">
    Constellation View
  </text>
  
  <text x="10" y="590" fill="white" font-size="5.0">
    RA: 88.6째 to 176.7째 | DE: -75.0째 to -35.0째 | 
    Stars: 15 | DSO: 12 | Vector SVG
  </text>
  
</svg>