<?xml version="1.0" encoding="UTF-8"?>
<svg width="800" height="600" 
     viewBox="0 0 800 600"
     xmlns="http://www.w3.org/2000/svg"
     style="background-color: #000000;">
     
  <!-- Scalable constellation visualization -->
  <defs>
    <!-- Star symbol -->
    <g id="star">
      <polygon points="0,-1 0.3,-0.3 1,0 0.3,0.3 0,1 -0.3,0.3 -1,0 -0.3,-0.3" 
               fill="currentColor" stroke="none"/>
    </g>
    
    <!-- Bright star symbol -->
    <g id="bright-star">
      <polygon points="0,-1.2 0.35,-0.35 1.2,0 0.35,0.35 0,1.2 -0.35,0.35 -1.2,0 -0.35,-0.35" 
               fill="currentColor" stroke="none"/>
    </g>
  </defs>
  
  <!-- Grid lines -->
  <g id="grid" stroke="#333" stroke-width="0.1" opacity="0.3">
  </g>

  <!-- Constellation elements -->
  <use href="#star" x="686.6676436459519" y="303.1908187985434" transform="scale(0.5217391304347826)" fill="#FFFFFF" opacity="0.9"/>
  <use href="#star" x="625.7196103218308" y="317.7829343996048" transform="scale(0.5)" fill="#FFFFFF" opacity="0.9"/>
  <use href="#star" x="579.8991417708243" y="317.6636750251168" transform="scale(0.7792207985226718)" fill="#FFFFFF" opacity="0.9"/>
  <use href="#star" x="545.8924860584759" y="362.10448472424304" transform="scale(0.588235305117351)" fill="#FFFFFF" opacity="0.9"/>
  <use href="#star" x="496.31465105096" y="435.7491597351181" transform="scale(1.034482724601393)" fill="#FFFFFF" opacity="0.9"/>
  <use href="#star" x="461.069275836779" y="267.1021168026928" transform="scale(0.7407407058555365)" fill="#FFFFFF" opacity="0.9"/>
  <use href="#star" x="453.39315238519157" y="503.43327708743453" transform="scale(0.6896551875334813)" fill="#FFFFFF" opacity="0.9"/>
  <use href="#star" x="410.8777135851567" y="96.56672291256547" transform="scale(0.652173926564381)" fill="#FFFFFF" opacity="0.9"/>
  <use href="#star" x="346.7354117797795" y="355.1856943815586" transform="scale(0.6)" fill="#FFFFFF" opacity="0.9"/>
  <use href="#star" x="306.89855344797587" y="168.33824769489922" transform="scale(0.5555555457440916)" fill="#FFFFFF" opacity="0.9"/>
  <use href="#star" x="267.49856497106725" y="433.0211499712341" transform="scale(0.6593406317012648)" fill="#FFFFFF" opacity="0.9"/>
  <use href="#star" x="255.98995758871013" y="327.91535615575856" transform="scale(0.6666666666666666)" fill="#FFFFFF" opacity="0.9"/>
  <use href="#star" x="224.25289238294982" y="215.60644620828046" transform="scale(0.631578947368421)" fill="#FFFFFF" opacity="0.9"/>
  <use href="#star" x="173.99634255074164" y="136.62047420116394" transform="scale(1.034482724601393)" fill="#FFFFFF" opacity="0.9"/>
  <use href="#star" x="166.46120732852953" y="233.0333584542764" transform="scale(0.5940593835033989)" fill="#FFFFFF" opacity="0.9"/>
  <use href="#star" x="118.1541670030123" y="281.2670186754708" transform="scale(0.6593406317012648)" fill="#FFFFFF" opacity="0.9"/>
  <use href="#star" x="113.33235635404807" y="211.20721569661774" transform="scale(1.3953487753158935)" fill="#FFFFFF" opacity="0.9"/>
  <line x1="496.31465105096" y1="435.7491597351181" x2="346.7354117797795" y2="355.1856943815586" stroke="#87CEEB" stroke-width="0.5" opacity="0.8"/>
  <line x1="346.7354117797795" y1="355.1856943815586" x2="255.98995758871013" y2="327.91535615575856" stroke="#87CEEB" stroke-width="0.5" opacity="0.8"/>
  <line x1="255.98995758871013" y1="327.91535615575856" x2="267.49856497106725" y2="433.0211499712341" stroke="#87CEEB" stroke-width="0.5" opacity="0.8"/>
  <line x1="267.49856497106725" y1="433.0211499712341" x2="453.39315238519157" y2="503.43327708743453" stroke="#87CEEB" stroke-width="0.5" opacity="0.8"/>
  <line x1="255.98995758871013" y1="327.91535615575856" x2="166.46120732852953" y2="233.0333584542764" stroke="#87CEEB" stroke-width="0.5" opacity="0.8"/>
  <line x1="166.46120732852953" y1="233.0333584542764" x2="118.1541670030123" y2="281.2670186754708" stroke="#87CEEB" stroke-width="0.5" opacity="0.8"/>
  <line x1="166.46120732852953" y1="233.0333584542764" x2="113.33235635404807" y2="211.20721569661774" stroke="#87CEEB" stroke-width="0.5" opacity="0.8"/>
  <line x1="166.46120732852953" y1="233.0333584542764" x2="224.25289238294982" y2="215.60644620828046" stroke="#87CEEB" stroke-width="0.5" opacity="0.8"/>
  <line x1="224.25289238294982" y1="215.60644620828046" x2="306.89855344797587" y2="168.33824769489922" stroke="#87CEEB" stroke-width="0.5" opacity="0.8"/>
  <line x1="306.89855344797587" y1="168.33824769489922" x2="173.99634255074164" y2="136.62047420116394" stroke="#87CEEB" stroke-width="0.5" opacity="0.8"/>
  <line x1="306.89855344797587" y1="168.33824769489922" x2="410.8777135851567" y2="96.56672291256547" stroke="#87CEEB" stroke-width="0.5" opacity="0.8"/>
  <line x1="306.89855344797587" y1="168.33824769489922" x2="461.069275836779" y2="267.1021168026928" stroke="#87CEEB" stroke-width="0.5" opacity="0.8"/>
  <line x1="461.069275836779" y1="267.1021168026928" x2="545.8924860584759" y2="362.10448472424304" stroke="#87CEEB" stroke-width="0.5" opacity="0.8"/>
  <line x1="461.069275836779" y1="267.1021168026928" x2="579.8991417708243" y2="317.6636750251168" stroke="#87CEEB" stroke-width="0.5" opacity="0.8"/>
  <line x1="579.8991417708243" y1="317.6636750251168" x2="625.7196103218308" y2="317.7829343996048" stroke="#87CEEB" stroke-width="0.5" opacity="0.8"/>
  <line x1="625.7196103218308" y1="317.7829343996048" x2="686.6676436459519" y2="303.1908187985434" stroke="#87CEEB" stroke-width="0.5" opacity="0.8"/>
  <text x="609.7596635770196" y="316.8262678732988" fill="#BA55D3" font-size="3.5" font-weight="bold" opacity="0.9">IC443</text>
  <ellipse cx="659.5820168434719" cy="282.5150423867544" rx="1.4177777777777778" ry="2.126666666666667" transform="rotate(1e-10 659.5820168434719 282.5150423867544)" fill="none" stroke="#FFA500" stroke-width="0.2" stroke-dasharray="2,1" opacity="0.7"/>
  <text x="661.5820168434719" y="284.5150423867544" fill="#FFA500" font-size="3.5" font-weight="bold" opacity="0.9">M35</text>
  <g transform="translate(225.07709581768705,182.90260503352647) scale(0.5)">
    <line x1="-2" y1="0" x2="2" y2="0" stroke="#BA55D3" stroke-width="0.5"/>
    <line x1="0" y1="-2" x2="0" y2="2" stroke="#BA55D3" stroke-width="0.5"/>
  </g>
  <text x="227.07709581768705" y="184.90260503352647" fill="#BA55D3" font-size="3.5" font-weight="bold" opacity="0.9">NGC2371</text>
  <g transform="translate(204.66820508544998,348.5898568724481) scale(0.5)">
    <line x1="-2" y1="0" x2="2" y2="0" stroke="#BA55D3" stroke-width="0.5"/>
    <line x1="0" y1="-2" x2="0" y2="2" stroke="#BA55D3" stroke-width="0.5"/>
  </g>
  <text x="206.66820508544998" y="350.5898568724481" fill="#BA55D3" font-size="3.5" font-weight="bold" opacity="0.9">NGC2392</text>
  <path d="M 608.8095745262838,320.2397983597771 L 608.2746458042925,320.00803822478696 L 607.9949415488109,319.77241542088035 L 607.7315571526439,319.5078226000999 L 607.5715318654721,319.2837878029427 L 607.130442334542,319.0694096780768 L 606.7999651834136,318.84730621537796 L 606.5708071588658,318.5981640702635 L 606.5028077450534,318.32391457719183 L 606.2319434133673,318.10760511786765 L 606.2815829854503,317.7773469255067 L 606.2781830147595,317.39494270277294 L 606.2265034602622,317.09365452728576 L 606.2385166900356,316.93335376725094 L 606.009132000775,316.68228028767817 L 605.8302935424485,316.4176874668978 L 606.0363317663002,316.1782019940746 L 606.3203426513235,315.9850685482495 L 606.4592881202135,315.7880724335079 L 606.3727021999589,315.47519625127114 L 606.2194768541682,315.2028780926577 L 606.1095444685047,314.9633926198346 L 605.9937188003112,314.52304836335327 L 606.2138102363506,314.1889275020758 L 606.410781871694,313.93012868467014 L 606.4858078916004,313.5940764889344 L 606.6938860978664,313.42218772214994 L 606.9182841634474,313.22326027295014 L 606.9171508398838,312.9084527562552 L 607.0288965432491,312.6515852733077 L 607.2514812911281,312.385061118069 L 607.4577461796925,312.1455756452459 L 607.8439828501471,311.92540351700535 L 608.1651667480546,311.81145478396843 L 608.5749765486308,311.515960611856 L 608.7395351300569,311.31123915928134 L 609.1241851475226,311.02153899054366 L 609.5126884651041,310.86703223388355 L 609.7994193266798,310.7414954940972 L 610.3914675562735,310.52904870368957 L 610.7709042853468,310.3552286024469 L 611.2450868643323,310.1987905113286 L 611.5250177845267,310.11960579854025 L 612.0121202521365,310.117674464082 L 612.2866112192257,310.15243848433056 Z" fill="#FF0000" fill-opacity="0.1" stroke="#FF0000" stroke-width="0.3" stroke-opacity="0.7"/>
  <path d="M 608.8095745262838,320.2397983597771 L 608.2746458042925,320.00803822478696 L 607.9949415488109,319.77241542088035 L 607.7315571526439,319.5078226000999 L 607.5715318654721,319.2837878029427 L 607.130442334542,319.0694096780768 L 606.7999651834136,318.84730621537796 L 606.5708071588658,318.5981640702635 L 606.5028077450534,318.32391457719183 L 606.2319434133673,318.10760511786765 L 606.2815829854503,317.7773469255067 L 606.2781830147595,317.39494270277294 L 606.2265034602622,317.09365452728576 L 606.2385166900356,316.93335376725094 L 606.009132000775,316.68228028767817 L 605.8302935424485,316.4176874668978 L 606.0363317663002,316.1782019940746 L 606.3203426513235,315.9850685482495 L 606.4592881202135,315.7880724335079 L 606.3727021999589,315.47519625127114 L 606.2194768541682,315.2028780926577 L 606.1095444685047,314.9633926198346 L 605.9937188003112,314.52304836335327 L 606.2138102363506,314.1889275020758 L 606.410781871694,313.93012868467014 L 606.4858078916004,313.5940764889344 L 606.6938860978664,313.42218772214994 L 606.9182841634474,313.22326027295014 L 606.9171508398838,312.9084527562552 L 607.0288965432491,312.6515852733077 L 607.2514812911281,312.385061118069 L 607.4577461796925,312.1455756452459 L 607.8439828501471,311.92540351700535 L 608.1651667480546,311.81145478396843 L 608.5749765486308,311.515960611856 L 608.7395351300569,311.31123915928134 L 609.1241851475226,311.02153899054366 L 609.5126884651041,310.86703223388355 L 609.7994193266798,310.7414954940972 L 610.3914675562735,310.52904870368957 L 610.7709042853468,310.3552286024469 L 611.2450868643323,310.1987905113286 L 611.5250177845267,310.11960579854025 L 612.0121202521365,310.117674464082 L 612.2866112192257,310.15243848433056 L 612.4815428721547,310.3919239571537 L 612.2999844372756,310.62368409214383 L 612.4693029776685,310.8689635683418 L 612.7821002812058,311.0505090074175 L 613.0892309669254,311.03119566283493 L 613.4598277722029,310.8380622170098 L 613.9650634168291,310.87475757171654 L 614.5192586394005,310.83226821363496 L 614.9610281644688,311.04664633850086 L 615.3119051397407,311.37690453086185 L 615.620849143162,311.7399954090131 L 615.962432865213,312.0490089223333 L 615.8933001278369,312.338709091071 L 615.3828511948183,312.09922361824783 L 615.1357866579667,311.807592115052 L 614.717816927733,311.51982328077247 L 614.3542467285491,311.35179718290465 L 613.6749325845628,311.4985786017317 L 613.2608161544451,311.6588793617665 L 613.277362678473,311.94664819604594 L 612.9851918637921,312.18806500332744 L 612.8129266821342,312.4391384829001 L 613.0021917172452,312.79064135430184 L 613.2240964709868,313.0880668608725 L 613.6366262481152,313.49171576264706 L 613.8331445540331,313.7968666070508 L 613.4811342551974,314.0305580764991 L 613.2236431415612,314.2835628905301 L 613.2492562540972,314.5906450693921 L 613.5108273325623,314.7876411841337 L 613.7887182703423,314.9575986164598 L 613.8723575493318,315.20480942711595 L 612.976125275284,315.1874274169916 L 612.4332632883479,315.00201930899954 L 612.2043319285129,314.7509458294269 L 611.6920696777925,314.44386365056494 L 611.2435002113431,314.2777688871553 L 610.8423036698499,314.2777688871553 L 610.5251997367712,314.52497969781155 L 610.6169989454181,315.0406459981646 L 611.3244195137801,315.9000898320865 L 611.610017051792,316.33850275410947 L 611.8713614655449,316.5335675343929 L 612.060399835943,316.88700174025286 L 612.4615963774365,317.20180925694785 L 612.8172333116756,317.4161873818137 L 613.3412821274566,317.56103746618254 L 613.0661111662289,317.77541559104844 L 612.8306065297252,317.8855016551688 L 612.5060226611272,317.86425697612805 L 612.1308925615955,317.8584629727532 L 611.7020429251515,318.36254126635686 L 611.4341252347309,318.52863602976646 L 611.3819923508079,318.7912975160887 L 611.4731115653165,318.9902249652885 L 611.3926455923049,319.23936711040295 L 611.8169619344945,319.4788525832261 L 612.0438533119157,319.66232935676 L 611.527737761079,319.7859347620881 L 611.0932215068176,319.77434675533857 L 610.6167722807054,319.7955914343794 L 610.0047775563935,319.83421812354436 L 609.3673963842582,319.88057015054244 Z" fill="#FF0000" fill-opacity="0.1" stroke="#FF0000" stroke-width="0.3" stroke-opacity="0.7"/>
  
  <!-- Title and info -->
  <text x="400.0" y="25" text-anchor="middle" 
        fill="white" font-size="12.0" font-weight="bold">
    Constellation View
  </text>
  
  <text x="10" y="590" fill="white" font-size="5.0">
    RA: 86.0째 to 121.3째 | DE: 7.9째 to 39.0째 | 
    Stars: 17 | DSO: 4 | Vector SVG
  </text>
  
</svg>