<?xml version="1.0" encoding="UTF-8"?>
<svg width="800" height="600" 
     viewBox="0 0 800 600"
     xmlns="http://www.w3.org/2000/svg"
     style="background-color: #000000;">
     
  <!-- Scalable constellation visualization -->
  <defs>
    <!-- Star symbol -->
    <g id="star">
      <polygon points="0,-1 0.3,-0.3 1,0 0.3,0.3 0,1 -0.3,0.3 -1,0 -0.3,-0.3" 
               fill="currentColor" stroke="none"/>
    </g>
    
    <!-- Bright star symbol -->
    <g id="bright-star">
      <polygon points="0,-1.2 0.35,-0.35 1.2,0 0.35,0.35 0,1.2 -0.35,0.35 -1.2,0 -0.35,-0.35" 
               fill="currentColor" stroke="none"/>
    </g>
  </defs>
  
  <!-- Grid lines -->
  <g id="grid" stroke="#333" stroke-width="0.1" opacity="0.3">
    <line x1="800.0" y1="0" x2="800.0" y2="600"/>
    <line x1="733.3333333333333" y1="0" x2="733.3333333333333" y2="600"/>
    <line x1="666.6666666666667" y1="0" x2="666.6666666666667" y2="600"/>
    <line x1="600.0" y1="0" x2="600.0" y2="600"/>
    <line x1="533.3333333333334" y1="0" x2="533.3333333333334" y2="600"/>
    <line x1="466.66666666666663" y1="0" x2="466.66666666666663" y2="600"/>
    <line x1="400.0" y1="0" x2="400.0" y2="600"/>
    <line x1="333.3333333333333" y1="0" x2="333.3333333333333" y2="600"/>
    <line x1="266.6666666666667" y1="0" x2="266.6666666666667" y2="600"/>
    <line x1="200.0" y1="0" x2="200.0" y2="600"/>
    <line x1="133.33333333333331" y1="0" x2="133.33333333333331" y2="600"/>
    <line x1="66.6666666666667" y1="0" x2="66.6666666666667" y2="600"/>
    <line x1="0.0" y1="0" x2="0.0" y2="600"/>
    <line x1="0" y1="600.0" x2="800" y2="600.0"/>
    <line x1="0" y1="500.0" x2="800" y2="500.0"/>
    <line x1="0" y1="400.00000000000006" x2="800" y2="400.00000000000006"/>
    <line x1="0" y1="300.0" x2="800" y2="300.0"/>
    <line x1="0" y1="200.00000000000003" x2="800" y2="200.00000000000003"/>
    <line x1="0" y1="99.99999999999997" x2="800" y2="99.99999999999997"/>
    <line x1="0" y1="0.0" x2="800" y2="0.0"/>
  </g>

  <!-- Constellation elements -->
  <use href="#star" x="123.30258766548737" y="341.8161402885544" transform="scale(0.6593406317012648)" fill="#FFFFFF" opacity="0.9"/>
  <use href="#star" x="121.65979219102319" y="349.2713976851317" transform="scale(0.7407407058555365)" fill="#FFFFFF" opacity="0.9"/>
  <use href="#star" x="107.72526683954044" y="384.2383630823222" transform="scale(0.588235305117351)" fill="#FFFFFF" opacity="0.9"/>
  <use href="#star" x="104.54372687543119" y="389.73048806253536" transform="scale(0.588235305117351)" fill="#FFFFFF" opacity="0.9"/>
  <use href="#star" x="96.69530807355792" y="357.44368761762746" transform="scale(0.5940593835033989)" fill="#FFFFFF" opacity="0.9"/>
  <use href="#star" x="87.64034212051" y="356.1149901867287" transform="scale(0.5714285714285714)" fill="#FFFFFF" opacity="0.9"/>
  <use href="#star" x="85.18497207656814" y="374.70420308079343" transform="scale(0.631578947368421)" fill="#FFFFFF" opacity="0.9"/>
  <use href="#star" x="77.72549203439985" y="355.5409222646188" transform="scale(0.6451612770908873)" fill="#FFFFFF" opacity="0.9"/>
  <use href="#star" x="73.86354908320465" y="353.7611419764744" transform="scale(0.7792207985226718)" fill="#FFFFFF" opacity="0.9"/>
  <line x1="123.30258766548737" y1="341.8161402885544" x2="121.65979219102319" y2="349.2713976851317" stroke="#87CEEB" stroke-width="0.5" opacity="0.8"/>
  <line x1="121.65979219102319" y1="349.2713976851317" x2="96.69530807355792" y2="357.44368761762746" stroke="#87CEEB" stroke-width="0.5" opacity="0.8"/>
  <line x1="96.69530807355792" y1="357.44368761762746" x2="87.64034212051" y2="356.1149901867287" stroke="#87CEEB" stroke-width="0.5" opacity="0.8"/>
  <line x1="87.64034212051" y1="356.1149901867287" x2="77.72549203439985" y2="355.5409222646188" stroke="#87CEEB" stroke-width="0.5" opacity="0.8"/>
  <line x1="77.72549203439985" y1="355.5409222646188" x2="73.86354908320465" y2="353.7611419764744" stroke="#87CEEB" stroke-width="0.5" opacity="0.8"/>
  <line x1="87.64034212051" y1="356.1149901867287" x2="85.18497207656814" y2="374.70420308079343" stroke="#87CEEB" stroke-width="0.5" opacity="0.8"/>
  <line x1="85.18497207656814" y1="374.70420308079343" x2="96.69530807355792" y2="357.44368761762746" stroke="#87CEEB" stroke-width="0.5" opacity="0.8"/>
  <line x1="121.65979219102319" y1="349.2713976851317" x2="107.72526683954044" y2="384.2383630823222" stroke="#87CEEB" stroke-width="0.5" opacity="0.8"/>
  <line x1="96.69530807355792" y1="357.44368761762746" x2="104.54372687543119" y2="389.73048806253536" stroke="#87CEEB" stroke-width="0.5" opacity="0.8"/>
  <ellipse cx="77.55555555555551" cy="377.27666666666664" rx="0.6666666666666666" ry="1.0" transform="rotate(1e-10 77.55555555555551 377.27666666666664)" fill="none" stroke="#FFA500" stroke-width="0.2" stroke-dasharray="2,1" opacity="0.7"/>
  <text x="79.55555555555551" y="379.27666666666664" fill="#FFA500" font-size="3.5" font-weight="bold" opacity="0.9">M30</text>
  
  <!-- Title and info -->
  <text x="400.0" y="25" text-anchor="middle" 
        fill="white" font-size="12.0" font-weight="bold">
    Constellation View
  </text>
  
  <text x="10" y="590" fill="white" font-size="5.0">
    RA: 0.0째 to 360.0째 | DE: -90.0째 to 90.0째 | 
    Stars: 9 | DSO: 1 | Vector SVG
  </text>
  
</svg>