<?xml version="1.0" encoding="UTF-8"?>
<svg width="800" height="600" 
     viewBox="0 0 800 600"
     xmlns="http://www.w3.org/2000/svg"
     style="background-color: #000000;">
     
  <!-- Scalable constellation visualization -->
  <defs>
    <!-- Star symbol -->
    <g id="star">
      <polygon points="0,-1 0.3,-0.3 1,0 0.3,0.3 0,1 -0.3,0.3 -1,0 -0.3,-0.3" 
               fill="currentColor" stroke="none"/>
    </g>
    
    <!-- Bright star symbol -->
    <g id="bright-star">
      <polygon points="0,-1.2 0.35,-0.35 1.2,0 0.35,0.35 0,1.2 -0.35,0.35 -1.2,0 -0.35,-0.35" 
               fill="currentColor" stroke="none"/>
    </g>
  </defs>
  
  <!-- Grid lines -->
  <g id="grid" stroke="#333" stroke-width="0.1" opacity="0.3">
    <line x1="800.0" y1="0" x2="800.0" y2="600"/>
    <line x1="733.3333333333333" y1="0" x2="733.3333333333333" y2="600"/>
    <line x1="666.6666666666667" y1="0" x2="666.6666666666667" y2="600"/>
    <line x1="600.0" y1="0" x2="600.0" y2="600"/>
    <line x1="533.3333333333334" y1="0" x2="533.3333333333334" y2="600"/>
    <line x1="466.66666666666663" y1="0" x2="466.66666666666663" y2="600"/>
    <line x1="400.0" y1="0" x2="400.0" y2="600"/>
    <line x1="333.3333333333333" y1="0" x2="333.3333333333333" y2="600"/>
    <line x1="266.6666666666667" y1="0" x2="266.6666666666667" y2="600"/>
    <line x1="200.0" y1="0" x2="200.0" y2="600"/>
    <line x1="133.33333333333331" y1="0" x2="133.33333333333331" y2="600"/>
    <line x1="66.6666666666667" y1="0" x2="66.6666666666667" y2="600"/>
    <line x1="0.0" y1="0" x2="0.0" y2="600"/>
    <line x1="0" y1="600.0" x2="800" y2="600.0"/>
    <line x1="0" y1="500.0" x2="800" y2="500.0"/>
    <line x1="0" y1="400.00000000000006" x2="800" y2="400.00000000000006"/>
    <line x1="0" y1="300.0" x2="800" y2="300.0"/>
    <line x1="0" y1="200.00000000000003" x2="800" y2="200.00000000000003"/>
    <line x1="0" y1="99.99999999999997" x2="800" y2="99.99999999999997"/>
    <line x1="0" y1="0.0" x2="800" y2="0.0"/>
  </g>

  <!-- Constellation elements -->
  <use href="#star" x="264.87971408452336" y="464.09866059740983" transform="scale(0.5309734423650312)" fill="#FFFFFF" opacity="0.9"/>
  <use href="#star" x="259.1787694436938" y="482.10193993534153" transform="scale(0.5042016564280251)" fill="#FFFFFF" opacity="0.9"/>
  <use href="#star" x="255.64735028474965" y="467.1868577701371" transform="scale(0.6)" fill="#FFFFFF" opacity="0.9"/>
  <use href="#star" x="251.564638490571" y="458.51651841295507" transform="scale(0.5504586866995425)" fill="#FFFFFF" opacity="0.9"/>
  <line x1="259.1787694436938" y1="482.10193993534153" x2="255.64735028474965" y2="467.1868577701371" stroke="#87CEEB" stroke-width="0.5" opacity="0.8"/>
  <line x1="255.64735028474965" y1="467.1868577701371" x2="251.564638490571" y2="458.51651841295507" stroke="#87CEEB" stroke-width="0.5" opacity="0.8"/>
  <line x1="251.564638490571" y1="458.51651841295507" x2="264.87971408452336" y2="464.09866059740983" stroke="#87CEEB" stroke-width="0.5" opacity="0.8"/>
  <line x1="264.87971408452336" y1="464.09866059740983" x2="255.64735028474965" y2="467.1868577701371" stroke="#87CEEB" stroke-width="0.5" opacity="0.8"/>
  <line x1="264.87971408452336" y1="464.09866059740983" x2="259.1787694436938" y2="482.10193993534153" stroke="#87CEEB" stroke-width="0.5" opacity="0.8"/>
  <ellipse cx="269.0777777777778" cy="482.14500000000004" rx="1.1851851851851853" ry="1.7777777777777777" transform="rotate(1e-10 269.0777777777778 482.14500000000004)" fill="none" stroke="#BA55D3" stroke-width="0.2" stroke-dasharray="2,1" opacity="0.7"/>
  <text x="271.0777777777778" y="484.14500000000004" fill="#BA55D3" font-size="3.5" font-weight="bold" opacity="0.9">GUM49</text>
  <ellipse cx="259.32399999999996" cy="480.72366666666665" rx="0.4962962962962963" ry="0.7444444444444445" transform="rotate(1e-10 259.32399999999996 480.72366666666665)" fill="none" stroke="#FFA500" stroke-width="0.2" stroke-dasharray="2,1" opacity="0.7"/>
  <text x="261.32399999999996" y="482.72366666666665" fill="#FFA500" font-size="3.5" font-weight="bold" opacity="0.9">NGC6067</text>
  <ellipse cx="256.2044444444444" cy="493.1166666666667" rx="1.0925925925925926" ry="1.6388888888888888" transform="rotate(1e-10 256.2044444444444 493.1166666666667)" fill="none" stroke="#FFA500" stroke-width="0.2" stroke-dasharray="2,1" opacity="0.7"/>
  <text x="258.2044444444444" y="495.1166666666667" fill="#FFA500" font-size="3.5" font-weight="bold" opacity="0.9">NGC6087</text>
  <ellipse cx="251.222" cy="463.84000000000003" rx="0.6933333333333334" ry="1.04" transform="rotate(90.0000000001 251.222 463.84000000000003)" fill="none" stroke="#FFA500" stroke-width="0.2" stroke-dasharray="2,1" opacity="0.7"/>
  <text x="253.222" y="465.84000000000003" fill="#FFA500" font-size="3.5" font-weight="bold" opacity="0.9">NGC6134</text>
  <g transform="translate(247.84755555555557,460.37066666666664) scale(0.5)">
    <line x1="-2" y1="0" x2="2" y2="0" stroke="#BA55D3" stroke-width="0.5"/>
    <line x1="0" y1="-2" x2="0" y2="2" stroke="#BA55D3" stroke-width="0.5"/>
  </g>
  <text x="249.84755555555557" y="462.37066666666664" fill="#BA55D3" font-size="3.5" font-weight="bold" opacity="0.9">NGC6164</text>
  
  <!-- Title and info -->
  <text x="400.0" y="25" text-anchor="middle" 
        fill="white" font-size="12.0" font-weight="bold">
    Constellation View
  </text>
  
  <text x="10" y="590" fill="white" font-size="5.0">
    RA: 0.0째 to 360.0째 | DE: -90.0째 to 90.0째 | 
    Stars: 4 | DSO: 5 | Vector SVG
  </text>
  
</svg>