<?xml version="1.0" encoding="UTF-8"?>
<svg width="800" height="600" 
     viewBox="0 0 800 600"
     xmlns="http://www.w3.org/2000/svg"
     style="background-color: #000000;">
     
  <!-- Scalable constellation visualization -->
  <defs>
    <!-- Star symbol -->
    <g id="star">
      <polygon points="0,-1 0.3,-0.3 1,0 0.3,0.3 0,1 -0.3,0.3 -1,0 -0.3,-0.3" 
               fill="currentColor" stroke="none"/>
    </g>
    
    <!-- Bright star symbol -->
    <g id="bright-star">
      <polygon points="0,-1.2 0.35,-0.35 1.2,0 0.35,0.35 0,1.2 -0.35,0.35 -1.2,0 -0.35,-0.35" 
               fill="currentColor" stroke="none"/>
    </g>
  </defs>
  
  <!-- Grid lines -->
  <g id="grid" stroke="#333" stroke-width="0.1" opacity="0.3">
  </g>

  <!-- Constellation elements -->
  <use href="#star" x="647.6623734353591" y="120.40009899480668" transform="scale(0.7594936158752237)" fill="#FFFFFF" opacity="0.9"/>
  <use href="#star" x="616.4209888306526" y="83.23462294343449" transform="scale(0.6185567131938484)" fill="#FFFFFF" opacity="0.9"/>
  <use href="#star" x="550.4993882074147" y="237.12109206166775" transform="scale(0.6741572600274294)" fill="#FFFFFF" opacity="0.9"/>
  <use href="#star" x="545.8281337951162" y="316.94499858458386" transform="scale(1.2765956669708618)" fill="#FFFFFF" opacity="0.9"/>
  <use href="#star" x="508.17377104834077" y="126.34237407698947" transform="scale(0.6818181670401711)" fill="#FFFFFF" opacity="0.9"/>
  <use href="#star" x="493.2932318508383" y="185.89124496674674" transform="scale(0.9374999161809757)" fill="#FFFFFF" opacity="0.9"/>
  <use href="#star" x="248.4676192940273" y="174.51831606565372" transform="scale(0.8450703771311597)" fill="#FFFFFF" opacity="0.9"/>
  <use href="#star" x="247.8908966293325" y="259.3215584125628" transform="scale(0.6976743876579468)" fill="#FFFFFF" opacity="0.9"/>
  <use href="#star" x="90.4576340596991" y="273.60066895157433" transform="scale(0.9677419652551825)" fill="#FFFFFF" opacity="0.9"/>
  <line x1="90.4576340596991" y1="273.60066895157433" x2="247.8908966293325" y2="259.3215584125628" stroke="#87CEEB" stroke-width="0.5" opacity="0.8"/>
  <line x1="247.8908966293325" y1="259.3215584125628" x2="545.8281337951162" y2="316.94499858458386" stroke="#87CEEB" stroke-width="0.5" opacity="0.8"/>
  <line x1="545.8281337951162" y1="316.94499858458386" x2="550.4993882074147" y2="237.12109206166775" stroke="#87CEEB" stroke-width="0.5" opacity="0.8"/>
  <line x1="550.4993882074147" y1="237.12109206166775" x2="493.2932318508383" y2="185.89124496674674" stroke="#87CEEB" stroke-width="0.5" opacity="0.8"/>
  <line x1="493.2932318508383" y1="185.89124496674674" x2="248.4676192940273" y2="174.51831606565372" stroke="#87CEEB" stroke-width="0.5" opacity="0.8"/>
  <line x1="248.4676192940273" y1="174.51831606565372" x2="90.4576340596991" y2="273.60066895157433" stroke="#87CEEB" stroke-width="0.5" opacity="0.8"/>
  <line x1="493.2932318508383" y1="185.89124496674674" x2="508.17377104834077" y2="126.34237407698947" stroke="#87CEEB" stroke-width="0.5" opacity="0.8"/>
  <line x1="508.17377104834077" y1="126.34237407698947" x2="616.4209888306526" y2="83.23462294343449" stroke="#87CEEB" stroke-width="0.5" opacity="0.8"/>
  <line x1="616.4209888306526" y1="83.23462294343449" x2="647.6623734353591" y2="120.40009899480668" stroke="#87CEEB" stroke-width="0.5" opacity="0.8"/>
  <line x1="248.4676192940273" y1="174.51831606565372" x2="247.8908966293325" y2="259.3215584125628" stroke="#87CEEB" stroke-width="0.5" opacity="0.8"/>
  <use href="#bright-star" x="493.2943459571842" y="185.89110393182494" transform="scale(0.9375)" fill="#FFD700" opacity="0.95"/>
  <text x="496.2943459571842" y="182.89110393182494" fill="#FFD700" font-size="4.5" font-weight="bold">Algieba</text>
  <use href="#bright-star" x="545.8267123610142" y="316.9456824487213" transform="scale(1.276595744680851)" fill="#FFD700" opacity="0.95"/>
  <text x="548.8267123610142" y="313.9456824487213" fill="#FFD700" font-size="4.5" font-weight="bold">Regulus</text>
  <ellipse cx="367.4695861328243" cy="306.6995003643845" rx="0.18999999999999997" ry="0.26" transform="rotate(1e-10 367.4695861328243 306.6995003643845)" fill="none" stroke="#4682B4" stroke-width="0.2" stroke-dasharray="2,1" opacity="0.7"/>
  <text x="369.4695861328243" y="308.6995003643845" fill="#4682B4" font-size="3.5" font-weight="bold" opacity="0.9">M105</text>
  <ellipse cx="226.80796516999217" cy="298.3760380700411" rx="0.3081481481481481" ry="0.11888888888888888" transform="rotate(174.0000000001 226.80796516999217 298.3760380700411)" fill="none" stroke="#4682B4" stroke-width="0.2" stroke-dasharray="2,1" opacity="0.7"/>
  <text x="228.80796516999217" y="300.3760380700411" fill="#4682B4" font-size="3.5" font-weight="bold" opacity="0.9">M65</text>
  <ellipse cx="220.92821895611144" cy="300.04073052890976" rx="0.3151851851851852" ry="0.21111111111111108" transform="rotate(173.0000000001 220.92821895611144 300.04073052890976)" fill="none" stroke="#4682B4" stroke-width="0.2" stroke-dasharray="2,1" opacity="0.7"/>
  <text x="222.92821895611144" y="302.04073052890976" fill="#4682B4" font-size="3.5" font-weight="bold" opacity="0.9">M66</text>
  <ellipse cx="384.656536604167" cy="321.398734776195" rx="0.26222222222222225" ry="0.2372222222222222" transform="rotate(13.0000000001 384.656536604167 321.398734776195)" fill="none" stroke="#4682B4" stroke-width="0.2" stroke-dasharray="2,1" opacity="0.7"/>
  <text x="386.656536604167" y="323.398734776195" fill="#4682B4" font-size="3.5" font-weight="bold" opacity="0.9">M95</text>
  <ellipse cx="371.9924678358093" cy="319.4510445993187" rx="0.26814814814814814" ry="0.26611111111111113" transform="rotate(5.0000000001 371.9924678358093 319.4510445993187)" fill="none" stroke="#4682B4" stroke-width="0.2" stroke-dasharray="2,1" opacity="0.7"/>
  <text x="373.9924678358093" y="321.4510445993187" fill="#4682B4" font-size="3.5" font-weight="bold" opacity="0.9">M96</text>
  <ellipse cx="709.5423659403009" cy="158.2455562673925" rx="0.42518518518518517" ry="0.2916666666666667" transform="rotate(23.0000000001 709.5423659403009 158.2455562673925)" fill="none" stroke="#4682B4" stroke-width="0.2" stroke-dasharray="2,1" opacity="0.7"/>
  <text x="711.5423659403009" y="160.2455562673925" fill="#4682B4" font-size="3.5" font-weight="bold" opacity="0.9">NGC2903</text>
  <ellipse cx="501.82631000169494" cy="152.73375953607828" rx="0.13444444444444445" ry="0.07" transform="rotate(123.0000000001 501.82631000169494 152.73375953607828)" fill="none" stroke="#4682B4" stroke-width="0.2" stroke-dasharray="2,1" opacity="0.7"/>
  <text x="503.82631000169494" y="154.73375953607828" fill="#4682B4" font-size="3.5" font-weight="bold" opacity="0.9">NGC3190</text>
  <ellipse cx="286.0124866620653" cy="516.7653770565656" rx="0.3703703703703703" ry="0.26611111111111113" transform="rotate(164.0000000001 286.0124866620653 516.7653770565656)" fill="none" stroke="#4682B4" stroke-width="0.2" stroke-dasharray="2,1" opacity="0.7"/>
  <text x="288.0124866620653" y="518.7653770565656" fill="#4682B4" font-size="3.5" font-weight="bold" opacity="0.9">NGC3521</text>
  <ellipse cx="221.4474457756143" cy="210.6151163309427" rx="0.06455555555555556" ry="0.06972222222222221" transform="rotate(155.0000000001 221.4474457756143 210.6151163309427)" fill="none" stroke="#4682B4" stroke-width="0.2" stroke-dasharray="2,1" opacity="0.7"/>
  <text x="223.4474457756143" y="212.6151163309427" fill="#4682B4" font-size="3.5" font-weight="bold" opacity="0.9">NGC3626</text>
  
  <!-- Title and info -->
  <text x="400.0" y="25" text-anchor="middle" 
        fill="white" font-size="12.0" font-weight="bold">
    Constellation View
  </text>
  
  <text x="10" y="590" fill="white" font-size="5.0">
    RA: 138.0째 to 182.3째 | DE: -5.0째 to 31.0째 | 
    Stars: 9 | DSO: 9 | Vector SVG
  </text>
  
</svg>