<?xml version="1.0" encoding="UTF-8"?>
<svg width="800" height="600" 
     viewBox="0 0 800 600"
     xmlns="http://www.w3.org/2000/svg"
     style="background-color: #000000;">
     
  <!-- Scalable constellation visualization -->
  <defs>
    <!-- Star symbol -->
    <g id="star">
      <polygon points="0,-1 0.3,-0.3 1,0 0.3,0.3 0,1 -0.3,0.3 -1,0 -0.3,-0.3" 
               fill="currentColor" stroke="none"/>
    </g>
    
    <!-- Bright star symbol -->
    <g id="bright-star">
      <polygon points="0,-1.2 0.35,-0.35 1.2,0 0.35,0.35 0,1.2 -0.35,0.35 -1.2,0 -0.35,-0.35" 
               fill="currentColor" stroke="none"/>
    </g>
  </defs>
  
  <!-- Grid lines -->
  <g id="grid" stroke="#333" stroke-width="0.1" opacity="0.3">
  </g>

  <!-- Constellation elements -->
  <use href="#star" x="707.4251458656561" y="498.5727001582487" transform="scale(0.652173926564381)" fill="#FFFFFF" opacity="0.9"/>
  <use href="#star" x="594.7098226078251" y="193.78915621386673" transform="scale(0.652173926564381)" fill="#FFFFFF" opacity="0.9"/>
  <use href="#star" x="541.3994753401857" y="428.3467003413688" transform="scale(0.6818181670401711)" fill="#FFFFFF" opacity="0.9"/>
  <use href="#star" x="452.9146423340654" y="364.70660655500615" transform="scale(0.6451612770908873)" fill="#FFFFFF" opacity="0.9"/>
  <use href="#star" x="438.3744212842121" y="325.8633571650397" transform="scale(0.631578947368421)" fill="#FFFFFF" opacity="0.9"/>
  <use href="#star" x="426.5520706827652" y="318.0365384494612" transform="scale(0.5)" fill="#FFFFFF" opacity="0.9"/>
  <use href="#star" x="412.0749940038143" y="292.6384503623112" transform="scale(0.6666666666666666)" fill="#FFFFFF" opacity="0.9"/>
  <use href="#star" x="411.86347916577546" y="359.77296601080553" transform="scale(0.6818181670401711)" fill="#FFFFFF" opacity="0.9"/>
  <use href="#star" x="378.2721288229654" y="346.8437843745442" transform="scale(1.6216214962298292)" fill="#FFFFFF" opacity="0.9"/>
  <use href="#star" x="349.00515037370974" y="216.02901447550377" transform="scale(0.5)" fill="#FFFFFF" opacity="0.9"/>
  <use href="#star" x="145.12394055146603" y="101.42729984175129" transform="scale(1.132075430957311)" fill="#FFFFFF" opacity="0.9"/>
  <use href="#star" x="92.5748541343439" y="252.83316048620554" transform="scale(0.7594936158752237)" fill="#FFFFFF" opacity="0.9"/>
  <line x1="145.12394055146603" y1="101.42729984175129" x2="349.00515037370974" y2="216.02901447550377" stroke="#87CEEB" stroke-width="0.5" opacity="0.8"/>
  <line x1="349.00515037370974" y1="216.02901447550377" x2="412.0749940038143" y2="292.6384503623112" stroke="#87CEEB" stroke-width="0.5" opacity="0.8"/>
  <line x1="378.2721288229654" y1="346.8437843745442" x2="92.5748541343439" y2="252.83316048620554" stroke="#87CEEB" stroke-width="0.5" opacity="0.8"/>
  <line x1="452.9146423340654" y1="364.70660655500615" x2="438.3744212842121" y2="325.8633571650397" stroke="#87CEEB" stroke-width="0.5" opacity="0.8"/>
  <line x1="452.9146423340654" y1="364.70660655500615" x2="541.3994753401857" y2="428.3467003413688" stroke="#87CEEB" stroke-width="0.5" opacity="0.8"/>
  <line x1="541.3994753401857" y1="428.3467003413688" x2="707.4251458656561" y2="498.5727001582487" stroke="#87CEEB" stroke-width="0.5" opacity="0.8"/>
  <line x1="378.2721288229654" y1="346.8437843745442" x2="412.0749940038143" y2="292.6384503623112" stroke="#87CEEB" stroke-width="0.5" opacity="0.8"/>
  <line x1="378.2721288229654" y1="346.8437843745442" x2="411.86347916577546" y2="359.77296601080553" stroke="#87CEEB" stroke-width="0.5" opacity="0.8"/>
  <line x1="411.86347916577546" y1="359.77296601080553" x2="452.9146423340654" y2="364.70660655500615" stroke="#87CEEB" stroke-width="0.5" opacity="0.8"/>
  <line x1="412.0749940038143" y1="292.6384503623112" x2="426.5520706827652" y2="318.0365384494612" stroke="#87CEEB" stroke-width="0.5" opacity="0.8"/>
  <line x1="426.5520706827652" y1="318.0365384494612" x2="438.3744212842121" y2="325.8633571650397" stroke="#87CEEB" stroke-width="0.5" opacity="0.8"/>
  <line x1="438.3744212842121" y1="325.8633571650397" x2="594.7098226078251" y2="193.78915621386673" stroke="#87CEEB" stroke-width="0.5" opacity="0.8"/>
  <use href="#bright-star" x="378.27164732697076" y="346.843201857988" transform="scale(1.6216216216216215)" fill="#FFD700" opacity="0.95"/>
  <text x="381.27164732697076" y="343.843201857988" fill="#FFD700" font-size="4.5" font-weight="bold">Aldebaran</text>
  <text x="109.13100854997357" y="237.09263143834323" fill="#BA55D3" font-size="3.5" font-weight="bold" opacity="0.9">M1</text>
  <ellipse cx="604.8967417449272" cy="189.76477113906464" rx="5.662222222222223" ry="8.493333333333332" transform="rotate(1e-10 604.8967417449272 189.76477113906464)" fill="none" stroke="#FFA500" stroke-width="0.2" stroke-dasharray="2,1" opacity="0.7"/>
  <text x="606.8967417449272" y="191.76477113906464" fill="#FFA500" font-size="3.5" font-weight="bold" opacity="0.9">M45</text>
  <g transform="translate(419.6081711950378,359.8725527956593) scale(1.0)">
    <line x1="-2" y1="0" x2="2" y2="0" stroke="#FFA500" stroke-width="0.5"/>
    <line x1="0" y1="-2" x2="0" y2="2" stroke="#FFA500" stroke-width="0.5"/>
  </g>
  <text x="421.6081711950378" y="361.8725527956593" fill="#FFA500" font-size="3.5" font-weight="bold" opacity="0.9">Melotte25</text>
  <g transform="translate(442.8981529981562,285.4310003498045) scale(0.5)">
    <line x1="-2" y1="0" x2="2" y2="0" stroke="#BA55D3" stroke-width="0.5"/>
    <line x1="0" y1="-2" x2="0" y2="2" stroke="#BA55D3" stroke-width="0.5"/>
  </g>
  <text x="444.8981529981562" y="287.4310003498045" fill="#BA55D3" font-size="3.5" font-weight="bold" opacity="0.9">NGC1555</text>
  <path d="M 107.62332162425992,234.4536394493402 L 107.55629742986672,234.3988687074257 L 107.46575922252326,234.34815505750487 L 107.2889412511266,234.3258410515396 L 107.2130298707365,234.37858324745736 L 107.17785142616538,234.3745261554637 L 107.1276758552247,234.34206941951433 L 107.02991680925882,234.35829778748897 L 106.96363321369864,234.38872597744145 L 106.87883464731156,234.4394396273624 L 106.82106793833182,234.5002960072675 L 106.78311224813672,234.52666710522638 L 106.70923751453749,234.5388383812073 L 106.64313906868568,234.5692665711599 L 106.59555559366049,234.6179516750838 L 106.56667223917067,234.68692223897628 L 106.51020157814868,234.7335787969035 L 106.43873379075686,234.74980716487812 L 106.39448301048083,234.7802353548306 L 106.34245594245711,234.86543428669782 L 106.29561306626529,234.92629066660274 L 106.29894576101408,235.01960378245718 L 106.32023797746496,235.08248870835914 L 106.3028339048877,235.12508817429264 L 106.21488779346002,235.15551636424522 L 106.13656946686251,235.2407152961122 L 106.07547006313362,235.3218571359855 L 106.06973042217733,235.41314170584315 L 106.08398694971406,235.50442627570075 L 106.13157042473924,235.56933974759943 L 106.20563030804658,235.67076704744125 L 106.25895342402805,235.72148069736207 L 106.35856396707659,235.7762514392767 L 106.43373474863358,235.78639416926075 L 106.51149762610643,235.7661087092925 L 106.60518337849041,235.75799452530518 L 106.6277716428992,235.80667962922922 L 106.70627511920507,235.87362164712465 L 106.74219416260931,235.8878214691026 L 106.83662051382629,235.8918785610962 L 106.90734770238501,235.86347891714064 L 106.93363896095906,235.82493654320075 L 107.00047800564398,235.7681372552894 L 107.04028519292174,235.73568051933992 L 107.08972016502969,235.7194521513653 L 107.21821406256815,235.74379470332724 L 107.30690077282885,235.76002307130187 L 107.3524476010629,235.75393743331148 L 107.42632233466213,235.74176615733055 L 107.55481623220061,235.65251013346972 L 107.63831875062975,235.50442627570075 L 107.67627444082476,235.439512803802 L 107.6588703682475,235.32997131997305 L 107.67034965016009,235.18797310019448 L 107.78143947512132,235.10277416832747 L 107.83346654314502,234.97903286252046 L 107.85661025667865,234.84717737272626 L 107.86105384967692,234.7356073429002 L 107.83402199226977,234.64837986503628 L 107.77681073241476,234.5692665711599 L 107.62147012717725,234.4556679953371 Z" fill="#FF0000" fill-opacity="0.1" stroke="#FF0000" stroke-width="0.3" stroke-opacity="0.7"/>
  
  <!-- Title and info -->
  <text x="400.0" y="25" text-anchor="middle" 
        fill="white" font-size="12.0" font-weight="bold">
    Constellation View
  </text>
  
  <text x="10" y="590" fill="white" font-size="5.0">
    RA: 46.2째 to 89.4째 | DE: 4.0째 to 33.6째 | 
    Stars: 12 | DSO: 4 | Vector SVG
  </text>
  
</svg>