<?xml version="1.0" encoding="UTF-8"?>
<svg width="800" height="600" 
     viewBox="0 0 800 600"
     xmlns="http://www.w3.org/2000/svg"
     style="background-color: #000000;">
     
  <!-- Scalable constellation visualization -->
  <defs>
    <!-- Star symbol -->
    <g id="star">
      <polygon points="0,-1 0.3,-0.3 1,0 0.3,0.3 0,1 -0.3,0.3 -1,0 -0.3,-0.3" 
               fill="currentColor" stroke="none"/>
    </g>
    
    <!-- Bright star symbol -->
    <g id="bright-star">
      <polygon points="0,-1.2 0.35,-0.35 1.2,0 0.35,0.35 0,1.2 -0.35,0.35 -1.2,0 -0.35,-0.35" 
               fill="currentColor" stroke="none"/>
    </g>
  </defs>
  
  <!-- Grid lines -->
  <g id="grid" stroke="#333" stroke-width="0.1" opacity="0.3">
    <line x1="800.0" y1="0" x2="800.0" y2="600"/>
    <line x1="733.3333333333333" y1="0" x2="733.3333333333333" y2="600"/>
    <line x1="666.6666666666667" y1="0" x2="666.6666666666667" y2="600"/>
    <line x1="600.0" y1="0" x2="600.0" y2="600"/>
    <line x1="533.3333333333334" y1="0" x2="533.3333333333334" y2="600"/>
    <line x1="466.66666666666663" y1="0" x2="466.66666666666663" y2="600"/>
    <line x1="400.0" y1="0" x2="400.0" y2="600"/>
    <line x1="333.3333333333333" y1="0" x2="333.3333333333333" y2="600"/>
    <line x1="266.6666666666667" y1="0" x2="266.6666666666667" y2="600"/>
    <line x1="200.0" y1="0" x2="200.0" y2="600"/>
    <line x1="133.33333333333331" y1="0" x2="133.33333333333331" y2="600"/>
    <line x1="66.6666666666667" y1="0" x2="66.6666666666667" y2="600"/>
    <line x1="0.0" y1="0" x2="0.0" y2="600"/>
    <line x1="0" y1="600.0" x2="800" y2="600.0"/>
    <line x1="0" y1="500.0" x2="800" y2="500.0"/>
    <line x1="0" y1="400.00000000000006" x2="800" y2="400.00000000000006"/>
    <line x1="0" y1="300.0" x2="800" y2="300.0"/>
    <line x1="0" y1="200.00000000000003" x2="800" y2="200.00000000000003"/>
    <line x1="0" y1="99.99999999999997" x2="800" y2="99.99999999999997"/>
    <line x1="0" y1="0.0" x2="800" y2="0.0"/>
  </g>

  <!-- Constellation elements -->
  <use href="#star" x="794.8974000341319" y="102.82029024840978" transform="scale(0.9230769230769231)" fill="#FFFFFF" opacity="0.9"/>
  <use href="#star" x="777.4946781722343" y="111.54220374878523" transform="scale(0.9374999161809757)" fill="#FFFFFF" opacity="0.9"/>
  <use href="#star" x="768.4946612734151" y="97.61035344089926" transform="scale(0.9523809235472627)" fill="#FFFFFF" opacity="0.9"/>
  <use href="#star" x="752.321807032551" y="99.20962919245252" transform="scale(0.821917786744058)" fill="#FFFFFF" opacity="0.9"/>
  <use href="#star" x="736.4462422808683" y="87.76580405421383" transform="scale(0.6896551875334813)" fill="#FFFFFF" opacity="0.9"/>
  <line x1="736.4462422808683" y1="87.76580405421383" x2="752.321807032551" y2="99.20962919245252" stroke="#87CEEB" stroke-width="0.5" opacity="0.8"/>
  <line x1="752.321807032551" y1="99.20962919245252" x2="768.4946612734151" y2="97.61035344089926" stroke="#87CEEB" stroke-width="0.5" opacity="0.8"/>
  <line x1="768.4946612734151" y1="97.61035344089926" x2="777.4946781722343" y2="111.54220374878523" stroke="#87CEEB" stroke-width="0.5" opacity="0.8"/>
  <line x1="777.4946781722343" y1="111.54220374878523" x2="794.8974000341319" y2="102.82029024840978" stroke="#87CEEB" stroke-width="0.5" opacity="0.8"/>
  <use href="#bright-star" x="772.6997777777779" y="107.27999999999997" transform="scale(0.8)" fill="#FFD700" opacity="0.95"/>
  <text x="775.6997777777779" y="104.27999999999997" fill="#FFD700" font-size="4.5" font-weight="bold">Eta_Cassiopeiae</text>
  <text x="721.0415555555555" y="94.988" fill="#BA55D3" font-size="3.5" font-weight="bold" opacity="0.9">IC1795</text>
  <text x="717.1666666666666" y="97.16666666666669" fill="#BA55D3" font-size="3.5" font-weight="bold" opacity="0.9">IC1805</text>
  <text x="706.94" y="100.63333333333335" fill="#BA55D3" font-size="3.5" font-weight="bold" opacity="0.9">IC1848</text>
  <text x="769.5337777777778" y="98.6136666666667" fill="#BA55D3" font-size="3.5" font-weight="bold" opacity="0.9">IC59</text>
  <ellipse cx="748.2222222222222" cy="97.66666666666669" rx="0.2740740740740741" ry="0.4111111111111111" transform="rotate(1e-10 748.2222222222222 97.66666666666669)" fill="none" stroke="#FFA500" stroke-width="0.2" stroke-dasharray="2,1" opacity="0.7"/>
  <text x="750.2222222222222" y="99.66666666666669" fill="#FFA500" font-size="3.5" font-weight="bold" opacity="0.9">M103</text>
  <ellipse cx="819.8888888888888" cy="94.72333333333331" rx="0.5925925925925927" ry="0.8888888888888888" transform="rotate(1e-10 819.8888888888888 94.72333333333331)" fill="none" stroke="#FFA500" stroke-width="0.2" stroke-dasharray="2,1" opacity="0.7"/>
  <text x="821.8888888888888" y="96.72333333333331" fill="#FFA500" font-size="3.5" font-weight="bold" opacity="0.9">M52</text>
  <ellipse cx="781.5411111111111" cy="138.29133333333337" rx="0.4662962962962963" ry="0.3933333333333334" transform="rotate(25.0000000001 781.5411111111111 138.29133333333337)" fill="none" stroke="#4682B4" stroke-width="0.2" stroke-dasharray="2,1" opacity="0.7"/>
  <text x="783.5411111111111" y="140.29133333333337" fill="#4682B4" font-size="3.5" font-weight="bold" opacity="0.9">NGC147</text>
  <ellipse cx="778.3384444444445" cy="138.86266666666666" rx="0.42518518518518517" ry="0.5305555555555556" transform="rotate(35.0000000001 778.3384444444445 138.86266666666666)" fill="none" stroke="#4682B4" stroke-width="0.2" stroke-dasharray="2,1" opacity="0.7"/>
  <text x="780.3384444444445" y="140.86266666666666" fill="#4682B4" font-size="3.5" font-weight="bold" opacity="0.9">NGC185</text>
  <text x="772.8786666666666" y="113.44999999999999" fill="#BA55D3" font-size="3.5" font-weight="bold" opacity="0.9">NGC281</text>
  <ellipse cx="755.7866666666666" cy="105.70999999999995" rx="0.5555555555555556" ry="0.8333333333333334" transform="rotate(1e-10 755.7866666666666 105.70999999999995)" fill="none" stroke="#FFA500" stroke-width="0.2" stroke-dasharray="2,1" opacity="0.7"/>
  <text x="757.7866666666666" y="107.70999999999995" fill="#FFA500" font-size="3.5" font-weight="bold" opacity="0.9">NGC457</text>
  <ellipse cx="750.2666666666667" cy="88.99333333333334" rx="0.3592592592592592" ry="0.5388888888888889" transform="rotate(1e-10 750.2666666666667 88.99333333333334)" fill="none" stroke="#FFA500" stroke-width="0.2" stroke-dasharray="2,1" opacity="0.7"/>
  <text x="752.2666666666667" y="90.99333333333334" fill="#FFA500" font-size="3.5" font-weight="bold" opacity="0.9">NGC559</text>
  <ellipse cx="741.0288888888889" cy="95.88333333333333" rx="0.6666666666666666" ry="1.0" transform="rotate(1e-10 741.0288888888889 95.88333333333333)" fill="none" stroke="#FFA500" stroke-width="0.2" stroke-dasharray="2,1" opacity="0.7"/>
  <text x="743.0288888888889" y="97.88333333333333" fill="#FFA500" font-size="3.5" font-weight="bold" opacity="0.9">NGC663</text>
  <text x="823.7751111111111" y="97.99433333333324" fill="#BA55D3" font-size="3.5" font-weight="bold" opacity="0.9">NGC7635</text>
  <ellipse cx="801.4444444444443" cy="110.97333333333333" rx="0.9370370370370371" ry="1.4055555555555554" transform="rotate(1e-10 801.4444444444443 110.97333333333333)" fill="none" stroke="#FFA500" stroke-width="0.2" stroke-dasharray="2,1" opacity="0.7"/>
  <text x="803.4444444444443" y="112.97333333333333" fill="#FFA500" font-size="3.5" font-weight="bold" opacity="0.9">NGC7789</text>
  <g transform="translate(799.1395555555555,84.64333333333336) scale(0.5)">
    <line x1="-2" y1="0" x2="2" y2="0" stroke="#BA55D3" stroke-width="0.5"/>
    <line x1="0" y1="-2" x2="0" y2="2" stroke="#BA55D3" stroke-width="0.5"/>
  </g>
  <text x="801.1395555555555" y="86.64333333333336" fill="#BA55D3" font-size="3.5" font-weight="bold" opacity="0.9">SH2-170</text>
  <path d="M 770.4358444444445,112.17166666666665 L 770.2352444444444,112.0373333333333 L 770.0800222222222,111.84400000000004 L 769.98,111.67966666666662 L 769.9046,111.47533333333335 L 769.8132,111.26200000000001 L 769.7833777777778,111.0923333333333 L 769.8371333333333,110.89700000000002 L 769.9886888888889,110.74300000000001 L 770.2873111111111,110.55733333333333 L 770.5777777777778,110.46466666666666 L 770.9311777777777,110.50366666666665 L 771.2303111111111,110.59400000000004 L 771.4435111111111,110.71633333333331 L 771.5126444444445,110.94233333333332 L 771.5844444444444,111.198 L 771.5493555555556,111.37366666666668 L 771.4902444444444,111.53900000000003 L 771.1443111111112,111.52133333333332 L 770.9358888888888,111.51533333333334 L 770.7342,111.47433333333328 L 770.6404888888889,111.46199999999999 L 770.7918666666667,111.58299999999998 L 770.8548888888889,111.84400000000004 L 770.8790222222223,112.03500000000003 L 770.8505555555556,112.18299999999999 L 770.7077333333333,112.29399999999998 L 770.5415555555555,112.30100000000003 L 770.4345111111112,112.17866666666663 Z" fill="#FF0000" fill-opacity="0.1" stroke="#FF0000" stroke-width="0.3" stroke-opacity="0.7"/>
  <path d="M 21.750911111111115,96.00099999999996 L 21.738400000000002,96.01033333333335 L 21.7244,96.02866666666674 L 21.717088888888902,96.05000000000001 L 21.71984444444446,96.06533333333338 L 21.724555555555547,96.08133333333335 L 21.728600000000053,96.09699999999992 L 21.737466666666627,96.11033333333334 L 21.748111111111168,96.11966666666667 L 21.762666666666686,96.13033333333334 L 21.779866666666692,96.13666666666671 L 21.818933333333312,96.14366666666663 L 21.846799999999966,96.1443333333333 L 21.86833333333338,96.14233333333335 L 21.894266666666695,96.13666666666671 L 21.921333333333326,96.12666666666665 L 21.941244444444408,96.11566666666664 L 21.96220000000002,96.10399999999997 L 21.97568888888881,96.09566666666665 L 21.977022222222242,96.08066666666662 L 21.97837777777778,96.06366666666663 L 21.970777777777695,96.04733333333333 L 21.96388888888894,96.03333333333337 L 21.94431111111106,96.01333333333338 L 21.92706666666675,96.00466666666665 L 21.90220000000007,95.9923333333333 L 21.871955555555544,95.98033333333336 L 21.848711111111196,95.977 L 21.8154444444445,95.97466666666665 L 21.79173333333333,95.9813333333333 L 21.76499999999999,95.99299999999997 L 21.75117777777773,96.00066666666662 Z" fill="#FF0000" fill-opacity="0.1" stroke="#FF0000" stroke-width="0.3" stroke-opacity="0.7"/>
  <path d="M 21.334422222222216,96.23633333333336 L 21.38580000000001,96.14733333333332 L 21.494377777777718,95.95799999999994 L 21.567866666666635,95.86166666666665 L 21.65033333333337,95.80366666666673 L 21.725844444444498,95.76033333333325 L 21.79206666666662,95.70800000000004 L 21.865622222222303,95.63133333333333 L 21.907600000000027,95.57299999999995 L 21.99028888888881,95.52466666666663 L 22.0720222222222,95.52566666666671 L 22.166911111111087,95.54633333333338 L 22.255622222222282,95.59833333333331 L 22.294622222222227,95.67700000000004 L 22.304044444444404,95.79766666666669 L 22.278133333333372,95.86033333333337 L 22.19622222222215,96.00033333333329 L 22.169799999999995,96.09233333333329 L 22.152466666666726,96.20266666666662 L 22.115422222222136,96.28866666666664 L 22.031244444444464,96.36899999999997 L 21.863755555555553,96.435 L 21.682777777777762,96.435 L 21.509088888888872,96.40133333333331 L 21.397422222222318,96.36999999999998 L 21.314511111111045,96.30666666666663 L 21.33837777777776,96.2353333333333 Z" fill="#FF0000" fill-opacity="0.1" stroke="#FF0000" stroke-width="0.3" stroke-opacity="0.7"/>
  <path d="M 712.7178222222221,95.46066666666661 L 712.4757555555556,95.36133333333336 L 712.2256444444444,95.28999999999996 L 712.0754666666667,95.25466666666667 L 711.9712,95.19700000000002 L 711.8127333333334,95.11733333333336 L 711.6919333333334,94.97166666666668 L 711.6593111111112,94.79533333333339 L 711.619511111111,94.68233333333332 L 711.6456,94.58566666666668 L 711.7296222222222,94.461 L 711.8950444444445,94.29733333333333 L 711.945,94.22533333333338 L 712.045111111111,94.0816666666667 L 712.2118,93.95433333333341 L 712.429711111111,93.8626666666666 L 712.5115333333333,93.82400000000001 L 712.7494888888889,93.77133333333327 L 712.8705111111111,93.73833333333333 L 713.1126666666667,93.7083333333334 L 713.3822444444444,93.68966666666667 L 713.6714,93.67433333333337 L 714.0155333333333,93.64599999999999 L 714.4502666666667,93.58866666666661 L 714.8032666666667,93.53400000000005 L 715.1363111111111,93.51266666666665 L 715.4361777777777,93.56633333333333 L 715.6492888888889,93.63533333333332 L 716.0607555555556,93.72200000000002 L 716.321288888889,93.86433333333335 L 716.6333555555556,94.06633333333335 L 716.8075111111111,94.1883333333334 L 716.9382444444444,94.31799999999998 L 717.0760444444444,94.45633333333336 L 717.1779333333334,94.61033333333337 L 717.2603333333333,94.76133333333337 L 717.3057555555555,94.87 L 717.3271111111111,95.08333333333334 L 717.3102,95.28999999999996 L 717.3302,95.44499999999998 L 717.3282666666667,95.5746666666667 L 717.3437555555555,95.7436666666666 L 717.3430666666667,95.93133333333337 L 717.3528,96.05566666666665 L 717.3098444444445,96.25100000000006 L 717.3192666666667,96.4693333333333 L 717.2768222222222,96.57033333333335 L 717.2749777777777,96.70033333333335 L 717.2223555555555,96.86466666666662 L 717.1454,96.98166666666658 L 717.0728888888889,97.17900000000009 L 717.016488888889,97.35699999999999 L 716.9502,97.50466666666662 L 716.8352444444445,97.65133333333331 L 716.7219555555556,97.7623333333333 L 716.5257777777778,97.88799999999999 L 716.3342666666667,98.00033333333333 L 716.0975555555556,98.13433333333334 L 715.9566444444445,98.21199999999992 L 715.7487333333333,98.28599999999994 L 715.5710666666666,98.3576666666666 L 715.2925333333333,98.44200000000004 L 715.0709777777777,98.50000000000001 L 714.8762666666667,98.5336666666667 L 714.6405333333333,98.5753333333333 L 714.3610222222221,98.56733333333332 L 714.1857555555555,98.56866666666673 L 713.9845555555555,98.559 L 713.7646666666667,98.54633333333331 L 713.6009333333334,98.50699999999999 L 713.4332444444444,98.48133333333328 L 713.2879111111112,98.44499999999998 L 713.1575333333333,98.38933333333328 L 713.0047555555556,98.27333333333333 L 712.8740888888889,98.18199999999999 L 712.7619333333333,98.0576666666667 L 712.6532666666667,97.91966666666667 L 712.5593555555556,97.79833333333328 L 712.3785555555555,97.59966666666664 L 712.3180222222222,97.4976666666667 L 712.2872444444445,97.32133333333329 L 712.3086888888888,96.98733333333335 L 712.2893777777778,96.87699999999997 L 712.3075555555555,96.66433333333337 L 712.2994,96.51266666666665 L 712.3255555555555,96.37999999999998 L 712.4126444444445,96.20600000000003 L 712.5228444444444,95.98499999999999 L 712.6258222222222,95.72000000000006 Z" fill="#FF0000" fill-opacity="0.1" stroke="#FF0000" stroke-width="0.3" stroke-opacity="0.7"/>
  <path d="M 699.2186444444444,98.59233333333329 L 699.212488888889,98.45666666666666 L 699.1701777777778,98.33533333333332 L 698.9998,98.32399999999998 L 698.8695333333334,98.26466666666667 L 698.8793555555555,98.08766666666664 L 698.9038888888889,97.97933333333333 L 698.9066888888889,97.86133333333342 L 698.9853555555555,97.78199999999997 L 699.2375333333333,97.78999999999995 L 699.4586,97.77133333333336 L 699.4442444444444,97.70266666666664 L 699.4654444444444,97.53500000000001 L 699.6177333333334,97.4266666666667 L 699.7283555555556,97.37533333333337 L 699.8952888888889,97.33600000000004 L 700.1470444444444,97.26933333333334 L 700.3441777777778,97.26633333333332 L 700.5733777777778,97.28333333333336 L 700.8093111111111,97.3346666666667 L 700.91,97.35899999999992 L 700.9877777777778,97.3816666666666 L 701.1069777777777,97.35699999999999 L 701.2588,97.42799999999998 L 701.3622666666666,97.512 L 701.4036222222222,97.62533333333334 L 701.3866666666667,97.74266666666665 L 701.3758,97.81799999999994 L 701.4344666666666,97.89033333333327 L 701.5076666666666,97.86233333333337 L 701.5296000000001,97.7116666666667 L 701.5825777777777,97.665 L 701.7194888888889,97.67566666666674 L 701.9260444444445,97.68400000000005 L 701.9503333333333,97.82999999999996 L 701.9290666666667,97.97233333333335 L 701.9153333333334,98.06433333333328 L 702.1022,98.0456666666667 L 702.1881555555556,97.93400000000003 L 702.1528,97.78699999999994 L 702.0692,97.65300000000006 L 702.0094222222223,97.43633333333331 L 702.0346888888889,97.269 L 702.1008222222222,97.13866666666662 L 702.1773111111111,97.01766666666668 L 702.2908666666667,96.95899999999997 L 702.5230444444444,96.96133333333339 L 702.6735333333334,96.96533333333328 L 702.8227111111111,96.97800000000004 L 703.0426888888888,97.05600000000001 L 703.1821555555555,97.12766666666674 L 703.3118888888889,97.25766666666667 L 703.3883111111111,97.35766666666666 L 703.5458444444444,97.4563333333333 L 703.6558222222222,97.49166666666666 L 703.8539555555556,97.48400000000001 L 703.9951777777777,97.53899999999997 L 704.1191555555556,97.55899999999997 L 704.1760666666667,97.70000000000003 L 704.2172444444444,97.79733333333334 L 704.3082,97.80566666666665 L 704.3879555555555,97.74499999999999 L 704.5188888888889,97.72333333333339 L 704.6256666666667,97.70800000000001 L 704.7394222222223,97.71866666666675 L 704.9124888888889,97.7863333333334 L 705.0258444444444,97.79666666666667 L 705.0469111111111,97.67966666666663 L 705.1500222222222,97.62166666666666 L 705.3419111111111,97.64933333333336 L 705.4645333333333,97.73766666666668 L 705.5694222222222,97.85866666666661 L 705.5637777777778,97.95166666666668 L 705.5694666666667,98.04600000000003 L 705.6106666666667,98.13499999999995 L 705.738288888889,98.13099999999999 L 705.9073555555556,98.02900000000005 L 706.0638444444445,97.93433333333337 L 706.2094222222222,97.8983333333334 L 706.3035777777777,98.01033333333334 L 706.2973111111111,98.10333333333328 L 706.2894666666667,98.20433333333334 L 706.4589777777778,98.16266666666667 L 706.4944666666667,98.03866666666666 L 706.4944222222223,97.86000000000001 L 706.5867555555556,97.86133333333342 L 706.6547111111112,97.928 L 706.8115111111111,98.01266666666662 L 706.8699333333333,97.95100000000001 L 706.8688666666667,97.78066666666669 L 706.9423333333333,97.64366666666673 L 707.0498222222222,97.57000000000005 L 707.1824444444444,97.66099999999997 L 707.1587111111112,97.83733333333333 L 707.1253777777778,98.00400000000002 L 707.0789111111111,98.23733333333335 L 707.0494222222222,98.32766666666669 L 706.9713333333334,98.48966666666668 L 706.866088888889,98.67400000000002 L 706.7532222222222,98.84066666666665 L 706.6791777777778,98.98599999999999 L 706.6821777777777,99.14799999999993 L 706.6691555555556,99.3336666666666 L 706.6227111111111,99.45633333333342 L 706.5428888888889,99.63499999999999 L 706.4362444444445,99.77699999999999 L 706.2598222222223,99.86866666666666 L 706.0963777777778,99.95366666666668 L 705.8522444444445,100.04733333333343 L 705.7004888888889,100.13366666666666 L 705.4949333333333,100.20599999999999 L 705.2755555555556,100.29433333333337 L 705.0905333333334,100.3183333333334 L 704.8307555555556,100.31799999999993 L 704.3249555555556,100.37066666666668 L 704.0750444444445,100.38100000000007 L 703.8695777777777,100.39566666666664 L 703.629488888889,100.41566666666664 L 703.2353333333333,100.41366666666669 L 703.0464222222222,100.39666666666665 L 702.8620666666667,100.42266666666669 L 702.6239777777778,100.35933333333334 L 702.4501777777778,100.24266666666671 L 702.3206,100.1296666666667 L 702.1722222222222,99.99000000000005 L 702.0023333333334,99.83999999999999 L 701.8096,99.68866666666668 L 701.5363333333333,99.463 L 701.4225333333333,99.38600000000002 L 701.3014000000001,99.35933333333331 L 701.1754444444445,99.36633333333336 L 701.0447777777778,99.40700000000002 L 700.9645333333333,99.49366666666666 L 700.875488888889,99.56299999999997 L 700.7262222222222,99.577 L 700.5580888888888,99.55466666666666 L 700.3751777777777,99.566 L 700.1922666666667,99.57766666666667 L 699.9632888888889,99.5096666666667 L 699.7822666666667,99.4203333333333 L 699.6662444444445,99.35266666666666 L 699.5602444444445,99.29433333333328 L 699.4289333333334,99.16666666666664 L 699.3149555555556,98.98933333333335 L 699.2232222222223,98.81366666666666 L 699.2062222222222,98.67699999999996 Z" fill="#FF0000" fill-opacity="0.1" stroke="#FF0000" stroke-width="0.3" stroke-opacity="0.7"/>
  <path d="M 718.5836444444444,93.628 L 718.5290888888889,93.61000000000001 L 718.4925111111111,93.57299999999998 L 718.4748222222222,93.50433333333332 L 718.4526,93.477 L 718.4188444444444,93.44399999999999 L 718.3847333333333,93.41100000000004 L 718.3618222222221,93.374 L 718.3387111111111,93.32699999999996 L 718.3346666666667,93.26533333333336 L 718.3104888888889,93.21066666666667 L 718.3147333333334,93.18600000000004 L 718.3363555555555,93.13299999999995 L 718.3480666666667,93.09066666666668 L 718.3654222222223,93.03666666666666 L 718.3866,92.98333333333338 L 718.414,92.94766666666668 L 718.4377111111111,92.93100000000003 L 718.5036222222222,92.92366666666658 L 718.5305555555556,92.92999999999995 L 718.558,92.93866666666662 L 718.6131333333333,92.92033333333336 L 718.6528666666667,92.9116666666667 L 718.6894,92.92533333333333 L 718.7182888888889,92.9413333333333 L 718.7954666666666,92.95033333333329 L 718.8862,92.96766666666667 L 718.9223333333333,92.98099999999995 L 718.9721999999999,93.00666666666659 L 719.0275777777778,93.03366666666663 L 719.065511111111,93.05666666666666 L 719.1094888888889,93.0753333333333 L 719.1366222222223,93.08766666666666 L 719.1980222222222,93.08566666666671 L 719.2481333333333,93.0896666666666 L 719.2700444444445,93.10133333333329 L 719.2718666666667,93.11599999999997 L 719.2430666666667,93.13766666666672 L 719.2026666666667,93.14300000000001 L 719.1740666666667,93.15633333333331 L 719.1599111111111,93.18133333333334 L 719.1765333333334,93.21599999999997 L 719.2039555555556,93.2316666666666 L 719.2414444444444,93.24633333333337 L 719.2617333333334,93.263 L 719.2713333333334,93.29333333333334 L 719.2696,93.31600000000002 L 719.2488888888888,93.35333333333334 L 719.2269333333332,93.37666666666668 L 719.1955333333334,93.39500000000007 L 719.1569999999999,93.42000000000003 L 719.1070666666667,93.45333333333332 L 719.049888888889,93.485 L 718.9844444444444,93.52599999999993 L 718.9327777777778,93.54533333333339 L 718.8732888888889,93.57366666666671 L 718.8233333333334,93.599 L 718.7781111111111,93.61400000000005 L 718.7289777777778,93.6286666666666 L 718.6881333333333,93.65033333333335 L 718.6535333333334,93.66799999999999 L 718.6245555555556,93.67300000000003 L 718.5851555555556,93.67566666666664 Z" fill="#FF0000" fill-opacity="0.1" stroke="#FF0000" stroke-width="0.3" stroke-opacity="0.7"/>
  <path d="M 718.3695555555555,92.91233333333331 L 718.3508888888889,92.9526666666667 L 718.318711111111,93.00233333333337 L 718.2919111111112,93.04066666666661 L 718.2596,93.07133333333336 L 718.2465111111111,93.11933333333333 L 718.2389333333333,93.1746666666667 L 718.2366888888889,93.21833333333332 L 718.2346444444445,93.28133333333332 L 718.2407333333333,93.34633333333329 L 718.3201111111111,93.42800000000003 L 718.3503777777778,93.47933333333336 L 718.4134666666667,93.57633333333332 L 718.4328666666667,93.63166666666662 L 718.4522444444444,93.68699999999998 L 718.4525777777778,93.72533333333337 L 718.3747333333333,93.77700000000004 L 718.3020888888889,93.79833333333332 L 718.1619111111111,93.81066666666666 L 718.0673777777778,93.80166666666668 L 717.9214888888889,93.78733333333331 L 717.7944222222222,93.771 L 717.6998222222222,93.76200000000001 L 717.6292888888889,93.7396666666666 L 717.5154444444445,93.71399999999997 L 717.4633555555555,93.67066666666668 L 717.4404888888889,93.60200000000003 L 717.4172444444445,93.51466666666659 L 717.4184222222223,93.43233333333332 L 717.457488888889,93.34633333333329 L 717.4809555555555,93.29433333333334 L 717.5122666666666,93.22533333333337 L 717.5384222222223,93.16799999999998 L 717.6077777777778,93.0946666666667 L 717.6696888888889,93.05799999999994 L 717.7421555555555,92.99833333333328 L 717.8366444444445,92.94999999999996 L 717.9121777777777,92.90366666666672 L 718.0017777777778,92.88566666666667 L 718.0832222222223,92.86633333333334 L 718.1784222222223,92.85600000000001 L 718.2328888888889,92.85600000000001 L 718.3200888888889,92.86300000000006 Z" fill="#FF0000" fill-opacity="0.1" stroke="#FF0000" stroke-width="0.3" stroke-opacity="0.7"/>
  <path d="M 766.3119777777778,96.33766666666664 L 766.3815999999999,96.34966666666665 L 766.4358222222222,96.3626666666666 L 766.5061333333333,96.38599999999995 L 766.5617777777777,96.40300000000006 L 766.6056888888888,96.42233333333326 L 766.6452222222223,96.4286666666667 L 766.7141333333334,96.41166666666665 L 766.7391333333334,96.39366666666666 L 766.792688888889,96.37733333333335 L 766.8147111111111,96.36899999999997 L 766.8586888888889,96.37033333333338 L 766.8842666666667,96.38133333333332 L 766.9123777777778,96.33566666666668 L 766.8663777777778,96.30099999999999 L 766.8966222222222,96.27100000000006 L 766.9422888888889,96.24033333333333 L 766.9889999999999,96.16666666666664 L 767.0716222222222,96.11566666666664 L 767.1578222222222,96.08466666666664 L 767.2447333333333,96.06500000000004 L 767.3198666666667,96.04733333333333 L 767.3698444444444,96.04766666666666 L 767.4505333333333,96.06500000000004 L 767.5193777777778,96.08466666666664 L 767.6132,96.1043333333333 L 767.7134666666666,96.13433333333336 L 767.7687777777778,96.16966666666667 L 767.8493333333333,96.23466666666663 L 767.8964222222222,96.27366666666668 L 767.9121333333334,96.30266666666674 L 767.9196888888889,96.33499999999995 L 767.9208222222222,96.3573333333333 L 767.9418222222222,96.37399999999994 L 767.9891111111111,96.39533333333334 L 768.0448,96.39466666666661 L 768.1179111111111,96.36166666666665 L 768.1869111111112,96.31600000000003 L 768.2469555555556,96.28099999999999 L 768.3058222222222,96.27100000000006 L 768.3371555555556,96.28133333333334 L 768.3485777777778,96.29766666666664 L 768.4193777777778,96.31466666666661 L 768.4850222222221,96.29699999999997 L 768.5415333333333,96.26033333333339 L 768.5645111111112,96.21600000000004 L 768.6169777777777,96.16666666666664 L 768.6555111111111,96.15100000000001 L 768.7158222222222,96.11599999999999 L 768.7520666666667,96.07400000000004 L 768.7910444444444,96.01133333333335 Z" fill="#FF0000" fill-opacity="0.1" stroke="#FF0000" stroke-width="0.3" stroke-opacity="0.7"/>
  <path d="M 766.6397555555556,97.197 L 766.6966,97.16433333333325 L 766.7615777777778,97.1096666666667 L 766.8380888888888,97.08933333333336 L 766.9066222222222,97.07233333333332 L 766.9751555555556,97.05566666666667 L 767.0458,97.05433333333333 L 767.1214888888888,97.0586666666667 L 767.1702222222223,97.066 L 767.222711111111,97.05666666666662 L 767.2449555555555,97.01199999999999 L 767.2211333333333,96.98700000000002 L 767.1856444444445,96.964 L 767.1486888888888,96.9366666666667 L 767.1183555555556,96.90133333333333 L 767.0696666666666,96.87633333333336 L 767.0305777777778,96.83366666666662 L 767.0126444444445,96.78933333333333 L 767.0086,96.74066666666667 L 767.0110444444445,96.70166666666668 L 767.0054444444444,96.66666666666666 L 766.9764222222223,96.63566666666665 L 766.9260444444444,96.62433333333338 L 766.8895777777778,96.6083333333334 L 766.8781555555555,96.55633333333333 L 766.8597333333333,96.58433333333332 L 766.8923555555556,96.63499999999998 L 766.9168888888888,96.68933333333334 L 766.9268222222223,96.73699999999998 L 766.9068666666667,96.77900000000005 L 766.8766666666667,96.82733333333337 L 766.8472666666667,96.86866666666664 L 766.8128,96.90433333333334 L 766.7792222222222,96.91466666666668 L 766.7208444444444,96.92533333333328 L 766.7046444444445,96.96866666666664 L 766.6548888888889,97.023 L 766.6162222222222,97.04566666666668 L 766.5863777777778,97.03966666666663 L 766.5456666666666,97.01099999999998 L 766.5224000000001,96.99699999999996 L 766.4982666666667,97.04433333333333 L 766.5040222222223,97.07966666666663 L 766.5316222222223,97.10600000000001 L 766.5344666666667,97.13266666666671 L 766.5773333333333,97.15866666666668 Z" fill="#FF0000" fill-opacity="0.1" stroke="#FF0000" stroke-width="0.3" stroke-opacity="0.7"/>
  
  <!-- Title and info -->
  <text x="400.0" y="25" text-anchor="middle" 
        fill="white" font-size="12.0" font-weight="bold">
    Constellation View
  </text>
  
  <text x="10" y="590" fill="white" font-size="5.0">
    RA: 0.0째 to 360.0째 | DE: -90.0째 to 90.0째 | 
    Stars: 5 | DSO: 15 | Vector SVG
  </text>
  
</svg>