<?xml version="1.0" encoding="UTF-8"?>
<svg width="800" height="600" 
     viewBox="0 0 800 600"
     xmlns="http://www.w3.org/2000/svg"
     style="background-color: #000000;">
     
  <!-- Scalable constellation visualization -->
  <defs>
    <!-- Star symbol -->
    <g id="star">
      <polygon points="0,-1 0.3,-0.3 1,0 0.3,0.3 0,1 -0.3,0.3 -1,0 -0.3,-0.3" 
               fill="currentColor" stroke="none"/>
    </g>
    
    <!-- Bright star symbol -->
    <g id="bright-star">
      <polygon points="0,-1.2 0.35,-0.35 1.2,0 0.35,0.35 0,1.2 -0.35,0.35 -1.2,0 -0.35,-0.35" 
               fill="currentColor" stroke="none"/>
    </g>
  </defs>
  
  <!-- Grid lines -->
  <g id="grid" stroke="#333" stroke-width="0.1" opacity="0.3">
  </g>

  <!-- Constellation elements -->
  <use href="#star" x="668.9471239800188" y="276.9055378415867" transform="scale(0.7228915496529372)" fill="#FFFFFF" opacity="0.9"/>
  <use href="#star" x="663.9659398498401" y="247.94878535489104" transform="scale(0.5607476735471151)" fill="#FFFFFF" opacity="0.9"/>
  <use href="#star" x="660.0738970740565" y="297.16328941971807" transform="scale(0.6451612770908873)" fill="#FFFFFF" opacity="0.9"/>
  <use href="#star" x="645.8266817781023" y="343.42194763674587" transform="scale(0.5)" fill="#FFFFFF" opacity="0.9"/>
  <use href="#star" x="635.8915606330113" y="229.27755263898968" transform="scale(0.5357142948374458)" fill="#FFFFFF" opacity="0.9"/>
  <use href="#star" x="611.9623152136949" y="355.2839669326885" transform="scale(0.5504586866995425)" fill="#FFFFFF" opacity="0.9"/>
  <use href="#star" x="507.1882374242243" y="503.3900376849324" transform="scale(2.6086954358394925)" fill="#FFFFFF" opacity="0.9"/>
  <use href="#star" x="437.77651768569365" y="286.04275219698224" transform="scale(1.1538460903619203)" fill="#FFFFFF" opacity="0.9"/>
  <use href="#star" x="392.72155403603375" y="385.3521056483878" transform="scale(0.8823529164271378)" fill="#FFFFFF" opacity="0.9"/>
  <use href="#star" x="372.20365363160636" y="232.50194859257547" transform="scale(0.6666666666666666)" fill="#FFFFFF" opacity="0.9"/>
  <use href="#star" x="365.15512773090234" y="398.83766470724777" transform="scale(1.132075430957311)" fill="#FFFFFF" opacity="0.9"/>
  <use href="#star" x="335.3714500223709" y="409.9002281425979" transform="scale(1.052631526112229)" fill="#FFFFFF" opacity="0.9"/>
  <use href="#star" x="289.51842072851883" y="525.3166828779035" transform="scale(0.983606495866213)" fill="#FFFFFF" opacity="0.9"/>
  <use href="#star" x="246.13233424506262" y="78.03515256567665" transform="scale(0.5607476735471151)" fill="#FFFFFF" opacity="0.9"/>
  <use href="#star" x="240.92406440813053" y="270.24703682993896" transform="scale(2.068965449202786)" fill="#FFFFFF" opacity="0.9"/>
  <use href="#star" x="193.6712897959364" y="236.78776843779875" transform="scale(0.5)" fill="#FFFFFF" opacity="0.9"/>
  <use href="#star" x="186.64255247947867" y="86.77568905450673" transform="scale(0.5)" fill="#FFFFFF" opacity="0.9"/>
  <use href="#star" x="159.67273618549615" y="160.29522265289762" transform="scale(0.5555555457440916)" fill="#FFFFFF" opacity="0.9"/>
  <use href="#star" x="131.05287601998123" y="168.65527198351197" transform="scale(0.5504586866995425)" fill="#FFFFFF" opacity="0.9"/>
  <line x1="335.3714500223709" y1="409.9002281425979" x2="365.15512773090234" y2="398.83766470724777" stroke="#87CEEB" stroke-width="0.5" opacity="0.8"/>
  <line x1="365.15512773090234" y1="398.83766470724777" x2="392.72155403603375" y2="385.3521056483878" stroke="#87CEEB" stroke-width="0.5" opacity="0.8"/>
  <line x1="186.64255247947867" y1="86.77568905450673" x2="131.05287601998123" y2="168.65527198351197" stroke="#87CEEB" stroke-width="0.5" opacity="0.8"/>
  <line x1="131.05287601998123" y1="168.65527198351197" x2="159.67273618549615" y2="160.29522265289762" stroke="#87CEEB" stroke-width="0.5" opacity="0.8"/>
  <line x1="159.67273618549615" y1="160.29522265289762" x2="246.13233424506262" y2="78.03515256567665" stroke="#87CEEB" stroke-width="0.5" opacity="0.8"/>
  <line x1="131.05287601998123" y1="168.65527198351197" x2="193.6712897959364" y2="236.78776843779875" stroke="#87CEEB" stroke-width="0.5" opacity="0.8"/>
  <line x1="193.6712897959364" y1="236.78776843779875" x2="240.92406440813053" y2="270.24703682993896" stroke="#87CEEB" stroke-width="0.5" opacity="0.8"/>
  <line x1="240.92406440813053" y1="270.24703682993896" x2="335.3714500223709" y2="409.9002281425979" stroke="#87CEEB" stroke-width="0.5" opacity="0.8"/>
  <line x1="335.3714500223709" y1="409.9002281425979" x2="289.51842072851883" y2="525.3166828779035" stroke="#87CEEB" stroke-width="0.5" opacity="0.8"/>
  <line x1="289.51842072851883" y1="525.3166828779035" x2="507.1882374242243" y2="503.3900376849324" stroke="#87CEEB" stroke-width="0.5" opacity="0.8"/>
  <line x1="507.1882374242243" y1="503.3900376849324" x2="392.72155403603375" y2="385.3521056483878" stroke="#87CEEB" stroke-width="0.5" opacity="0.8"/>
  <line x1="392.72155403603375" y1="385.3521056483878" x2="437.77651768569365" y2="286.04275219698224" stroke="#87CEEB" stroke-width="0.5" opacity="0.8"/>
  <line x1="437.77651768569365" y1="286.04275219698224" x2="372.20365363160636" y2="232.50194859257547" stroke="#87CEEB" stroke-width="0.5" opacity="0.8"/>
  <line x1="372.20365363160636" y1="232.50194859257547" x2="240.92406440813053" y2="270.24703682993896" stroke="#87CEEB" stroke-width="0.5" opacity="0.8"/>
  <line x1="437.77651768569365" y1="286.04275219698224" x2="668.9471239800188" y2="276.9055378415867" stroke="#87CEEB" stroke-width="0.5" opacity="0.8"/>
  <line x1="668.9471239800188" y1="276.9055378415867" x2="660.0738970740565" y2="297.16328941971807" stroke="#87CEEB" stroke-width="0.5" opacity="0.8"/>
  <line x1="660.0738970740565" y1="297.16328941971807" x2="645.8266817781023" y2="343.42194763674587" stroke="#87CEEB" stroke-width="0.5" opacity="0.8"/>
  <line x1="645.8266817781023" y1="343.42194763674587" x2="611.9623152136949" y2="355.2839669326885" stroke="#87CEEB" stroke-width="0.5" opacity="0.8"/>
  <line x1="668.9471239800188" y1="276.9055378415867" x2="663.9659398498401" y2="247.94878535489104" stroke="#87CEEB" stroke-width="0.5" opacity="0.8"/>
  <line x1="663.9659398498401" y1="247.94878535489104" x2="635.8915606330113" y2="229.27755263898968" stroke="#87CEEB" stroke-width="0.5" opacity="0.8"/>
  <line x1="159.67273618549615" y1="160.29522265289762" x2="193.6712897959364" y2="236.78776843779875" stroke="#87CEEB" stroke-width="0.5" opacity="0.8"/>
  <use href="#bright-star" x="240.92487934390806" y="270.247557671676" transform="scale(2.0689655172413794)" fill="#FFD700" opacity="0.95"/>
  <text x="243.92487934390806" y="267.247557671676" fill="#FFD700" font-size="4.5" font-weight="bold">Betelgeuse</text>
  <use href="#bright-star" x="370.2688258605886" y="469.16059816101034" transform="scale(0.8)" fill="#FFD700" opacity="0.95"/>
  <text x="373.2688258605886" y="466.16059816101034" fill="#FFD700" font-size="4.5" font-weight="bold">Iota_Orionis</text>
  <use href="#bright-star" x="507.1876286112241" y="503.3894560644096" transform="scale(2.608695652173913)" fill="#FFD700" opacity="0.95"/>
  <text x="510.1876286112241" y="500.3894560644096" fill="#FFD700" font-size="4.5" font-weight="bold">Rigel</text>
  <text x="337.10209710938676" y="420.2265758837405" fill="#BA55D3" font-size="3.5" font-weight="bold" opacity="0.9">IC434</text>
  <text x="375.7626955352814" y="465.03656615699845" fill="#BA55D3" font-size="3.5" font-weight="bold" opacity="0.9">M42</text>
  <text x="371.17584487458186" y="461.5563235791087" fill="#BA55D3" font-size="3.5" font-weight="bold" opacity="0.9">M43</text>
  <text x="298.44149868349245" y="382.1380841514713" fill="#BA55D3" font-size="3.5" font-weight="bold" opacity="0.9">M78</text>
  <ellipse cx="557.1554691801227" cy="430.83162614760795" rx="0.07407407407407408" ry="0.1111111111111111" transform="rotate(1e-10 557.1554691801227 430.83162614760795)" fill="none" stroke="#BA55D3" stroke-width="0.2" stroke-dasharray="2,1" opacity="0.7"/>
  <text x="559.1554691801227" y="432.83162614760795" fill="#BA55D3" font-size="3.5" font-weight="bold" opacity="0.9">NGC1788</text>
  <text x="373.3591857890749" y="454.8915843591328" fill="#BA55D3" font-size="3.5" font-weight="bold" opacity="0.9">NGC1977</text>
  <text x="331.09987538767166" y="410.3982513504726" fill="#BA55D3" font-size="3.5" font-weight="bold" opacity="0.9">NGC2024</text>
  <ellipse cx="190.0763634481554" cy="224.85503752486574" rx="0.3259259259259259" ry="0.4888888888888889" transform="rotate(1e-10 190.0763634481554 224.85503752486574)" fill="none" stroke="#FFA500" stroke-width="0.2" stroke-dasharray="2,1" opacity="0.7"/>
  <text x="192.0763634481554" y="226.85503752486574" fill="#FFA500" font-size="3.5" font-weight="bold" opacity="0.9">NGC2141</text>
  <ellipse cx="154.1338016709152" cy="171.91203401701154" rx="0.3377777777777778" ry="0.5066666666666667" transform="rotate(1e-10 154.1338016709152 171.91203401701154)" fill="none" stroke="#FFA500" stroke-width="0.2" stroke-dasharray="2,1" opacity="0.7"/>
  <text x="156.1338016709152" y="173.91203401701154" fill="#FFA500" font-size="3.5" font-weight="bold" opacity="0.9">NGC2169</text>
  <text x="147.5996383844938" y="76.6833171220965" fill="#BA55D3" font-size="3.5" font-weight="bold" opacity="0.9">NGC2174</text>
  <path d="M 366.6339432912985,465.37863498194736 L 366.6803360094095,464.9126110831055 L 366.6137611483914,464.5541311609195 L 366.6601538665023,464.08960092842 L 366.69344129701153,463.66988068619384 L 366.59515163999663,463.2023631210095 L 366.5692031705446,462.8483641978508 L 366.651766482437,462.54963092936237 L 366.861713189821,462.2404419964769 L 367.25880340416165,461.85358241378447 L 367.68367682821844,461.5145201540501 L 368.06582701469256,461.25611587680766 L 368.329243295493,461.1261669050152 L 368.95226866809185,461.1933818904251 L 369.36691996781923,461.2650778748623 L 369.80044288169313,461.26955887388965 L 370.2683016490844,461.29943220073847 L 370.4486304064881,461.0216102610443 L 370.2462847659131,460.7811299799111 L 370.16922567481345,460.6093583505303 L 370.5857117148049,460.37634640110934 L 371.11857270870223,460.09553712873026 L 371.5497366708077,459.95662615888324 L 372.27839066147885,459.71614587774997 L 372.96038982828685,459.4950832590686 L 373.49560977395254,459.3546786228791 L 374.20067424693997,459.124654006143 L 374.72960365455685,459.00665436509007 L 375.466907135045,458.8841737250099 L 375.9085553272325,458.78260441372385 L 376.49934169233035,458.74227542247786 L 377.2749126126169,458.70493376391687 L 377.83398418171794,458.7781234146965 L 378.46330009236607,458.8229334049698 L 379.05015487118357,458.94541404505 L 379.57148321199077,459.1560209993343 Z" fill="#FF0000" fill-opacity="0.1" stroke="#FF0000" stroke-width="0.3" stroke-opacity="0.7"/>
  <path d="M 366.6339432912985,465.37863498194736 L 366.6803360094095,464.9126110831055 L 366.6137611483914,464.5541311609195 L 366.6601538665023,464.08960092842 L 366.69344129701153,463.66988068619384 L 366.59515163999663,463.2023631210095 L 366.5692031705446,462.8483641978508 L 366.651766482437,462.54963092936237 L 366.861713189821,462.2404419964769 L 367.25880340416165,461.85358241378447 L 367.68367682821844,461.5145201540501 L 368.06582701469256,461.25611587680766 L 368.329243295493,461.1261669050152 L 368.95226866809185,461.1933818904251 L 369.36691996781923,461.2650778748623 L 369.80044288169313,461.26955887388965 L 370.2683016490844,461.29943220073847 L 370.4486304064881,461.0216102610443 L 370.2462847659131,460.7811299799111 L 370.16922567481345,460.6093583505303 L 370.5857117148049,460.37634640110934 L 371.11857270870223,460.09553712873026 L 371.5497366708077,459.95662615888324 L 372.27839066147885,459.71614587774997 L 372.96038982828685,459.4950832590686 L 373.49560977395254,459.3546786228791 L 374.20067424693997,459.124654006143 L 374.72960365455685,459.00665436509007 L 375.466907135045,458.8841737250099 L 375.9085553272325,458.78260441372385 L 376.49934169233035,458.74227542247786 L 377.2749126126169,458.70493376391687 L 377.83398418171794,458.7781234146965 L 378.46330009236607,458.8229334049698 L 379.05015487118357,458.94541404505 L 379.57148321199077,459.1560209993343 L 379.95441971572126,459.34272929213955 L 380.1399905881656,459.5697665761907 L 380.3022340486785,459.807259524639 L 380.4857080751062,460.1164484575245 L 380.541798706043,460.4390803874919 L 380.56853349275104,460.7930793106507 L 380.60365566352436,461.26657154120477 L 380.7433580293616,461.737076439074 L 380.9907858592873,462.0402907065897 L 381.0890755163023,462.2837583204077 L 381.23506842018867,462.7318582231403 L 381.2237978728507,463.2232744498036 L 380.66079471746895,463.76099433308275 L 380.04091461389436,464.0582339352287 L 379.407929222718,464.40177719399037 L 378.7644596014598,464.7079787941909 L 378.1506079301822,464.9828134012003 L 377.5068762031722,465.2890150014009 L 376.72055894705227,465.51306495276714 L 375.9339795851802,465.7371149041335 L 374.86275337659293,466.0164305101701 L 373.79755560030264,466.27483478741254 L 373.10035429987624,466.4003027601777 L 372.56644488297087,466.4585557475329 L 372.0603186757816,466.56609972418875 L 371.288417236024,466.661694370105 L 370.5057694604327,466.7214410238027 L 369.94853263159575,466.78865600921256 L 369.32760410501305,466.86333932633465 L 368.70431662666203,466.79612434092473 L 368.19976305398507,466.59896038372244 L 367.67607576140915,466.24645512690614 L 367.2737434320278,465.9058992008294 L 367.03103350563885,465.66093792066886 Z" fill="#FF0000" fill-opacity="0.1" stroke="#FF0000" stroke-width="0.3" stroke-opacity="0.7"/>
  <path d="M 368.3609580914898,458.97230003921396 L 369.43585378060567,458.9424267123651 L 370.2032994225787,459.05146435536335 L 370.6986792939342,459.486121261014 L 370.71283300454445,460.12541045557913 L 369.6130372689847,460.3972577299035 L 368.83458318542586,460.077613132621 L 368.87258851947183,459.47715926295933 L 368.36855915829875,458.9693127065291 Z" fill="#FF0000" fill-opacity="0.1" stroke="#FF0000" stroke-width="0.3" stroke-opacity="0.7"/>
  <path d="M 329.7247355005351,410.5058145596582 L 329.5876541922179,410.31163793514077 L 329.5116435241264,410.1070056462262 L 329.42960442373794,409.85905703338085 L 329.46682344052743,409.6021464224808 L 329.48176346839404,409.30938781936226 L 329.53182566703356,409.06143920651687 L 329.726308135047,408.8986295751906 L 329.91738322828417,408.7522502736314 L 330.10190567772037,408.63873163160576 L 330.2190669488822,408.49683332907375 L 330.24894700461493,408.34746669482956 L 330.1296888874368,408.35642869288426 L 329.80651249517143,408.5028079944435 L 329.69328281029,408.5535926500866 L 329.51531300465496,408.6342506325784 L 329.33079055521875,408.747769274604 L 329.2178229760898,408.79855393024707 L 329.1640912969213,408.62827596720865 L 329.10039959917594,408.50728899347087 L 329.10485539696055,408.33999836311745 L 329.103020656696,408.1308850751755 L 329.07130586069917,408.0696447551354 L 328.911421351955,408.3519476938569 L 328.8941223723201,408.5102763261558 L 328.7939979750411,408.57002297985343 L 328.6199597556865,408.5595673154564 L 328.49493531196356,408.45052967245806 L 328.41708990360763,408.5461243183743 L 328.3389823894998,408.6402252979482 L 328.45063943986855,408.81498426001394 L 328.47239421728807,408.9255155693546 L 328.3714835027527,409.06143920651687 L 328.02917339058865,409.24516016663716 L 327.7364012655598,409.07786953628374 L 327.56288725770935,408.99123688842207 L 327.2897730640838,408.88966757713604 L 327.09581480757413,408.9777938913401 L 327.15321596727085,409.0569582074896 L 327.3395731569712,409.1525528534058 L 327.5513546046197,409.2675651617738 L 327.83731198009514,409.3780964711145 L 328.0656060901221,409.4841467814279 L 328.2645443559203,409.5901970917413 L 328.3699108682403,409.7216397298762 L 328.4231183359045,409.96809467637905 L 328.38616142486677,410.150321970157 L 328.44932891110864,410.3459922610169 L 328.2904928253723,410.47892856549424 Z" fill="#FF0000" fill-opacity="0.1" stroke="#FF0000" stroke-width="0.3" stroke-opacity="0.7"/>
  <path d="M 329.7247355005351,410.5058145596582 L 329.5876541922179,410.31163793514077 L 329.5116435241264,410.1070056462262 L 329.42960442373794,409.85905703338085 L 329.46682344052743,409.6021464224808 L 329.48176346839404,409.30938781936226 L 329.53182566703356,409.06143920651687 L 329.726308135047,408.8986295751906 L 329.91738322828417,408.7522502736314 L 330.10190567772037,408.63873163160576 L 330.2190669488822,408.49683332907375 L 330.24894700461493,408.34746669482956 L 330.1296888874368,408.35642869288426 L 329.80651249517143,408.5028079944435 L 329.69328281029,408.5535926500866 L 329.51531300465496,408.6342506325784 L 329.33079055521875,408.747769274604 L 329.2178229760898,408.79855393024707 L 329.1640912969213,408.62827596720865 L 329.10039959917594,408.50728899347087 L 329.10485539696055,408.33999836311745 L 329.103020656696,408.1308850751755 L 329.07130586069917,408.0696447551354 L 328.911421351955,408.3519476938569 L 328.8941223723201,408.5102763261558 L 328.7939979750411,408.57002297985343 L 328.6199597556865,408.5595673154564 L 328.49493531196356,408.45052967245806 L 328.41708990360763,408.5461243183743 L 328.3389823894998,408.6402252979482 L 328.45063943986855,408.81498426001394 L 328.47239421728807,408.9255155693546 L 328.3714835027527,409.06143920651687 L 328.02917339058865,409.24516016663716 L 327.7364012655598,409.07786953628374 L 327.56288725770935,408.99123688842207 L 327.2897730640838,408.88966757713604 L 327.09581480757413,408.9777938913401 L 327.15321596727085,409.0569582074896 L 327.3395731569712,409.1525528534058 L 327.5513546046197,409.2675651617738 L 327.83731198009514,409.3780964711145 L 328.0656060901221,409.4841467814279 L 328.2645443559203,409.5901970917413 L 328.3699108682403,409.7216397298762 L 328.4231183359045,409.96809467637905 L 328.38616142486677,410.150321970157 L 328.44932891110864,410.3459922610169 L 328.2904928253723,410.47892856549424 L 327.89759630306446,410.68505452075124 L 327.3597552998783,410.82994015596813 L 326.74197204232007,411.0091801170611 L 326.41198090050204,411.0838634341832 L 326.00755172510407,411.1690024157024 L 325.41624114850197,411.3362930460559 L 325.1082668898552,411.30193872017975 L 323.96732055122516,411.076395102471 L 323.6457167934721,410.75077583981863 L 323.3726025998466,410.305663269771 L 322.9624070979038,409.69923473473955 L 322.70423293214446,409.4199191287029 L 322.535961039335,409.1749578485424 L 322.36401966599664,408.7074402833581 L 322.28696057489697,408.3713653563087 L 322.2096393780452,408.03529042925925 L 322.17477931302403,407.73058249540105 L 322.1535487471088,406.9971923212621 L 322.67749814543646,406.56253541561153 L 322.9624070979038,406.1129418465365 L 323.3411499096018,405.91727155567656 L 324.05433966090243,405.74251259361085 L 324.4375382703847,405.6439306150097 L 324.81995056261104,405.66932294283123 L 325.2657924468309,405.73952526092603 L 325.70062588946547,405.8649932336911 L 326.0665255193132,405.97253721034696 L 326.4156503810306,406.1607391694946 L 326.71733410162824,406.34595379595737 L 326.9765566903961,406.5012950955714 L 327.31100362999916,406.5222064243656 L 327.66772955852554,406.4355737765039 L 327.79642348277696,406.27873881054757 L 327.7888224159677,405.8366135731847 L 327.9293110990613,405.5005386461353 L 328.4954595234675,405.09724873367594 L 329.0597732076095,404.9404137677196 L 329.5698310010795,404.93294543600734 L 330.1380762715018,404.9971730887324 L 330.6308350853369,405.1958307122771 L 330.9432651417686,405.3257796840696 L 331.1170412553712,405.54534863640856 L 331.1741803093158,405.7410189272684 L 330.9857262735992,406.074106521633 L 330.9401198727443,406.5401304204749 L 330.8371123121927,406.8089903621144 L 330.7663437591418,407.0390149788505 L 331.61111059796656,407.0524579759324 L 332.26847182408284,407.2750142609563 L 332.78613068436175,407.7096711666069 L 332.9968637090018,407.9859994399587 L 333.1651356018115,408.2309607201191 L 333.41806765253,408.53716232031974 L 333.4851667250523,408.80303492927436 L 333.30169269862415,409.23321083589764 L 333.0710396368292,409.53493143707095 L 332.649049376045,409.8247027075046 L 332.26952024709095,410.14434730478723 L 331.89549533892995,410.43710590790585 L 331.39461124678166,410.63875086413555 L 330.74485108747433,410.8583198164745 L 330.1865658356293,410.8628008155018 L 329.757236613788,410.71044684857276 Z" fill="#FF0000" fill-opacity="0.1" stroke="#FF0000" stroke-width="0.3" stroke-opacity="0.7"/>
  <path d="M 290.8340082243493,380.7325633557632 L 292.73427492663916,380.19036247345673 L 293.31667390767205,379.98871751722714 L 293.291511755476,379.84980654738 L 294.4379623148988,379.52866828375494 L 295.2945239125654,379.4300863051538 L 295.9251503519737,379.4330736378387 L 296.4894640361157,379.4838582934818 L 297.27761603249974,379.6989462467934 L 297.72555476273635,379.85727487909224 L 297.96564363160473,380.2023118041963 L 298.17375559872465,380.52345006782133 L 298.10324915142587,380.931220979308 L 297.7813832879207,381.3001565658911 L 297.25166756304776,381.68552248224114 L 296.85457734870744,382.1440780493708 L 296.78407090140865,382.55035529451504 L 296.54450624404404,382.8834428888796 L 295.9020850457939,382.3397483402307 L 295.78780693790475,382.1844070406167 L 295.11629200117824,382.19934370404115 L 294.0791395403562,382.35916600268246 L 292.71985911027684,382.20979936843827 L 291.7830931524863,381.9095724336074 L 290.9257452375633,381.161245596044 L 290.8376777048779,380.73555068844803 Z" fill="#FF0000" fill-opacity="0.1" stroke="#FF0000" stroke-width="0.3" stroke-opacity="0.7"/>
  <path d="M 335.10969817619605,412.70001041670537 L 335.0035453466197,413.08537633305536 L 334.7841628321623,413.46476758403566 L 334.62165726589774,413.84863983404324 L 334.31106194973006,414.27433474163917 L 333.9477833774029,414.66418165701657 L 333.8072946943096,415.09734489632467 L 333.59367850639694,415.655976108398 L 333.41308764324145,415.9576967095712 L 333.1326344885587,416.3684549537428 L 332.9174456661338,416.7164792115317 L 332.7711906564956,416.96890882340443 L 332.8115549423096,417.1018451278817 L 333.0854554531915,417.3333634109602 L 333.25084418272866,417.39759106368524 L 333.4822835617801,417.42746439053406 L 333.75618407266154,417.4110340607672 L 333.9126612066296,417.4214897251643 L 334.1026878768585,417.46480604909516 L 334.04554882291393,417.3811607339184 L 333.95302549244354,417.2825787553172 L 333.91633068715817,417.1571107825521 L 333.9003422362835,417.04508580686894 L 334.0277256317751,416.9898201521986 L 334.15143954673783,417.0809337990876 L 334.20255016838576,417.1511361171824 L 334.26545554887525,417.2482244294411 L 334.42534005761974,417.288553420687 L 334.61667725660885,417.32290774656315 L 334.7548069879339,417.3587557387818 L 334.73279010476256,417.47227438080733 L 334.6727678875453,417.59027402186024 L 334.63214149597934,417.67391933703703 L 334.55062660709467,417.842703633733 L 334.4318927014205,417.94875394404636 L 334.1498669122258,418.0398675909353 L 333.8992938132754,418.05928525338703 L 333.52343416484996,418.06077891972944 L 333.2505820769765,418.0189562621411 L 332.97091523954975,417.9741462718678 L 332.6553399140937,417.9129059518277 L 332.49938699162993,417.8382226347057 L 332.2346601820698,417.7934126444324 L 332.14292316885565,417.8068556415143 L 332.2540560077205,418.11753824074225 L 332.1898400984709,418.35055019016323 L 332.16231899450645,418.5671318098172 L 332.11409153613147,418.8105994236353 L 331.9576144021634,419.08991502967194 L 331.82682363189537,419.30052198395623 L 331.73325187841715,419.49320494213123 L 331.5028609223739,419.809862206729 L 331.32174584771457,420.0085198302737 L 330.99830734969703,420.2415317796947 L 330.7327942228808,420.6672266872906 L 330.4688537305766,420.9480359596697 L 330.35457562268704,421.39912319508716 L 330.35352719967887,421.85319776318954 L 330.3692535448011,422.1788170258419 L 330.31159027935263,422.62990426125936 L 330.4531273854541,422.8629162106803 L 330.4934916712684,422.9943588488152 Z" fill="#FF0000" fill-opacity="0.1" stroke="#FF0000" stroke-width="0.3" stroke-opacity="0.7"/>
  <path d="M 335.10969817619605,412.70001041670537 L 335.0035453466197,413.08537633305536 L 334.7841628321623,413.46476758403566 L 334.62165726589774,413.84863983404324 L 334.31106194973006,414.27433474163917 L 333.9477833774029,414.66418165701657 L 333.8072946943096,415.09734489632467 L 333.59367850639694,415.655976108398 L 333.41308764324145,415.9576967095712 L 333.1326344885587,416.3684549537428 L 332.9174456661338,416.7164792115317 L 332.7711906564956,416.96890882340443 L 332.8115549423096,417.1018451278817 L 333.0854554531915,417.3333634109602 L 333.25084418272866,417.39759106368524 L 333.4822835617801,417.42746439053406 L 333.75618407266154,417.4110340607672 L 333.9126612066296,417.4214897251643 L 334.1026878768585,417.46480604909516 L 334.04554882291393,417.3811607339184 L 333.95302549244354,417.2825787553172 L 333.91633068715817,417.1571107825521 L 333.9003422362835,417.04508580686894 L 334.0277256317751,416.9898201521986 L 334.15143954673783,417.0809337990876 L 334.20255016838576,417.1511361171824 L 334.26545554887525,417.2482244294411 L 334.42534005761974,417.288553420687 L 334.61667725660885,417.32290774656315 L 334.7548069879339,417.3587557387818 L 334.73279010476256,417.47227438080733 L 334.6727678875453,417.59027402186024 L 334.63214149597934,417.67391933703703 L 334.55062660709467,417.842703633733 L 334.4318927014205,417.94875394404636 L 334.1498669122258,418.0398675909353 L 333.8992938132754,418.05928525338703 L 333.52343416484996,418.06077891972944 L 333.2505820769765,418.0189562621411 L 332.97091523954975,417.9741462718678 L 332.6553399140937,417.9129059518277 L 332.49938699162993,417.8382226347057 L 332.2346601820698,417.7934126444324 L 332.14292316885565,417.8068556415143 L 332.2540560077205,418.11753824074225 L 332.1898400984709,418.35055019016323 L 332.16231899450645,418.5671318098172 L 332.11409153613147,418.8105994236353 L 331.9576144021634,419.08991502967194 L 331.82682363189537,419.30052198395623 L 331.73325187841715,419.49320494213123 L 331.5028609223739,419.809862206729 L 331.32174584771457,420.0085198302737 L 330.99830734969703,420.2415317796947 L 330.7327942228808,420.6672266872906 L 330.4688537305766,420.9480359596697 L 330.35457562268704,421.39912319508716 L 330.35352719967887,421.85319776318954 L 330.3692535448011,422.1788170258419 L 330.31159027935263,422.62990426125936 L 330.4531273854541,422.8629162106803 L 330.4934916712684,422.9943588488152 L 330.85100391705066,423.5455217291763 L 331.11835178413145,423.68592636536573 L 331.4784850874343,423.99362163190875 L 331.69891602489986,424.2774182369728 L 331.88894269512883,424.5776451718036 L 332.2860329094695,424.59407550157044 L 333.04247010985665,424.25202590915126 L 333.85001793189184,423.7337236883239 L 334.669622618521,423.1183331552378 L 335.2402268407117,422.4431959684541 L 336.22810342015066,421.62466681279585 L 336.98978273557884,420.34011375829584 L 337.2075926155238,419.74862188668885 L 337.96429192166323,418.95249772616734 L 338.17633547506335,418.18176589346723 L 339.1744341788318,417.0540478049236 L 340.03649999729106,416.3266322961544 L 340.4750029204542,415.56635612785146 L 340.61942318982784,415.101825895352 L 341.58004077105454,414.7194473116869 L 342.71469657163556,414.31167640020027 L 343.0638214333526,413.80532351011243 L 342.9228085387554,413.11823699258906 L 342.54694889033,412.4864161297362 L 342.2557493998135,412.0846198836193 L 341.5554028303628,411.76348161999425 L 340.4658292191325,411.8172536083222 L 339.254376433204,411.9292785840053 L 338.25601562368394,411.93674691571755 L 337.53286585380556,412.02039223089434 L 336.39637531296006,412.21755618809664 L 335.7521193744458,412.35347982525883 Z" fill="#FF0000" fill-opacity="0.1" stroke="#FF0000" stroke-width="0.3" stroke-opacity="0.7"/>
  <path d="M 368.47471198787514,451.79822059646534 L 368.87206430796755,451.86842291456014 L 369.4177684837148,451.88784057701184 L 369.9632105537098,451.8504989184508 L 370.12912349475124,451.7026259505491 L 370.30080276233764,451.59806930657817 L 370.66250870015284,451.5786516441264 L 370.9534460849172,451.71905628031595 L 371.2740014196617,451.9072582394636 L 371.8018824042705,451.9684985595037 L 372.3473244742656,451.93115690094265 L 372.9994435853409,451.76535993693165 L 373.4093769815315,452.15221951962405 L 373.2379598196974,452.3702948056206 L 372.5326332409578,452.54356010134387 L 371.909869974111,452.527129771577 L 371.38775531604705,452.5106994418101 L 371.2223665865098,452.7735847180799 L 371.5072755389776,452.9856853387067 L 371.9704164028321,453.13654563929333 L 371.988501699723,453.26798827742823 L 371.5020334239366,453.22765928618225 L 370.89027859867525,452.8407997034898 L 370.79513421068464,452.7123443980398 L 370.3623976140667,452.78105304979215 L 369.9474842085877,452.9797106733369 L 369.41409900318615,453.1036849797596 L 368.92186440085527,453.1350519729509 L 368.4293676927723,453.108165978787 L 368.500398351575,453.00360933481596 L 369.0222509038864,452.96328034357003 L 369.66834158266516,452.75416705562816 L 370.1542856469473,452.5077121091253 L 370.3734060556526,452.35237080951134 L 370.2247920942461,452.2313838357735 L 369.73832381845966,452.13429552351477 L 369.09799946622616,452.10143486398107 L 368.486768852469,451.99986555269504 L 368.32845697823694,451.9102455721485 L 368.46868355557814,451.8056889281775 Z" fill="#FF0000" fill-opacity="0.1" stroke="#FF0000" stroke-width="0.3" stroke-opacity="0.7"/>
  <path d="M 146.42815466669214,69.1194099965004 L 148.70978523820008,69.84682550526955 L 149.62794168759626,70.16497643620964 L 150.07823936960082,70.58021567940848 L 150.5059959569299,70.98649292455279 L 150.76312169968116,71.35692217747842 L 151.08891914946705,71.82892074169003 L 151.26767527235802,72.0783630208778 L 151.40213552315478,72.58770324365042 L 151.2430373316663,72.92377817069999 L 151.02837272074555,73.14633445572383 L 150.49158014056792,73.33304274852905 L 150.86848821200113,73.67658600729068 L 151.0168400676559,73.9798002748064 L 150.84306395405332,74.24866021644591 L 150.47637800694966,74.19787556080293 L 150.28661344247246,74.31587520185583 L 150.16892795980672,74.69676011917853 L 149.9055116790064,74.93724040031171 L 149.62636905308386,75.0268603808582 L 149.50003408060076,75.19564467755416 L 149.4452539784242,75.35546697619544 L 150.19959433279553,75.3823529703593 L 150.67924785902855,75.27480899370356 L 151.72793297294032,75.55561826608258 L 152.2728508314315,75.8558452009134 L 151.78349939237287,76.40999541395944 L 150.01087819132638,77.4480935219565 L 148.7509358412704,77.74533312410243 L 147.25352567986613,78.17849636341067 L 146.49735058523063,78.45631830310487 L 145.3270484023725,78.50859662509026 L 143.76253916844587,78.26064801224497 L 142.2897669477333,77.92905408422284 L 140.9939161096476,77.57356149472166 L 140.30588851054296,77.10156293050991 L 139.58745664420132,76.49214706279366 L 139.14187686573348,75.74232655888787 L 138.75212561245007,75.1060246970076 L 138.3285627171535,74.55635548298886 L 137.69085942244007,73.45851072129415 L 137.48327166682444,72.07686935453532 L 138.3634227821747,70.77439230392604 L 139.64433359239382,69.93495181947362 L 144.14731041244045,69.13285299358229 L 146.40168198573625,69.14330865797945 Z" fill="#FF0000" fill-opacity="0.1" stroke="#FF0000" stroke-width="0.3" stroke-opacity="0.7"/>
  
  <!-- Title and info -->
  <text x="400.0" y="25" text-anchor="middle" 
        fill="white" font-size="12.0" font-weight="bold">
    Constellation View
  </text>
  
  <text x="10" y="590" fill="white" font-size="5.0">
    RA: 67.5째 to 98.0째 | DE: -14.7째 to 25.5째 | 
    Stars: 19 | DSO: 10 | Vector SVG
  </text>
  
</svg>