<?xml version="1.0" encoding="UTF-8"?>
<svg width="800" height="600" 
     viewBox="0 0 800 600"
     xmlns="http://www.w3.org/2000/svg"
     style="background-color: #000000;">
     
  <!-- Scalable constellation visualization -->
  <defs>
    <!-- Star symbol -->
    <g id="star">
      <polygon points="0,-1 0.3,-0.3 1,0 0.3,0.3 0,1 -0.3,0.3 -1,0 -0.3,-0.3" 
               fill="currentColor" stroke="none"/>
    </g>
    
    <!-- Bright star symbol -->
    <g id="bright-star">
      <polygon points="0,-1.2 0.35,-0.35 1.2,0 0.35,0.35 0,1.2 -0.35,0.35 -1.2,0 -0.35,-0.35" 
               fill="currentColor" stroke="none"/>
    </g>
  </defs>
  
  <!-- Grid lines -->
  <g id="grid" stroke="#333" stroke-width="0.1" opacity="0.3">
  </g>

  <!-- Constellation elements -->
  <use href="#star" x="733.3333333333333" y="550.0" transform="scale(2.068965449202786)" fill="#FFFFFF" opacity="0.9"/>
  <use href="#star" x="675.7244102407487" y="497.8588028618013" transform="scale(0.6451612770908873)" fill="#FFFFFF" opacity="0.9"/>
  <use href="#star" x="611.0043194845606" y="496.975900091123" transform="scale(0.6593406317012648)" fill="#FFFFFF" opacity="0.9"/>
  <use href="#star" x="577.9824319675239" y="461.70047089296907" transform="scale(0.5769230451809602)" fill="#FFFFFF" opacity="0.9"/>
  <use href="#star" x="537.5669320773911" y="417.1302229591463" transform="scale(0.5263157630561145)" fill="#FFFFFF" opacity="0.9"/>
  <use href="#star" x="534.8296762521067" y="389.0073979916543" transform="scale(0.588235305117351)" fill="#FFFFFF" opacity="0.9"/>
  <use href="#star" x="520.8289140590153" y="191.87678385729748" transform="scale(0.5504586866995425)" fill="#FFFFFF" opacity="0.9"/>
  <use href="#star" x="485.1452096751476" y="102.280624768394" transform="scale(0.6185567131938484)" fill="#FFFFFF" opacity="0.9"/>
  <use href="#star" x="479.37044701917364" y="393.16594928241364" transform="scale(0.7142856656288648)" fill="#FFFFFF" opacity="0.9"/>
  <use href="#star" x="466.3511349780525" y="238.67239597082323" transform="scale(0.5940593835033989)" fill="#FFFFFF" opacity="0.9"/>
  <use href="#star" x="423.95853054486514" y="101.54205423555487" transform="scale(0.5172413623006965)" fill="#FFFFFF" opacity="0.9"/>
  <use href="#star" x="412.3412068222688" y="221.37924055340312" transform="scale(0.6382978334854309)" fill="#FFFFFF" opacity="0.9"/>
  <use href="#star" x="410.7262889319199" y="418.72669447244675" transform="scale(0.5714285714285714)" fill="#FFFFFF" opacity="0.9"/>
  <use href="#star" x="370.1301233473709" y="107.4579067792365" transform="scale(0.6382978334854309)" fill="#FFFFFF" opacity="0.9"/>
  <use href="#star" x="367.34354764810416" y="220.2244875483751" transform="scale(0.5714285714285714)" fill="#FFFFFF" opacity="0.9"/>
  <use href="#star" x="337.5212692709943" y="110.24146935293638" transform="scale(0.6666666666666666)" fill="#FFFFFF" opacity="0.9"/>
  <use href="#star" x="326.1753641136058" y="235.2315751612742" transform="scale(0.5769230451809602)" fill="#FFFFFF" opacity="0.9"/>
  <use href="#star" x="320.6399720245022" y="368.30224752888296" transform="scale(0.5263157630561145)" fill="#FFFFFF" opacity="0.9"/>
  <use href="#star" x="317.95275610537175" y="355.15400093348916" transform="scale(0.5825242610575063)" fill="#FFFFFF" opacity="0.9"/>
  <use href="#star" x="228.26793893467814" y="332.9030718770872" transform="scale(0.6593406317012648)" fill="#FFFFFF" opacity="0.9"/>
  <use href="#star" x="208.89771595596943" y="334.92336739448854" transform="scale(0.6060605710312484)" fill="#FFFFFF" opacity="0.9"/>
  <use href="#star" x="172.6034855106442" y="302.93214802270626" transform="scale(0.6249999751647324)" fill="#FFFFFF" opacity="0.9"/>
  <use href="#star" x="170.1761736041334" y="50.90551280161013" transform="scale(0.6122448860432199)" fill="#FFFFFF" opacity="0.9"/>
  <use href="#star" x="164.313763107876" y="152.34721597913185" transform="scale(0.5)" fill="#FFFFFF" opacity="0.9"/>
  <use href="#star" x="141.21856443740722" y="50.00000000000002" transform="scale(0.6)" fill="#FFFFFF" opacity="0.9"/>
  <use href="#star" x="117.9127953221772" y="70.35683845957273" transform="scale(0.5607476735471151)" fill="#FFFFFF" opacity="0.9"/>
  <use href="#star" x="70.75932968184561" y="66.96873264362277" transform="scale(0.8)" fill="#FFFFFF" opacity="0.9"/>
  <use href="#star" x="66.6666666666666" y="100.93677931344808" transform="scale(0.5714285714285714)" fill="#FFFFFF" opacity="0.9"/>
  <line x1="733.3333333333333" y1="550.0" x2="675.7244102407487" y2="497.8588028618013" stroke="#87CEEB" stroke-width="0.5" opacity="0.8"/>
  <line x1="675.7244102407487" y1="497.8588028618013" x2="611.0043194845606" y2="496.975900091123" stroke="#87CEEB" stroke-width="0.5" opacity="0.8"/>
  <line x1="611.0043194845606" y1="496.975900091123" x2="577.9824319675239" y2="461.70047089296907" stroke="#87CEEB" stroke-width="0.5" opacity="0.8"/>
  <line x1="577.9824319675239" y1="461.70047089296907" x2="537.5669320773911" y2="417.1302229591463" stroke="#87CEEB" stroke-width="0.5" opacity="0.8"/>
  <line x1="537.5669320773911" y1="417.1302229591463" x2="534.8296762521067" y2="389.0073979916543" stroke="#87CEEB" stroke-width="0.5" opacity="0.8"/>
  <line x1="534.8296762521067" y1="389.0073979916543" x2="479.37044701917364" y2="393.16594928241364" stroke="#87CEEB" stroke-width="0.5" opacity="0.8"/>
  <line x1="479.37044701917364" y1="393.16594928241364" x2="410.7262889319199" y2="418.72669447244675" stroke="#87CEEB" stroke-width="0.5" opacity="0.8"/>
  <line x1="410.7262889319199" y1="418.72669447244675" x2="320.6399720245022" y2="368.30224752888296" stroke="#87CEEB" stroke-width="0.5" opacity="0.8"/>
  <line x1="320.6399720245022" y1="368.30224752888296" x2="317.95275610537175" y2="355.15400093348916" stroke="#87CEEB" stroke-width="0.5" opacity="0.8"/>
  <line x1="317.95275610537175" y1="355.15400093348916" x2="228.26793893467814" y2="332.9030718770872" stroke="#87CEEB" stroke-width="0.5" opacity="0.8"/>
  <line x1="228.26793893467814" y1="332.9030718770872" x2="208.89771595596943" y2="334.92336739448854" stroke="#87CEEB" stroke-width="0.5" opacity="0.8"/>
  <line x1="208.89771595596943" y1="334.92336739448854" x2="172.6034855106442" y2="302.93214802270626" stroke="#87CEEB" stroke-width="0.5" opacity="0.8"/>
  <line x1="172.6034855106442" y1="302.93214802270626" x2="326.1753641136058" y2="235.2315751612742" stroke="#87CEEB" stroke-width="0.5" opacity="0.8"/>
  <line x1="326.1753641136058" y1="235.2315751612742" x2="367.34354764810416" y2="220.2244875483751" stroke="#87CEEB" stroke-width="0.5" opacity="0.8"/>
  <line x1="367.34354764810416" y1="220.2244875483751" x2="412.3412068222688" y2="221.37924055340312" stroke="#87CEEB" stroke-width="0.5" opacity="0.8"/>
  <line x1="412.3412068222688" y1="221.37924055340312" x2="466.3511349780525" y2="238.67239597082323" stroke="#87CEEB" stroke-width="0.5" opacity="0.8"/>
  <line x1="466.3511349780525" y1="238.67239597082323" x2="520.8289140590153" y2="191.87678385729748" stroke="#87CEEB" stroke-width="0.5" opacity="0.8"/>
  <line x1="520.8289140590153" y1="191.87678385729748" x2="485.1452096751476" y2="102.280624768394" stroke="#87CEEB" stroke-width="0.5" opacity="0.8"/>
  <line x1="485.1452096751476" y1="102.280624768394" x2="423.95853054486514" y2="101.54205423555487" stroke="#87CEEB" stroke-width="0.5" opacity="0.8"/>
  <line x1="423.95853054486514" y1="101.54205423555487" x2="370.1301233473709" y2="107.4579067792365" stroke="#87CEEB" stroke-width="0.5" opacity="0.8"/>
  <line x1="370.1301233473709" y1="107.4579067792365" x2="337.5212692709943" y2="110.24146935293638" stroke="#87CEEB" stroke-width="0.5" opacity="0.8"/>
  <line x1="337.5212692709943" y1="110.24146935293638" x2="170.1761736041334" y2="50.90551280161013" stroke="#87CEEB" stroke-width="0.5" opacity="0.8"/>
  <line x1="170.1761736041334" y1="50.90551280161013" x2="141.21856443740722" y2="50.00000000000002" stroke="#87CEEB" stroke-width="0.5" opacity="0.8"/>
  <line x1="141.21856443740722" y1="50.00000000000002" x2="117.9127953221772" y2="70.35683845957273" stroke="#87CEEB" stroke-width="0.5" opacity="0.8"/>
  <line x1="117.9127953221772" y1="70.35683845957273" x2="70.75932968184561" y2="66.96873264362277" stroke="#87CEEB" stroke-width="0.5" opacity="0.8"/>
  <line x1="70.75932968184561" y1="66.96873264362277" x2="66.6666666666666" y2="100.93677931344808" stroke="#87CEEB" stroke-width="0.5" opacity="0.8"/>
  <line x1="66.6666666666666" y1="100.93677931344808" x2="164.313763107876" y2="152.34721597913185" stroke="#87CEEB" stroke-width="0.5" opacity="0.8"/>
  <ellipse cx="443.1147788919997" cy="210.46506855657313" rx="0.24481481481481485" ry="0.3194444444444445" transform="rotate(99.0000000001 443.1147788919997 210.46506855657313)" fill="none" stroke="#4682B4" stroke-width="0.2" stroke-dasharray="2,1" opacity="0.7"/>
  <text x="445.1147788919997" y="212.46506855657313" fill="#4682B4" font-size="3.5" font-weight="bold" opacity="0.9">NGC1232</text>
  <text x="75.62756735512681" y="86.7454241795667" fill="#BA55D3" font-size="3.5" font-weight="bold" opacity="0.9">NGC1909</text>
  <path d="M 70.62059874595646,77.86633214750356 L 70.81016603841847,78.01082364568612 L 71.18059793326906,78.22570843785506 L 71.72382237015071,78.43781454736663 L 72.4187763165677,78.72957622638906 L 72.74304611624807,78.80645311324261 L 73.27378408476397,79.17509167911867 L 73.76693652223949,79.65765623394626 L 73.81335086929602,79.79566413926169 L 73.53965757279424,79.80492641478618 L 73.32070293559285,80.02629479982224 L 73.38401815902324,80.1337371959067 L 73.72947711714231,80.30601552066288 L 73.97819747691257,80.43198246779639 L 74.18870167592723,80.31527779618743 L 74.51297147560734,80.21339276541764 L 75.05657429031842,80.4254988749292 L 75.55388888391592,80.67650654164377 L 75.95042884898584,81.11275971884876 L 76.14895108340684,81.50918511129836 L 76.15349161735807,81.81391397605525 L 75.95156398247367,82.00471685186032 L 75.5176907382495,82.21682296137189 L 75.4715286430792,82.43541266375065 L 75.41300620548608,82.80960859494138 L 75.37958283056776,83.04950153102655 L 75.53156459198914,83.30791901816077 L 75.78482548571071,83.55985291242773 L 75.97880718618057,83.65154944012059 L 76.2359779841379,83.67285267382694 L 76.52291450466402,83.86365554963216 L 76.64550892134594,84.13040908473835 L 76.60350898229744,84.29713004417978 L 76.22008611530875,84.41661339844617 L 76.06860885765956,84.69355543662938 L 76.00996029412342,85.06867759537255 L 75.5885735182651,85.30208693859053 L 75.18824977490253,85.63182394726351 L 74.72448468216663,85.85319233229964 L 74.21430524237405,85.93655281202032 L 73.82217968531234,86.16069987971375 L 73.72102667895541,86.34501916265178 L 73.78446802832875,86.45246155873625 L 74.2148097461464,86.64882179985614 L 74.81819625788128,86.84240335831865 L 75.33329460945436,87.24160743342561 L 75.67951032323181,87.41388575818172 L 76.09711332079758,87.41018084797196 L 76.71248179712578,86.91187042475256 L 77.13840910693533,86.8044280286681 L 77.56875082475298,86.82202635216476 L 77.89377738009166,86.89890323901825 L 78.2990200352346,87.0526570127253 L 78.84804626549844,87.38980384181794 L 78.94591999733507,87.79271282713472 L 78.94238847092856,88.20117917776618 L 79.03168563863518,88.52998995888677 L 78.91829841579874,88.87084169818915 L 78.9684965411479,89.56829104518573 L 79.06233424280566,90.20183069106314 L 79.13901881620342,90.68717392854815 L 79.42671209238794,91.05581249442413 L 79.84532409749833,91.40870519190844 L 79.97712570802582,91.9283188488342 L 79.8296844805555,92.15246591652769 L 80.35159363305509,92.4423751404452 L 81.02397103565941,92.58779286618022 L 82.03272632848027,92.80545634100645 L 82.68240106132865,93.24263574576396 Z" fill="#FF0000" fill-opacity="0.1" stroke="#FF0000" stroke-width="0.3" stroke-opacity="0.7"/>
  <path d="M 70.62059874595646,77.86633214750356 L 70.81016603841847,78.01082364568612 L 71.18059793326906,78.22570843785506 L 71.72382237015071,78.43781454736663 L 72.4187763165677,78.72957622638906 L 72.74304611624807,78.80645311324261 L 73.27378408476397,79.17509167911867 L 73.76693652223949,79.65765623394626 L 73.81335086929602,79.79566413926169 L 73.53965757279424,79.80492641478618 L 73.32070293559285,80.02629479982224 L 73.38401815902324,80.1337371959067 L 73.72947711714231,80.30601552066288 L 73.97819747691257,80.43198246779639 L 74.18870167592723,80.31527779618743 L 74.51297147560734,80.21339276541764 L 75.05657429031842,80.4254988749292 L 75.55388888391592,80.67650654164377 L 75.95042884898584,81.11275971884876 L 76.14895108340684,81.50918511129836 L 76.15349161735807,81.81391397605525 L 75.95156398247367,82.00471685186032 L 75.5176907382495,82.21682296137189 L 75.4715286430792,82.43541266375065 L 75.41300620548608,82.80960859494138 L 75.37958283056776,83.04950153102655 L 75.53156459198914,83.30791901816077 L 75.78482548571071,83.55985291242773 L 75.97880718618057,83.65154944012059 L 76.2359779841379,83.67285267382694 L 76.52291450466402,83.86365554963216 L 76.64550892134594,84.13040908473835 L 76.60350898229744,84.29713004417978 L 76.22008611530875,84.41661339844617 L 76.06860885765956,84.69355543662938 L 76.00996029412342,85.06867759537255 L 75.5885735182651,85.30208693859053 L 75.18824977490253,85.63182394726351 L 74.72448468216663,85.85319233229964 L 74.21430524237405,85.93655281202032 L 73.82217968531234,86.16069987971375 L 73.72102667895541,86.34501916265178 L 73.78446802832875,86.45246155873625 L 74.2148097461464,86.64882179985614 L 74.81819625788128,86.84240335831865 L 75.33329460945436,87.24160743342561 L 75.67951032323181,87.41388575818172 L 76.09711332079758,87.41018084797196 L 76.71248179712578,86.91187042475256 L 77.13840910693533,86.8044280286681 L 77.56875082475298,86.82202635216476 L 77.89377738009166,86.89890323901825 L 78.2990200352346,87.0526570127253 L 78.84804626549844,87.38980384181794 L 78.94591999733507,87.79271282713472 L 78.94238847092856,88.20117917776618 L 79.03168563863518,88.52998995888677 L 78.91829841579874,88.87084169818915 L 78.9684965411479,89.56829104518573 L 79.06233424280566,90.20183069106314 L 79.13901881620342,90.68717392854815 L 79.42671209238794,91.05581249442413 L 79.84532409749833,91.40870519190844 L 79.97712570802582,91.9283188488342 L 79.8296844805555,92.15246591652769 L 80.35159363305509,92.4423751404452 L 81.02397103565941,92.58779286618022 L 82.03272632848027,92.80545634100645 L 82.68240106132865,93.24263574576396 L 83.04249062884601,93.5205040114997 L 83.53942684461427,94.11236341751665 L 83.80593096236,94.56251000800849 L 84.19578625244633,94.72459982968763 L 85.10351466485338,94.44024797108479 L 85.93985579347247,94.03548653066316 L 86.21001756356792,93.66592173723464 L 85.26407299040493,92.8953004135944 L 84.87232581117246,91.98667118463864 L 84.87737084889595,91.66527022393768 L 85.02304631316306,91.08545177610259 L 85.24477572111238,90.30464194938533 L 84.512236243655,89.64516793203936 L 83.79836340577481,89.26448840798145 L 83.17151746862548,88.28731834014422 L 82.53104992962257,87.95480264881388 L 82.1469964329184,87.47038563888133 L 82.24587917229975,86.97763258097673 L 83.16962557947906,86.7229200040524 L 83.85196693158736,86.47283856489021 L 84.33956982756703,86.1421753286647 L 84.52056055589895,85.62256167173896 L 84.41335350427366,85.19371831495361 L 83.89384074469257,84.64539160390181 L 83.08701308675612,84.43699040460007 L 81.47424065248492,84.26749076250132 L 80.23681902484476,83.41073027648295 L 79.63620728385771,83.13656692095705 L 79.29415372620205,82.63918272529018 L 79.01667665140772,82.08622487647617 L 78.94554161950592,81.71758631060018 L 79.04467661077331,81.22390702514306 L 79.7841530151004,80.49403971381066 L 79.80092776553134,80.02722102737476 L 79.57049566750882,79.38812401618263 L 79.41082022355897,78.8694365868094 L 78.49880352908673,78.23033957561726 L 77.94548901675799,77.62180807365611 L 77.2631476646498,77.12535010554176 L 76.44042813788418,76.88545716945659 L 75.41212332388456,76.71040016204311 L 73.86115260172667,76.55664638833606 L 73.10338793565157,76.50940878316095 L 72.39859616567364,76.55294147812617 L 71.97556975255512,76.57794962204241 L 71.60551623553371,76.69372806609891 L 71.24139063783757,76.9854897451214 L 71.28250769528437,77.22167777099675 Z" fill="#FF0000" fill-opacity="0.1" stroke="#FF0000" stroke-width="0.3" stroke-opacity="0.7"/>
  
  <!-- Title and info -->
  <text x="400.0" y="25" text-anchor="middle" 
        fill="white" font-size="12.0" font-weight="bold">
    Constellation View
  </text>
  
  <text x="10" y="590" fill="white" font-size="5.0">
    RA: 19.1째 to 82.6째 | DE: -62.6째 to 2.1째 | 
    Stars: 28 | DSO: 2 | Vector SVG
  </text>
  
</svg>