<?xml version="1.0" encoding="UTF-8"?>
<svg width="800" height="600" 
     viewBox="0 0 800 600"
     xmlns="http://www.w3.org/2000/svg"
     style="background-color: #000000;">
     
  <!-- Scalable constellation visualization -->
  <defs>
    <!-- Star symbol -->
    <g id="star">
      <polygon points="0,-1 0.3,-0.3 1,0 0.3,0.3 0,1 -0.3,0.3 -1,0 -0.3,-0.3" 
               fill="currentColor" stroke="none"/>
    </g>
    
    <!-- Bright star symbol -->
    <g id="bright-star">
      <polygon points="0,-1.2 0.35,-0.35 1.2,0 0.35,0.35 0,1.2 -0.35,0.35 -1.2,0 -0.35,-0.35" 
               fill="currentColor" stroke="none"/>
    </g>
  </defs>
  
  <!-- Grid lines -->
  <g id="grid" stroke="#333" stroke-width="0.1" opacity="0.3">
    <line x1="800.0" y1="0" x2="800.0" y2="600"/>
    <line x1="733.3333333333333" y1="0" x2="733.3333333333333" y2="600"/>
    <line x1="666.6666666666667" y1="0" x2="666.6666666666667" y2="600"/>
    <line x1="600.0" y1="0" x2="600.0" y2="600"/>
    <line x1="533.3333333333334" y1="0" x2="533.3333333333334" y2="600"/>
    <line x1="466.66666666666663" y1="0" x2="466.66666666666663" y2="600"/>
    <line x1="400.0" y1="0" x2="400.0" y2="600"/>
    <line x1="333.3333333333333" y1="0" x2="333.3333333333333" y2="600"/>
    <line x1="266.6666666666667" y1="0" x2="266.6666666666667" y2="600"/>
    <line x1="200.0" y1="0" x2="200.0" y2="600"/>
    <line x1="133.33333333333331" y1="0" x2="133.33333333333331" y2="600"/>
    <line x1="66.6666666666667" y1="0" x2="66.6666666666667" y2="600"/>
    <line x1="0.0" y1="0" x2="0.0" y2="600"/>
    <line x1="0" y1="600.0" x2="800" y2="600.0"/>
    <line x1="0" y1="500.0" x2="800" y2="500.0"/>
    <line x1="0" y1="400.00000000000006" x2="800" y2="400.00000000000006"/>
    <line x1="0" y1="300.0" x2="800" y2="300.0"/>
    <line x1="0" y1="200.00000000000003" x2="800" y2="200.00000000000003"/>
    <line x1="0" y1="99.99999999999997" x2="800" y2="99.99999999999997"/>
    <line x1="0" y1="0.0" x2="800" y2="0.0"/>
  </g>

  <!-- Constellation elements -->
  <use href="#star" x="70.03768809687436" y="424.54969817178045" transform="scale(0.75)" fill="#FFFFFF" opacity="0.9"/>
  <use href="#star" x="63.269584087304494" y="431.81382300309815" transform="scale(0.5504586866995425)" fill="#FFFFFF" opacity="0.9"/>
  <use href="#star" x="62.08945109178252" y="456.5391940836896" transform="scale(1.1111110914881832)" fill="#FFFFFF" opacity="0.9"/>
  <use href="#star" x="50.405269330321104" y="444.98514755763415" transform="scale(0.6060605710312484)" fill="#FFFFFF" opacity="0.9"/>
  <use href="#star" x="42.9596773133416" y="456.2812611062026" transform="scale(0.983606495866213)" fill="#FFFFFF" opacity="0.9"/>
  <use href="#star" x="39.68863851614968" y="471.05705277358885" transform="scale(0.6741572600274294)" fill="#FFFFFF" opacity="0.9"/>
  <use href="#star" x="32.84580319375996" y="475.84784947598314" transform="scale(0.588235305117351)" fill="#FFFFFF" opacity="0.9"/>
  <use href="#star" x="29.511512618363334" y="445.06871813627254" transform="scale(0.5)" fill="#FFFFFF" opacity="0.9"/>
  <use href="#star" x="27.575796402829322" y="450.82330955851586" transform="scale(0.6185567131938484)" fill="#FFFFFF" opacity="0.9"/>
  <line x1="29.511512618363334" y1="445.06871813627254" x2="50.405269330321104" y2="444.98514755763415" stroke="#87CEEB" stroke-width="0.5" opacity="0.8"/>
  <line x1="50.405269330321104" y1="444.98514755763415" x2="62.08945109178252" y2="456.5391940836896" stroke="#87CEEB" stroke-width="0.5" opacity="0.8"/>
  <line x1="62.08945109178252" y1="456.5391940836896" x2="42.9596773133416" y2="456.2812611062026" stroke="#87CEEB" stroke-width="0.5" opacity="0.8"/>
  <line x1="42.9596773133416" y1="456.2812611062026" x2="27.575796402829322" y2="450.82330955851586" stroke="#87CEEB" stroke-width="0.5" opacity="0.8"/>
  <line x1="27.575796402829322" y1="450.82330955851586" x2="29.511512618363334" y2="445.06871813627254" stroke="#87CEEB" stroke-width="0.5" opacity="0.8"/>
  <line x1="42.9596773133416" y1="456.2812611062026" x2="32.84580319375996" y2="475.84784947598314" stroke="#87CEEB" stroke-width="0.5" opacity="0.8"/>
  <line x1="42.9596773133416" y1="456.2812611062026" x2="39.68863851614968" y2="471.05705277358885" stroke="#87CEEB" stroke-width="0.5" opacity="0.8"/>
  <line x1="62.08945109178252" y1="456.5391940836896" x2="63.269584087304494" y2="431.81382300309815" stroke="#87CEEB" stroke-width="0.5" opacity="0.8"/>
  <line x1="63.269584087304494" y1="431.81382300309815" x2="70.03768809687436" y2="424.54969817178045" stroke="#87CEEB" stroke-width="0.5" opacity="0.8"/>
  <g transform="translate(23.117777777777793,441.225) scale(0.5)">
    <line x1="-2" y1="0" x2="2" y2="0" stroke="#4682B4" stroke-width="0.5"/>
    <line x1="0" y1="-2" x2="0" y2="2" stroke="#4682B4" stroke-width="0.5"/>
  </g>
  <text x="25.117777777777793" y="443.225" fill="#4682B4" font-size="3.5" font-weight="bold" opacity="0.9">Grus_Quartet</text>
  <ellipse cx="34.83333333333336" cy="436.902" rx="0.2562962962962963" ry="0.26" transform="rotate(125.0000000001 34.83333333333336 436.902)" fill="none" stroke="#4682B4" stroke-width="0.2" stroke-dasharray="2,1" opacity="0.7"/>
  <text x="36.83333333333336" y="438.902" fill="#4682B4" font-size="3.5" font-weight="bold" opacity="0.9">NGC7424</text>
  
  <!-- Title and info -->
  <text x="400.0" y="25" text-anchor="middle" 
        fill="white" font-size="12.0" font-weight="bold">
    Constellation View
  </text>
  
  <text x="10" y="590" fill="white" font-size="5.0">
    RA: 0.0째 to 360.0째 | DE: -90.0째 to 90.0째 | 
    Stars: 9 | DSO: 2 | Vector SVG
  </text>
  
</svg>