<?xml version="1.0" encoding="UTF-8"?>
<svg width="800" height="600" 
     viewBox="0 0 800 600"
     xmlns="http://www.w3.org/2000/svg"
     style="background-color: #000000;">
     
  <!-- Scalable constellation visualization -->
  <defs>
    <!-- Star symbol -->
    <g id="star">
      <polygon points="0,-1 0.3,-0.3 1,0 0.3,0.3 0,1 -0.3,0.3 -1,0 -0.3,-0.3" 
               fill="currentColor" stroke="none"/>
    </g>
    
    <!-- Bright star symbol -->
    <g id="bright-star">
      <polygon points="0,-1.2 0.35,-0.35 1.2,0 0.35,0.35 0,1.2 -0.35,0.35 -1.2,0 -0.35,-0.35" 
               fill="currentColor" stroke="none"/>
    </g>
  </defs>
  
  <!-- Grid lines -->
  <g id="grid" stroke="#333" stroke-width="0.1" opacity="0.3">
  </g>

  <!-- Constellation elements -->
  <use href="#star" x="526.8316420175864" y="299.39351948834917" transform="scale(0.5504586866995425)" fill="#FFFFFF" opacity="0.9"/>
  <use href="#star" x="350.05528285234055" y="211.01771253207394" transform="scale(0.5)" fill="#FFFFFF" opacity="0.9"/>
  <line x1="526.8316420175864" y1="299.39351948834917" x2="350.05528285234055" y2="211.01771253207394" stroke="#87CEEB" stroke-width="0.5" opacity="0.8"/>
  <ellipse cx="548.1758336409498" cy="244.38609932252703" rx="0.3703703703703703" ry="0.3427777777777778" transform="rotate(140.0000000001 548.1758336409498 244.38609932252703)" fill="none" stroke="#4682B4" stroke-width="0.2" stroke-dasharray="2,1" opacity="0.7"/>
  <text x="550.1758336409498" y="246.38609932252703" fill="#4682B4" font-size="3.5" font-weight="bold" opacity="0.9">NGC1097</text>
  <ellipse cx="268.192444936631" cy="423.4094019816299" rx="0.4881481481481481" ry="0.46222222222222226" transform="rotate(50.0000000001 268.192444936631 423.4094019816299)" fill="none" stroke="#4682B4" stroke-width="0.2" stroke-dasharray="2,1" opacity="0.7"/>
  <text x="270.192444936631" y="425.4094019816299" fill="#4682B4" font-size="3.5" font-weight="bold" opacity="0.9">NGC1316</text>
  <ellipse cx="187.29235880398676" cy="129.12445014504982" rx="0.23703703703703707" ry="0.35555555555555557" transform="rotate(90.0000000001 187.29235880398676 129.12445014504982)" fill="none" stroke="#BA55D3" stroke-width="0.2" stroke-dasharray="2,1" opacity="0.7"/>
  <text x="189.29235880398676" y="131.12445014504982" fill="#BA55D3" font-size="3.5" font-weight="bold" opacity="0.9">NGC1360</text>
  <ellipse cx="184.4961240310079" cy="395.86973925469374" rx="0.397037037037037" ry="0.3505555555555555" transform="rotate(5.0000000001 184.4961240310079 395.86973925469374)" fill="none" stroke="#4682B4" stroke-width="0.2" stroke-dasharray="2,1" opacity="0.7"/>
  <text x="186.4961240310079" y="397.86973925469374" fill="#4682B4" font-size="3.5" font-weight="bold" opacity="0.9">NGC1365</text>
  <ellipse cx="153.808293343177" cy="376.9039400173888" rx="0.28111111111111114" ry="0.3844444444444445" transform="rotate(1e-10 153.808293343177 376.9039400173888)" fill="none" stroke="#4682B4" stroke-width="0.2" stroke-dasharray="2,1" opacity="0.7"/>
  <text x="155.808293343177" y="378.9039400173888" fill="#4682B4" font-size="3.5" font-weight="bold" opacity="0.9">NGC1399</text>
  <ellipse cx="646.1917066568229" cy="470.8755498549502" rx="0.15444444444444444" ry="0.16777777777777778" transform="rotate(18.0000000001 646.1917066568229 470.8755498549502)" fill="none" stroke="#4682B4" stroke-width="0.2" stroke-dasharray="2,1" opacity="0.7"/>
  <text x="648.1917066568229" y="472.8755498549502" fill="#4682B4" font-size="3.5" font-weight="bold" opacity="0.9">NGC986</text>
  
  <!-- Title and info -->
  <text x="400.0" y="25" text-anchor="middle" 
        fill="white" font-size="12.0" font-weight="bold">
    Constellation View
  </text>
  
  <text x="10" y="590" fill="white" font-size="5.0">
    RA: 33.4째 to 59.4째 | DE: -44.0째 to -20.8째 | 
    Stars: 2 | DSO: 6 | Vector SVG
  </text>
  
</svg>