<?xml version="1.0" encoding="UTF-8"?>
<svg width="800" height="600" 
     viewBox="0 0 800 600"
     xmlns="http://www.w3.org/2000/svg"
     style="background-color: #000000;">
     
  <!-- Scalable constellation visualization -->
  <defs>
    <!-- Star symbol -->
    <g id="star">
      <polygon points="0,-1 0.3,-0.3 1,0 0.3,0.3 0,1 -0.3,0.3 -1,0 -0.3,-0.3" 
               fill="currentColor" stroke="none"/>
    </g>
    
    <!-- Bright star symbol -->
    <g id="bright-star">
      <polygon points="0,-1.2 0.35,-0.35 1.2,0 0.35,0.35 0,1.2 -0.35,0.35 -1.2,0 -0.35,-0.35" 
               fill="currentColor" stroke="none"/>
    </g>
  </defs>
  
  <!-- Grid lines -->
  <g id="grid" stroke="#333" stroke-width="0.1" opacity="0.3">
    <line x1="800.0" y1="0" x2="800.0" y2="600"/>
    <line x1="733.3333333333333" y1="0" x2="733.3333333333333" y2="600"/>
    <line x1="666.6666666666667" y1="0" x2="666.6666666666667" y2="600"/>
    <line x1="600.0" y1="0" x2="600.0" y2="600"/>
    <line x1="533.3333333333334" y1="0" x2="533.3333333333334" y2="600"/>
    <line x1="466.66666666666663" y1="0" x2="466.66666666666663" y2="600"/>
    <line x1="400.0" y1="0" x2="400.0" y2="600"/>
    <line x1="333.3333333333333" y1="0" x2="333.3333333333333" y2="600"/>
    <line x1="266.6666666666667" y1="0" x2="266.6666666666667" y2="600"/>
    <line x1="200.0" y1="0" x2="200.0" y2="600"/>
    <line x1="133.33333333333331" y1="0" x2="133.33333333333331" y2="600"/>
    <line x1="66.6666666666667" y1="0" x2="66.6666666666667" y2="600"/>
    <line x1="0.0" y1="0" x2="0.0" y2="600"/>
    <line x1="0" y1="600.0" x2="800" y2="600.0"/>
    <line x1="0" y1="500.0" x2="800" y2="500.0"/>
    <line x1="0" y1="400.00000000000006" x2="800" y2="400.00000000000006"/>
    <line x1="0" y1="300.0" x2="800" y2="300.0"/>
    <line x1="0" y1="200.00000000000003" x2="800" y2="200.00000000000003"/>
    <line x1="0" y1="99.99999999999997" x2="800" y2="99.99999999999997"/>
    <line x1="0" y1="0.0" x2="800" y2="0.0"/>
  </g>

  <!-- Constellation elements -->
  <use href="#star" x="280.66639005293814" y="264.87029129715313" transform="scale(0.588235305117351)" fill="#FFFFFF" opacity="0.9"/>
  <use href="#star" x="275.4055114939498" y="278.58065110790335" transform="scale(0.8333333554091282)" fill="#FFFFFF" opacity="0.9"/>
  <use href="#star" x="274.3392005730598" y="248.59487611353322" transform="scale(0.6451612770908873)" fill="#FFFFFF" opacity="0.9"/>
  <use href="#star" x="272.923292604348" y="239.52989651924423" transform="scale(0.5940593835033989)" fill="#FFFFFF" opacity="0.9"/>
  <use href="#star" x="272.43419267533443" y="311.4343507370131" transform="scale(0.6666666666666666)" fill="#FFFFFF" opacity="0.9"/>
  <use href="#star" x="271.7670251431763" y="285.07292318007296" transform="scale(0.6382978334854309)" fill="#FFFFFF" opacity="0.9"/>
  <use href="#star" x="268.63337724203404" y="247.81245369670737" transform="scale(0.6185567131938484)" fill="#FFFFFF" opacity="0.9"/>
  <use href="#star" x="221.76179684851292" y="342.82292701509454" transform="scale(0.5660377154786554)" fill="#FFFFFF" opacity="0.9"/>
  <use href="#star" x="212.45236656153645" y="351.3298405251776" transform="scale(0.6666666666666666)" fill="#FFFFFF" opacity="0.9"/>
  <use href="#star" x="210.32627931953138" y="342.918877583413" transform="scale(0.5769230451809602)" fill="#FFFFFF" opacity="0.9"/>
  <use href="#star" x="188.16916491216585" y="309.67738518807556" transform="scale(0.7142856656288648)" fill="#FFFFFF" opacity="0.9"/>
  <use href="#star" x="168.7662607931819" y="285.9874420215533" transform="scale(0.5357142948374458)" fill="#FFFFFF" opacity="0.9"/>
  <line x1="272.43419267533443" y1="311.4343507370131" x2="271.7670251431763" y2="285.07292318007296" stroke="#87CEEB" stroke-width="0.5" opacity="0.8"/>
  <line x1="271.7670251431763" y1="285.07292318007296" x2="275.4055114939498" y2="278.58065110790335" stroke="#87CEEB" stroke-width="0.5" opacity="0.8"/>
  <line x1="275.4055114939498" y1="278.58065110790335" x2="280.66639005293814" y2="264.87029129715313" stroke="#87CEEB" stroke-width="0.5" opacity="0.8"/>
  <line x1="280.66639005293814" y1="264.87029129715313" x2="274.3392005730598" y2="248.59487611353322" stroke="#87CEEB" stroke-width="0.5" opacity="0.8"/>
  <line x1="274.3392005730598" y1="248.59487611353322" x2="268.63337724203404" y2="247.81245369670737" stroke="#87CEEB" stroke-width="0.5" opacity="0.8"/>
  <line x1="268.63337724203404" y1="247.81245369670737" x2="272.923292604348" y2="239.52989651924423" stroke="#87CEEB" stroke-width="0.5" opacity="0.8"/>
  <line x1="272.923292604348" y1="239.52989651924423" x2="274.3392005730598" y2="248.59487611353322" stroke="#87CEEB" stroke-width="0.5" opacity="0.8"/>
  <line x1="168.7662607931819" y1="285.9874420215533" x2="188.16916491216585" y2="309.67738518807556" stroke="#87CEEB" stroke-width="0.5" opacity="0.8"/>
  <line x1="188.16916491216585" y1="309.67738518807556" x2="210.32627931953138" y2="342.918877583413" stroke="#87CEEB" stroke-width="0.5" opacity="0.8"/>
  <line x1="210.32627931953138" y1="342.918877583413" x2="212.45236656153645" y2="351.3298405251776" stroke="#87CEEB" stroke-width="0.5" opacity="0.8"/>
  <line x1="212.45236656153645" y1="351.3298405251776" x2="221.76179684851292" y2="342.82292701509454" stroke="#87CEEB" stroke-width="0.5" opacity="0.8"/>
  <ellipse cx="178.6002222222222" cy="281.70000000000005" rx="2.374074074074074" ry="3.5611111111111104" transform="rotate(1e-10 178.6002222222222 281.70000000000005)" fill="none" stroke="#FFA500" stroke-width="0.2" stroke-dasharray="2,1" opacity="0.7"/>
  <text x="180.6002222222222" y="283.70000000000005" fill="#FFA500" font-size="3.5" font-weight="bold" opacity="0.9">IC4756</text>
  <text x="191.5555555555556" y="347.9433333333334" fill="#BA55D3" font-size="3.5" font-weight="bold" opacity="0.9">M16</text>
  <ellipse cx="289.66666666666663" cy="293.0566666666667" rx="1.1111111111111112" ry="1.6666666666666667" transform="rotate(1e-10 289.66666666666663 293.0566666666667)" fill="none" stroke="#FFA500" stroke-width="0.2" stroke-dasharray="2,1" opacity="0.7"/>
  <text x="291.66666666666663" y="295.0566666666667" fill="#FFA500" font-size="3.5" font-weight="bold" opacity="0.9">M5</text>
  <ellipse cx="197.3057777777778" cy="325.288" rx="0.17777777777777778" ry="0.26666666666666666" transform="rotate(1e-10 197.3057777777778 325.288)" fill="none" stroke="#FFA500" stroke-width="0.2" stroke-dasharray="2,1" opacity="0.7"/>
  <text x="199.3057777777778" y="327.288" fill="#FFA500" font-size="3.5" font-weight="bold" opacity="0.9">NGC6539</text>
  <path d="M 189.88799999999992,347.12766666666664 L 189.88848888888884,347.08933333333334 L 189.8906666666667,347.04200000000003 L 189.88893333333328,347.0156666666667 L 189.87060000000008,346.99566666666664 L 189.8360222222223,346.9916666666666 L 189.8145111111112,346.9766666666667 L 189.7786222222222,346.9563333333333 L 189.75862222222224,346.945 L 189.70982222222216,346.9226666666667 L 189.68982222222212,346.91166666666663 L 189.65004444444435,346.912 L 189.62953333333328,346.93933333333337 L 189.62228888888893,346.978 L 189.61860000000001,347.0216666666667 L 189.58382222222224,346.995 L 189.5828444444444,346.953 L 189.58317777777776,346.92733333333325 L 189.57448888888882,346.84366666666665 L 189.56802222222225,346.748 L 189.5644222222222,346.70799999999997 L 189.56064444444448,346.681 L 189.54233333333343,346.661 L 189.52477777777784,346.6603333333333 L 189.5066222222223,346.62766666666664 L 189.4998666666667,346.5926666666667 L 189.49048888888882,346.5603333333333 L 189.47422222222218,346.541 L 189.46339999999998,346.54 L 189.44246666666658,346.52199999999993 L 189.44399999999996,346.497 L 189.44422222222227,346.4816666666667 L 189.45020000000002,346.45666666666665 L 189.46848888888894,346.42299999999994 L 189.4663111111111,346.39866666666666 L 189.44953333333333,346.3666666666667 L 189.44337777777784,346.335 L 189.43962222222223,346.3123333333333 L 189.45011111111106,346.27733333333333 L 189.46502222222216,346.2403333333333 L 189.4750666666667,346.21533333333326 L 189.48624444444437,346.1983333333333 L 189.49326666666667,346.1893333333333 L 189.51633333333336,346.173 L 189.52311111111104,346.1583333333333 L 189.5302222222222,346.14166666666665 L 189.53822222222217,346.12733333333335 L 189.55088888888892,346.1166666666667 L 189.5538222222222,346.10800000000006 L 189.54842222222217,346.0996666666666 L 189.54395555555558,346.0976666666666 L 189.53764444444445,346.101 L 189.5258888888889,346.1073333333334 L 189.5217555555555,346.1139999999999 L 189.5182888888889,346.12266666666665 L 189.5152888888889,346.12833333333333 L 189.50711111111121,346.13633333333337 L 189.50168888888888,346.13966666666664 L 189.4931555555556,346.1236666666667 L 189.48924444444435,346.1139999999999 L 189.48015555555554,346.10600000000005 L 189.4747111111111,346.10966666666667 L 189.46815555555557,346.1139999999999 L 189.46175555555556,346.12266666666665 L 189.45624444444445,346.13166666666666 L 189.45277777777784,346.14 L 189.45237777777785,346.15233333333333 L 189.45879999999997,346.159 L 189.46844444444446,346.15866666666665 L 189.4768,346.15500000000003 L 189.48533333333327,346.171 L 189.4789333333333,346.17966666666666 L 189.46848888888894,346.1893333333333 L 189.4522888888889,346.20966666666664 L 189.445,346.2176666666667 L 189.43428888888886,346.22900000000004 L 189.42813333333336,346.23633333333333 L 189.42068888888883,346.2403333333333 L 189.4123333333333,346.24399999999997 L 189.40406666666672,346.2306666666667 L 189.38764444444445,346.22433333333333 L 189.3667333333334,346.20633333333336 L 189.3594222222223,346.17466666666667 L 189.34764444444446,346.1666666666667 L 189.32862222222218,346.1623333333333 L 189.29686666666666,346.1433333333333 L 189.28248888888888,346.13766666666663 L 189.26457777777782,346.12733333333335 L 189.24366666666668,346.10966666666667 L 189.23244444444452,346.09866666666665 L 189.21786666666662,346.07033333333334 L 189.2074,346.0436666666667 L 189.20664444444446,346.02433333333335 L 189.19244444444442,346.0056666666667 L 189.1756444444444,345.98966666666666 L 189.1668444444445,345.95399999999995 L 189.16551111111116,345.90200000000004 L 189.1750222222222,345.8866666666667 L 189.21193333333335,345.86566666666664 L 189.23728888888894,345.85966666666667 L 189.25799999999998,345.85499999999996 L 189.3046222222222,345.84133333333335 L 189.29397777777783,345.8276666666667 L 189.28315555555554,345.8266666666667 L 189.26151111111116,345.8243333333333 L 189.24082222222216,345.829 L 189.21713333333338,345.82599999999996 L 189.2027555555555,345.82033333333334 L 189.19117777777777,345.79966666666667 L 189.17977777777776,345.7663333333333 L 189.1715333333333,345.72766666666666 L 189.1689111111111,345.69466666666665 L 189.1718666666667,345.66700000000003 Z" fill="#FF0000" fill-opacity="0.1" stroke="#FF0000" stroke-width="0.3" stroke-opacity="0.7"/>
  <path d="M 189.88799999999992,347.12766666666664 L 189.88848888888884,347.08933333333334 L 189.8906666666667,347.04200000000003 L 189.88893333333328,347.0156666666667 L 189.87060000000008,346.99566666666664 L 189.8360222222223,346.9916666666666 L 189.8145111111112,346.9766666666667 L 189.7786222222222,346.9563333333333 L 189.75862222222224,346.945 L 189.70982222222216,346.9226666666667 L 189.68982222222212,346.91166666666663 L 189.65004444444435,346.912 L 189.62953333333328,346.93933333333337 L 189.62228888888893,346.978 L 189.61860000000001,347.0216666666667 L 189.58382222222224,346.995 L 189.5828444444444,346.953 L 189.58317777777776,346.92733333333325 L 189.57448888888882,346.84366666666665 L 189.56802222222225,346.748 L 189.5644222222222,346.70799999999997 L 189.56064444444448,346.681 L 189.54233333333343,346.661 L 189.52477777777784,346.6603333333333 L 189.5066222222223,346.62766666666664 L 189.4998666666667,346.5926666666667 L 189.49048888888882,346.5603333333333 L 189.47422222222218,346.541 L 189.46339999999998,346.54 L 189.44246666666658,346.52199999999993 L 189.44399999999996,346.497 L 189.44422222222227,346.4816666666667 L 189.45020000000002,346.45666666666665 L 189.46848888888894,346.42299999999994 L 189.4663111111111,346.39866666666666 L 189.44953333333333,346.3666666666667 L 189.44337777777784,346.335 L 189.43962222222223,346.3123333333333 L 189.45011111111106,346.27733333333333 L 189.46502222222216,346.2403333333333 L 189.4750666666667,346.21533333333326 L 189.48624444444437,346.1983333333333 L 189.49326666666667,346.1893333333333 L 189.51633333333336,346.173 L 189.52311111111104,346.1583333333333 L 189.5302222222222,346.14166666666665 L 189.53822222222217,346.12733333333335 L 189.55088888888892,346.1166666666667 L 189.5538222222222,346.10800000000006 L 189.54842222222217,346.0996666666666 L 189.54395555555558,346.0976666666666 L 189.53764444444445,346.101 L 189.5258888888889,346.1073333333334 L 189.5217555555555,346.1139999999999 L 189.5182888888889,346.12266666666665 L 189.5152888888889,346.12833333333333 L 189.50711111111121,346.13633333333337 L 189.50168888888888,346.13966666666664 L 189.4931555555556,346.1236666666667 L 189.48924444444435,346.1139999999999 L 189.48015555555554,346.10600000000005 L 189.4747111111111,346.10966666666667 L 189.46815555555557,346.1139999999999 L 189.46175555555556,346.12266666666665 L 189.45624444444445,346.13166666666666 L 189.45277777777784,346.14 L 189.45237777777785,346.15233333333333 L 189.45879999999997,346.159 L 189.46844444444446,346.15866666666665 L 189.4768,346.15500000000003 L 189.48533333333327,346.171 L 189.4789333333333,346.17966666666666 L 189.46848888888894,346.1893333333333 L 189.4522888888889,346.20966666666664 L 189.445,346.2176666666667 L 189.43428888888886,346.22900000000004 L 189.42813333333336,346.23633333333333 L 189.42068888888883,346.2403333333333 L 189.4123333333333,346.24399999999997 L 189.40406666666672,346.2306666666667 L 189.38764444444445,346.22433333333333 L 189.3667333333334,346.20633333333336 L 189.3594222222223,346.17466666666667 L 189.34764444444446,346.1666666666667 L 189.32862222222218,346.1623333333333 L 189.29686666666666,346.1433333333333 L 189.28248888888888,346.13766666666663 L 189.26457777777782,346.12733333333335 L 189.24366666666668,346.10966666666667 L 189.23244444444452,346.09866666666665 L 189.21786666666662,346.07033333333334 L 189.2074,346.0436666666667 L 189.20664444444446,346.02433333333335 L 189.19244444444442,346.0056666666667 L 189.1756444444444,345.98966666666666 L 189.1668444444445,345.95399999999995 L 189.16551111111116,345.90200000000004 L 189.1750222222222,345.8866666666667 L 189.21193333333335,345.86566666666664 L 189.23728888888894,345.85966666666667 L 189.25799999999998,345.85499999999996 L 189.3046222222222,345.84133333333335 L 189.29397777777783,345.8276666666667 L 189.28315555555554,345.8266666666667 L 189.26151111111116,345.8243333333333 L 189.24082222222216,345.829 L 189.21713333333338,345.82599999999996 L 189.2027555555555,345.82033333333334 L 189.19117777777777,345.79966666666667 L 189.17977777777776,345.7663333333333 L 189.1715333333333,345.72766666666666 L 189.1689111111111,345.69466666666665 L 189.1718666666667,345.66700000000003 L 189.1429111111111,345.6263333333333 L 189.11895555555552,345.59 L 189.09108888888886,345.5746666666667 L 189.05984444444445,345.54433333333327 L 189.02286666666672,345.51166666666666 L 189.00231111111108,345.49 L 188.97393333333338,345.461 L 188.9663333333333,345.3863333333333 L 189.01317777777774,345.38233333333335 L 189.06573333333336,345.3806666666667 L 189.1300222222223,345.41533333333336 L 189.1969333333334,345.46866666666665 L 189.25604444444434,345.51433333333335 L 189.31019999999998,345.5536666666667 L 189.37033333333338,345.5776666666667 L 189.41275555555563,345.5810000000001 L 189.45,345.59566666666666 L 189.48520000000002,345.65433333333334 L 189.48106666666664,345.693 L 189.5019555555555,345.746 L 189.5343111111111,345.8036666666667 L 189.5590666666667,345.83566666666667 L 189.58533333333332,345.8103333333333 L 189.60711111111107,345.7426666666667 L 189.6221555555556,345.695 L 189.6455333333333,345.66833333333335 L 189.67102222222226,345.647 L 189.71684444444455,345.665 L 189.75826666666657,345.6903333333333 L 189.8130222222222,345.74333333333334 L 189.83362222222223,345.76466666666664 L 189.86435555555562,345.7813333333333 L 189.89433333333335,345.802 L 189.93057777777773,345.83866666666665 L 189.97519999999994,345.89666666666665 L 190.01873333333333,345.9273333333333 L 190.0404222222222,345.976 L 190.07568888888892,346.0346666666666 L 190.09917777777775,346.0573333333333 L 190.1495555555555,346.11766666666665 L 190.2009333333333,346.1556666666666 L 190.20699999999994,346.1893333333333 L 190.19066666666671,346.22766666666666 L 190.17035555555557,346.2376666666667 L 190.12348888888883,346.2416666666667 L 190.09226666666663,346.2606666666666 L 190.06204444444438,346.2576666666667 L 190.04484444444438,346.251 L 190.02795555555556,346.27566666666667 L 189.9982888888889,346.2866666666667 L 189.97666666666672,346.28700000000003 L 189.95891111111112,346.26666666666665 L 189.93542222222217,346.24399999999997 L 189.93142222222215,346.332 L 189.91740000000004,346.3576666666666 L 189.9052222222223,346.40666666666664 L 189.9391777777778,346.4560000000001 L 189.97048888888887,346.486 L 189.98748888888892,346.5106666666667 L 189.99540000000002,346.56766666666664 L 189.9855555555555,346.6039999999999 L 189.9663333333333,346.6413333333333 L 189.93464444444453,346.696 L 189.92557777777785,346.7283333333333 L 189.94100000000006,346.76133333333337 L 189.98039999999997,346.7813333333334 L 190.01460000000003,346.81266666666664 L 190.0336888888888,346.8423333333334 L 190.0314444444444,346.9043333333334 L 190.02237777777776,346.93666666666667 L 189.9867111111111,346.96299999999997 L 189.96175555555564,346.998 L 189.95555555555558,347.0313333333333 L 189.94624444444446,347.08133333333336 L 189.94268888888897,347.13366666666667 L 189.92346666666666,347.171 L 189.89815555555555,347.1743333333333 Z" fill="#FF0000" fill-opacity="0.1" stroke="#FF0000" stroke-width="0.3" stroke-opacity="0.7"/>
  
  <!-- Title and info -->
  <text x="400.0" y="25" text-anchor="middle" 
        fill="white" font-size="12.0" font-weight="bold">
    Constellation View
  </text>
  
  <text x="10" y="590" fill="white" font-size="5.0">
    RA: 0.0째 to 360.0째 | DE: -90.0째 to 90.0째 | 
    Stars: 12 | DSO: 4 | Vector SVG
  </text>
  
</svg>