<?xml version="1.0" encoding="UTF-8"?>
<svg width="800" height="600" 
     viewBox="0 0 800 600"
     xmlns="http://www.w3.org/2000/svg"
     style="background-color: #000000;">
     
  <!-- Scalable constellation visualization -->
  <defs>
    <!-- Star symbol -->
    <g id="star">
      <polygon points="0,-1 0.3,-0.3 1,0 0.3,0.3 0,1 -0.3,0.3 -1,0 -0.3,-0.3" 
               fill="currentColor" stroke="none"/>
    </g>
    
    <!-- Bright star symbol -->
    <g id="bright-star">
      <polygon points="0,-1.2 0.35,-0.35 1.2,0 0.35,0.35 0,1.2 -0.35,0.35 -1.2,0 -0.35,-0.35" 
               fill="currentColor" stroke="none"/>
    </g>
  </defs>
  
  <!-- Grid lines -->
  <g id="grid" stroke="#333" stroke-width="0.1" opacity="0.3">
    <line x1="800.0" y1="0" x2="800.0" y2="600"/>
    <line x1="733.3333333333333" y1="0" x2="733.3333333333333" y2="600"/>
    <line x1="666.6666666666667" y1="0" x2="666.6666666666667" y2="600"/>
    <line x1="600.0" y1="0" x2="600.0" y2="600"/>
    <line x1="533.3333333333334" y1="0" x2="533.3333333333334" y2="600"/>
    <line x1="466.66666666666663" y1="0" x2="466.66666666666663" y2="600"/>
    <line x1="400.0" y1="0" x2="400.0" y2="600"/>
    <line x1="333.3333333333333" y1="0" x2="333.3333333333333" y2="600"/>
    <line x1="266.6666666666667" y1="0" x2="266.6666666666667" y2="600"/>
    <line x1="200.0" y1="0" x2="200.0" y2="600"/>
    <line x1="133.33333333333331" y1="0" x2="133.33333333333331" y2="600"/>
    <line x1="66.6666666666667" y1="0" x2="66.6666666666667" y2="600"/>
    <line x1="0.0" y1="0" x2="0.0" y2="600"/>
    <line x1="0" y1="600.0" x2="800" y2="600.0"/>
    <line x1="0" y1="500.0" x2="800" y2="500.0"/>
    <line x1="0" y1="400.00000000000006" x2="800" y2="400.00000000000006"/>
    <line x1="0" y1="300.0" x2="800" y2="300.0"/>
    <line x1="0" y1="200.00000000000003" x2="800" y2="200.00000000000003"/>
    <line x1="0" y1="99.99999999999997" x2="800" y2="99.99999999999997"/>
    <line x1="0" y1="0.0" x2="800" y2="0.0"/>
  </g>

  <!-- Constellation elements -->
  <use href="#star" x="767.4407806276641" y="397.85801109374177" transform="scale(0.5660377154786554)" fill="#FFFFFF" opacity="0.9"/>
  <use href="#star" x="822.8753864789896" y="408.4417125854826" transform="scale(0.5555555457440916)" fill="#FFFFFF" opacity="0.9"/>
  <use href="#star" x="815.0145390747812" y="426.0602960377204" transform="scale(0.5607476735471151)" fill="#FFFFFF" opacity="0.9"/>
  <line x1="815.0145390747812" y1="426.0602960377204" x2="767.4407806276641" y2="397.85801109374177" stroke="#87CEEB" stroke-width="0.5" opacity="0.8"/>
  <line x1="767.4407806276641" y1="397.85801109374177" x2="822.8753864789896" y2="408.4417125854826" stroke="#87CEEB" stroke-width="0.5" opacity="0.8"/>
  <line x1="822.8753864789896" y1="408.4417125854826" x2="815.0145390747812" y2="426.0602960377204" stroke="#87CEEB" stroke-width="0.5" opacity="0.8"/>
  <ellipse cx="773.582" cy="384.296" rx="1.0681481481481483" ry="0.3272222222222222" transform="rotate(53.0000000001 773.582 384.296)" fill="none" stroke="#4682B4" stroke-width="0.2" stroke-dasharray="2,1" opacity="0.7"/>
  <text x="775.582" y="386.296" fill="#4682B4" font-size="3.5" font-weight="bold" opacity="0.9">NGC253</text>
  <ellipse cx="770.6922222222222" cy="388.6086666666667" rx="0.7111111111111111" ry="1.0666666666666667" transform="rotate(1e-10 770.6922222222222 388.6086666666667)" fill="none" stroke="#FFA500" stroke-width="0.2" stroke-dasharray="2,1" opacity="0.7"/>
  <text x="772.6922222222222" y="390.6086666666667" fill="#FFA500" font-size="3.5" font-weight="bold" opacity="0.9">NGC288</text>
  <ellipse cx="769.5048888888889" cy="425.61466666666666" rx="0.7737037037037038" ry="0.7494444444444445" transform="rotate(114.0000000001 769.5048888888889 425.61466666666666)" fill="none" stroke="#4682B4" stroke-width="0.2" stroke-dasharray="2,1" opacity="0.7"/>
  <text x="771.5048888888889" y="427.61466666666666" fill="#4682B4" font-size="3.5" font-weight="bold" opacity="0.9">NGC300</text>
  <ellipse cx="791.726" cy="430.6553333333333" rx="1.1985185185185185" ry="0.2211111111111111" transform="rotate(101.0000000001 791.726 430.6553333333333)" fill="none" stroke="#4682B4" stroke-width="0.2" stroke-dasharray="2,1" opacity="0.7"/>
  <text x="793.726" y="432.6553333333333" fill="#4682B4" font-size="3.5" font-weight="bold" opacity="0.9">NGC55</text>
  <ellipse cx="747.6088888888888" cy="398.06166666666667" rx="0.2037037037037037" ry="0.2427777777777778" transform="rotate(119.0000000001 747.6088888888888 398.06166666666667)" fill="none" stroke="#4682B4" stroke-width="0.2" stroke-dasharray="2,1" opacity="0.7"/>
  <text x="749.6088888888888" y="400.06166666666667" fill="#4682B4" font-size="3.5" font-weight="bold" opacity="0.9">NGC613</text>
  <ellipse cx="801.4188888888889" cy="408.6406666666667" rx="0.3703703703703703" ry="0.335" transform="rotate(84.0000000001 801.4188888888889 408.6406666666667)" fill="none" stroke="#4682B4" stroke-width="0.2" stroke-dasharray="2,1" opacity="0.7"/>
  <text x="803.4188888888889" y="410.6406666666667" fill="#4682B4" font-size="3.5" font-weight="bold" opacity="0.9">NGC7793</text>
  
  <!-- Title and info -->
  <text x="400.0" y="25" text-anchor="middle" 
        fill="white" font-size="12.0" font-weight="bold">
    Constellation View
  </text>
  
  <text x="10" y="590" fill="white" font-size="5.0">
    RA: 0.0째 to 360.0째 | DE: -90.0째 to 90.0째 | 
    Stars: 3 | DSO: 6 | Vector SVG
  </text>
  
</svg>