<?xml version="1.0" encoding="UTF-8"?>
<svg width="800" height="600" 
     viewBox="0 0 800 600"
     xmlns="http://www.w3.org/2000/svg"
     style="background-color: #000000;">
     
  <!-- Scalable constellation visualization -->
  <defs>
    <!-- Star symbol -->
    <g id="star">
      <polygon points="0,-1 0.3,-0.3 1,0 0.3,0.3 0,1 -0.3,0.3 -1,0 -0.3,-0.3" 
               fill="currentColor" stroke="none"/>
    </g>
    
    <!-- Bright star symbol -->
    <g id="bright-star">
      <polygon points="0,-1.2 0.35,-0.35 1.2,0 0.35,0.35 0,1.2 -0.35,0.35 -1.2,0 -0.35,-0.35" 
               fill="currentColor" stroke="none"/>
    </g>
  </defs>
  
  <!-- Grid lines -->
  <g id="grid" stroke="#333" stroke-width="0.1" opacity="0.3">
  </g>

  <!-- Constellation elements -->
  <use href="#star" x="718.8805765161806" y="290.5515778630999" transform="scale(1.0909090909090908)" fill="#FFFFFF" opacity="0.9"/>
  <use href="#star" x="594.1198339509773" y="426.919517029465" transform="scale(0.652173926564381)" fill="#FFFFFF" opacity="0.9"/>
  <use href="#star" x="576.2222893365658" y="470.56975562436367" transform="scale(1.016949136104436)" fill="#FFFFFF" opacity="0.9"/>
  <use href="#star" x="481.7571381783122" y="195.2317080503404" transform="scale(0.9374999161809757)" fill="#FFFFFF" opacity="0.9"/>
  <use href="#star" x="424.49506981326124" y="477.920731764312" transform="scale(0.8695651452798309)" fill="#FFFFFF" opacity="0.9"/>
  <use href="#star" x="389.68709315937866" y="122.81507431220228" transform="scale(0.6060605710312484)" fill="#FFFFFF" opacity="0.9"/>
  <use href="#star" x="283.5553809734024" y="467.10946340919537" transform="scale(0.6666666666666666)" fill="#FFFFFF" opacity="0.9"/>
  <use href="#star" x="211.08071327812485" y="163.23016256511426" transform="scale(0.6185567131938484)" fill="#FFFFFF" opacity="0.9"/>
  <use href="#star" x="119.54977408303522" y="312.2651419593521" transform="scale(0.588235305117351)" fill="#FFFFFF" opacity="0.9"/>
  <use href="#star" x="81.11942348381946" y="341.4331829492811" transform="scale(0.8108107481149146)" fill="#FFFFFF" opacity="0.9"/>
  <line x1="718.8805765161806" y1="290.5515778630999" x2="594.1198339509773" y2="426.919517029465" stroke="#87CEEB" stroke-width="0.5" opacity="0.8"/>
  <line x1="594.1198339509773" y1="426.919517029465" x2="576.2222893365658" y2="470.56975562436367" stroke="#87CEEB" stroke-width="0.5" opacity="0.8"/>
  <line x1="576.2222893365658" y1="470.56975562436367" x2="424.49506981326124" y2="477.920731764312" stroke="#87CEEB" stroke-width="0.5" opacity="0.8"/>
  <line x1="424.49506981326124" y1="477.920731764312" x2="283.5553809734024" y2="467.10946340919537" stroke="#87CEEB" stroke-width="0.5" opacity="0.8"/>
  <line x1="283.5553809734024" y1="467.10946340919537" x2="81.11942348381946" y2="341.4331829492811" stroke="#87CEEB" stroke-width="0.5" opacity="0.8"/>
  <line x1="81.11942348381946" y1="341.4331829492811" x2="119.54977408303522" y2="312.2651419593521" stroke="#87CEEB" stroke-width="0.5" opacity="0.8"/>
  <line x1="119.54977408303522" y1="312.2651419593521" x2="211.08071327812485" y2="163.23016256511426" stroke="#87CEEB" stroke-width="0.5" opacity="0.8"/>
  <line x1="211.08071327812485" y1="163.23016256511426" x2="389.68709315937866" y2="122.81507431220228" stroke="#87CEEB" stroke-width="0.5" opacity="0.8"/>
  <line x1="389.68709315937866" y1="122.81507431220228" x2="481.7571381783122" y2="195.2317080503404" stroke="#87CEEB" stroke-width="0.5" opacity="0.8"/>
  <line x1="481.7571381783122" y1="195.2317080503404" x2="718.8805765161806" y2="290.5515778630999" stroke="#87CEEB" stroke-width="0.5" opacity="0.8"/>
  <ellipse cx="593.1468507419866" cy="429.63601028722155" rx="3.6185185185185187" ry="5.427777777777778" transform="rotate(1e-10 593.1468507419866 429.63601028722155)" fill="none" stroke="#FFA500" stroke-width="0.2" stroke-dasharray="2,1" opacity="0.7"/>
  <text x="595.1468507419866" y="431.63601028722155" fill="#FFA500" font-size="3.5" font-weight="bold" opacity="0.9">IC2391</text>
  <text x="515.3740096879984" y="258.69851890454595" fill="#BA55D3" font-size="3.5" font-weight="bold" opacity="0.9">NGC2736</text>
  <ellipse cx="242.3150785052857" cy="122.079268235688" rx="0.05296296296296296" ry="0.05555555555555555" transform="rotate(90.0000000001 242.3150785052857 122.079268235688)" fill="none" stroke="#BA55D3" stroke-width="0.2" stroke-dasharray="2,1" opacity="0.7"/>
  <text x="244.3150785052857" y="124.079268235688" fill="#BA55D3" font-size="3.5" font-weight="bold" opacity="0.9">NGC3132</text>
  <ellipse cx="199.38667959764817" cy="267.9908512163471" rx="0.7185185185185184" ry="1.0777777777777777" transform="rotate(1e-10 199.38667959764817 267.9908512163471)" fill="none" stroke="#FFA500" stroke-width="0.2" stroke-dasharray="2,1" opacity="0.7"/>
  <text x="201.38667959764817" y="269.9908512163471" fill="#FFA500" font-size="3.5" font-weight="bold" opacity="0.9">NGC3201</text>
  <ellipse cx="517.8518018643053" cy="294.68714559412723" rx="1.511111111111111" ry="2.266666666666666" transform="rotate(1e-10 517.8518018643053 294.68714559412723)" fill="none" stroke="#BA55D3" stroke-width="0.2" stroke-dasharray="2,1" opacity="0.7"/>
  <text x="519.8518018643053" y="296.68714559412723" fill="#BA55D3" font-size="3.5" font-weight="bold" opacity="0.9">RCW38</text>
  <path d="M 511.71511747775435,253.89313732048976 L 511.8710290096903,254.20810183253784 L 511.91840275300467,254.57922280797433 L 512.0212621819826,254.99429231997576 L 512.1046529493236,255.47284305145956 L 512.279870904049,256.10277207555583 L 512.5929918786964,256.5276079290159 L 512.7777819253926,256.8962873190878 L 513.0067009384637,257.4773846358897 L 513.2682299597756,258.04139085513856 L 513.5742124251568,258.81537341575284 L 513.8161105459853,259.1742864643657 L 513.9572583428472,259.78224122017946 L 514.0998662893319,260.47565146375814 L 514.3133726119412,261.02256658545394 L 514.2867654410385,260.0312829273802 L 514.2971487272443,259.274391464319 L 514.2861164856508,258.68108622069343 L 514.345495903641,257.9437274405499 L 514.374212179554,257.3064736603596 L 514.3677226256752,256.5178415875571 L 514.3995214396808,256.0514987828967 L 514.4863192228089,255.48993414901264 L 514.5408314753897,254.9454606126814 Z" fill="#FF0000" fill-opacity="0.1" stroke="#FF0000" stroke-width="0.3" stroke-opacity="0.7"/>
  <path d="M 511.71511747775435,253.89313732048976 L 511.8710290096903,254.20810183253784 L 511.91840275300467,254.57922280797433 L 512.0212621819826,254.99429231997576 L 512.1046529493236,255.47284305145956 L 512.279870904049,256.10277207555583 L 512.5929918786964,256.5276079290159 L 512.7777819253926,256.8962873190878 L 513.0067009384637,257.4773846358897 L 513.2682299597756,258.04139085513856 L 513.5742124251568,258.81537341575284 L 513.8161105459853,259.1742864643657 L 513.9572583428472,259.78224122017946 L 514.0998662893319,260.47565146375814 L 514.3133726119412,261.02256658545394 L 514.2867654410385,260.0312829273802 L 514.2971487272443,259.274391464319 L 514.2861164856508,258.68108622069343 L 514.345495903641,257.9437274405499 L 514.374212179554,257.3064736603596 L 514.3677226256752,256.5178415875571 L 514.3995214396808,256.0514987828967 L 514.4863192228089,255.48993414901264 L 514.5408314753897,254.9454606126814 L 514.1457798830235,254.99185073461098 L 514.0093370127238,254.9454606126814 L 513.8581304073499,254.7013020762101 L 513.651438116313,254.5157415884918 L 513.106153351655,254.3375058568676 L 512.8804791155229,254.33994744223241 L 512.6760581683438,254.2740246373852 L 512.5035982740175,254.0982304911257 L 512.352716146337,253.85407195465442 Z" fill="#FF0000" fill-opacity="0.1" stroke="#FF0000" stroke-width="0.3" stroke-opacity="0.7"/>
  
  <!-- Title and info -->
  <text x="400.0" y="25" text-anchor="middle" 
        fill="white" font-size="12.0" font-weight="bold">
    Constellation View
  </text>
  
  <text x="10" y="590" fill="white" font-size="5.0">
    RA: 117.4째 to 166.7째 | DE: -60.0째 to -35.4째 | 
    Stars: 10 | DSO: 5 | Vector SVG
  </text>
  
</svg>