<?xml version="1.0" encoding="UTF-8"?>
<svg width="800" height="600" 
     viewBox="0 0 800 600"
     xmlns="http://www.w3.org/2000/svg"
     style="background-color: #000000;">
     
  <!-- Scalable constellation visualization -->
  <defs>
    <!-- Star symbol -->
    <g id="star">
      <polygon points="0,-1 0.3,-0.3 1,0 0.3,0.3 0,1 -0.3,0.3 -1,0 -0.3,-0.3" 
               fill="currentColor" stroke="none"/>
    </g>
    
    <!-- Bright star symbol -->
    <g id="bright-star">
      <polygon points="0,-1.2 0.35,-0.35 1.2,0 0.35,0.35 0,1.2 -0.35,0.35 -1.2,0 -0.35,-0.35" 
               fill="currentColor" stroke="none"/>
    </g>
  </defs>
  
  <!-- Grid lines -->
  <g id="grid" stroke="#333" stroke-width="0.1" opacity="0.3">
    <line x1="800.0" y1="0" x2="800.0" y2="600"/>
    <line x1="733.3333333333333" y1="0" x2="733.3333333333333" y2="600"/>
    <line x1="666.6666666666667" y1="0" x2="666.6666666666667" y2="600"/>
    <line x1="600.0" y1="0" x2="600.0" y2="600"/>
    <line x1="533.3333333333334" y1="0" x2="533.3333333333334" y2="600"/>
    <line x1="466.66666666666663" y1="0" x2="466.66666666666663" y2="600"/>
    <line x1="400.0" y1="0" x2="400.0" y2="600"/>
    <line x1="333.3333333333333" y1="0" x2="333.3333333333333" y2="600"/>
    <line x1="266.6666666666667" y1="0" x2="266.6666666666667" y2="600"/>
    <line x1="200.0" y1="0" x2="200.0" y2="600"/>
    <line x1="133.33333333333331" y1="0" x2="133.33333333333331" y2="600"/>
    <line x1="66.6666666666667" y1="0" x2="66.6666666666667" y2="600"/>
    <line x1="0.0" y1="0" x2="0.0" y2="600"/>
    <line x1="0" y1="600.0" x2="800" y2="600.0"/>
    <line x1="0" y1="500.0" x2="800" y2="500.0"/>
    <line x1="0" y1="400.00000000000006" x2="800" y2="400.00000000000006"/>
    <line x1="0" y1="300.0" x2="800" y2="300.0"/>
    <line x1="0" y1="200.00000000000003" x2="800" y2="200.00000000000003"/>
    <line x1="0" y1="99.99999999999997" x2="800" y2="99.99999999999997"/>
    <line x1="0" y1="0.0" x2="800" y2="0.0"/>
  </g>

  <!-- Constellation elements -->
  <use href="#star" x="166.87702936547728" y="249.77393715654267" transform="scale(0.6)" fill="#FFFFFF" opacity="0.9"/>
  <use href="#star" x="163.66111792090203" y="253.79046456488038" transform="scale(0.7594936158752237)" fill="#FFFFFF" opacity="0.9"/>
  <use href="#star" x="163.19518518036827" y="316.27639565902695" transform="scale(0.6818181670401711)" fill="#FFFFFF" opacity="0.9"/>
  <use href="#star" x="152.49738598579992" y="289.61566376955375" transform="scale(0.6896551875334813)" fill="#FFFFFF" opacity="0.9"/>
  <use href="#star" x="140.96662048787704" y="264.62250346153763" transform="scale(0.8108107481149146)" fill="#FFFFFF" opacity="0.9"/>
  <use href="#star" x="138.44601097553522" y="270.4307929182598" transform="scale(1.7142857142857142)" fill="#FFFFFF" opacity="0.9"/>
  <use href="#star" x="137.5149821316887" y="296.6479751610966" transform="scale(0.6185567131938484)" fill="#FFFFFF" opacity="0.9"/>
  <use href="#star" x="135.93656153736652" y="278.65422986643824" transform="scale(0.6382978334854309)" fill="#FFFFFF" opacity="0.9"/>
  <use href="#star" x="127.052581552024" y="302.7381327904981" transform="scale(0.7142856656288648)" fill="#FFFFFF" opacity="0.9"/>
  <line x1="135.93656153736652" y1="278.65422986643824" x2="138.44601097553522" y2="270.4307929182598" stroke="#87CEEB" stroke-width="0.5" opacity="0.8"/>
  <line x1="138.44601097553522" y1="270.4307929182598" x2="140.96662048787704" y2="264.62250346153763" stroke="#87CEEB" stroke-width="0.5" opacity="0.8"/>
  <line x1="138.44601097553522" y1="270.4307929182598" x2="152.49738598579992" y2="289.61566376955375" stroke="#87CEEB" stroke-width="0.5" opacity="0.8"/>
  <line x1="152.49738598579992" y1="289.61566376955375" x2="137.5149821316887" y2="296.6479751610966" stroke="#87CEEB" stroke-width="0.5" opacity="0.8"/>
  <line x1="127.052581552024" y1="302.7381327904981" x2="137.5149821316887" y2="296.6479751610966" stroke="#87CEEB" stroke-width="0.5" opacity="0.8"/>
  <line x1="152.49738598579992" y1="289.61566376955375" x2="163.66111792090203" y2="253.79046456488038" stroke="#87CEEB" stroke-width="0.5" opacity="0.8"/>
  <line x1="163.66111792090203" y1="253.79046456488038" x2="166.87702936547728" y2="249.77393715654267" stroke="#87CEEB" stroke-width="0.5" opacity="0.8"/>
  <line x1="152.49738598579992" y1="289.61566376955375" x2="163.19518518036827" y2="316.27639565902695" stroke="#87CEEB" stroke-width="0.5" opacity="0.8"/>
  <use href="#bright-star" x="135.92866666666657" y="278.659" transform="scale(0.8)" fill="#FFD700" opacity="0.95"/>
  <text x="138.92866666666657" y="275.659" fill="#FFD700" font-size="4.5" font-weight="bold">Alshain</text>
  <use href="#bright-star" x="138.45755555555562" y="270.4363333333333" transform="scale(1.7142857142857142)" fill="#FFD700" opacity="0.95"/>
  <text x="141.45755555555562" y="267.4363333333333" fill="#FFD700" font-size="4.5" font-weight="bold">Altair</text>
  <use href="#bright-star" x="140.95822222222222" y="264.62800000000004" transform="scale(0.8108108108108107)" fill="#FFD700" opacity="0.95"/>
  <text x="143.95822222222222" y="261.62800000000004" fill="#FFD700" font-size="4.5" font-weight="bold">Tarazed</text>
  <text x="146.4093333333333" y="265.93533333333335" fill="#BA55D3" font-size="3.5" font-weight="bold" opacity="0.9">E_Nebula</text>
  <ellipse cx="171.5" cy="265.6066666666667" rx="0.6222222222222223" ry="0.9333333333333335" transform="rotate(1e-10 171.5 265.6066666666667)" fill="none" stroke="#FFA500" stroke-width="0.2" stroke-dasharray="2,1" opacity="0.7"/>
  <text x="173.5" y="267.6066666666667" fill="#FFA500" font-size="3.5" font-weight="bold" opacity="0.9">NGC6709</text>
  <ellipse cx="160.43422222222227" cy="296.5683333333334" rx="0.17777777777777778" ry="0.26666666666666666" transform="rotate(1e-10 160.43422222222227 296.5683333333334)" fill="none" stroke="#FFA500" stroke-width="0.2" stroke-dasharray="2,1" opacity="0.7"/>
  <text x="162.43422222222227" y="298.5683333333334" fill="#FFA500" font-size="3.5" font-weight="bold" opacity="0.9">NGC6760</text>
  <ellipse cx="156.40666666666664" cy="278.20466666666664" rx="0.06544444444444444" ry="0.09816666666666665" transform="rotate(90.0000000001 156.40666666666664 278.20466666666664)" fill="none" stroke="#BA55D3" stroke-width="0.2" stroke-dasharray="2,1" opacity="0.7"/>
  <text x="158.40666666666664" y="280.20466666666664" fill="#BA55D3" font-size="3.5" font-weight="bold" opacity="0.9">NGC6781</text>
  <path d="M 144.3711111111111,262.60400000000004 L 144.3290666666667,262.61733333333336 L 144.2896444444444,262.621 L 144.2225333333334,262.6186666666666 L 144.18048888888882,262.632 L 144.09862222222225,262.64 L 144.03817777777778,262.6503333333333 L 143.98704444444448,262.66433333333333 L 143.9385333333333,262.6693333333333 L 143.91691111111112,262.66266666666667 L 143.8880222222223,262.6966666666667 L 143.8559111111111,262.72700000000003 L 143.83046666666664,262.76966666666664 L 143.7891111111112,262.86333333333334 L 143.75948888888894,262.947 L 143.75224444444444,262.98833333333334 L 143.7383111111111,263.0163333333333 L 143.71228888888882,263.046 L 143.7091111111111,263.109 L 143.6863111111111,263.1426666666667 L 143.6816888888889,263.17433333333327 L 143.70315555555555,263.244 L 143.7207777777778,263.296 L 143.74204444444442,263.36133333333333 L 143.7742,263.3983333333333 L 143.78493333333333,263.433 L 143.7566888888889,263.4806666666667 L 143.69995555555556,263.5043333333333 L 143.66202222222225,263.53933333333333 L 143.6323555555556,263.556 L 143.6285777777778,263.60566666666665 L 143.64942222222226,263.6616666666667 L 143.6876222222222,263.6983333333333 L 143.71108888888884,263.7453333333333 L 143.70991111111113,263.7856666666667 L 143.68533333333326,263.8463333333333 L 143.70053333333325,263.912 L 143.75971111111107,263.94200000000006 L 143.79199999999992,263.9163333333333 L 143.8644000000001,263.8373333333334 L 143.9023333333334,263.80233333333337 L 143.97039999999998,263.82699999999994 L 144.0570222222223,263.85866666666664 L 144.10671111111117,263.8806666666666 L 144.14791111111106,263.9166666666667 L 144.16851111111112,263.9686666666667 L 144.22322222222218,263.9676666666667 L 144.27791111111102,263.8993333333333 L 144.3083777777777,263.83366666666666 L 144.36066666666676,263.7793333333334 L 144.4256666666667,263.73699999999997 L 144.48422222222223,263.7536666666666 L 144.5234,263.81233333333336 L 144.55066666666667,263.7426666666667 L 144.54520000000005,263.6893333333333 L 144.51248888888887,263.63866666666667 L 144.45068888888892,263.618 L 144.39960000000002,263.632 L 144.34004444444443,263.66033333333337 L 144.26917777777783,263.7076666666666 L 144.2271777777777,263.72066666666666 L 144.12235555555552,263.6906666666667 L 144.03613333333337,263.66800000000006 L 143.98080000000002,263.65566666666666 L 143.91857777777776,263.626 L 143.86482222222224,263.58200000000005 L 143.94313333333332,263.498 L 143.95037777777776,263.457 L 143.93173333333334,263.38266666666664 L 143.89086666666674,263.288 L 143.86191111111114,263.188 L 143.82728888888892,263.0973333333333 L 143.81897777777786,263.0486666666667 L 143.82277777777784,262.999 L 143.8413111111111,262.939 L 143.86895555555563,262.878 L 143.923688888889,262.8096666666667 L 143.99762222222216,262.762 L 144.10008888888885,262.73833333333334 L 144.1851777777778,262.7343333333333 L 144.25511111111115,262.73199999999997 L 144.3001777777779,262.7186666666667 L 144.35959999999994,262.68600000000004 L 144.38871111111106,262.656 Z" fill="#FF0000" fill-opacity="0.1" stroke="#FF0000" stroke-width="0.3" stroke-opacity="0.7"/>
  <path d="M 144.98433333333338,265.19666666666666 L 145.08142222222213,265.18766666666664 L 145.16268888888897,265.105 L 145.20037777777776,264.9953333333333 L 145.18768888888883,264.89633333333336 L 145.14755555555556,264.85033333333337 L 145.06202222222225,264.833 L 144.9962666666666,264.78299999999996 L 144.90515555555552,264.7353333333334 L 144.85366666666667,264.7213333333333 L 144.75311111111102,264.74933333333337 L 144.66915555555548,264.76966666666664 L 144.54775555555557,264.8063333333333 L 144.46546666666666,264.864 L 144.42117777777776,264.9183333333333 L 144.39117777777773,265.00866666666667 L 144.34457777777777,265.107 L 144.26257777777778,265.171 L 144.18237777777776,265.1786666666667 L 144.1051555555556,265.25466666666665 L 144.03244444444442,265.33666666666664 L 144.07004444444445,265.4206666666667 L 144.09657777777775,265.543 L 144.0742666666666,265.61400000000003 L 144.01220000000006,265.745 L 143.97833333333335,265.842 L 144.01222222222225,265.939 L 144.0497777777778,266.0226666666666 L 144.11604444444438,266.0853333333333 L 144.15184444444452,266.03200000000004 L 144.15048888888896,265.80699999999996 L 144.1582444444445,265.6936666666667 L 144.20031111111103,265.58966666666663 L 144.24633333333327,265.479 L 144.33675555555556,265.41400000000004 L 144.39491111111113,265.2896666666667 L 144.42095555555562,265.206 L 144.4475333333334,265.13466666666665 L 144.48651111111116,265.05600000000004 L 144.5339333333334,264.97633333333334 L 144.63366666666664,264.9293333333333 L 144.7096666666667,264.92233333333326 L 144.78253333333325,264.9406666666667 L 144.85755555555554,265.00866666666667 L 144.89164444444444,265.1116666666667 L 144.94526666666667,265.17533333333336 Z" fill="#FF0000" fill-opacity="0.1" stroke="#FF0000" stroke-width="0.3" stroke-opacity="0.7"/>
  
  <!-- Title and info -->
  <text x="400.0" y="25" text-anchor="middle" 
        fill="white" font-size="12.0" font-weight="bold">
    Constellation View
  </text>
  
  <text x="10" y="590" fill="white" font-size="5.0">
    RA: 0.0째 to 360.0째 | DE: -90.0째 to 90.0째 | 
    Stars: 9 | DSO: 4 | Vector SVG
  </text>
  
</svg>