<?xml version="1.0" encoding="UTF-8"?>
<svg width="800" height="600" 
     viewBox="0 0 800 600"
     xmlns="http://www.w3.org/2000/svg"
     style="background-color: #000000;">
     
  <!-- Scalable constellation visualization -->
  <defs>
    <!-- Star symbol -->
    <g id="star">
      <polygon points="0,-1 0.3,-0.3 1,0 0.3,0.3 0,1 -0.3,0.3 -1,0 -0.3,-0.3" 
               fill="currentColor" stroke="none"/>
    </g>
    
    <!-- Bright star symbol -->
    <g id="bright-star">
      <polygon points="0,-1.2 0.35,-0.35 1.2,0 0.35,0.35 0,1.2 -0.35,0.35 -1.2,0 -0.35,-0.35" 
               fill="currentColor" stroke="none"/>
    </g>
  </defs>
  
  <!-- Grid lines -->
  <g id="grid" stroke="#333" stroke-width="0.1" opacity="0.3">
    <line x1="800.0" y1="0" x2="800.0" y2="600"/>
    <line x1="733.3333333333333" y1="0" x2="733.3333333333333" y2="600"/>
    <line x1="666.6666666666667" y1="0" x2="666.6666666666667" y2="600"/>
    <line x1="600.0" y1="0" x2="600.0" y2="600"/>
    <line x1="533.3333333333334" y1="0" x2="533.3333333333334" y2="600"/>
    <line x1="466.66666666666663" y1="0" x2="466.66666666666663" y2="600"/>
    <line x1="400.0" y1="0" x2="400.0" y2="600"/>
    <line x1="333.3333333333333" y1="0" x2="333.3333333333333" y2="600"/>
    <line x1="266.6666666666667" y1="0" x2="266.6666666666667" y2="600"/>
    <line x1="200.0" y1="0" x2="200.0" y2="600"/>
    <line x1="133.33333333333331" y1="0" x2="133.33333333333331" y2="600"/>
    <line x1="66.6666666666667" y1="0" x2="66.6666666666667" y2="600"/>
    <line x1="0.0" y1="0" x2="0.0" y2="600"/>
    <line x1="0" y1="600.0" x2="800" y2="600.0"/>
    <line x1="0" y1="500.0" x2="800" y2="500.0"/>
    <line x1="0" y1="400.00000000000006" x2="800" y2="400.00000000000006"/>
    <line x1="0" y1="300.0" x2="800" y2="300.0"/>
    <line x1="0" y1="200.00000000000003" x2="800" y2="200.00000000000003"/>
    <line x1="0" y1="99.99999999999997" x2="800" y2="99.99999999999997"/>
    <line x1="0" y1="0.0" x2="800" y2="0.0"/>
  </g>

  <!-- Constellation elements -->
  <use href="#star" x="889.675232564975" y="91.38348252811927" transform="scale(0.8695651452798309)" fill="#FFFFFF" opacity="0.9"/>
  <use href="#star" x="884.0773542619577" y="64.79777613144475" transform="scale(0.7142856656288648)" fill="#FFFFFF" opacity="0.9"/>
  <use href="#star" x="860.6359285356632" y="105.99572957511081" transform="scale(0.6896551875334813)" fill="#FFFFFF" opacity="0.9"/>
  <use href="#star" x="839.0717097654324" y="79.33148753868235" transform="scale(0.6666666666666666)" fill="#FFFFFF" opacity="0.9"/>
  <use href="#star" x="811.4650126288158" y="41.223906431684256" transform="scale(0.7142856656288648)" fill="#FFFFFF" opacity="0.9"/>
  <line x1="860.6359285356632" y1="105.99572957511081" x2="839.0717097654324" y2="79.33148753868235" stroke="#87CEEB" stroke-width="0.5" opacity="0.8"/>
  <line x1="839.0717097654324" y1="79.33148753868235" x2="884.0773542619577" y2="64.79777613144475" stroke="#87CEEB" stroke-width="0.5" opacity="0.8"/>
  <line x1="884.0773542619577" y1="64.79777613144475" x2="889.675232564975" y2="91.38348252811927" stroke="#87CEEB" stroke-width="0.5" opacity="0.8"/>
  <line x1="889.675232564975" y1="91.38348252811927" x2="860.6359285356632" y2="105.99572957511081" stroke="#87CEEB" stroke-width="0.5" opacity="0.8"/>
  <line x1="839.0717097654324" y1="79.33148753868235" x2="811.4650126288158" y2="41.223906431684256" stroke="#87CEEB" stroke-width="0.5" opacity="0.8"/>
  <line x1="811.4650126288158" y1="41.223906431684256" x2="884.0773542619577" y2="64.79777613144475" stroke="#87CEEB" stroke-width="0.5" opacity="0.8"/>
  <use href="#bright-star" x="884.0773333333333" y="64.79766666666671" transform="scale(0.8)" fill="#FFD700" opacity="0.95"/>
  <text x="887.0773333333333" y="61.797666666666714" fill="#FFD700" font-size="4.5" font-weight="bold">Beta_Cephei</text>
  <use href="#bright-star" x="850.46" y="105.28266666666669" transform="scale(0.8)" fill="#FFD700" opacity="0.95"/>
  <text x="853.46" y="102.28266666666669" fill="#FFD700" font-size="4.5" font-weight="bold">Delta_Cephei</text>
  <use href="#bright-star" x="875.8151111111112" y="104.07966666666672" transform="scale(0.8)" fill="#FFD700" opacity="0.95"/>
  <text x="878.8151111111112" y="101.07966666666672" fill="#FFD700" font-size="4.5" font-weight="bold">Mu_Cephei</text>
  <g transform="translate(904.9433333333333,99.41533333333335) scale(0.5)">
    <line x1="-2" y1="0" x2="2" y2="0" stroke="#BA55D3" stroke-width="0.5"/>
    <line x1="0" y1="-2" x2="0" y2="2" stroke="#BA55D3" stroke-width="0.5"/>
  </g>
  <text x="906.9433333333333" y="101.41533333333335" fill="#BA55D3" font-size="3.5" font-weight="bold" opacity="0.9">Barnard150</text>
  <g transform="translate(862.9304444444443,102.78399999999996) scale(0.5)">
    <line x1="-2" y1="0" x2="2" y2="0" stroke="#BA55D3" stroke-width="0.5"/>
    <line x1="0" y1="-2" x2="0" y2="2" stroke="#BA55D3" stroke-width="0.5"/>
  </g>
  <text x="864.9304444444443" y="104.78399999999996" fill="#BA55D3" font-size="3.5" font-weight="bold" opacity="0.9">Barnard174</text>
  <text x="881.6200000000001" y="110.32566666666669" fill="#BA55D3" font-size="3.5" font-weight="bold" opacity="0.9">IC1396</text>
  <g transform="translate(858.3762222222222,55.295) scale(0.5)">
    <line x1="-2" y1="0" x2="2" y2="0" stroke="#BA55D3" stroke-width="0.5"/>
    <line x1="0" y1="-2" x2="0" y2="2" stroke="#BA55D3" stroke-width="0.5"/>
  </g>
  <text x="860.3762222222222" y="57.295" fill="#BA55D3" font-size="3.5" font-weight="bold" opacity="0.9">LDN1235</text>
  <ellipse cx="773.0933333333334" cy="15.816666666666702" rx="1.2074074074074075" ry="1.8111111111111111" transform="rotate(1e-10 773.0933333333334 15.816666666666702)" fill="none" stroke="#FFA500" stroke-width="0.2" stroke-dasharray="2,1" opacity="0.7"/>
  <text x="775.0933333333334" y="17.816666666666702" fill="#FFA500" font-size="3.5" font-weight="bold" opacity="0.9">NGC188</text>
  <g transform="translate(792.7684444444444,58.26000000000005) scale(0.5)">
    <line x1="-2" y1="0" x2="2" y2="0" stroke="#BA55D3" stroke-width="0.5"/>
    <line x1="0" y1="-2" x2="0" y2="2" stroke="#BA55D3" stroke-width="0.5"/>
  </g>
  <text x="794.7684444444444" y="60.26000000000005" fill="#BA55D3" font-size="3.5" font-weight="bold" opacity="0.9">NGC40</text>
  <ellipse cx="899.1028888888887" cy="72.78900000000004" rx="0.3703703703703703" ry="0.4444444444444444" transform="rotate(1e-10 899.1028888888887 72.78900000000004)" fill="none" stroke="#BA55D3" stroke-width="0.2" stroke-dasharray="2,1" opacity="0.7"/>
  <text x="901.1028888888887" y="74.78900000000004" fill="#BA55D3" font-size="3.5" font-weight="bold" opacity="0.9">NGC7023</text>
  <ellipse cx="876.1488888888889" cy="79.65666666666667" rx="0.18666666666666668" ry="0.28" transform="rotate(1e-10 876.1488888888889 79.65666666666667)" fill="none" stroke="#BA55D3" stroke-width="0.2" stroke-dasharray="2,1" opacity="0.7"/>
  <text x="878.1488888888889" y="81.65666666666667" fill="#BA55D3" font-size="3.5" font-weight="bold" opacity="0.9">NGC7129</text>
  <ellipse cx="840.5159999999998" cy="106.57" rx="0.4000000000000001" ry="0.6000000000000001" transform="rotate(1e-10 840.5159999999998 106.57)" fill="none" stroke="#BA55D3" stroke-width="0.2" stroke-dasharray="2,1" opacity="0.7"/>
  <text x="842.5159999999998" y="108.57" fill="#BA55D3" font-size="3.5" font-weight="bold" opacity="0.9">NGC7380</text>
  <ellipse cx="825.7666666666668" cy="95.0" rx="0.29629629629629634" ry="0.3888888888888889" transform="rotate(1e-10 825.7666666666668 95.0)" fill="none" stroke="#BA55D3" stroke-width="0.2" stroke-dasharray="2,1" opacity="0.7"/>
  <text x="827.7666666666668" y="97.0" fill="#BA55D3" font-size="3.5" font-weight="bold" opacity="0.9">NGC7538</text>
  <g transform="translate(856.0371111111111,89.06666666666669) scale(0.5)">
    <line x1="-2" y1="0" x2="2" y2="0" stroke="#BA55D3" stroke-width="0.5"/>
    <line x1="0" y1="-2" x2="0" y2="2" stroke="#BA55D3" stroke-width="0.5"/>
  </g>
  <text x="858.0371111111111" y="91.06666666666669" fill="#BA55D3" font-size="3.5" font-weight="bold" opacity="0.9">SH2-140</text>
  <ellipse cx="834.8426666666667" cy="91.74733333333333" rx="1.851851851851852" ry="1.6666666666666667" transform="rotate(1e-10 834.8426666666667 91.74733333333333)" fill="none" stroke="#BA55D3" stroke-width="0.2" stroke-dasharray="2,1" opacity="0.7"/>
  <text x="836.8426666666667" y="93.74733333333333" fill="#BA55D3" font-size="3.5" font-weight="bold" opacity="0.9">SH2-155</text>
  <path d="M 81.90848888888888,106.399 L 81.96675555555552,106.51833333333332 L 82.02213333333334,106.59400000000008 L 82.05895555555563,106.68700000000003 L 82.10415555555555,106.78266666666664 L 82.14851111111115,106.89000000000001 L 82.19006666666661,106.95366666666663 L 82.22491111111117,107.0306666666666 L 82.28082222222221,107.13366666666661 L 82.30206666666663,107.19899999999998 L 82.3579333333333,107.34100000000004 L 82.39762222222228,107.42733333333341 L 82.41388888888892,107.56100000000002 L 82.44839999999999,107.63800000000006 L 82.45784444444438,107.74600000000004 L 82.4755555555555,107.8176666666667 L 82.49997777777781,107.91500000000008 L 82.48511111111102,108.00366666666659 L 82.47773333333335,108.06733333333334 L 82.42200000000004,108.13100000000003 L 82.35877777777772,108.18099999999995 L 82.27217777777769,108.2 L 82.21046666666663,108.18799999999999 L 82.12213333333338,108.19100000000002 L 82.06797777777774,108.19299999999996 L 81.99964444444436,108.19466666666663 L 81.84046666666669,108.19466666666663 L 81.74053333333325,108.20200000000003 L 81.66313333333326,108.21233333333342 L 81.59408888888882,108.22566666666671 L 81.48837777777783,108.23500000000004 L 81.40548888888893,108.19733333333339 L 81.35602222222218,108.17000000000002 L 81.29535555555564,108.18600000000005 L 81.25584444444449,108.228 L 81.20871111111114,108.25566666666664 L 81.16108888888887,108.24466666666663 L 81.07606666666669,108.24133333333327 L 81.02195555555554,108.24399999999996 L 80.99739999999996,108.27500000000003 L 80.97542222222228,108.31066666666666 L 80.99595555555554,108.34800000000004 L 81.06282222222222,108.36899999999999 L 81.0897777777778,108.393 L 81.02535555555556,108.42699999999996 L 80.89991111111115,108.4383333333333 L 80.7751555555555,108.4383333333333 L 80.70311111111108,108.4583333333333 L 80.61891111111103,108.49433333333327 L 80.5180444444444,108.525 L 80.42102222222223,108.53733333333328 L 80.30731111111109,108.545 L 80.12728888888887,108.52066666666664 L 80.03695555555561,108.45799999999997 L 79.95175555555561,108.40500000000002 L 79.89944444444444,108.37366666666668 L 79.80200000000002,108.33599999999997 L 79.75484444444447,108.31400000000002 L 79.69460000000001,108.26866666666672 L 79.65217777777775,108.20566666666672 L 79.60339999999997,108.15599999999999 L 79.50357777777776,108.16466666666665 L 79.43633333333331,108.20599999999992 L 79.38593333333337,108.25233333333341 L 79.36968888888893,108.29766666666671 L 79.39017777777772,108.3463333333333 L 79.45048888888894,108.3916666666666 L 79.54591111111107,108.41266666666667 L 79.63084444444446,108.41533333333328 L 79.72993333333332,108.41833333333331 L 79.80071111111116,108.42066666666672 L 79.8420444444445,108.44500000000001 L 79.88744444444444,108.50133333333332 L 79.91717777777785,108.52966666666663 L 79.93855555555554,108.55533333333334 L 80.00031111111107,108.5666666666666 L 80.10244444444447,108.56299999999992 L 80.19502222222226,108.58000000000003 L 80.27602222222221,108.60099999999997 L 80.3890666666666,108.60499999999999 L 80.50015555555561,108.59299999999999 L 80.62408888888895,108.55400000000006 L 80.71662222222216,108.52066666666664 L 80.80853333333326,108.49900000000004 L 80.87602222222223,108.50833333333337 L 81.00959999999998,108.54999999999997 L 81.12266666666663,108.5543333333334 L 81.35484444444447,108.51100000000005 L 81.4668222222223,108.48800000000003 L 81.55128888888888,108.45266666666666 L 81.60422222222223,108.42266666666667 L 81.66702222222222,108.37266666666667 L 81.72868888888888,108.38433333333334 L 81.79542222222213,108.40566666666669 L 81.87926666666661,108.38166666666666 L 81.99651111111112,108.36833333333338 L 82.03820000000005,108.38166666666666 L 82.10313333333339,108.38666666666663 L 82.21473333333327,108.41466666666668 L 82.30211111111112,108.42333333333328 L 82.36037777777776,108.442 L 82.34900000000005,108.52366666666666 L 82.33682222222231,108.617 L 82.32217777777784,108.70566666666659 L 82.31399999999995,108.74166666666669 L 82.30344444444438,108.81233333333329 L 82.29028888888888,108.90966666666667 L 82.29286666666668,108.98666666666664 L 82.27582222222213,109.0623333333334 L 82.2496222222223,109.15699999999995 L 82.24308888888885,109.25266666666671 L 82.21804444444433,109.33133333333329 L 82.15495555555563,109.39233333333335 L 82.04473333333331,109.45466666666664 L 81.92553333333335,109.53533333333337 L 81.80095555555553,109.64200000000007 L 81.6588888888889,109.74733333333329 L 81.52333333333334,109.81733333333335 Z" fill="#FF0000" fill-opacity="0.1" stroke="#FF0000" stroke-width="0.3" stroke-opacity="0.7"/>
  <path d="M 81.90848888888888,106.399 L 81.96675555555552,106.51833333333332 L 82.02213333333334,106.59400000000008 L 82.05895555555563,106.68700000000003 L 82.10415555555555,106.78266666666664 L 82.14851111111115,106.89000000000001 L 82.19006666666661,106.95366666666663 L 82.22491111111117,107.0306666666666 L 82.28082222222221,107.13366666666661 L 82.30206666666663,107.19899999999998 L 82.3579333333333,107.34100000000004 L 82.39762222222228,107.42733333333341 L 82.41388888888892,107.56100000000002 L 82.44839999999999,107.63800000000006 L 82.45784444444438,107.74600000000004 L 82.4755555555555,107.8176666666667 L 82.49997777777781,107.91500000000008 L 82.48511111111102,108.00366666666659 L 82.47773333333335,108.06733333333334 L 82.42200000000004,108.13100000000003 L 82.35877777777772,108.18099999999995 L 82.27217777777769,108.2 L 82.21046666666663,108.18799999999999 L 82.12213333333338,108.19100000000002 L 82.06797777777774,108.19299999999996 L 81.99964444444436,108.19466666666663 L 81.84046666666669,108.19466666666663 L 81.74053333333325,108.20200000000003 L 81.66313333333326,108.21233333333342 L 81.59408888888882,108.22566666666671 L 81.48837777777783,108.23500000000004 L 81.40548888888893,108.19733333333339 L 81.35602222222218,108.17000000000002 L 81.29535555555564,108.18600000000005 L 81.25584444444449,108.228 L 81.20871111111114,108.25566666666664 L 81.16108888888887,108.24466666666663 L 81.07606666666669,108.24133333333327 L 81.02195555555554,108.24399999999996 L 80.99739999999996,108.27500000000003 L 80.97542222222228,108.31066666666666 L 80.99595555555554,108.34800000000004 L 81.06282222222222,108.36899999999999 L 81.0897777777778,108.393 L 81.02535555555556,108.42699999999996 L 80.89991111111115,108.4383333333333 L 80.7751555555555,108.4383333333333 L 80.70311111111108,108.4583333333333 L 80.61891111111103,108.49433333333327 L 80.5180444444444,108.525 L 80.42102222222223,108.53733333333328 L 80.30731111111109,108.545 L 80.12728888888887,108.52066666666664 L 80.03695555555561,108.45799999999997 L 79.95175555555561,108.40500000000002 L 79.89944444444444,108.37366666666668 L 79.80200000000002,108.33599999999997 L 79.75484444444447,108.31400000000002 L 79.69460000000001,108.26866666666672 L 79.65217777777775,108.20566666666672 L 79.60339999999997,108.15599999999999 L 79.50357777777776,108.16466666666665 L 79.43633333333331,108.20599999999992 L 79.38593333333337,108.25233333333341 L 79.36968888888893,108.29766666666671 L 79.39017777777772,108.3463333333333 L 79.45048888888894,108.3916666666666 L 79.54591111111107,108.41266666666667 L 79.63084444444446,108.41533333333328 L 79.72993333333332,108.41833333333331 L 79.80071111111116,108.42066666666672 L 79.8420444444445,108.44500000000001 L 79.88744444444444,108.50133333333332 L 79.91717777777785,108.52966666666663 L 79.93855555555554,108.55533333333334 L 80.00031111111107,108.5666666666666 L 80.10244444444447,108.56299999999992 L 80.19502222222226,108.58000000000003 L 80.27602222222221,108.60099999999997 L 80.3890666666666,108.60499999999999 L 80.50015555555561,108.59299999999999 L 80.62408888888895,108.55400000000006 L 80.71662222222216,108.52066666666664 L 80.80853333333326,108.49900000000004 L 80.87602222222223,108.50833333333337 L 81.00959999999998,108.54999999999997 L 81.12266666666663,108.5543333333334 L 81.35484444444447,108.51100000000005 L 81.4668222222223,108.48800000000003 L 81.55128888888888,108.45266666666666 L 81.60422222222223,108.42266666666667 L 81.66702222222222,108.37266666666667 L 81.72868888888888,108.38433333333334 L 81.79542222222213,108.40566666666669 L 81.87926666666661,108.38166666666666 L 81.99651111111112,108.36833333333338 L 82.03820000000005,108.38166666666666 L 82.10313333333339,108.38666666666663 L 82.21473333333327,108.41466666666668 L 82.30211111111112,108.42333333333328 L 82.36037777777776,108.442 L 82.34900000000005,108.52366666666666 L 82.33682222222231,108.617 L 82.32217777777784,108.70566666666659 L 82.31399999999995,108.74166666666669 L 82.30344444444438,108.81233333333329 L 82.29028888888888,108.90966666666667 L 82.29286666666668,108.98666666666664 L 82.27582222222213,109.0623333333334 L 82.2496222222223,109.15699999999995 L 82.24308888888885,109.25266666666671 L 82.21804444444433,109.33133333333329 L 82.15495555555563,109.39233333333335 L 82.04473333333331,109.45466666666664 L 81.92553333333335,109.53533333333337 L 81.80095555555553,109.64200000000007 L 81.6588888888889,109.74733333333329 L 81.52333333333334,109.81733333333335 L 81.29662222222223,110.07766666666672 L 80.8947555555556,110.29700000000003 L 80.61353333333336,110.39899999999996 L 79.99013333333336,110.60166666666662 L 79.70779999999999,110.75633333333337 L 79.27648888888888,110.91666666666669 L 78.94959999999998,110.98866666666669 L 78.51048888888891,111.07866666666668 L 78.06402222222219,111.04700000000001 L 77.63919999999996,111.10866666666675 L 77.14088888888888,111.14966666666668 L 76.7538444444444,111.2243333333333 L 76.20731111111114,111.23633333333338 L 75.83593333333329,111.17999999999995 L 75.44979999999998,111.25766666666665 L 74.99231111111104,111.11000000000001 L 74.74528888888887,110.95466666666674 L 74.51071111111105,110.71799999999999 L 74.35066666666668,110.39966666666669 L 74.2148888888889,110.07166666666667 L 74.1162444444444,109.70266666666666 L 73.92931111111113,109.13900000000002 L 73.86655555555564,108.98500000000001 L 73.86722222222221,108.67800000000001 L 73.84226666666666,108.4833333333334 L 73.85557777777771,108.19666666666666 L 73.97073333333336,107.97133333333338 L 74.09882222222225,107.81799999999997 L 74.24068888888885,107.5316666666667 L 74.35722222222223,107.30700000000002 L 74.37184444444442,107.02033333333334 L 74.39928888888883,106.75400000000006 L 74.42719999999996,106.43666666666658 L 74.27364444444447,106.19033333333337 L 74.53511111111109,105.83300000000003 L 74.7843333333333,105.55766666666668 L 75.06028888888885,105.32399999999996 L 75.76184444444448,104.72633333333337 L 76.20980000000009,104.609 L 76.6169555555555,104.58400000000003 L 76.9712444444445,104.57966666666667 L 77.21784444444451,104.66599999999997 L 77.50300000000001,104.76400000000001 L 77.77535555555559,104.84133333333338 L 78.23313333333326,104.85166666666666 L 78.41704444444444,104.83566666666661 L 78.7674222222222,104.609 L 79.30857777777769,104.54233333333329 L 79.70855555555553,104.67766666666665 L 80.10760000000002,104.81366666666668 L 80.37511111111107,104.94600000000001 L 80.66566666666671,105.12066666666668 L 81.03217777777773,105.31899999999999 L 81.38735555555554,105.6716666666667 L 81.53004444444446,105.87233333333327 L 81.64917777777774,106.03133333333325 Z" fill="#FF0000" fill-opacity="0.1" stroke="#FF0000" stroke-width="0.3" stroke-opacity="0.7"/>
  
  <!-- Title and info -->
  <text x="400.0" y="25" text-anchor="middle" 
        fill="white" font-size="12.0" font-weight="bold">
    Constellation View
  </text>
  
  <text x="10" y="590" fill="white" font-size="5.0">
    RA: 0.0째 to 360.0째 | DE: -90.0째 to 90.0째 | 
    Stars: 5 | DSO: 12 | Vector SVG
  </text>
  
</svg>