<?xml version="1.0" encoding="UTF-8"?>
<svg width="800" height="600" 
     viewBox="0 0 800 600"
     xmlns="http://www.w3.org/2000/svg"
     style="background-color: #000000;">
     
  <!-- Scalable constellation visualization -->
  <defs>
    <!-- Star symbol -->
    <g id="star">
      <polygon points="0,-1 0.3,-0.3 1,0 0.3,0.3 0,1 -0.3,0.3 -1,0 -0.3,-0.3" 
               fill="currentColor" stroke="none"/>
    </g>
    
    <!-- Bright star symbol -->
    <g id="bright-star">
      <polygon points="0,-1.2 0.35,-0.35 1.2,0 0.35,0.35 0,1.2 -0.35,0.35 -1.2,0 -0.35,-0.35" 
               fill="currentColor" stroke="none"/>
    </g>
  </defs>
  
  <!-- Grid lines -->
  <g id="grid" stroke="#333" stroke-width="0.1" opacity="0.3">
  </g>

  <!-- Constellation elements -->
  <use href="#star" x="676.7159770661942" y="438.4173028275913" transform="scale(0.7228915496529372)" fill="#FFFFFF" opacity="0.9"/>
  <use href="#star" x="601.6559392260228" y="534.945120723107" transform="scale(0.7692307504206254)" fill="#FFFFFF" opacity="0.9"/>
  <use href="#star" x="433.95983338454033" y="359.0716153049051" transform="scale(0.5)" fill="#FFFFFF" opacity="0.9"/>
  <use href="#star" x="359.4505016522283" y="439.7734586847503" transform="scale(0.7058823529411765)" fill="#FFFFFF" opacity="0.9"/>
  <use href="#star" x="237.4184488486083" y="200.52598131433038" transform="scale(0.5)" fill="#FFFFFF" opacity="0.9"/>
  <use href="#star" x="147.69178426738358" y="396.87404767922783" transform="scale(0.9374999161809757)" fill="#FFFFFF" opacity="0.9"/>
  <use href="#star" x="123.28402293380564" y="192.6153281809023" transform="scale(0.7894736445841717)" fill="#FFFFFF" opacity="0.9"/>
  <line x1="123.28402293380564" y1="192.6153281809023" x2="237.4184488486083" y2="200.52598131433038" stroke="#87CEEB" stroke-width="0.5" opacity="0.8"/>
  <line x1="237.4184488486083" y1="200.52598131433038" x2="433.95983338454033" y2="359.0716153049051" stroke="#87CEEB" stroke-width="0.5" opacity="0.8"/>
  <line x1="433.95983338454033" y1="359.0716153049051" x2="676.7159770661942" y2="438.4173028275913" stroke="#87CEEB" stroke-width="0.5" opacity="0.8"/>
  <line x1="676.7159770661942" y1="438.4173028275913" x2="601.6559392260228" y2="534.945120723107" stroke="#87CEEB" stroke-width="0.5" opacity="0.8"/>
  <line x1="601.6559392260228" y1="534.945120723107" x2="359.4505016522283" y2="439.7734586847503" stroke="#87CEEB" stroke-width="0.5" opacity="0.8"/>
  <line x1="359.4505016522283" y1="439.7734586847503" x2="147.69178426738358" y2="396.87404767922783" stroke="#87CEEB" stroke-width="0.5" opacity="0.8"/>
  <line x1="147.69178426738358" y1="396.87404767922783" x2="123.28402293380564" y2="192.6153281809023" stroke="#87CEEB" stroke-width="0.5" opacity="0.8"/>
  <ellipse cx="281.9678730164366" cy="69.17935862304809" rx="0.9370370370370371" ry="1.4055555555555554" transform="rotate(1e-10 281.9678730164366 69.17935862304809)" fill="none" stroke="#FFA500" stroke-width="0.2" stroke-dasharray="2,1" opacity="0.7"/>
  <text x="283.9678730164366" y="71.17935862304809" fill="#FFA500" font-size="3.5" font-weight="bold" opacity="0.9">M46</text>
  <ellipse cx="314.02171897922597" cy="65.05487927689302" rx="1.1518518518518517" ry="1.7277777777777779" transform="rotate(1e-10 314.02171897922597 65.05487927689302)" fill="none" stroke="#FFA500" stroke-width="0.2" stroke-dasharray="2,1" opacity="0.7"/>
  <text x="316.02171897922597" y="67.05487927689302" fill="#FFA500" font-size="3.5" font-weight="bold" opacity="0.9">M47</text>
  <ellipse cx="264.7081098057037" cy="186.92869011422448" rx="0.8962962962962961" ry="1.3444444444444446" transform="rotate(1e-10 264.7081098057037 186.92869011422448)" fill="none" stroke="#FFA500" stroke-width="0.2" stroke-dasharray="2,1" opacity="0.7"/>
  <text x="266.7081098057037" y="188.92869011422448" fill="#FFA500" font-size="3.5" font-weight="bold" opacity="0.9">M93</text>
  <ellipse cx="607.4993355731506" cy="344.85981833956663" rx="0.35555555555555557" ry="0.5333333333333333" transform="rotate(1e-10 607.4993355731506 344.85981833956663)" fill="none" stroke="#FFA500" stroke-width="0.2" stroke-dasharray="2,1" opacity="0.7"/>
  <text x="609.4993355731506" y="346.85981833956663" fill="#FFA500" font-size="3.5" font-weight="bold" opacity="0.9">NGC2298</text>
  <ellipse cx="217.1944473670152" cy="220.2497992798491" rx="0.29629629629629634" ry="0.3888888888888889" transform="rotate(1e-10 217.1944473670152 220.2497992798491)" fill="none" stroke="#BA55D3" stroke-width="0.2" stroke-dasharray="2,1" opacity="0.7"/>
  <text x="219.1944473670152" y="222.2497992798491" fill="#BA55D3" font-size="3.5" font-weight="bold" opacity="0.9">NGC2467</text>
  <ellipse cx="218.05743552755175" cy="377.708629081641" rx="0.6666666666666666" ry="1.0" transform="rotate(1e-10 218.05743552755175 377.708629081641)" fill="none" stroke="#FFA500" stroke-width="0.2" stroke-dasharray="2,1" opacity="0.7"/>
  <text x="220.05743552755175" y="379.708629081641" fill="#FFA500" font-size="3.5" font-weight="bold" opacity="0.9">NGC2477</text>
  <ellipse cx="345.25449334927634" cy="97.40146635094979" rx="0.7407407407407406" ry="1.1111111111111112" transform="rotate(1e-10 345.25449334927634 97.40146635094979)" fill="none" stroke="#BA55D3" stroke-width="0.2" stroke-dasharray="2,1" opacity="0.7"/>
  <text x="347.25449334927634" y="99.40146635094979" fill="#BA55D3" font-size="3.5" font-weight="bold" opacity="0.9">SH2-302</text>
  
  <!-- Title and info -->
  <text x="400.0" y="25" text-anchor="middle" 
        fill="white" font-size="12.0" font-weight="bold">
    Constellation View
  </text>
  
  <text x="10" y="590" fill="white" font-size="5.0">
    RA: 94.4째 to 126.9째 | DE: -55.6째 to -9.5째 | 
    Stars: 7 | DSO: 7 | Vector SVG
  </text>
  
</svg>