<?xml version="1.0" encoding="UTF-8"?>
<svg width="800" height="600" 
     viewBox="0 0 800 600"
     xmlns="http://www.w3.org/2000/svg"
     style="background-color: #000000;">
     
  <!-- Scalable constellation visualization -->
  <defs>
    <!-- Star symbol -->
    <g id="star">
      <polygon points="0,-1 0.3,-0.3 1,0 0.3,0.3 0,1 -0.3,0.3 -1,0 -0.3,-0.3" 
               fill="currentColor" stroke="none"/>
    </g>
    
    <!-- Bright star symbol -->
    <g id="bright-star">
      <polygon points="0,-1.2 0.35,-0.35 1.2,0 0.35,0.35 0,1.2 -0.35,0.35 -1.2,0 -0.35,-0.35" 
               fill="currentColor" stroke="none"/>
    </g>
  </defs>
  
  <!-- Grid lines -->
  <g id="grid" stroke="#333" stroke-width="0.1" opacity="0.3">
    <line x1="800.0" y1="0" x2="800.0" y2="600"/>
    <line x1="733.3333333333333" y1="0" x2="733.3333333333333" y2="600"/>
    <line x1="666.6666666666667" y1="0" x2="666.6666666666667" y2="600"/>
    <line x1="600.0" y1="0" x2="600.0" y2="600"/>
    <line x1="533.3333333333334" y1="0" x2="533.3333333333334" y2="600"/>
    <line x1="466.66666666666663" y1="0" x2="466.66666666666663" y2="600"/>
    <line x1="400.0" y1="0" x2="400.0" y2="600"/>
    <line x1="333.3333333333333" y1="0" x2="333.3333333333333" y2="600"/>
    <line x1="266.6666666666667" y1="0" x2="266.6666666666667" y2="600"/>
    <line x1="200.0" y1="0" x2="200.0" y2="600"/>
    <line x1="133.33333333333331" y1="0" x2="133.33333333333331" y2="600"/>
    <line x1="66.6666666666667" y1="0" x2="66.6666666666667" y2="600"/>
    <line x1="0.0" y1="0" x2="0.0" y2="600"/>
    <line x1="0" y1="600.0" x2="800" y2="600.0"/>
    <line x1="0" y1="500.0" x2="800" y2="500.0"/>
    <line x1="0" y1="400.00000000000006" x2="800" y2="400.00000000000006"/>
    <line x1="0" y1="300.0" x2="800" y2="300.0"/>
    <line x1="0" y1="200.00000000000003" x2="800" y2="200.00000000000003"/>
    <line x1="0" y1="99.99999999999997" x2="800" y2="99.99999999999997"/>
    <line x1="0" y1="0.0" x2="800" y2="0.0"/>
  </g>

  <!-- Constellation elements -->
  <use href="#star" x="256.48732812217565" y="315.6411654947891" transform="scale(0.7142856656288648)" fill="#FFFFFF" opacity="0.9"/>
  <use href="#star" x="246.02265456968803" y="335.2233259774419" transform="scale(0.8571428571428571)" fill="#FFFFFF" opacity="0.9"/>
  <use href="#star" x="234.63287005842287" y="268.7501146700495" transform="scale(0.7228915496529372)" fill="#FFFFFF" opacity="0.9"/>
  <use href="#star" x="227.56748141644766" y="352.4150922131608" transform="scale(0.8695651452798309)" fill="#FFFFFF" opacity="0.9"/>
  <use href="#star" x="215.87997336477125" y="379.87606709548675" transform="scale(0.5217391304347826)" fill="#FFFFFF" opacity="0.9"/>
  <use href="#star" x="213.92383239047172" y="258.1379705464613" transform="scale(0.983606495866213)" fill="#FFFFFF" opacity="0.9"/>
  <use href="#star" x="209.18246623753413" y="284.77236505800414" transform="scale(0.8)" fill="#FFFFFF" opacity="0.9"/>
  <line x1="213.92383239047172" y1="258.1379705464613" x2="209.18246623753413" y2="284.77236505800414" stroke="#87CEEB" stroke-width="0.5" opacity="0.8"/>
  <line x1="227.56748141644766" y1="352.4150922131608" x2="209.18246623753413" y2="284.77236505800414" stroke="#87CEEB" stroke-width="0.5" opacity="0.8"/>
  <line x1="213.92383239047172" y1="258.1379705464613" x2="234.63287005842287" y2="268.7501146700495" stroke="#87CEEB" stroke-width="0.5" opacity="0.8"/>
  <line x1="234.63287005842287" y1="268.7501146700495" x2="256.48732812217565" y2="315.6411654947891" stroke="#87CEEB" stroke-width="0.5" opacity="0.8"/>
  <line x1="256.48732812217565" y1="315.6411654947891" x2="246.02265456968803" y2="335.2233259774419" stroke="#87CEEB" stroke-width="0.5" opacity="0.8"/>
  <line x1="246.02265456968803" y1="335.2233259774419" x2="227.56748141644766" y2="352.4150922131608" stroke="#87CEEB" stroke-width="0.5" opacity="0.8"/>
  <line x1="227.56748141644766" y1="352.4150922131608" x2="215.87997336477125" y2="379.87606709548675" stroke="#87CEEB" stroke-width="0.5" opacity="0.8"/>
  <use href="#bright-star" x="201.22799999999995" y="284.13866666666667" transform="scale(0.8)" fill="#FFD700" opacity="0.95"/>
  <text x="204.22799999999995" y="281.13866666666667" fill="#FFD700" font-size="4.5" font-weight="bold">Barnard_Star</text>
  <use href="#bright-star" x="252.21022222222223" y="378.00233333333335" transform="scale(0.8)" fill="#FFD700" opacity="0.95"/>
  <text x="255.21022222222223" y="375.00233333333335" fill="#FFD700" font-size="4.5" font-weight="bold">Rho_Oph</text>
  <g transform="translate(220.18022222222217,378.9843333333333) scale(0.5)">
    <line x1="-2" y1="0" x2="2" y2="0" stroke="#BA55D3" stroke-width="0.5"/>
    <line x1="0" y1="-2" x2="0" y2="2" stroke="#BA55D3" stroke-width="0.5"/>
  </g>
  <text x="222.18022222222217" y="380.9843333333333" fill="#BA55D3" font-size="3.5" font-weight="bold" opacity="0.9">Barnard72</text>
  <ellipse cx="207.59866666666662" cy="280.943" rx="2.2481481481481485" ry="3.3722222222222222" transform="rotate(1e-10 207.59866666666662 280.943)" fill="none" stroke="#FFA500" stroke-width="0.2" stroke-dasharray="2,1" opacity="0.7"/>
  <text x="209.59866666666662" y="282.943" fill="#FFA500" font-size="3.5" font-weight="bold" opacity="0.9">IC4665</text>
  <ellipse cx="234.9444444444444" cy="313.6666666666667" rx="0.6888888888888889" ry="1.0333333333333334" transform="rotate(1e-10 234.9444444444444 313.6666666666667)" fill="none" stroke="#FFA500" stroke-width="0.2" stroke-dasharray="2,1" opacity="0.7"/>
  <text x="236.9444444444444" y="315.6666666666667" fill="#FFA500" font-size="3.5" font-weight="bold" opacity="0.9">M10</text>
  <ellipse cx="248.6111111111111" cy="343.5" rx="0.5777777777777777" ry="0.8666666666666667" transform="rotate(1e-10 248.6111111111111 343.5)" fill="none" stroke="#FFA500" stroke-width="0.2" stroke-dasharray="2,1" opacity="0.7"/>
  <text x="250.6111111111111" y="345.5" fill="#FFA500" font-size="3.5" font-weight="bold" opacity="0.9">M107</text>
  <ellipse cx="240.44444444444446" cy="306.5" rx="0.8222222222222222" ry="1.2333333333333334" transform="rotate(1e-10 240.44444444444446 306.5)" fill="none" stroke="#FFA500" stroke-width="0.2" stroke-dasharray="2,1" opacity="0.7"/>
  <text x="242.44444444444446" y="308.5" fill="#FFA500" font-size="3.5" font-weight="bold" opacity="0.9">M12</text>
  <ellipse cx="212.4444444444445" cy="310.8333333333333" rx="0.5" ry="0.75" transform="rotate(1e-10 212.4444444444445 310.8333333333333)" fill="none" stroke="#FFA500" stroke-width="0.2" stroke-dasharray="2,1" opacity="0.7"/>
  <text x="214.4444444444445" y="312.8333333333333" fill="#FFA500" font-size="3.5" font-weight="bold" opacity="0.9">M14</text>
  <ellipse cx="231.8888888888889" cy="387.5566666666667" rx="0.35555555555555557" ry="0.5333333333333333" transform="rotate(1e-10 231.8888888888889 387.5566666666667)" fill="none" stroke="#FFA500" stroke-width="0.2" stroke-dasharray="2,1" opacity="0.7"/>
  <text x="233.8888888888889" y="389.5566666666667" fill="#FFA500" font-size="3.5" font-weight="bold" opacity="0.9">M19</text>
  <ellipse cx="232.66666666666663" cy="400.39" rx="0.5777777777777777" ry="0.8666666666666667" transform="rotate(1e-10 232.66666666666663 400.39)" fill="none" stroke="#FFA500" stroke-width="0.2" stroke-dasharray="2,1" opacity="0.7"/>
  <text x="234.66666666666663" y="402.39" fill="#FFA500" font-size="3.5" font-weight="bold" opacity="0.9">M62</text>
  <ellipse cx="222.66666666666666" cy="361.72333333333336" rx="0.3222222222222222" ry="0.48333333333333334" transform="rotate(1e-10 222.66666666666666 361.72333333333336)" fill="none" stroke="#FFA500" stroke-width="0.2" stroke-dasharray="2,1" opacity="0.7"/>
  <text x="224.66666666666666" y="363.72333333333336" fill="#FFA500" font-size="3.5" font-weight="bold" opacity="0.9">M9</text>
  <text x="246.5313333333333" y="464.10333333333335" fill="#BA55D3" font-size="3.5" font-weight="bold" opacity="0.9">NGC6188</text>
  <ellipse cx="221.5728888888889" cy="365.29133333333334" rx="0.4888888888888889" ry="0.7333333333333333" transform="rotate(1e-10 221.5728888888889 365.29133333333334)" fill="none" stroke="#FFA500" stroke-width="0.2" stroke-dasharray="2,1" opacity="0.7"/>
  <text x="223.5728888888889" y="367.29133333333334" fill="#FFA500" font-size="3.5" font-weight="bold" opacity="0.9">NGC6342</text>
  <ellipse cx="220.2315555555556" cy="359.3766666666666" rx="0.13333333333333336" ry="0.2" transform="rotate(1e-10 220.2315555555556 359.3766666666666)" fill="none" stroke="#FFA500" stroke-width="0.2" stroke-dasharray="2,1" opacity="0.7"/>
  <text x="222.2315555555556" y="361.3766666666666" fill="#FFA500" font-size="3.5" font-weight="bold" opacity="0.9">NGC6356</text>
  <ellipse cx="217.9117777777777" cy="316.9353333333333" rx="1.0222222222222221" ry="1.5333333333333334" transform="rotate(1e-10 217.9117777777777 316.9353333333333)" fill="none" stroke="#FFA500" stroke-width="0.2" stroke-dasharray="2,1" opacity="0.7"/>
  <text x="219.9117777777777" y="318.9353333333333" fill="#FFA500" font-size="3.5" font-weight="bold" opacity="0.9">NGC6366</text>
  <ellipse cx="211.86733333333336" cy="379.6963333333333" rx="0.3333333333333333" ry="0.5" transform="rotate(1e-10 211.86733333333336 379.6963333333333)" fill="none" stroke="#FFA500" stroke-width="0.2" stroke-dasharray="2,1" opacity="0.7"/>
  <text x="213.86733333333336" y="381.6963333333333" fill="#FFA500" font-size="3.5" font-weight="bold" opacity="0.9">NGC6401</text>
  <ellipse cx="184.71111111111114" cy="278.1" rx="1.6000000000000003" ry="2.4000000000000004" transform="rotate(1e-10 184.71111111111114 278.1)" fill="none" stroke="#FFA500" stroke-width="0.2" stroke-dasharray="2,1" opacity="0.7"/>
  <text x="186.71111111111114" y="280.1" fill="#FFA500" font-size="3.5" font-weight="bold" opacity="0.9">NGC6633</text>
  <path d="M 244.63948888888893,459.11899999999997 L 244.7084666666667,459.41766666666666 L 244.71720000000002,459.564 L 244.7297777777778,459.758 L 244.72444444444443,459.8193333333333 L 244.69168888888885,459.91633333333334 L 244.66686666666666,460.0506666666667 L 244.6662,460.1693333333333 L 244.65942222222222,460.2663333333333 L 244.65095555555553,460.3473333333333 L 244.60644444444446,460.4263333333333 L 244.54222222222225,460.4756666666667 L 244.50933333333333,460.5466666666667 L 244.5363555555556,460.62999999999994 L 244.5601777777777,460.7486666666667 L 244.4838222222222,460.8593333333333 L 244.4119777777778,460.93833333333333 L 244.3396,461.02700000000004 L 244.27655555555557,461.1433333333333 L 244.20899999999995,461.25399999999996 L 244.27786666666665,461.3473333333333 L 244.35495555555553,461.1993333333333 L 244.42922222222228,461.0966666666667 L 244.51573333333334,460.98600000000005 L 244.60813333333329,460.91299999999995 L 244.6722666666667,460.91133333333335 L 244.68697777777777,461.028 L 244.6425111111111,461.107 L 244.55008888888887,461.2176666666667 L 244.47748888888884,461.2806666666666 L 244.40651111111117,461.38533333333334 L 244.36353333333338,461.48033333333336 L 244.34820000000005,461.6166666666667 L 244.33875555555557,461.775 L 244.36102222222223,461.9036666666667 L 244.42557777777782,461.876 L 244.49362222222223,461.75166666666667 L 244.52073333333334,461.60333333333335 L 244.5619777777778,461.479 L 244.6229555555556,461.38399999999996 L 244.66568888888887,461.31100000000004 L 244.7149111111111,461.224 L 244.73880000000003,461.15299999999996 L 244.76864444444448,461.10333333333335 L 244.8070666666667,461.2933333333333 L 244.82188888888885,461.3843333333333 L 244.8809333333333,461.4633333333333 L 244.95495555555556,461.5403333333333 L 245.02726666666666,461.6016666666667 L 245.0836,461.61333333333334 L 245.12,461.57 L 245.07671111111105,461.48499999999996 L 245.00606666666673,461.3843333333333 L 244.9586666666667,461.2676666666667 L 244.92493333333334,461.18466666666666 L 244.90388888888884,461.09366666666665 L 244.8967111111111,461.0363333333333 L 244.91731111111113,460.969 L 245.0578888888889,461.088 L 245.12833333333336,461.193 L 245.17999999999995,461.2396666666666 L 245.2434888888889,461.319 L 245.2974444444444,461.32366666666667 L 245.32306666666665,461.2556666666667 L 245.30406666666664,461.16700000000003 L 245.25002222222216,461.10166666666663 L 245.1819111111111,461.01533333333333 L 245.14197777777778,460.9406666666667 L 245.14399999999998,460.747 L 245.14144444444446,460.6066666666667 L 245.13424444444442,460.48999999999995 L 245.14339999999999,460.38233333333335 L 245.2107333333333,460.22566666666665 L 245.40553333333338,459.912 L 245.51213333333334,459.79966666666667 L 245.6368888888889,459.624 L 245.7175111111111,459.488 L 245.82331111111114,459.31466666666665 Z" fill="#FF0000" fill-opacity="0.1" stroke="#FF0000" stroke-width="0.3" stroke-opacity="0.7"/>
  <path d="M 246.60257777777775,462.70366666666666 L 246.49597777777777,462.71733333333333 L 246.38128888888886,462.70933333333335 L 246.29162222222226,462.6336666666667 L 246.23333333333335,462.5303333333334 L 246.19100000000006,462.4703333333334 L 246.1791333333333,462.424 L 246.09902222222226,462.35333333333335 L 246.05297777777776,462.394 L 245.9734222222222,462.38933333333335 L 245.87355555555553,462.4413333333333 L 245.80802222222218,462.49733333333336 L 245.7157777777778,462.59066666666666 L 245.62664444444442,462.60566666666665 L 245.5361777777777,462.5716666666667 L 245.44093333333333,462.54766666666666 L 245.31713333333335,462.517 L 245.2673777777777,462.52566666666667 L 245.37737777777772,462.6496666666667 L 245.47217777777774,462.7546666666667 L 245.5380222222222,462.80400000000003 L 245.41066666666663,462.83233333333334 L 245.28791111111107,462.82633333333337 L 245.22402222222217,462.86466666666666 L 245.1448,462.90866666666665 L 245.05091111111108,462.958 L 244.96906666666663,462.96999999999997 L 244.8666888888889,462.931 L 244.80373333333327,462.83700000000005 L 244.82166666666663,462.78 L 244.7143111111111,462.79266666666666 L 244.63968888888888,462.802 L 244.56542222222222,462.745 L 244.54435555555554,462.6106666666667 L 244.57377777777776,462.48199999999997 L 244.63971111111115,462.375 L 244.71537777777775,462.45366666666666 L 244.7826,462.48633333333333 L 244.83617777777775,462.367 L 244.90395555555563,462.33299999999997 L 244.90599999999995,462.2323333333333 L 244.87168888888888,462.079 L 244.8772,461.96833333333336 L 244.87446666666665,461.90200000000004 L 244.77062222222222,462.01266666666663 L 244.73542222222227,462.107 L 244.65633333333335,462.21666666666664 L 244.5742444444445,462.3193333333333 L 244.53199999999998,462.44066666666663 L 244.47102222222216,462.577 L 244.42935555555553,462.6073333333333 L 244.37735555555554,462.5423333333333 L 244.3463111111111,462.602 L 244.27964444444444,462.73833333333334 L 244.28997777777778,462.82366666666667 L 244.2461777777778,462.89566666666667 L 244.3004222222222,463.00733333333335 L 244.3699333333333,462.98100000000005 L 244.3918222222222,463.07099999999997 L 244.44706666666667,463.20666666666665 L 244.4411777777778,463.26566666666673 L 244.37499999999997,463.3213333333333 L 244.32015555555554,463.4303333333333 L 244.2794222222222,463.48533333333336 L 244.28833333333336,463.56333333333333 L 244.24364444444447,463.5866666666667 Z" fill="#FF0000" fill-opacity="0.1" stroke="#FF0000" stroke-width="0.3" stroke-opacity="0.7"/>
  <path d="M 244.63948888888893,459.11899999999997 L 244.7084666666667,459.41766666666666 L 244.71720000000002,459.564 L 244.7297777777778,459.758 L 244.72444444444443,459.8193333333333 L 244.69168888888885,459.91633333333334 L 244.66686666666666,460.0506666666667 L 244.6662,460.1693333333333 L 244.65942222222222,460.2663333333333 L 244.65095555555553,460.3473333333333 L 244.60644444444446,460.4263333333333 L 244.54222222222225,460.4756666666667 L 244.50933333333333,460.5466666666667 L 244.5363555555556,460.62999999999994 L 244.5601777777777,460.7486666666667 L 244.4838222222222,460.8593333333333 L 244.4119777777778,460.93833333333333 L 244.3396,461.02700000000004 L 244.27655555555557,461.1433333333333 L 244.20899999999995,461.25399999999996 L 244.27786666666665,461.3473333333333 L 244.35495555555553,461.1993333333333 L 244.42922222222228,461.0966666666667 L 244.51573333333334,460.98600000000005 L 244.60813333333329,460.91299999999995 L 244.6722666666667,460.91133333333335 L 244.68697777777777,461.028 L 244.6425111111111,461.107 L 244.55008888888887,461.2176666666667 L 244.47748888888884,461.2806666666666 L 244.40651111111117,461.38533333333334 L 244.36353333333338,461.48033333333336 L 244.34820000000005,461.6166666666667 L 244.33875555555557,461.775 L 244.36102222222223,461.9036666666667 L 244.42557777777782,461.876 L 244.49362222222223,461.75166666666667 L 244.52073333333334,461.60333333333335 L 244.5619777777778,461.479 L 244.6229555555556,461.38399999999996 L 244.66568888888887,461.31100000000004 L 244.7149111111111,461.224 L 244.73880000000003,461.15299999999996 L 244.76864444444448,461.10333333333335 L 244.8070666666667,461.2933333333333 L 244.82188888888885,461.3843333333333 L 244.8809333333333,461.4633333333333 L 244.95495555555556,461.5403333333333 L 245.02726666666666,461.6016666666667 L 245.0836,461.61333333333334 L 245.12,461.57 L 245.07671111111105,461.48499999999996 L 245.00606666666673,461.3843333333333 L 244.9586666666667,461.2676666666667 L 244.92493333333334,461.18466666666666 L 244.90388888888884,461.09366666666665 L 244.8967111111111,461.0363333333333 L 244.91731111111113,460.969 L 245.0578888888889,461.088 L 245.12833333333336,461.193 L 245.17999999999995,461.2396666666666 L 245.2434888888889,461.319 L 245.2974444444444,461.32366666666667 L 245.32306666666665,461.2556666666667 L 245.30406666666664,461.16700000000003 L 245.25002222222216,461.10166666666663 L 245.1819111111111,461.01533333333333 L 245.14197777777778,460.9406666666667 L 245.14399999999998,460.747 L 245.14144444444446,460.6066666666667 L 245.13424444444442,460.48999999999995 L 245.14339999999999,460.38233333333335 L 245.2107333333333,460.22566666666665 L 245.40553333333338,459.912 L 245.51213333333334,459.79966666666667 L 245.6368888888889,459.624 L 245.7175111111111,459.488 L 245.82331111111114,459.31466666666665 L 246.11417777777777,459.4623333333334 L 246.38533333333336,459.68433333333337 L 246.53340000000003,459.85799999999995 L 246.69662222222223,460.1133333333333 L 246.80846666666662,460.32233333333335 L 246.91255555555554,460.639 L 247.0048888888889,460.923 L 246.9958444444445,461.1333333333333 L 246.90517777777777,461.389 L 246.76048888888883,461.671 L 246.2708444444444,462.1546666666666 L 246.02446666666663,462.32033333333334 L 245.73044444444446,462.50666666666666 L 245.52962222222217,462.498 L 245.35244444444447,462.49399999999997 L 245.30306666666667,462.5876666666667 L 245.01968888888888,462.83566666666667 L 244.76880000000003,462.7983333333334 L 244.60793333333334,462.7726666666667 L 244.49931111111107,462.672 L 244.39551111111112,462.578 L 244.35733333333332,462.70433333333335 L 244.3734222222222,462.86533333333335 L 244.4133777777778,462.97066666666666 L 244.44379999999998,463.12266666666665 L 244.4528666666667,463.28866666666664 L 244.3051333333333,463.46566666666666 L 244.22155555555554,463.5706666666666 L 243.88737777777783,463.3936666666666 L 243.67597777777777,463.39933333333335 L 243.46606666666668,463.22266666666667 L 243.38559999999995,462.9323333333333 L 243.37622222222217,462.6563333333333 L 243.3621777777778,462.3736666666667 L 243.32524444444442,462.0253333333333 L 243.35611111111115,461.73333333333335 L 243.39317777777777,461.52799999999996 L 243.51184444444448,461.0783333333333 L 243.5398,460.798 L 243.5465333333334,460.53166666666664 L 243.5602666666667,460.261 L 243.5450888888889,459.80733333333336 L 243.6092888888889,459.614 L 243.753,459.29733333333337 L 244.0062888888889,459.17966666666666 L 244.2012666666667,459.08 L 244.43055555555554,459.048 Z" fill="#FF0000" fill-opacity="0.1" stroke="#FF0000" stroke-width="0.3" stroke-opacity="0.7"/>
  
  <!-- Title and info -->
  <text x="400.0" y="25" text-anchor="middle" 
        fill="white" font-size="12.0" font-weight="bold">
    Constellation View
  </text>
  
  <text x="10" y="590" fill="white" font-size="5.0">
    RA: 0.0째 to 360.0째 | DE: -90.0째 to 90.0째 | 
    Stars: 7 | DSO: 15 | Vector SVG
  </text>
  
</svg>