<?xml version="1.0" encoding="UTF-8"?>
<svg width="800" height="600" 
     viewBox="0 0 800 600"
     xmlns="http://www.w3.org/2000/svg"
     style="background-color: #000000;">
     
  <!-- Scalable constellation visualization -->
  <defs>
    <!-- Star symbol -->
    <g id="star">
      <polygon points="0,-1 0.3,-0.3 1,0 0.3,0.3 0,1 -0.3,0.3 -1,0 -0.3,-0.3" 
               fill="currentColor" stroke="none"/>
    </g>
    
    <!-- Bright star symbol -->
    <g id="bright-star">
      <polygon points="0,-1.2 0.35,-0.35 1.2,0 0.35,0.35 0,1.2 -0.35,0.35 -1.2,0 -0.35,-0.35" 
               fill="currentColor" stroke="none"/>
    </g>
  </defs>
  
  <!-- Grid lines -->
  <g id="grid" stroke="#333" stroke-width="0.1" opacity="0.3">
    <line x1="800.0" y1="0" x2="800.0" y2="600"/>
    <line x1="733.3333333333333" y1="0" x2="733.3333333333333" y2="600"/>
    <line x1="666.6666666666667" y1="0" x2="666.6666666666667" y2="600"/>
    <line x1="600.0" y1="0" x2="600.0" y2="600"/>
    <line x1="533.3333333333334" y1="0" x2="533.3333333333334" y2="600"/>
    <line x1="466.66666666666663" y1="0" x2="466.66666666666663" y2="600"/>
    <line x1="400.0" y1="0" x2="400.0" y2="600"/>
    <line x1="333.3333333333333" y1="0" x2="333.3333333333333" y2="600"/>
    <line x1="266.6666666666667" y1="0" x2="266.6666666666667" y2="600"/>
    <line x1="200.0" y1="0" x2="200.0" y2="600"/>
    <line x1="133.33333333333331" y1="0" x2="133.33333333333331" y2="600"/>
    <line x1="66.6666666666667" y1="0" x2="66.6666666666667" y2="600"/>
    <line x1="0.0" y1="0" x2="0.0" y2="600"/>
    <line x1="0" y1="600.0" x2="800" y2="600.0"/>
    <line x1="0" y1="500.0" x2="800" y2="500.0"/>
    <line x1="0" y1="400.00000000000006" x2="800" y2="400.00000000000006"/>
    <line x1="0" y1="300.0" x2="800" y2="300.0"/>
    <line x1="0" y1="200.00000000000003" x2="800" y2="200.00000000000003"/>
    <line x1="0" y1="99.99999999999997" x2="800" y2="99.99999999999997"/>
    <line x1="0" y1="0.0" x2="800" y2="0.0"/>
  </g>

  <!-- Constellation elements -->
  <use href="#star" x="206.91091485593134" y="392.7695590778496" transform="scale(0.5454545454545454)" fill="#FFFFFF" opacity="0.9"/>
  <use href="#star" x="196.77486954372787" y="401.41814913719634" transform="scale(0.7594936158752237)" fill="#FFFFFF" opacity="0.9"/>
  <use href="#star" x="192.3536311145388" y="370.1961179459414" transform="scale(0.6249999751647324)" fill="#FFFFFF" opacity="0.9"/>
  <use href="#star" x="190.20921579828584" y="422.5433169702829" transform="scale(0.7317073340929389)" fill="#FFFFFF" opacity="0.9"/>
  <use href="#star" x="188.33622403577203" y="399.4276524137592" transform="scale(0.8108107481149146)" fill="#FFFFFF" opacity="0.9"/>
  <use href="#star" x="186.57273766352046" y="414.6174032419004" transform="scale(1.0909090909090908)" fill="#FFFFFF" opacity="0.9"/>
  <use href="#star" x="184.46180001203362" y="384.7433182379476" transform="scale(0.7894736445841717)" fill="#FFFFFF" opacity="0.9"/>
  <use href="#star" x="174.63450290035036" y="389.9692425558536" transform="scale(0.7228915496529372)" fill="#FFFFFF" opacity="0.9"/>
  <use href="#star" x="169.29679977720352" y="387.6569944876326" transform="scale(0.983606495866213)" fill="#FFFFFF" opacity="0.9"/>
  <use href="#star" x="167.92725958757887" y="370.35579033575505" transform="scale(0.6666666666666666)" fill="#FFFFFF" opacity="0.9"/>
  <use href="#star" x="165.21584281402514" y="399.6001757044476" transform="scale(0.7058823529411765)" fill="#FFFFFF" opacity="0.9"/>
  <use href="#star" x="164.06386607086912" y="372.4729624550745" transform="scale(0.631578947368421)" fill="#FFFFFF" opacity="0.9"/>
  <use href="#star" x="162.81294474502425" y="392.23951036323734" transform="scale(0.6976743876579468)" fill="#FFFFFF" opacity="0.9"/>
  <use href="#star" x="156.86980946261394" y="363.17661335600116" transform="scale(0.5128205211805771)" fill="#FFFFFF" opacity="0.9"/>
  <use href="#star" x="154.62667774259938" y="359.49020585836365" transform="scale(0.6122448860432199)" fill="#FFFFFF" opacity="0.9"/>
  <use href="#star" x="153.7657290523743" y="449.3342184694595" transform="scale(0.5714285714285714)" fill="#FFFFFF" opacity="0.9"/>
  <use href="#star" x="153.39651490948506" y="435.38907650522" transform="scale(0.6060605710312484)" fill="#FFFFFF" opacity="0.9"/>
  <use href="#star" x="146.65132799788205" y="382.39749694097276" transform="scale(0.5)" fill="#FFFFFF" opacity="0.9"/>
  <use href="#star" x="135.9651508621365" y="439.5597919759448" transform="scale(0.588235305117351)" fill="#FFFFFF" opacity="0.9"/>
  <use href="#star" x="133.47979345221344" y="417.58824307912295" transform="scale(0.5607476735471151)" fill="#FFFFFF" opacity="0.9"/>
  <use href="#star" x="131.856128361071" y="392.3659610169795" transform="scale(0.5555555457440916)" fill="#FFFFFF" opacity="0.9"/>
  <line x1="188.33622403577203" y1="399.4276524137592" x2="184.46180001203362" y2="384.7433182379476" stroke="#87CEEB" stroke-width="0.5" opacity="0.8"/>
  <line x1="190.20921579828584" y1="422.5433169702829" x2="186.57273766352046" y2="414.6174032419004" stroke="#87CEEB" stroke-width="0.5" opacity="0.8"/>
  <line x1="186.57273766352046" y1="414.6174032419004" x2="196.77486954372787" y2="401.41814913719634" stroke="#87CEEB" stroke-width="0.5" opacity="0.8"/>
  <line x1="196.77486954372787" y1="401.41814913719634" x2="206.91091485593134" y2="392.7695590778496" stroke="#87CEEB" stroke-width="0.5" opacity="0.8"/>
  <line x1="196.77486954372787" y1="401.41814913719634" x2="188.33622403577203" y2="399.4276524137592" stroke="#87CEEB" stroke-width="0.5" opacity="0.8"/>
  <line x1="188.33622403577203" y1="399.4276524137592" x2="186.57273766352046" y2="414.6174032419004" stroke="#87CEEB" stroke-width="0.5" opacity="0.8"/>
  <line x1="186.57273766352046" y1="414.6174032419004" x2="165.21584281402514" y2="399.6001757044476" stroke="#87CEEB" stroke-width="0.5" opacity="0.8"/>
  <line x1="165.21584281402514" y1="399.6001757044476" x2="174.63450290035036" y2="389.9692425558536" stroke="#87CEEB" stroke-width="0.5" opacity="0.8"/>
  <line x1="174.63450290035036" y1="389.9692425558536" x2="188.33622403577203" y2="399.4276524137592" stroke="#87CEEB" stroke-width="0.5" opacity="0.8"/>
  <line x1="174.63450290035036" y1="389.9692425558536" x2="184.46180001203362" y2="384.7433182379476" stroke="#87CEEB" stroke-width="0.5" opacity="0.8"/>
  <line x1="184.46180001203362" y1="384.7433182379476" x2="192.3536311145388" y2="370.1961179459414" stroke="#87CEEB" stroke-width="0.5" opacity="0.8"/>
  <line x1="165.21584281402514" y1="399.6001757044476" x2="162.81294474502425" y2="392.23951036323734" stroke="#87CEEB" stroke-width="0.5" opacity="0.8"/>
  <line x1="162.81294474502425" y1="392.23951036323734" x2="169.29679977720352" y2="387.6569944876326" stroke="#87CEEB" stroke-width="0.5" opacity="0.8"/>
  <line x1="169.29679977720352" y1="387.6569944876326" x2="174.63450290035036" y2="389.9692425558536" stroke="#87CEEB" stroke-width="0.5" opacity="0.8"/>
  <line x1="169.29679977720352" y1="387.6569944876326" x2="167.92725958757887" y2="370.35579033575505" stroke="#87CEEB" stroke-width="0.5" opacity="0.8"/>
  <line x1="167.92725958757887" y1="370.35579033575505" x2="164.06386607086912" y2="372.4729624550745" stroke="#87CEEB" stroke-width="0.5" opacity="0.8"/>
  <line x1="164.06386607086912" y1="372.4729624550745" x2="156.86980946261394" y2="363.17661335600116" stroke="#87CEEB" stroke-width="0.5" opacity="0.8"/>
  <line x1="156.86980946261394" y1="363.17661335600116" x2="154.62667774259938" y2="359.49020585836365" stroke="#87CEEB" stroke-width="0.5" opacity="0.8"/>
  <line x1="162.81294474502425" y1="392.23951036323734" x2="146.65132799788205" y2="382.39749694097276" stroke="#87CEEB" stroke-width="0.5" opacity="0.8"/>
  <line x1="146.65132799788205" y1="382.39749694097276" x2="131.856128361071" y2="392.3659610169795" stroke="#87CEEB" stroke-width="0.5" opacity="0.8"/>
  <line x1="131.856128361071" y1="392.3659610169795" x2="133.47979345221344" y2="417.58824307912295" stroke="#87CEEB" stroke-width="0.5" opacity="0.8"/>
  <line x1="133.47979345221344" y1="417.58824307912295" x2="135.9651508621365" y2="439.5597919759448" stroke="#87CEEB" stroke-width="0.5" opacity="0.8"/>
  <line x1="135.9651508621365" y1="439.5597919759448" x2="153.39651490948506" y2="435.38907650522" stroke="#87CEEB" stroke-width="0.5" opacity="0.8"/>
  <line x1="135.9651508621365" y1="439.5597919759448" x2="153.7657290523743" y2="449.3342184694595" stroke="#87CEEB" stroke-width="0.5" opacity="0.8"/>
  <g transform="translate(206.74022222222223,367.2676666666666) scale(0.5)">
    <line x1="-2" y1="0" x2="2" y2="0" stroke="#BA55D3" stroke-width="0.5"/>
    <line x1="0" y1="-2" x2="0" y2="2" stroke="#BA55D3" stroke-width="0.5"/>
  </g>
  <text x="208.74022222222223" y="369.2676666666666" fill="#BA55D3" font-size="3.5" font-weight="bold" opacity="0.9">Barnard84</text>
  <g transform="translate(194.85466666666662,379.93333333333334) scale(0.5)">
    <line x1="-2" y1="0" x2="2" y2="0" stroke="#BA55D3" stroke-width="0.5"/>
    <line x1="0" y1="-2" x2="0" y2="2" stroke="#BA55D3" stroke-width="0.5"/>
  </g>
  <text x="196.85466666666662" y="381.93333333333334" fill="#BA55D3" font-size="3.5" font-weight="bold" opacity="0.9">IC4685</text>
  <text x="190.4444444444445" y="355.94333333333327" fill="#BA55D3" font-size="3.5" font-weight="bold" opacity="0.9">M17</text>
  <ellipse cx="188.9444444444444" cy="357.10999999999996" rx="0.25777777777777783" ry="0.3866666666666667" transform="rotate(90.0000000001 188.9444444444444 357.10999999999996)" fill="none" stroke="#FFA500" stroke-width="0.2" stroke-dasharray="2,1" opacity="0.7"/>
  <text x="190.9444444444444" y="359.10999999999996" fill="#FFA500" font-size="3.5" font-weight="bold" opacity="0.9">M18</text>
  <text x="200.5555555555556" y="378.4433333333333" fill="#BA55D3" font-size="3.5" font-weight="bold" opacity="0.9">M20</text>
  <ellipse cx="197.44444444444449" cy="375.0" rx="0.5244444444444445" ry="0.7866666666666668" transform="rotate(90.0000000001 197.44444444444449 375.0)" fill="none" stroke="#FFA500" stroke-width="0.2" stroke-dasharray="2,1" opacity="0.7"/>
  <text x="199.44444444444449" y="377.0" fill="#FFA500" font-size="3.5" font-weight="bold" opacity="0.9">M21</text>
  <ellipse cx="179.77777777777771" cy="379.66666666666674" rx="0.17777777777777778" ry="0.26666666666666666" transform="rotate(1e-10 179.77777777777771 379.66666666666674)" fill="none" stroke="#FFA500" stroke-width="0.2" stroke-dasharray="2,1" opacity="0.7"/>
  <text x="181.77777777777771" y="381.66666666666674" fill="#FFA500" font-size="3.5" font-weight="bold" opacity="0.9">M22</text>
  <ellipse cx="201.7777777777778" cy="363.39" rx="1.2962962962962963" ry="1.9444444444444444" transform="rotate(1e-10 201.7777777777778 363.39)" fill="none" stroke="#FFA500" stroke-width="0.2" stroke-dasharray="2,1" opacity="0.7"/>
  <text x="203.7777777777778" y="365.39" fill="#FFA500" font-size="3.5" font-weight="bold" opacity="0.9">M23</text>
  <ellipse cx="190.61111111111106" cy="361.61" rx="0.17777777777777778" ry="0.26666666666666666" transform="rotate(90.0000000001 190.61111111111106 361.61)" fill="none" stroke="#FFA500" stroke-width="0.2" stroke-dasharray="2,1" opacity="0.7"/>
  <text x="192.61111111111106" y="363.61" fill="#FFA500" font-size="3.5" font-weight="bold" opacity="0.9">M24</text>
  <ellipse cx="182.44444444444446" cy="364.1666666666667" rx="1.1592592592592594" ry="1.7388888888888892" transform="rotate(1e-10 182.44444444444446 364.1666666666667)" fill="none" stroke="#FFA500" stroke-width="0.2" stroke-dasharray="2,1" opacity="0.7"/>
  <text x="184.44444444444446" y="366.1666666666667" fill="#FFA500" font-size="3.5" font-weight="bold" opacity="0.9">M25</text>
  <ellipse cx="186.38888888888889" cy="382.89" rx="0.37777777777777777" ry="0.5666666666666665" transform="rotate(1e-10 186.38888888888889 382.89)" fill="none" stroke="#FFA500" stroke-width="0.2" stroke-dasharray="2,1" opacity="0.7"/>
  <text x="188.38888888888889" y="384.89" fill="#FFA500" font-size="3.5" font-weight="bold" opacity="0.9">M28</text>
  <ellipse cx="169.3888888888889" cy="401.61" rx="0.2777777777777778" ry="0.4166666666666667" transform="rotate(1e-10 169.3888888888889 401.61)" fill="none" stroke="#FFA500" stroke-width="0.2" stroke-dasharray="2,1" opacity="0.7"/>
  <text x="171.3888888888889" y="403.61" fill="#FFA500" font-size="3.5" font-weight="bold" opacity="0.9">M54</text>
  <ellipse cx="144.44444444444446" cy="403.2233333333333" rx="0.8888888888888888" ry="1.3333333333333333" transform="rotate(1e-10 144.44444444444446 403.2233333333333)" fill="none" stroke="#FFA500" stroke-width="0.2" stroke-dasharray="2,1" opacity="0.7"/>
  <text x="146.44444444444446" y="405.2233333333333" fill="#FFA500" font-size="3.5" font-weight="bold" opacity="0.9">M55</text>
  <ellipse cx="182.56377777777777" cy="407.82700000000006" rx="0.15555555555555559" ry="0.23333333333333336" transform="rotate(1e-10 182.56377777777777 407.82700000000006)" fill="none" stroke="#FFA500" stroke-width="0.2" stroke-dasharray="2,1" opacity="0.7"/>
  <text x="184.56377777777777" y="409.82700000000006" fill="#FFA500" font-size="3.5" font-weight="bold" opacity="0.9">M69</text>
  <ellipse cx="175.99999999999997" cy="407.66666666666663" rx="0.28888888888888886" ry="0.43333333333333335" transform="rotate(1e-10 175.99999999999997 407.66666666666663)" fill="none" stroke="#FFA500" stroke-width="0.2" stroke-dasharray="2,1" opacity="0.7"/>
  <text x="177.99999999999997" y="409.66666666666663" fill="#FFA500" font-size="3.5" font-weight="bold" opacity="0.9">M70</text>
  <ellipse cx="129.9444444444445" cy="373.0566666666667" rx="0.2666666666666667" ry="0.4" transform="rotate(55.0000000001 129.9444444444445 373.0566666666667)" fill="none" stroke="#FFA500" stroke-width="0.2" stroke-dasharray="2,1" opacity="0.7"/>
  <text x="131.9444444444445" y="375.0566666666667" fill="#FFA500" font-size="3.5" font-weight="bold" opacity="0.9">M75</text>
  <text x="199.8888888888889" y="383.27666666666664" fill="#BA55D3" font-size="3.5" font-weight="bold" opacity="0.9">M8</text>
  <ellipse cx="206.17888888888896" cy="367.86533333333335" rx="0.17777777777777778" ry="0.26666666666666666" transform="rotate(1e-10 206.17888888888896 367.86533333333335)" fill="none" stroke="#FFA500" stroke-width="0.2" stroke-dasharray="2,1" opacity="0.7"/>
  <text x="208.17888888888896" y="369.86533333333335" fill="#FFA500" font-size="3.5" font-weight="bold" opacity="0.9">NGC6440</text>
  <ellipse cx="198.00466666666665" cy="400.1123333333333" rx="0.28888888888888886" ry="0.43333333333333335" transform="rotate(1e-10 198.00466666666665 400.1123333333333)" fill="none" stroke="#FFA500" stroke-width="0.2" stroke-dasharray="2,1" opacity="0.7"/>
  <text x="200.00466666666665" y="402.1123333333333" fill="#FFA500" font-size="3.5" font-weight="bold" opacity="0.9">NGC6522</text>
  <g transform="translate(197.1008888888889,366.1433333333333) scale(0.5)">
    <line x1="-2" y1="0" x2="2" y2="0" stroke="#BA55D3" stroke-width="0.5"/>
    <line x1="0" y1="-2" x2="0" y2="2" stroke="#BA55D3" stroke-width="0.5"/>
  </g>
  <text x="199.1008888888889" y="368.1433333333333" fill="#BA55D3" font-size="3.5" font-weight="bold" opacity="0.9">NGC6537</text>
  <ellipse cx="195.89711111111114" cy="377.6563333333333" rx="0.5185185185185185" ry="0.7777777777777778" transform="rotate(90.0000000001 195.89711111111114 377.6563333333333)" fill="none" stroke="#FFA500" stroke-width="0.2" stroke-dasharray="2,1" opacity="0.7"/>
  <text x="197.89711111111114" y="379.6563333333333" fill="#FFA500" font-size="3.5" font-weight="bold" opacity="0.9">NGC6546</text>
  <ellipse cx="194.84222222222218" cy="386.3586666666667" rx="0.4000000000000001" ry="0.6000000000000001" transform="rotate(1e-10 194.84222222222218 386.3586666666667)" fill="none" stroke="#FFA500" stroke-width="0.2" stroke-dasharray="2,1" opacity="0.7"/>
  <text x="196.84222222222218" y="388.3586666666667" fill="#FFA500" font-size="3.5" font-weight="bold" opacity="0.9">NGC6553</text>
  <ellipse cx="194.26111111111118" cy="405.87700000000007" rx="0.4000000000000001" ry="0.6000000000000001" transform="rotate(1e-10 194.26111111111118 405.87700000000007)" fill="none" stroke="#FFA500" stroke-width="0.2" stroke-dasharray="2,1" opacity="0.7"/>
  <text x="196.26111111111118" y="407.87700000000007" fill="#FFA500" font-size="3.5" font-weight="bold" opacity="0.9">NGC6558</text>
  <ellipse cx="194.47400000000005" cy="380.35466666666673" rx="0.5555555555555556" ry="0.5555555555555556" transform="rotate(1e-10 194.47400000000005 380.35466666666673)" fill="none" stroke="#BA55D3" stroke-width="0.2" stroke-dasharray="2,1" opacity="0.7"/>
  <text x="196.47400000000005" y="382.35466666666673" fill="#BA55D3" font-size="3.5" font-weight="bold" opacity="0.9">NGC6559</text>
  <ellipse cx="192.26888888888897" cy="406.0866666666667" rx="0.13333333333333336" ry="0.2" transform="rotate(1e-10 192.26888888888897 406.0866666666667)" fill="none" stroke="#FFA500" stroke-width="0.2" stroke-dasharray="2,1" opacity="0.7"/>
  <text x="194.26888888888897" y="408.0866666666667" fill="#FFA500" font-size="3.5" font-weight="bold" opacity="0.9">NGC6569</text>
  <ellipse cx="186.83444444444444" cy="401.20166666666665" rx="0.17777777777777778" ry="0.26666666666666666" transform="rotate(1e-10 186.83444444444444 401.20166666666665)" fill="none" stroke="#FFA500" stroke-width="0.2" stroke-dasharray="2,1" opacity="0.7"/>
  <text x="188.83444444444444" y="403.20166666666665" fill="#FFA500" font-size="3.5" font-weight="bold" opacity="0.9">NGC6624</text>
  <ellipse cx="166.9153333333333" cy="422.10766666666666" rx="0.43333333333333324" ry="0.6499999999999999" transform="rotate(1e-10 166.9153333333333 422.10766666666666)" fill="none" stroke="#FFA500" stroke-width="0.2" stroke-dasharray="2,1" opacity="0.7"/>
  <text x="168.9153333333333" y="424.10766666666666" fill="#FFA500" font-size="3.5" font-weight="bold" opacity="0.9">NGC6723</text>
  <ellipse cx="141.71066666666664" cy="349.32899999999995" rx="0.5111111111111111" ry="0.7155555555555556" transform="rotate(1e-10 141.71066666666664 349.32899999999995)" fill="none" stroke="#4682B4" stroke-width="0.2" stroke-dasharray="2,1" opacity="0.7"/>
  <text x="143.71066666666664" y="351.32899999999995" fill="#4682B4" font-size="3.5" font-weight="bold" opacity="0.9">NGC6822</text>
  <path d="M 198.47273333333328,376.1236666666666 L 198.50139999999996,376.1106666666667 L 198.54237777777772,376.10533333333336 L 198.58904444444443,376.12033333333335 L 198.62411111111112,376.14866666666666 L 198.65122222222223,376.179 L 198.67742222222216,376.212 L 198.71979999999994,376.24800000000005 L 198.76262222222215,376.2673333333334 L 198.7856444444444,376.29499999999996 L 198.81528888888892,376.3403333333333 L 198.81373333333335,376.3833333333333 L 198.80624444444442,376.3993333333333 L 198.79831111111113,376.43166666666673 L 198.78806666666674,376.456 L 198.78113333333332,376.49733333333336 L 198.81875555555553,376.50533333333334 L 198.83355555555556,376.528 L 198.83944444444444,376.55533333333335 L 198.85260000000002,376.5906666666667 L 198.8564444444445,376.6166666666667 L 198.85753333333332,376.65133333333335 L 198.85022222222224,376.67400000000004 L 198.83857777777774,376.68733333333336 L 198.80142222222224,376.688 L 198.78999999999996,376.7083333333333 L 198.81982222222226,376.73 L 198.87484444444442,376.752 L 198.8597111111111,376.8193333333333 L 198.8555555555556,376.8473333333334 L 198.84268888888892,376.88666666666666 L 198.83002222222217,376.93333333333334 L 198.80915555555552,376.9746666666667 L 198.79126666666673,377.0146666666667 L 198.76588888888892,377.0396666666666 L 198.74806666666666,377.049 L 198.72911111111105,377.0543333333333 L 198.7017555555556,377.0473333333333 L 198.6862888888889,377.0346666666667 L 198.66784444444443,377.023 L 198.6516444444444,377.01966666666664 L 198.61877777777775,377.03000000000003 L 198.5899777777778,377.04266666666666 L 198.57124444444443,377.055 L 198.53406666666666,377.0556666666667 L 198.51039999999998,377.0373333333334 L 198.48971111111115,377.0176666666667 L 198.4686222222222,376.98433333333344 L 198.43688888888894,376.93066666666664 L 198.42173333333335,376.894 L 198.42646666666664,376.84933333333333 L 198.44386666666668,376.82599999999996 L 198.4694666666667,376.808 L 198.47724444444444,376.7993333333333 L 198.4953777777778,376.7663333333333 L 198.50091111111104,376.7493333333333 L 198.47879999999992,376.7493333333333 L 198.44482222222214,376.7553333333334 L 198.4133999999999,376.746 L 198.39406666666673,376.701 L 198.44124444444446,376.67499999999995 L 198.46882222222223,376.68833333333333 L 198.50662222222226,376.7083333333333 L 198.5234888888889,376.7016666666667 L 198.55655555555563,376.6983333333333 L 198.56773333333334,376.67133333333334 L 198.54015555555557,376.65766666666667 L 198.51715555555555,376.6603333333333 L 198.48457777777782,376.64733333333334 L 198.45815555555558,376.63766666666663 L 198.4410888888889,376.607 L 198.42904444444446,376.5756666666667 L 198.40653333333336,376.53133333333335 L 198.37077777777773,376.4983333333333 L 198.35924444444447,376.47266666666667 L 198.33393333333333,376.438 L 198.3285111111112,376.409 L 198.31948888888888,376.3233333333333 L 198.33362222222223,376.2726666666667 L 198.37033333333335,376.212 L 198.40211111111117,376.1723333333333 Z" fill="#FF0000" fill-opacity="0.1" stroke="#FF0000" stroke-width="0.3" stroke-opacity="0.7"/>
  <path d="M 198.4959777777778,376.694 L 198.5169777777778,376.70266666666663 L 198.53522222222216,376.7016666666667 L 198.55582222222222,376.698 L 198.5642666666667,376.695 L 198.5912,376.69933333333336 L 198.57988888888886,376.688 L 198.57191111111118,376.6666666666667 L 198.5827111111111,376.66099999999994 L 198.6008,376.6743333333334 L 198.6174666666667,376.701 L 198.63071111111114,376.7153333333334 L 198.65666666666675,376.7273333333333 L 198.6644222222223,376.7216666666667 L 198.68015555555553,376.73766666666666 L 198.69548888888886,376.74100000000004 L 198.72042222222223,376.71933333333334 L 198.73259999999993,376.7 L 198.73279999999997,376.6673333333333 L 198.7458444444444,376.6363333333333 L 198.7528444444445,376.6653333333333 L 198.75735555555556,376.6926666666667 L 198.77433333333326,376.70933333333335 L 198.7747333333333,376.722 L 198.76531111111115,376.7326666666667 L 198.76404444444447,376.75033333333334 L 198.7563333333334,376.7373333333333 L 198.74748888888894,376.72766666666666 L 198.73117777777782,376.732 L 198.72286666666668,376.7393333333333 L 198.71482222222224,376.75500000000005 L 198.70857777777778,376.7696666666667 L 198.7136666666667,376.79533333333336 L 198.72177777777776,376.821 L 198.70668888888883,376.82599999999996 L 198.69024444444446,376.8263333333333 L 198.66931111111103,376.8586666666667 L 198.66393333333338,376.84299999999996 L 198.6720222222222,376.80899999999997 L 198.67495555555558,376.786 L 198.6734888888889,376.7583333333333 L 198.6653333333334,376.7513333333334 L 198.64999999999995,376.748 L 198.63135555555561,376.73633333333333 L 198.61340000000007,376.7273333333333 L 198.59602222222213,376.71666666666664 L 198.57819999999995,376.7116666666667 L 198.54902222222225,376.7143333333333 L 198.53268888888894,376.71866666666676 L 198.51942222222218,376.72299999999996 L 198.50431111111106,376.7463333333333 L 198.49817777777776,376.76533333333333 Z" fill="#FF0000" fill-opacity="0.1" stroke="#FF0000" stroke-width="0.3" stroke-opacity="0.7"/>
  <path d="M 198.6944444444445,380.67066666666665 L 198.6536,380.5446666666666 L 198.59073333333333,380.439 L 198.43577777777784,380.3086666666667 L 198.3399555555555,380.25866666666667 L 198.21473333333336,380.2286666666667 L 198.12264444444443,380.1836666666667 L 198.0342888888889,380.17366666666663 L 197.9680222222222,380.17366666666663 L 197.89073333333337,380.179 L 197.83182222222217,380.1586666666667 L 197.80973333333333,380.1486666666667 L 197.76555555555558,380.1286666666667 L 197.63306666666676,380.15899999999993 L 197.5300000000001,380.179 L 197.46004444444435,380.2143333333334 L 197.3790666666667,380.2143333333334 L 197.31648888888884,380.179 L 197.24284444444447,380.22933333333333 L 197.12502222222224,380.239 L 197.01088888888884,380.23366666666664 L 196.93724444444447,380.2536666666666 L 196.88191111111112,380.309 L 196.84482222222223,380.46000000000004 L 196.8152,380.55066666666664 L 196.79282222222216,380.692 L 196.77406666666667,380.85833333333335 L 196.7701777777778,380.96399999999994 L 196.78473333333332,381.06500000000005 L 196.80660000000003,381.196 L 196.8137555555556,381.31733333333335 L 196.83208888888882,381.38266666666664 L 196.85404444444438,381.4936666666666 L 196.89815555555558,381.615 L 196.95708888888896,381.716 L 197.04935555555556,381.78166666666675 L 197.11951111111114,381.82733333333334 L 197.20446666666663,381.8626666666667 L 197.30791111111117,381.9133333333333 L 197.45573333333334,381.96400000000006 L 197.52228888888882,381.96400000000006 L 197.58882222222223,381.954 L 197.7034,381.959 L 197.7847333333333,381.9586666666667 L 197.8697333333334,381.9133333333333 L 198.0212444444444,381.898 L 198.1098666666667,381.82733333333334 L 198.20219999999998,381.7916666666667 L 198.27968888888893,381.716 L 198.35342222222226,381.63500000000005 L 198.39375555555563,381.4786666666667 L 198.4747555555556,381.36733333333336 L 198.5447777777778,381.3116666666667 L 198.60733333333326,381.2356666666666 L 198.64768888888884,381.13966666666664 L 198.69168888888896,381.02866666666665 L 198.70991111111113,380.9426666666667 L 198.72064444444445,380.81666666666666 Z" fill="#FF0000" fill-opacity="0.1" stroke="#FF0000" stroke-width="0.3" stroke-opacity="0.7"/>
  <path d="M 188.62768888888883,353.83333333333337 L 188.6324666666667,353.76733333333334 L 188.61846666666668,353.73499999999996 L 188.57580000000002,353.7006666666666 L 188.53857777777776,353.67 L 188.51768888888893,353.597 L 188.5177555555556,353.51933333333335 L 188.50042222222223,353.48266666666666 L 188.4608888888888,353.446 L 188.45722222222224,353.381 L 188.4371555555555,353.355 L 188.4120444444444,353.2823333333333 L 188.4071111111112,353.2646666666667 L 188.33831111111107,353.2366666666666 L 188.26873333333333,353.24233333333336 L 188.23455555555563,353.28800000000007 L 188.2034222222222,353.30266666666665 L 188.18248888888886,353.28133333333335 L 188.19631111111104,353.2299999999999 L 188.1931777777778,353.17699999999996 L 188.15728888888881,353.12500000000006 L 188.1499333333333,353.15299999999996 L 188.16573333333332,353.20500000000004 L 188.15744444444437,353.26366666666667 L 188.1103111111111,353.275 L 188.09008888888883,353.353 L 188.09204444444435,353.4566666666667 L 188.06773333333328,353.552 L 187.9976888888889,353.61100000000005 L 187.93382222222226,353.67766666666665 L 187.88855555555557,353.80500000000006 L 187.86624444444442,353.87700000000007 L 187.85744444444444,353.95433333333335 L 187.85068888888884,354.0463333333333 L 187.84253333333334,354.1406666666667 L 187.85451111111112,354.2206666666667 L 187.91742222222217,354.31766666666664 L 187.97295555555556,354.377 L 188.01522222222226,354.399 L 188.05788888888895,354.3936666666666 L 188.08915555555564,354.36133333333333 L 188.18193333333335,354.35166666666663 L 188.27266666666657,354.291 L 188.3155333333333,354.25333333333333 L 188.39651111111112,354.24466666666666 L 188.4523333333333,354.23566666666665 L 188.51211111111104,354.25333333333333 L 188.55075555555558,354.23966666666666 L 188.5752444444444,354.216 L 188.60728888888892,354.19666666666666 L 188.63622222222222,354.205 L 188.6654,354.21933333333334 L 188.6736222222222,354.18666666666667 L 188.66322222222226,354.13866666666667 L 188.66897777777785,354.09700000000004 L 188.66153333333332,354.07 L 188.6423333333333,354.0523333333333 L 188.63495555555562,354.02000000000004 L 188.6461111111112,353.995 L 188.67104444444448,353.9546666666667 L 188.68653333333327,353.9436666666666 L 188.67544444444445,353.89433333333335 L 188.66993333333335,353.8706666666667 L 188.66035555555553,353.8583333333333 L 188.64137777777773,353.87733333333335 L 188.62935555555555,353.91766666666666 L 188.61091111111108,353.95 L 188.5892,353.95700000000005 L 188.5790888888889,353.91333333333336 L 188.61017777777772,353.8746666666667 L 188.62726666666669,353.8346666666667 Z" fill="#FF0000" fill-opacity="0.1" stroke="#FF0000" stroke-width="0.3" stroke-opacity="0.7"/>
  
  <!-- Title and info -->
  <text x="400.0" y="25" text-anchor="middle" 
        fill="white" font-size="12.0" font-weight="bold">
    Constellation View
  </text>
  
  <text x="10" y="590" fill="white" font-size="5.0">
    RA: 0.0째 to 360.0째 | DE: -90.0째 to 90.0째 | 
    Stars: 21 | DSO: 28 | Vector SVG
  </text>
  
</svg>