<?xml version="1.0" encoding="UTF-8"?>
<svg width="800" height="600" 
     viewBox="0 0 800 600"
     xmlns="http://www.w3.org/2000/svg"
     style="background-color: #000000;">
     
  <!-- Scalable constellation visualization -->
  <defs>
    <!-- Star symbol -->
    <g id="star">
      <polygon points="0,-1 0.3,-0.3 1,0 0.3,0.3 0,1 -0.3,0.3 -1,0 -0.3,-0.3" 
               fill="currentColor" stroke="none"/>
    </g>
    
    <!-- Bright star symbol -->
    <g id="bright-star">
      <polygon points="0,-1.2 0.35,-0.35 1.2,0 0.35,0.35 0,1.2 -0.35,0.35 -1.2,0 -0.35,-0.35" 
               fill="currentColor" stroke="none"/>
    </g>
  </defs>
  
  <!-- Grid lines -->
  <g id="grid" stroke="#333" stroke-width="0.1" opacity="0.3">
  </g>

  <!-- Constellation elements -->
  <use href="#star" x="699.767428046054" y="239.63957771945772" transform="scale(0.5)" fill="#FFFFFF" opacity="0.9"/>
  <use href="#star" x="670.2472806542373" y="412.71307144115633" transform="scale(0.6060605710312484)" fill="#FFFFFF" opacity="0.9"/>
  <use href="#star" x="625.5825303599872" y="198.34965804197404" transform="scale(0.5555555457440916)" fill="#FFFFFF" opacity="0.9"/>
  <use href="#star" x="600.2735220688137" y="427.66822281905115" transform="scale(0.5357142948374458)" fill="#FFFFFF" opacity="0.9"/>
  <use href="#star" x="384.5395198261526" y="298.6622023871938" transform="scale(0.5825242610575063)" fill="#FFFFFF" opacity="0.9"/>
  <use href="#star" x="237.2928663882627" y="477.33786207042596" transform="scale(0.6122448860432199)" fill="#FFFFFF" opacity="0.9"/>
  <use href="#star" x="100.23257195394599" y="347.7977341844632" transform="scale(0.5607476735471151)" fill="#FFFFFF" opacity="0.9"/>
  <line x1="670.2472806542373" y1="412.71307144115633" x2="600.2735220688137" y2="427.66822281905115" stroke="#87CEEB" stroke-width="0.5" opacity="0.8"/>
  <line x1="600.2735220688137" y1="427.66822281905115" x2="384.5395198261526" y2="298.6622023871938" stroke="#87CEEB" stroke-width="0.5" opacity="0.8"/>
  <line x1="384.5395198261526" y1="298.6622023871938" x2="625.5825303599872" y2="198.34965804197404" stroke="#87CEEB" stroke-width="0.5" opacity="0.8"/>
  <line x1="625.5825303599872" y1="198.34965804197404" x2="699.767428046054" y2="239.63957771945772" stroke="#87CEEB" stroke-width="0.5" opacity="0.8"/>
  <line x1="384.5395198261526" y1="298.6622023871938" x2="100.23257195394599" y2="347.7977341844632" stroke="#87CEEB" stroke-width="0.5" opacity="0.8"/>
  <line x1="100.23257195394599" y1="347.7977341844632" x2="237.2928663882627" y2="477.33786207042596" stroke="#87CEEB" stroke-width="0.5" opacity="0.8"/>
  <text x="423.8677505337646" y="497.16386194109583" fill="#BA55D3" font-size="3.5" font-weight="bold" opacity="0.9">IC2177</text>
  <ellipse cx="427.9618909085645" cy="453.3083050340413" rx="1.1703703703703705" ry="1.755555555555556" transform="rotate(1e-10 427.9618909085645 453.3083050340413)" fill="none" stroke="#FFA500" stroke-width="0.2" stroke-dasharray="2,1" opacity="0.7"/>
  <text x="429.9618909085645" y="455.3083050340413" fill="#FFA500" font-size="3.5" font-weight="bold" opacity="0.9">M50</text>
  <text x="586.7456799589269" y="193.46451712586585" fill="#BA55D3" font-size="3.5" font-weight="bold" opacity="0.9">NGC2237_44</text>
  <ellipse cx="548.4113726256214" cy="116.62946391881364" rx="0.07407407407407408" ry="0.05555555555555555" transform="rotate(1e-10 548.4113726256214 116.62946391881364)" fill="none" stroke="#BA55D3" stroke-width="0.2" stroke-dasharray="2,1" opacity="0.7"/>
  <text x="550.4113726256214" y="118.62946391881364" fill="#BA55D3" font-size="3.5" font-weight="bold" opacity="0.9">NGC2261</text>
  <text x="540.9133341072655" y="100.6228956339644" fill="#BA55D3" font-size="3.5" font-weight="bold" opacity="0.9">NGC2264</text>
  <ellipse cx="143.22120050179458" cy="501.3771043660356" rx="0.39111111111111113" ry="0.5866666666666667" transform="rotate(1e-10 143.22120050179458 501.3771043660356)" fill="none" stroke="#FFA500" stroke-width="0.2" stroke-dasharray="2,1" opacity="0.7"/>
  <text x="145.22120050179458" y="503.3771043660356" fill="#FFA500" font-size="3.5" font-weight="bold" opacity="0.9">NGC2506</text>
  <path d="M 595.859868467468,192.5947355098311 L 595.9727303434884,191.68148749626056 L 596.3113159715487,190.74062507191255 L 596.593370429027,189.8983855431985 L 596.6919992798298,188.87467988651795 L 596.6216360143183,187.60244453283974 L 596.3393810916958,186.2887875629954 L 595.3659223528792,184.94948864028612 L 594.1523063716608,184.42284237760083 L 593.3480402143023,184.40903517221207 L 592.1484567931575,184.17431268060312 L 591.6122125332038,183.9257829836056 L 591.0192366375244,183.41491638422164 L 590.8073449804137,182.65552008784016 L 590.6235184434502,181.9355729497122 L 588.9857182177227,181.1485622425532 L 588.1670185700028,180.84480372400057 L 587.4184817226508,180.3753587407829 L 586.7832076816067,180.07160022223027 L 586.2609959817266,180.2925155084504 L 585.724551256629,180.22545193941926 L 585.2302042117522,179.94930783164415 L 584.9621823143474,180.0045366531992 L 584.4399706144675,180.22545193941926 L 583.9600570599517,180.23925914480802 L 583.6076393369617,180.53118291588456 L 582.7612754993826,181.08544358934745 L 582.2815624100109,181.27874446478995 L 581.7453181500573,181.38920210790002 L 580.9412524578429,181.73635470053162 L 580.4332737831803,181.88823395980793 L 579.7422704321298,182.22157934705072 L 579.3192889784841,182.4996959127385 L 579.2068280327517,182.8724904582348 L 579.5179499360969,183.3281282360638 L 578.6719870288055,183.88238890952667 L 577.9950162378286,184.14472581191296 L 577.4026417375808,184.353806350657 L 577.1775193809721,184.74040810154213 L 576.8108686327646,184.9218742295086 L 576.1054317913528,184.96329584567493 L 574.8920162752783,184.97907550897634 L 574.0877501179198,184.96724076150025 L 573.2419876757723,185.34200776490937 L 572.7632769121204,185.8962684383722 L 572.4970592010105,186.85093806810892 L 572.6812866682619,187.3894190782705 L 572.8661155309451,188.10739375848573 L 572.938282982752,189.0206417720562 L 572.8131927329533,190.0009533546578 L 572.4613764053951,190.47237079578815 L 571.8565730662249,191.28896837163737 L 571.871808417162,191.93790702490887 L 572.2258298613034,192.72491773206792 L 572.5654178150832,193.40344325402953 L 572.9892011293045,193.8452738264697 L 573.3568542032315,194.3837548366312 L 573.4560844494661,194.7979709982939 L 573.6689784322963,195.55736729467537 L 574.1635259423172,196.19249874255812 L 574.6991688068389,196.26153476950185 L 575.4461019330398,196.01103261459156 L 576.0515066676415,195.55342237885003 L 576.686179313254,195.67768722734877 L 576.5887532533146,196.51992675606283 L 576.6739509394757,197.00515140258193 L 577.7328078295972,198.10972783368234 L 578.3682823357851,198.9519673623964 L 578.7357349445681,199.6699420426117 L 579.384640615398,200.2636518743282 L 580.117942111813,200.62263921443582 L 580.3725328445763,201.35442110003981 L 580.6409556722687,201.83767328864624 L 581.2333301725165,202.34853988803016 L 581.6563116261623,202.61087679041654 L 582.135623785246,202.77656325508153 L 582.5724373338213,202.79037046047034 L 583.206508584002,202.7331691810026 L 584.0240054408584,203.03692769955524 L 584.390656189066,203.21642136960904 L 585.3625112067315,202.75881113386745 L 586.2778350538148,202.04083645365222 L 587.0670663253801,202.12170722807204 L 587.8701296918753,201.95602076340697 L 589.3072643085508,201.19465200911281 L 590.3073849115074,200.41947604942985 L 591.533229266504,199.4371920089155 L 592.5337507997483,198.6639885071452 L 593.5623374531398,197.5712468235209 L 594.8451139090064,196.3128186752315 L 595.4793856243309,194.6401743652795 L 595.8177707872475,193.34032460082383 Z" fill="#FF0000" fill-opacity="0.1" stroke="#FF0000" stroke-width="0.3" stroke-opacity="0.7"/>
  <path d="M 538.7106638467748,100.68805906853962 L 538.3995419434294,100.06870728395836 L 538.0589516639301,99.55389576874909 L 537.6658395167267,99.16532155995131 L 537.2637064380475,98.58147401779816 L 536.9728315142371,97.98579172816899 L 536.7378863655771,97.54198869781614 L 536.9545891861413,97.27767933751717 L 536.6462737948111,96.93644411862363 L 536.3026765381532,96.46502667749328 L 536.0675309243492,96.0212236471405 L 536.0202211503866,95.7391621656273 L 536.2928537461016,95.62870452251724 L 536.7503152044993,95.39989940464643 L 536.659103564021,95.11586546522071 L 536.6468751902428,94.6444480240903 L 537.2216087578269,94.31702001058551 L 537.5118822862053,94.26968102068119 L 537.9841781652524,94.15133354592045 L 538.4211921789715,93.90083139101029 L 538.6557363973438,93.70161314182965 L 539.0723029663845,93.4274414919672 L 539.362576494763,93.06056432020891 L 539.7262202658119,92.91262997675793 L 539.9874263483239,92.97180371413833 L 540.2400124296481,93.15918721584275 L 540.4747571131641,93.2814796064289 L 540.9442464801964,93.19271900035832 L 541.5785181955208,92.97377617205093 L 542.2731299191616,92.70552189592662 L 542.1414243196143,93.15326984210482 L 542.1033359422717,93.38601987580088 L 542.2384494492658,93.67399873105202 L 542.5054690209508,93.64835677818726 L 542.722773236947,93.70358559974225 L 542.9192290779768,93.7390898421705 L 543.0046272292816,94.10793947184153 L 542.9607253627659,94.42550519578283 L 542.9138165190913,94.78843745171592 L 542.8494672078969,95.08430613861773 L 542.7586564977066,95.44132102081275 L 542.814586272857,95.91668337776844 L 542.7474304496479,96.25594613874931 L 542.7835141755514,97.02125980886886 L 542.4104485427385,97.30529374829466 L 541.8709968404825,97.44139334426956 L 541.8270949739666,97.76093152612353 L 542.1263894338213,97.9088658695745 L 542.5850536830826,97.93648028035207 L 542.5221076278954,98.57555664406009 L 542.3990220295359,99.08247832761867 L 541.7920135737827,99.55784068457443 L 541.3054846695183,99.89118607181722 L 540.8656641437843,100.18310984289376 L 540.4055966385158,100.45333657693081 L 539.8575249350718,100.71764593722985 L 539.3679890536486,100.77287475878485 L 539.034014123898,100.8142963749511 Z" fill="#FF0000" fill-opacity="0.1" stroke="#FF0000" stroke-width="0.3" stroke-opacity="0.7"/>
  <path d="M 536.5241905221712,101.80249778920344 L 536.8936477823935,101.56974775550725 L 537.330260865825,101.31924560059701 L 537.5559846178651,101.24823711574054 L 537.7728879035733,101.30543839520827 L 538.2271419196686,101.44153799118317 L 538.4380312510597,101.58355496089607 L 538.6870089597935,101.81433253667946 L 538.9301731793537,102.12992580270823 L 539.1322420444129,102.40015253674528 L 539.249313688455,102.62304028087807 L 539.3164695116644,102.9267987994307 L 539.369191844512,103.12404459069859 L 539.4159002230426,103.40610607221166 L 539.2573322942112,103.78087307562076 L 539.1518876285159,104.03137523053105 L 538.9816927213382,104.25623543257652 L 538.7912508346255,104.45742613966975 L 538.6447108144289,104.6625617625884 L 538.5364596367187,104.31146425413151 L 538.5601145236997,103.97022903523798 L 538.5368605670063,103.66844297459804 L 538.4578773003067,103.21477765468184 L 538.3700735672751,102.88734964117705 L 538.1064619030362,102.8695975199629 L 537.8600902411733,103.24041960754667 L 537.5698167127948,103.92683496115906 L 537.4174632034246,104.2187587322356 L 537.2562892277228,104.6349473518109 L 537.1332036293634,104.82035839560271 L 536.8695919651245,104.48306809253458 L 536.7553268330969,104.21678627432287 L 536.6617096108921,103.97614640897599 L 536.5474444788646,103.71183704867701 L 536.4389928360105,103.36073954022007 L 536.3746435248158,103.01358694758854 L 536.2926532809577,102.60134324383858 L 536.2752128134375,102.2147414929534 Z" fill="#FF0000" fill-opacity="0.1" stroke="#FF0000" stroke-width="0.3" stroke-opacity="0.7"/>
  <path d="M 418.6428677637183,493.7397473281414 L 418.9812529266348,493.8817642978543 L 419.36634646808193,494.27033850665214 L 419.7710855936319,494.44588726088057 L 419.79353768974954,494.63129830467244 L 420.20188518788996,494.62735338884704 L 420.4440470817307,494.85418604880516 L 420.75196154277313,495.0257898872083 L 421.2791848712511,495.11849540910424 L 421.5544235138365,495.25853992090447 L 421.38202349007565,495.5228492812035 L 420.69984060535717,495.4834001229499 L 420.45928243266764,495.4104191801808 L 420.25480798588165,495.18753143604806 L 419.8837470045083,495.2605123788171 L 419.5024623007953,495.088908540414 L 419.38779623848,494.9330843653124 L 419.05382130872937,494.82262672220236 L 418.7014035857395,494.5622622777286 L 418.377852843472,494.21116476927176 Z" fill="#FF0000" fill-opacity="0.1" stroke="#FF0000" stroke-width="0.3" stroke-opacity="0.7"/>
  <path d="M 418.6428677637183,493.7397473281414 L 418.9812529266348,493.8817642978543 L 419.36634646808193,494.27033850665214 L 419.7710855936319,494.44588726088057 L 419.79353768974954,494.63129830467244 L 420.20188518788996,494.62735338884704 L 420.4440470817307,494.85418604880516 L 420.75196154277313,495.0257898872083 L 421.2791848712511,495.11849540910424 L 421.5544235138365,495.25853992090447 L 421.38202349007565,495.5228492812035 L 420.69984060535717,495.4834001229499 L 420.45928243266764,495.4104191801808 L 420.25480798588165,495.18753143604806 L 419.8837470045083,495.2605123788171 L 419.5024623007953,495.088908540414 L 419.38779623848,494.9330843653124 L 419.05382130872937,494.82262672220236 L 418.7014035857395,494.5622622777286 L 418.377852843472,494.21116476927176 L 418.32152213803386,494.8305165538531 L 418.17598444355673,495.2171183047382 L 418.14170490394866,495.6116098872741 L 418.3022774842189,496.1678430186496 L 418.45342820272526,496.57219689074884 L 418.7767784798489,497.0179723790144 L 419.07206363682513,497.3690698874713 L 419.3613348394843,497.8128729178241 L 419.9090056126405,498.14819076297965 L 420.60582245286434,498.58410396168176 L 421.0961601948633,498.7971294162511 L 421.69334585856467,498.80304678998914 L 422.4210343309502,498.6965340627045 L 422.8738850910383,498.422362412842 L 423.2277060700358,497.7477818067057 L 423.5324130887756,497.0416418739665 L 423.5618814649301,496.651095207256 L 423.7835959140922,496.24082396141876 L 423.69879915821934,495.72206753038404 L 423.70822101998283,495.15005473570704 L 423.4279707487998,494.4379974292299 L 423.36542562390036,494.04350584669396 L 423.1264711723621,493.3038341294393 L 422.88110183621905,492.71604167146086 L 422.67742925000863,492.4635670586379 L 422.18769290344136,492.2544865198939 L 421.7611030772057,492.1716432875614 L 421.1729383449798,492.16769837173604 L 420.72991037694345,492.26434880945726 L 420.1597875076693,492.4438424795111 L 420.1162865714412,492.68645480277064 L 420.13713494640774,492.9941582371486 L 420.1810368129235,493.36103540890696 L 420.2979079918219,493.61153756381725 L 420.07659447294765,493.97052490392485 L 419.7137525624743,493.86401217664013 Z" fill="#FF0000" fill-opacity="0.1" stroke="#FF0000" stroke-width="0.3" stroke-opacity="0.7"/>
  
  <!-- Title and info -->
  <text x="400.0" y="25" text-anchor="middle" 
        fill="white" font-size="12.0" font-weight="bold">
    Constellation View
  </text>
  
  <text x="10" y="590" fill="white" font-size="5.0">
    RA: 87.2째 to 127.1째 | DE: -15.8째 to 14.6째 | 
    Stars: 7 | DSO: 6 | Vector SVG
  </text>
  
</svg>