<?xml version="1.0" encoding="UTF-8"?>
<svg width="800" height="600" 
     viewBox="0 0 800 600"
     xmlns="http://www.w3.org/2000/svg"
     style="background-color: #000000;">
     
  <!-- Scalable constellation visualization -->
  <defs>
    <!-- Star symbol -->
    <g id="star">
      <polygon points="0,-1 0.3,-0.3 1,0 0.3,0.3 0,1 -0.3,0.3 -1,0 -0.3,-0.3" 
               fill="currentColor" stroke="none"/>
    </g>
    
    <!-- Bright star symbol -->
    <g id="bright-star">
      <polygon points="0,-1.2 0.35,-0.35 1.2,0 0.35,0.35 0,1.2 -0.35,0.35 -1.2,0 -0.35,-0.35" 
               fill="currentColor" stroke="none"/>
    </g>
  </defs>
  
  <!-- Grid lines -->
  <g id="grid" stroke="#333" stroke-width="0.1" opacity="0.3">
    <line x1="800.0" y1="0" x2="800.0" y2="600"/>
    <line x1="733.3333333333333" y1="0" x2="733.3333333333333" y2="600"/>
    <line x1="666.6666666666667" y1="0" x2="666.6666666666667" y2="600"/>
    <line x1="600.0" y1="0" x2="600.0" y2="600"/>
    <line x1="533.3333333333334" y1="0" x2="533.3333333333334" y2="600"/>
    <line x1="466.66666666666663" y1="0" x2="466.66666666666663" y2="600"/>
    <line x1="400.0" y1="0" x2="400.0" y2="600"/>
    <line x1="333.3333333333333" y1="0" x2="333.3333333333333" y2="600"/>
    <line x1="266.6666666666667" y1="0" x2="266.6666666666667" y2="600"/>
    <line x1="200.0" y1="0" x2="200.0" y2="600"/>
    <line x1="133.33333333333331" y1="0" x2="133.33333333333331" y2="600"/>
    <line x1="66.6666666666667" y1="0" x2="66.6666666666667" y2="600"/>
    <line x1="0.0" y1="0" x2="0.0" y2="600"/>
    <line x1="0" y1="600.0" x2="800" y2="600.0"/>
    <line x1="0" y1="500.0" x2="800" y2="500.0"/>
    <line x1="0" y1="400.00000000000006" x2="800" y2="400.00000000000006"/>
    <line x1="0" y1="300.0" x2="800" y2="300.0"/>
    <line x1="0" y1="200.00000000000003" x2="800" y2="200.00000000000003"/>
    <line x1="0" y1="99.99999999999997" x2="800" y2="99.99999999999997"/>
    <line x1="0" y1="0.0" x2="800" y2="0.0"/>
  </g>

  <!-- Constellation elements -->
  <use href="#star" x="182.02440579730413" y="432.34765427685403" transform="scale(0.5)" fill="#FFFFFF" opacity="0.9"/>
  <use href="#star" x="175.67679735478413" y="427.745881740418" transform="scale(0.5)" fill="#FFFFFF" opacity="0.9"/>
  <use href="#star" x="168.7326861680262" y="442.369311765013" transform="scale(0.5)" fill="#FFFFFF" opacity="0.9"/>
  <use href="#star" x="168.51398219727497" y="424.4780397905161" transform="scale(0.5)" fill="#FFFFFF" opacity="0.9"/>
  <use href="#star" x="167.37919427374413" y="423.6923958010638" transform="scale(0.5172413623006965)" fill="#FFFFFF" opacity="0.9"/>
  <use href="#star" x="164.93554503749337" y="440.31828879987705" transform="scale(0.5263157630561145)" fill="#FFFFFF" opacity="0.9"/>
  <use href="#star" x="163.1005963904741" y="423.5509652138791" transform="scale(0.5)" fill="#FFFFFF" opacity="0.9"/>
  <use href="#star" x="162.02732752588497" y="434.9897957133684" transform="scale(0.540540521963978)" fill="#FFFFFF" opacity="0.9"/>
  <use href="#star" x="161.40322864489667" y="426.35069453721417" transform="scale(0.588235305117351)" fill="#FFFFFF" opacity="0.9"/>
  <use href="#star" x="161.09497128022065" y="431.13674079893303" transform="scale(0.588235305117351)" fill="#FFFFFF" opacity="0.9"/>
  <line x1="175.67679735478413" y1="427.745881740418" x2="168.51398219727497" y2="424.4780397905161" stroke="#87CEEB" stroke-width="0.5" opacity="0.8"/>
  <line x1="168.51398219727497" y1="424.4780397905161" x2="167.37919427374413" y2="423.6923958010638" stroke="#87CEEB" stroke-width="0.5" opacity="0.8"/>
  <line x1="167.37919427374413" y1="423.6923958010638" x2="163.1005963904741" y2="423.5509652138791" stroke="#87CEEB" stroke-width="0.5" opacity="0.8"/>
  <line x1="163.1005963904741" y1="423.5509652138791" x2="161.40322864489667" y2="426.35069453721417" stroke="#87CEEB" stroke-width="0.5" opacity="0.8"/>
  <line x1="161.40322864489667" y1="426.35069453721417" x2="161.09497128022065" y2="431.13674079893303" stroke="#87CEEB" stroke-width="0.5" opacity="0.8"/>
  <line x1="161.09497128022065" y1="431.13674079893303" x2="162.02732752588497" y2="434.9897957133684" stroke="#87CEEB" stroke-width="0.5" opacity="0.8"/>
  <line x1="162.02732752588497" y1="434.9897957133684" x2="164.93554503749337" y2="440.31828879987705" stroke="#87CEEB" stroke-width="0.5" opacity="0.8"/>
  <line x1="164.93554503749337" y1="440.31828879987705" x2="168.7326861680262" y2="442.369311765013" stroke="#87CEEB" stroke-width="0.5" opacity="0.8"/>
  <line x1="175.67679735478413" y1="427.745881740418" x2="182.02440579730413" y2="432.34765427685403" stroke="#87CEEB" stroke-width="0.5" opacity="0.8"/>
  <ellipse cx="195.53377777777783" cy="445.7163333333334" rx="0.5555555555555556" ry="0.8333333333333334" transform="rotate(1e-10 195.53377777777783 445.7163333333334)" fill="none" stroke="#FFA500" stroke-width="0.2" stroke-dasharray="2,1" opacity="0.7"/>
  <text x="197.53377777777783" y="447.7163333333334" fill="#FFA500" font-size="3.5" font-weight="bold" opacity="0.9">NGC6541</text>
  <ellipse cx="165.7604444444444" cy="422.97333333333336" rx="0.3333333333333333" ry="0.3888888888888889" transform="rotate(1e-10 165.7604444444444 422.97333333333336)" fill="none" stroke="#BA55D3" stroke-width="0.2" stroke-dasharray="2,1" opacity="0.7"/>
  <text x="167.7604444444444" y="424.97333333333336" fill="#BA55D3" font-size="3.5" font-weight="bold" opacity="0.9">NGC6726</text>
  
  <!-- Title and info -->
  <text x="400.0" y="25" text-anchor="middle" 
        fill="white" font-size="12.0" font-weight="bold">
    Constellation View
  </text>
  
  <text x="10" y="590" fill="white" font-size="5.0">
    RA: 0.0째 to 360.0째 | DE: -90.0째 to 90.0째 | 
    Stars: 10 | DSO: 2 | Vector SVG
  </text>
  
</svg>