<?xml version="1.0" encoding="UTF-8"?>
<svg width="800" height="600" 
     viewBox="0 0 800 600"
     xmlns="http://www.w3.org/2000/svg"
     style="background-color: #000000;">
     
  <!-- Scalable constellation visualization -->
  <defs>
    <!-- Star symbol -->
    <g id="star">
      <polygon points="0,-1 0.3,-0.3 1,0 0.3,0.3 0,1 -0.3,0.3 -1,0 -0.3,-0.3" 
               fill="currentColor" stroke="none"/>
    </g>
    
    <!-- Bright star symbol -->
    <g id="bright-star">
      <polygon points="0,-1.2 0.35,-0.35 1.2,0 0.35,0.35 0,1.2 -0.35,0.35 -1.2,0 -0.35,-0.35" 
               fill="currentColor" stroke="none"/>
    </g>
  </defs>
  
  <!-- Grid lines -->
  <g id="grid" stroke="#333" stroke-width="0.1" opacity="0.3">
    <line x1="800.0" y1="0" x2="800.0" y2="600"/>
    <line x1="733.3333333333333" y1="0" x2="733.3333333333333" y2="600"/>
    <line x1="666.6666666666667" y1="0" x2="666.6666666666667" y2="600"/>
    <line x1="600.0" y1="0" x2="600.0" y2="600"/>
    <line x1="533.3333333333334" y1="0" x2="533.3333333333334" y2="600"/>
    <line x1="466.66666666666663" y1="0" x2="466.66666666666663" y2="600"/>
    <line x1="400.0" y1="0" x2="400.0" y2="600"/>
    <line x1="333.3333333333333" y1="0" x2="333.3333333333333" y2="600"/>
    <line x1="266.6666666666667" y1="0" x2="266.6666666666667" y2="600"/>
    <line x1="200.0" y1="0" x2="200.0" y2="600"/>
    <line x1="133.33333333333331" y1="0" x2="133.33333333333331" y2="600"/>
    <line x1="66.6666666666667" y1="0" x2="66.6666666666667" y2="600"/>
    <line x1="0.0" y1="0" x2="0.0" y2="600"/>
    <line x1="0" y1="600.0" x2="800" y2="600.0"/>
    <line x1="0" y1="500.0" x2="800" y2="500.0"/>
    <line x1="0" y1="400.00000000000006" x2="800" y2="400.00000000000006"/>
    <line x1="0" y1="300.0" x2="800" y2="300.0"/>
    <line x1="0" y1="200.00000000000003" x2="800" y2="200.00000000000003"/>
    <line x1="0" y1="99.99999999999997" x2="800" y2="99.99999999999997"/>
    <line x1="0" y1="0.0" x2="800" y2="0.0"/>
  </g>

  <!-- Constellation elements -->
  <use href="#star" x="112.46150891784774" y="457.6370061551379" transform="scale(0.7317073340929389)" fill="#FFFFFF" opacity="0.9"/>
  <use href="#star" x="102.88243187120543" y="494.84728198608184" transform="scale(0.6451612770908873)" fill="#FFFFFF" opacity="0.9"/>
  <use href="#star" x="88.96837080852205" y="478.1666369264388" transform="scale(0.5)" fill="#FFFFFF" opacity="0.9"/>
  <line x1="88.96837080852205" y1="478.1666369264388" x2="112.46150891784774" y2="457.6370061551379" stroke="#87CEEB" stroke-width="0.5" opacity="0.8"/>
  <line x1="112.46150891784774" y1="457.6370061551379" x2="102.88243187120543" y2="494.84728198608184" stroke="#87CEEB" stroke-width="0.5" opacity="0.8"/>
  <line x1="102.88243187120543" y1="494.84728198608184" x2="88.96837080852205" y2="478.1666369264388" stroke="#87CEEB" stroke-width="0.5" opacity="0.8"/>
  <ellipse cx="109.17488888888886" cy="477.856" rx="0.04122222222222222" ry="0.030944444444444445" transform="rotate(110.0000000001 109.17488888888886 477.856)" fill="none" stroke="#4682B4" stroke-width="0.2" stroke-dasharray="2,1" opacity="0.7"/>
  <text x="111.17488888888886" y="479.856" fill="#4682B4" font-size="3.5" font-weight="bold" opacity="0.9">NGC6948</text>
  <ellipse cx="91.59066666666664" cy="457.391" rx="0.06937037037037037" ry="0.05411111111111111" transform="rotate(125.0000000001 91.59066666666664 457.391)" fill="none" stroke="#4682B4" stroke-width="0.2" stroke-dasharray="2,1" opacity="0.7"/>
  <text x="93.59066666666664" y="459.391" fill="#4682B4" font-size="3.5" font-weight="bold" opacity="0.9">NGC7038</text>
  
  <!-- Title and info -->
  <text x="400.0" y="25" text-anchor="middle" 
        fill="white" font-size="12.0" font-weight="bold">
    Constellation View
  </text>
  
  <text x="10" y="590" fill="white" font-size="5.0">
    RA: 0.0째 to 360.0째 | DE: -90.0째 to 90.0째 | 
    Stars: 3 | DSO: 2 | Vector SVG
  </text>
  
</svg>