<?xml version="1.0" encoding="UTF-8"?>
<svg width="800" height="600" 
     viewBox="0 0 800 600"
     xmlns="http://www.w3.org/2000/svg"
     style="background-color: #000000;">
     
  <!-- Scalable constellation visualization -->
  <defs>
    <!-- Star symbol -->
    <g id="star">
      <polygon points="0,-1 0.3,-0.3 1,0 0.3,0.3 0,1 -0.3,0.3 -1,0 -0.3,-0.3" 
               fill="currentColor" stroke="none"/>
    </g>
    
    <!-- Bright star symbol -->
    <g id="bright-star">
      <polygon points="0,-1.2 0.35,-0.35 1.2,0 0.35,0.35 0,1.2 -0.35,0.35 -1.2,0 -0.35,-0.35" 
               fill="currentColor" stroke="none"/>
    </g>
  </defs>
  
  <!-- Grid lines -->
  <g id="grid" stroke="#333" stroke-width="0.1" opacity="0.3">
    <line x1="800.0" y1="0" x2="800.0" y2="600"/>
    <line x1="733.3333333333333" y1="0" x2="733.3333333333333" y2="600"/>
    <line x1="666.6666666666667" y1="0" x2="666.6666666666667" y2="600"/>
    <line x1="600.0" y1="0" x2="600.0" y2="600"/>
    <line x1="533.3333333333334" y1="0" x2="533.3333333333334" y2="600"/>
    <line x1="466.66666666666663" y1="0" x2="466.66666666666663" y2="600"/>
    <line x1="400.0" y1="0" x2="400.0" y2="600"/>
    <line x1="333.3333333333333" y1="0" x2="333.3333333333333" y2="600"/>
    <line x1="266.6666666666667" y1="0" x2="266.6666666666667" y2="600"/>
    <line x1="200.0" y1="0" x2="200.0" y2="600"/>
    <line x1="133.33333333333331" y1="0" x2="133.33333333333331" y2="600"/>
    <line x1="66.6666666666667" y1="0" x2="66.6666666666667" y2="600"/>
    <line x1="0.0" y1="0" x2="0.0" y2="600"/>
    <line x1="0" y1="600.0" x2="800" y2="600.0"/>
    <line x1="0" y1="500.0" x2="800" y2="500.0"/>
    <line x1="0" y1="400.00000000000006" x2="800" y2="400.00000000000006"/>
    <line x1="0" y1="300.0" x2="800" y2="300.0"/>
    <line x1="0" y1="200.00000000000003" x2="800" y2="200.00000000000003"/>
    <line x1="0" y1="99.99999999999997" x2="800" y2="99.99999999999997"/>
    <line x1="0" y1="0.0" x2="800" y2="0.0"/>
  </g>

  <!-- Constellation elements -->
  <use href="#star" x="395.32479409261236" y="382.4300685018042" transform="scale(0.6)" fill="#FFFFFF" opacity="0.9"/>
  <use href="#star" x="394.37587181346413" y="375.3991194053369" transform="scale(0.75)" fill="#FFFFFF" opacity="0.9"/>
  <use href="#star" x="391.22026736188707" y="358.47289891490965" transform="scale(0.8450703771311597)" fill="#FFFFFF" opacity="0.9"/>
  <use href="#star" x="383.41061233901587" y="355.05343599983007" transform="scale(0.7692307504206254)" fill="#FFFFFF" opacity="0.9"/>
  <use href="#star" x="382.18925372169963" y="353.98831832391267" transform="scale(0.5660377154786554)" fill="#FFFFFF" opacity="0.9"/>
  <use href="#star" x="380.8959115853715" y="377.9899713288019" transform="scale(0.821917786744058)" fill="#FFFFFF" opacity="0.9"/>
  <line x1="382.18925372169963" y1="353.98831832391267" x2="383.41061233901587" y2="355.05343599983007" stroke="#87CEEB" stroke-width="0.5" opacity="0.8"/>
  <line x1="383.41061233901587" y1="355.05343599983007" x2="391.22026736188707" y2="358.47289891490965" stroke="#87CEEB" stroke-width="0.5" opacity="0.8"/>
  <line x1="391.22026736188707" y1="358.47289891490965" x2="394.37587181346413" y2="375.3991194053369" stroke="#87CEEB" stroke-width="0.5" opacity="0.8"/>
  <line x1="394.37587181346413" y1="375.3991194053369" x2="395.32479409261236" y2="382.4300685018042" stroke="#87CEEB" stroke-width="0.5" opacity="0.8"/>
  <line x1="394.37587181346413" y1="375.3991194053369" x2="380.8959115853715" y2="377.9899713288019" stroke="#87CEEB" stroke-width="0.5" opacity="0.8"/>
  <line x1="380.8959115853715" y1="377.9899713288019" x2="383.41061233901587" y2="355.05343599983007" stroke="#87CEEB" stroke-width="0.5" opacity="0.8"/>
  <ellipse cx="398.95377777777776" cy="362.89199999999994" rx="0.19259259259259262" ry="0.17222222222222222" transform="rotate(80.0000000001 398.95377777777776 362.89199999999994)" fill="none" stroke="#4682B4" stroke-width="0.2" stroke-dasharray="2,1" opacity="0.7"/>
  <text x="400.95377777777776" y="364.89199999999994" fill="#4682B4" font-size="3.5" font-weight="bold" opacity="0.9">NGC4038</text>
  
  <!-- Title and info -->
  <text x="400.0" y="25" text-anchor="middle" 
        fill="white" font-size="12.0" font-weight="bold">
    Constellation View
  </text>
  
  <text x="10" y="590" fill="white" font-size="5.0">
    RA: 0.0째 to 360.0째 | DE: -90.0째 to 90.0째 | 
    Stars: 6 | DSO: 1 | Vector SVG
  </text>
  
</svg>