<?xml version="1.0" encoding="UTF-8"?>
<svg width="800" height="600" 
     viewBox="0 0 800 600"
     xmlns="http://www.w3.org/2000/svg"
     style="background-color: #000000;">
     
  <!-- Scalable constellation visualization -->
  <defs>
    <!-- Star symbol -->
    <g id="star">
      <polygon points="0,-1 0.3,-0.3 1,0 0.3,0.3 0,1 -0.3,0.3 -1,0 -0.3,-0.3" 
               fill="currentColor" stroke="none"/>
    </g>
    
    <!-- Bright star symbol -->
    <g id="bright-star">
      <polygon points="0,-1.2 0.35,-0.35 1.2,0 0.35,0.35 0,1.2 -0.35,0.35 -1.2,0 -0.35,-0.35" 
               fill="currentColor" stroke="none"/>
    </g>
  </defs>
  
  <!-- Grid lines -->
  <g id="grid" stroke="#333" stroke-width="0.1" opacity="0.3">
    <line x1="800.0" y1="0" x2="800.0" y2="600"/>
    <line x1="733.3333333333333" y1="0" x2="733.3333333333333" y2="600"/>
    <line x1="666.6666666666667" y1="0" x2="666.6666666666667" y2="600"/>
    <line x1="600.0" y1="0" x2="600.0" y2="600"/>
    <line x1="533.3333333333334" y1="0" x2="533.3333333333334" y2="600"/>
    <line x1="466.66666666666663" y1="0" x2="466.66666666666663" y2="600"/>
    <line x1="400.0" y1="0" x2="400.0" y2="600"/>
    <line x1="333.3333333333333" y1="0" x2="333.3333333333333" y2="600"/>
    <line x1="266.6666666666667" y1="0" x2="266.6666666666667" y2="600"/>
    <line x1="200.0" y1="0" x2="200.0" y2="600"/>
    <line x1="133.33333333333331" y1="0" x2="133.33333333333331" y2="600"/>
    <line x1="66.6666666666667" y1="0" x2="66.6666666666667" y2="600"/>
    <line x1="0.0" y1="0" x2="0.0" y2="600"/>
    <line x1="0" y1="600.0" x2="800" y2="600.0"/>
    <line x1="0" y1="500.0" x2="800" y2="500.0"/>
    <line x1="0" y1="400.00000000000006" x2="800" y2="400.00000000000006"/>
    <line x1="0" y1="300.0" x2="800" y2="300.0"/>
    <line x1="0" y1="200.00000000000003" x2="800" y2="200.00000000000003"/>
    <line x1="0" y1="99.99999999999997" x2="800" y2="99.99999999999997"/>
    <line x1="0" y1="0.0" x2="800" y2="0.0"/>
  </g>

  <!-- Constellation elements -->
  <use href="#star" x="114.88164526662734" y="262.3228449535257" transform="scale(0.6)" fill="#FFFFFF" opacity="0.9"/>
  <use href="#star" x="112.47099663764848" y="251.35074401420746" transform="scale(0.588235305117351)" fill="#FFFFFF" opacity="0.9"/>
  <use href="#star" x="111.31112096005617" y="246.96017890536064" transform="scale(0.5)" fill="#FFFFFF" opacity="0.9"/>
  <use href="#star" x="109.18977960480572" y="249.7523905100739" transform="scale(0.5555555457440916)" fill="#FFFFFF" opacity="0.9"/>
  <use href="#star" x="107.41236714631404" y="246.25671827237673" transform="scale(0.5714285714285714)" fill="#FFFFFF" opacity="0.9"/>
  <line x1="114.88164526662734" y1="262.3228449535257" x2="112.47099663764848" y2="251.35074401420746" stroke="#87CEEB" stroke-width="0.5" opacity="0.8"/>
  <line x1="112.47099663764848" y1="251.35074401420746" x2="111.31112096005617" y2="246.96017890536064" stroke="#87CEEB" stroke-width="0.5" opacity="0.8"/>
  <line x1="111.31112096005617" y1="246.96017890536064" x2="107.41236714631404" y2="246.25671827237673" stroke="#87CEEB" stroke-width="0.5" opacity="0.8"/>
  <line x1="107.41236714631404" y1="246.25671827237673" x2="109.18977960480572" y2="249.7523905100739" stroke="#87CEEB" stroke-width="0.5" opacity="0.8"/>
  <line x1="109.18977960480572" y1="249.7523905100739" x2="112.47099663764848" y2="251.35074401420746" stroke="#87CEEB" stroke-width="0.5" opacity="0.8"/>
  <g transform="translate(120.89822222222226,232.985) scale(0.5)">
    <line x1="-2" y1="0" x2="2" y2="0" stroke="#BA55D3" stroke-width="0.5"/>
    <line x1="0" y1="-2" x2="0" y2="2" stroke="#BA55D3" stroke-width="0.5"/>
  </g>
  <text x="122.89822222222226" y="234.985" fill="#BA55D3" font-size="3.5" font-weight="bold" opacity="0.9">NGC6905</text>
  <ellipse cx="114.3393333333333" cy="275.3183333333333" rx="0.4000000000000001" ry="0.6000000000000001" transform="rotate(1e-10 114.3393333333333 275.3183333333333)" fill="none" stroke="#FFA500" stroke-width="0.2" stroke-dasharray="2,1" opacity="0.7"/>
  <text x="116.3393333333333" y="277.3183333333333" fill="#FFA500" font-size="3.5" font-weight="bold" opacity="0.9">NGC6934</text>
  <ellipse cx="99.18288888888887" cy="246.04933333333335" rx="0.08000000000000002" ry="0.12000000000000001" transform="rotate(85.0000000001 99.18288888888887 246.04933333333335)" fill="none" stroke="#FFA500" stroke-width="0.2" stroke-dasharray="2,1" opacity="0.7"/>
  <text x="101.18288888888887" y="248.04933333333335" fill="#FFA500" font-size="3.5" font-weight="bold" opacity="0.9">NGC7006</text>
  
  <!-- Title and info -->
  <text x="400.0" y="25" text-anchor="middle" 
        fill="white" font-size="12.0" font-weight="bold">
    Constellation View
  </text>
  
  <text x="10" y="590" fill="white" font-size="5.0">
    RA: 0.0째 to 360.0째 | DE: -90.0째 to 90.0째 | 
    Stars: 5 | DSO: 3 | Vector SVG
  </text>
  
</svg>