<?xml version="1.0" encoding="UTF-8"?>
<svg width="800" height="600" 
     viewBox="0 0 800 600"
     xmlns="http://www.w3.org/2000/svg"
     style="background-color: #000000;">
     
  <!-- Scalable constellation visualization -->
  <defs>
    <!-- Star symbol -->
    <g id="star">
      <polygon points="0,-1 0.3,-0.3 1,0 0.3,0.3 0,1 -0.3,0.3 -1,0 -0.3,-0.3" 
               fill="currentColor" stroke="none"/>
    </g>
    
    <!-- Bright star symbol -->
    <g id="bright-star">
      <polygon points="0,-1.2 0.35,-0.35 1.2,0 0.35,0.35 0,1.2 -0.35,0.35 -1.2,0 -0.35,-0.35" 
               fill="currentColor" stroke="none"/>
    </g>
  </defs>
  
  <!-- Grid lines -->
  <g id="grid" stroke="#333" stroke-width="0.1" opacity="0.3">
    <line x1="800.0" y1="0" x2="800.0" y2="600"/>
    <line x1="733.3333333333333" y1="0" x2="733.3333333333333" y2="600"/>
    <line x1="666.6666666666667" y1="0" x2="666.6666666666667" y2="600"/>
    <line x1="600.0" y1="0" x2="600.0" y2="600"/>
    <line x1="533.3333333333334" y1="0" x2="533.3333333333334" y2="600"/>
    <line x1="466.66666666666663" y1="0" x2="466.66666666666663" y2="600"/>
    <line x1="400.0" y1="0" x2="400.0" y2="600"/>
    <line x1="333.3333333333333" y1="0" x2="333.3333333333333" y2="600"/>
    <line x1="266.6666666666667" y1="0" x2="266.6666666666667" y2="600"/>
    <line x1="200.0" y1="0" x2="200.0" y2="600"/>
    <line x1="133.33333333333331" y1="0" x2="133.33333333333331" y2="600"/>
    <line x1="66.6666666666667" y1="0" x2="66.6666666666667" y2="600"/>
    <line x1="0.0" y1="0" x2="0.0" y2="600"/>
    <line x1="0" y1="600.0" x2="800" y2="600.0"/>
    <line x1="0" y1="500.0" x2="800" y2="500.0"/>
    <line x1="0" y1="400.00000000000006" x2="800" y2="400.00000000000006"/>
    <line x1="0" y1="300.0" x2="800" y2="300.0"/>
    <line x1="0" y1="200.00000000000003" x2="800" y2="200.00000000000003"/>
    <line x1="0" y1="99.99999999999997" x2="800" y2="99.99999999999997"/>
    <line x1="0" y1="0.0" x2="800" y2="0.0"/>
  </g>

  <!-- Constellation elements -->
  <use href="#star" x="157.1629456380384" y="122.10301457444635" transform="scale(0.6249999751647324)" fill="#FFFFFF" opacity="0.9"/>
  <use href="#star" x="150.16198048371416" y="127.56493467101508" transform="scale(0.631578947368421)" fill="#FFFFFF" opacity="0.9"/>
  <use href="#star" x="149.59935132852786" y="206.80121577633196" transform="scale(0.6896551875334813)" fill="#FFFFFF" opacity="0.9"/>
  <use href="#star" x="141.68181581265964" y="149.56484866256537" transform="scale(0.5)" fill="#FFFFFF" opacity="0.9"/>
  <use href="#star" x="135.38594940029486" y="183.055950489056" transform="scale(0.6185567131938484)" fill="#FFFFFF" opacity="0.9"/>
  <use href="#star" x="120.98419180147238" y="165.81108011236387" transform="scale(0.9374999161809757)" fill="#FFFFFF" opacity="0.9"/>
  <use href="#star" x="110.31556793759086" y="149.0654966879661" transform="scale(1.3333333333333333)" fill="#FFFFFF" opacity="0.9"/>
  <use href="#star" x="107.6545379986487" y="186.7587214980738" transform="scale(0.8695651452798309)" fill="#FFFFFF" opacity="0.9"/>
  <use href="#star" x="92.8131975679955" y="199.24473019419185" transform="scale(0.7142856656288648)" fill="#FFFFFF" opacity="0.9"/>
  <use href="#star" x="75.47258541872237" y="204.1969711634206" transform="scale(0.5357142948374458)" fill="#FFFFFF" opacity="0.9"/>
  <line x1="157.1629456380384" y1="122.10301457444635" x2="150.16198048371416" y2="127.56493467101508" stroke="#87CEEB" stroke-width="0.5" opacity="0.8"/>
  <line x1="150.16198048371416" y1="127.56493467101508" x2="141.68181581265964" y2="149.56484866256537" stroke="#87CEEB" stroke-width="0.5" opacity="0.8"/>
  <line x1="141.68181581265964" y1="149.56484866256537" x2="120.98419180147238" y2="165.81108011236387" stroke="#87CEEB" stroke-width="0.5" opacity="0.8"/>
  <line x1="120.98419180147238" y1="165.81108011236387" x2="110.31556793759086" y2="149.0654966879661" stroke="#87CEEB" stroke-width="0.5" opacity="0.8"/>
  <line x1="120.98419180147238" y1="165.81108011236387" x2="107.6545379986487" y2="186.7587214980738" stroke="#87CEEB" stroke-width="0.5" opacity="0.8"/>
  <line x1="107.6545379986487" y1="186.7587214980738" x2="92.8131975679955" y2="199.24473019419185" stroke="#87CEEB" stroke-width="0.5" opacity="0.8"/>
  <line x1="92.8131975679955" y1="199.24473019419185" x2="75.47258541872237" y2="204.1969711634206" stroke="#87CEEB" stroke-width="0.5" opacity="0.8"/>
  <line x1="120.98419180147238" y1="165.81108011236387" x2="135.38594940029486" y2="183.055950489056" stroke="#87CEEB" stroke-width="0.5" opacity="0.8"/>
  <line x1="135.38594940029486" y1="183.055950489056" x2="149.59935132852786" y2="206.80121577633196" stroke="#87CEEB" stroke-width="0.5" opacity="0.8"/>
  <use href="#bright-star" x="149.59933333333336" y="206.80133333333336" transform="scale(0.8)" fill="#FFD700" opacity="0.95"/>
  <text x="152.59933333333336" y="203.80133333333336" fill="#FFD700" font-size="4.5" font-weight="bold">ALBIREO</text>
  <use href="#bright-star" x="110.31933333333335" y="149.0493333333333" transform="scale(1.3333333333333333)" fill="#FFD700" opacity="0.95"/>
  <text x="113.31933333333335" y="146.0493333333333" fill="#FFD700" font-size="4.5" font-weight="bold">Deneb</text>
  <ellipse cx="123.99044444444449" cy="160.15566666666666" rx="1.6666666666666667" ry="1.3888888888888888" transform="rotate(1e-10 123.99044444444449 160.15566666666666)" fill="none" stroke="#BA55D3" stroke-width="0.2" stroke-dasharray="2,1" opacity="0.7"/>
  <text x="125.99044444444449" y="162.15566666666666" fill="#BA55D3" font-size="3.5" font-weight="bold" opacity="0.9">IC1318</text>
  <text x="106.99999999999999" y="154.09999999999997" fill="#BA55D3" font-size="3.5" font-weight="bold" opacity="0.9">IC5070</text>
  <ellipse cx="70.33333333333331" cy="142.44333333333333" rx="0.3022222222222223" ry="0.45333333333333337" transform="rotate(1e-10 70.33333333333331 142.44333333333333)" fill="none" stroke="#BA55D3" stroke-width="0.2" stroke-dasharray="2,1" opacity="0.7"/>
  <text x="72.33333333333331" y="144.44333333333333" fill="#BA55D3" font-size="3.5" font-weight="bold" opacity="0.9">IC5146</text>
  <ellipse cx="120.05555555555549" cy="171.55666666666662" rx="0.4703703703703703" ry="0.7055555555555555" transform="rotate(1e-10 120.05555555555549 171.55666666666662)" fill="none" stroke="#FFA500" stroke-width="0.2" stroke-dasharray="2,1" opacity="0.7"/>
  <text x="122.05555555555549" y="173.55666666666662" fill="#FFA500" font-size="3.5" font-weight="bold" opacity="0.9">M29</text>
  <ellipse cx="82.11111111111107" cy="138.5566666666667" rx="4.45925925925926" ry="6.688888888888889" transform="rotate(1e-10 82.11111111111107 138.5566666666667)" fill="none" stroke="#FFA500" stroke-width="0.2" stroke-dasharray="2,1" opacity="0.7"/>
  <text x="84.11111111111107" y="140.5566666666667" fill="#FFA500" font-size="3.5" font-weight="bold" opacity="0.9">M39</text>
  <g transform="translate(141.77777777777783,131.59999999999997) scale(0.5)">
    <line x1="-2" y1="0" x2="2" y2="0" stroke="#BA55D3" stroke-width="0.5"/>
    <line x1="0" y1="-2" x2="0" y2="2" stroke="#BA55D3" stroke-width="0.5"/>
  </g>
  <text x="143.77777777777783" y="133.59999999999997" fill="#BA55D3" font-size="3.5" font-weight="bold" opacity="0.9">NGC6826</text>
  <text x="128.60222222222222" y="174.15000000000003" fill="#BA55D3" font-size="3.5" font-weight="bold" opacity="0.9">NGC6888</text>
  <g transform="translate(124.22266666666664,198.11733333333333) scale(0.5)">
    <line x1="-2" y1="0" x2="2" y2="0" stroke="#BA55D3" stroke-width="0.5"/>
    <line x1="0" y1="-2" x2="0" y2="2" stroke="#BA55D3" stroke-width="0.5"/>
  </g>
  <text x="126.22266666666664" y="200.11733333333333" fill="#BA55D3" font-size="3.5" font-weight="bold" opacity="0.9">NGC6894</text>
  <ellipse cx="120.49844444444453" cy="164.08899999999997" rx="0.39629629629629626" ry="0.5944444444444443" transform="rotate(1e-10 120.49844444444453 164.08899999999997)" fill="none" stroke="#FFA500" stroke-width="0.2" stroke-dasharray="2,1" opacity="0.7"/>
  <text x="122.49844444444453" y="166.08899999999997" fill="#FFA500" font-size="3.5" font-weight="bold" opacity="0.9">NGC6910</text>
  <g transform="translate(119.33333333333334,158.99999999999994) scale(0.5)">
    <line x1="-2" y1="0" x2="2" y2="0" stroke="#BA55D3" stroke-width="0.5"/>
    <line x1="0" y1="-2" x2="0" y2="2" stroke="#BA55D3" stroke-width="0.5"/>
  </g>
  <text x="121.33333333333334" y="160.99999999999994" fill="#BA55D3" font-size="3.5" font-weight="bold" opacity="0.9">NGC6914</text>
  <ellipse cx="113.95977777777784" cy="99.48766666666661" rx="0.42518518518518517" ry="0.5955555555555556" transform="rotate(1e-10 113.95977777777784 99.48766666666661)" fill="none" stroke="#4682B4" stroke-width="0.2" stroke-dasharray="2,1" opacity="0.7"/>
  <text x="115.95977777777784" y="101.48766666666661" fill="#4682B4" font-size="3.5" font-weight="bold" opacity="0.9">NGC6946</text>
  <text x="110.0" y="199.64000000000001" fill="#BA55D3" font-size="3.5" font-weight="bold" opacity="0.9">NGC6960</text>
  <text x="103.80444444444446" y="197.45333333333335" fill="#BA55D3" font-size="3.5" font-weight="bold" opacity="0.9">NGC6992</text>
  <text x="102.66000000000005" y="156.68533333333332" fill="#BA55D3" font-size="3.5" font-weight="bold" opacity="0.9">NGC7000</text>
  <g transform="translate(99.69888888888896,118.18866666666669) scale(0.5)">
    <line x1="-2" y1="0" x2="2" y2="0" stroke="#BA55D3" stroke-width="0.5"/>
    <line x1="0" y1="-2" x2="0" y2="2" stroke="#BA55D3" stroke-width="0.5"/>
  </g>
  <text x="101.69888888888896" y="120.18866666666669" fill="#BA55D3" font-size="3.5" font-weight="bold" opacity="0.9">NGC7008</text>
  <text x="135.38" y="184.41000000000003" fill="#BA55D3" font-size="3.5" font-weight="bold" opacity="0.9">SH2-101</text>
  <g transform="translate(118.0766666666667,175.41133333333335) scale(0.5)">
    <line x1="-2" y1="0" x2="2" y2="0" stroke="#BA55D3" stroke-width="0.5"/>
    <line x1="0" y1="-2" x2="0" y2="2" stroke="#BA55D3" stroke-width="0.5"/>
  </g>
  <text x="120.0766666666667" y="177.41133333333335" fill="#BA55D3" font-size="3.5" font-weight="bold" opacity="0.9">SH2-106</text>
  <path d="M 105.19444444444437,201.00366666666667 L 105.3353111111111,200.97600000000003 L 105.4619555555555,201.00033333333332 L 105.5898444444444,200.953 L 105.68013333333334,200.85899999999998 L 105.84346666666669,200.71400000000003 L 105.94464444444452,200.62800000000001 L 106.04100000000001,200.5196666666667 L 106.12726666666666,200.4513333333333 L 106.20960000000004,200.37199999999999 L 106.27115555555555,200.41000000000005 L 106.37795555555547,200.52966666666669 L 106.4307111111111,200.61933333333334 L 106.46671111111105,200.7636666666667 L 106.5045333333333,200.95633333333336 L 106.53613333333337,201.02966666666663 L 106.63646666666659,200.94433333333336 L 106.65855555555561,200.838 L 106.7601777777778,200.7526666666666 L 106.89084444444453,200.718 L 107.02982222222212,200.38633333333328 L 107.14622222222224,200.19799999999998 L 107.21682222222225,200.02499999999998 L 107.28015555555555,199.8923333333334 L 107.34555555555553,199.771 L 107.43544444444444,199.59233333333336 L 107.55222222222223,199.37833333333336 L 107.63542222222222,199.25133333333338 L 107.68962222222225,199.12166666666667 L 107.73926666666665,198.96933333333334 L 107.79373333333338,198.80299999999997 L 107.83860000000001,198.67633333333333 L 107.88339999999997,198.50166666666667 L 107.92431111111114,198.35233333333335 L 107.99435555555554,198.02000000000004 L 108.0528222222222,197.86499999999995 L 108.04564444444446,197.708 L 108.05197777777771,197.57099999999997 L 108.03146666666672,197.41733333333335 L 108.02035555555554,197.3346666666667 L 107.98057777777777,197.25 L 107.97337777777773,197.14166666666668 L 107.97746666666663,197.04166666666663 L 108.01504444444436,196.91833333333335 L 108.04328888888888,196.79800000000003 L 108.09399999999991,196.54599999999996 L 108.06942222222222,196.39533333333333 L 108.05615555555556,196.253 L 108.03193333333337,196.15066666666672 L 107.98324444444445,196.06866666666664 L 107.89535555555557,196.0473333333333 L 107.84993333333333,196.074 L 107.81191111111106,196.13466666666667 L 107.76286666666665,196.1866666666666 L 107.74302222222217,196.30099999999996 L 107.73442222222221,196.41766666666666 L 107.7700000000001,196.46566666666666 L 107.76611111111114,196.55100000000002 L 107.74648888888896,196.65400000000002 L 107.7227333333334,196.73433333333327 L 107.65504444444448,196.8896666666667 L 107.62699999999992,196.95833333333334 L 107.51617777777778,197.129 L 107.4804666666667,197.2493333333333 L 107.45448888888882,197.3666666666667 L 107.46139999999995,197.4606666666667 L 107.51948888888893,197.67033333333336 L 107.54773333333335,197.73233333333334 L 107.58168888888892,197.82866666666666 L 107.58364444444446,197.89999999999998 L 107.55602222222223,198.05433333333332 L 107.48233333333337,198.21266666666665 L 107.41902222222217,198.33100000000002 L 107.2770888888889,198.525 L 107.1696222222223,198.6583333333333 L 107.0715777777778,198.78900000000002 L 106.99255555555558,198.9246666666667 L 106.92035555555562,199.04599999999996 L 106.83984444444441,199.1703333333334 L 106.82715555555555,199.2703333333333 L 106.90753333333332,199.314 L 107.04791111111112,199.325 L 107.07064444444443,199.40133333333335 L 107.04733333333331,199.53033333333335 L 106.95671111111108,199.65766666666664 L 106.87706666666665,199.69666666666663 L 106.75480000000005,199.62833333333333 L 106.64420000000004,199.65366666666668 L 106.64015555555552,199.73933333333338 L 106.64819999999997,199.833 L 106.51800000000007,199.9616666666667 L 106.4385555555556,199.915 L 106.3075555555555,199.93566666666666 L 106.23393333333331,199.96033333333335 L 106.16746666666658,199.92200000000005 L 106.08093333333332,200.01299999999998 L 105.95097777777775,200.13033333333334 L 105.87188888888895,200.25533333333337 L 105.78108888888895,200.37199999999999 L 105.62742222222221,200.49899999999997 L 105.50942222222224,200.57666666666668 L 105.37162222222224,200.64933333333335 L 105.253,200.6786666666667 L 105.1362222222223,200.71933333333334 L 105.0518888888889,200.8216666666667 L 105.01591111111112,200.93133333333333 L 105.09033333333342,201.0483333333333 Z" fill="#FF0000" fill-opacity="0.1" stroke="#FF0000" stroke-width="0.3" stroke-opacity="0.7"/>
  <path d="M 105.74813333333336,199.89833333333328 L 105.68222222222224,199.7746666666667 L 105.65602222222222,199.661 L 105.64811111111112,199.5043333333333 L 105.6476,199.38166666666663 L 105.64811111111112,199.22199999999998 L 105.64224444444451,199.07666666666663 L 105.66095555555562,198.91066666666669 L 105.68893333333334,198.79000000000002 L 105.72040000000004,198.59499999999994 L 105.77915555555552,198.43966666666665 L 105.84657777777781,198.281 L 105.90511111111115,198.06233333333333 L 105.93515555555557,197.90466666666663 L 105.94400000000005,197.74199999999996 L 105.94755555555552,197.5933333333333 L 105.92762222222225,197.46566666666666 L 105.90011111111117,197.3036666666667 L 105.9140666666667,197.08599999999998 L 105.8942222222222,196.95833333333334 L 105.93086666666665,196.78633333333335 L 105.97246666666669,196.63666666666663 L 106.0244222222222,196.44733333333332 L 106.03784444444449,196.20999999999998 L 106.05144444444443,196.07 L 106.05026666666663,195.899 L 106.06562222222226,195.75866666666667 L 106.0935333333334,195.501 L 106.16908888888892,195.37666666666664 L 106.15566666666672,195.14866666666668 L 106.15606666666667,194.9403333333333 L 106.16395555555549,194.76633333333336 L 106.1139555555556,194.58766666666668 L 106.06711111111116,194.46900000000002 L 106.01255555555555,194.2903333333333 L 105.99384444444446,194.12533333333332 L 105.98475555555558,194.00566666666666 L 105.9590222222222,193.85533333333333 L 105.93631111111108,193.716 L 105.95573333333323,193.55 L 106.09204444444443,193.4413333333333 L 106.2409555555555,193.38933333333335 L 106.33619999999996,193.35566666666665 L 106.46444444444442,193.39566666666664 L 106.57180000000004,193.419 L 106.63644444444449,193.42066666666668 L 106.75146666666669,193.344 L 106.84619999999994,193.31100000000004 L 106.9084444444444,193.30099999999996 L 106.96908888888892,193.32833333333335 L 107.03915555555552,193.44966666666667 L 107.08948888888887,193.61433333333335 L 107.09662222222232,193.75666666666663 L 107.1378888888888,194.02100000000002 L 107.12753333333325,194.16933333333333 L 107.14471111111115,194.4056666666666 L 107.1439555555556,194.55100000000002 L 107.16131111111116,194.78733333333332 L 107.17751111111102,194.97533333333334 L 107.2049555555556,195.123 L 107.21700000000007,195.23966666666666 L 107.26068888888891,195.41866666666664 L 107.1764,195.525 L 107.11171111111106,195.59466666666668 L 107.036,195.656 L 106.96251111111108,195.72833333333335 L 106.89644444444451,195.83499999999998 L 106.84146666666675,195.95033333333333 L 106.72273333333342,196.12366666666668 L 106.68475555555563,196.184 L 106.6556444444445,196.29000000000002 L 106.64575555555551,196.43866666666668 L 106.67535555555557,196.549 L 106.74713333333328,196.63333333333335 L 106.8827333333334,196.76733333333337 L 106.94762222222226,196.87733333333335 L 106.96191111111108,197.0053333333333 L 106.96233333333342,197.1136666666667 L 106.89840000000004,197.23166666666668 L 106.7987111111111,197.26500000000001 L 106.63473333333337,197.30799999999996 L 106.55906666666661,197.32100000000005 L 106.5097555555556,197.32466666666667 L 106.42722222222218,197.44900000000004 L 106.38293333333336,197.77166666666668 L 106.37268888888886,197.87166666666667 L 106.339,198.04066666666665 L 106.3115777777778,198.195 L 106.29251111111114,198.298 L 106.26877777777777,198.37833333333333 L 106.29306666666673,198.46633333333335 L 106.40748888888893,198.4236666666667 L 106.4767777777778,198.36233333333334 L 106.5582,198.35766666666666 L 106.66677777777771,198.307 L 106.73691111111108,198.16033333333328 L 106.73226666666666,198.01500000000001 L 106.81479999999999,197.925 L 106.92748888888887,197.98266666666666 L 106.92031111111113,198.19100000000003 L 106.80477777777773,198.37533333333332 L 106.72588888888895,198.511 L 106.6183555555555,198.644 L 106.46762222222223,198.79266666666663 L 106.32751111111105,198.901 L 106.27288888888886,199.01600000000005 L 106.2701333333333,199.1986666666667 L 106.17335555555556,199.31166666666664 L 106.04766666666671,199.35433333333333 L 106.0034,199.38066666666668 L 105.9268888888889,199.47933333333333 L 105.85982222222219,199.62366666666668 L 105.84519999999999,199.76066666666665 L 105.83855555555547,199.91733333333335 Z" fill="#FF0000" fill-opacity="0.1" stroke="#FF0000" stroke-width="0.3" stroke-opacity="0.7"/>
  <path d="M 103.0902666666667,193.2986666666667 L 102.88082222222226,193.389 L 102.65573333333337,193.46699999999998 L 102.51397777777775,193.61633333333336 L 102.26006666666665,193.75499999999994 L 102.09928888888894,193.94466666666665 L 101.85502222222223,194.13233333333335 L 101.64131111111105,194.45199999999997 L 101.55824444444441,194.68 L 101.37855555555548,195.14733333333334 L 101.22546666666672,195.56899999999996 L 101.17004444444441,195.81266666666664 L 101.25355555555551,196.013 L 101.38044444444444,196.20333333333332 L 101.33315555555554,196.33466666666666 L 101.43908888888885,196.64133333333334 L 101.37453333333335,196.83633333333336 L 101.46586666666676,197.02400000000006 L 101.72713333333343,197.22366666666667 L 102.013,197.31666666666663 L 102.14277777777774,197.25600000000003 L 102.35002222222214,197.09633333333332 L 102.11355555555555,197.05599999999998 L 102.03653333333342,196.85699999999994 L 102.11977777777773,196.66 L 102.30273333333332,196.43900000000002 L 102.27506666666662,196.13233333333332 L 102.43375555555554,195.85066666666668 L 102.28922222222216,195.79200000000003 L 102.09037777777779,195.90099999999995 L 101.88868888888898,195.89466666666664 L 101.77068888888891,195.72199999999998 L 101.73064444444444,195.4803333333334 L 101.84591111111115,195.239 L 101.89137777777776,195.15300000000005 L 101.85697777777784,195.013 L 102.30124444444435,194.57866666666666 L 102.40666666666671,194.39566666666667 L 102.41419999999994,194.26 L 102.6554,194.2863333333333 L 102.78424444444445,194.14133333333334 L 102.84764444444443,193.831 L 102.93066666666668,193.90200000000004 L 103.00448888888889,193.76333333333332 L 103.1556222222222,193.53300000000002 L 103.08953333333335,193.30633333333333 Z" fill="#FF0000" fill-opacity="0.1" stroke="#FF0000" stroke-width="0.3" stroke-opacity="0.7"/>
  <path d="M 100.97882222222223,156.313 L 100.90195555555556,156.062 L 100.76595555555548,155.7986666666667 L 100.71546666666666,155.654 L 100.67359999999992,155.46100000000007 L 100.59051111111117,155.3263333333334 L 100.30068888888889,155.23099999999997 L 100.15853333333338,155.1676666666666 L 99.93833333333325,154.9376666666667 L 99.79524444444453,154.7906666666666 L 99.6696,154.63099999999997 L 99.48922222222221,154.34333333333333 L 99.4048888888888,154.209 L 99.15104444444447,154.0736666666667 L 98.98626666666664,153.95666666666668 L 98.71415555555565,153.835 L 98.4974888888889,153.65833333333333 L 98.28042222222217,153.48200000000003 L 98.07795555555563,153.30866666666668 L 97.88177777777784,153.00333333333336 L 97.80239999999995,152.73799999999994 L 97.68464444444449,152.51533333333336 L 97.63375555555554,152.35533333333336 L 97.58388888888891,152.09566666666666 L 97.5521555555555,152.00633333333334 L 97.36257777777774,151.837 L 97.17711111111109,151.73499999999999 L 97.08026666666667,151.567 L 97.0971111111111,151.37033333333332 L 97.1718444444444,151.20100000000002 L 97.2894666666667,151.05666666666667 L 97.81302222222212,150.63966666666667 L 98.06526666666669,150.35466666666673 L 98.23933333333335,150.255 L 98.71468888888887,149.7806666666667 L 98.83433333333338,149.63733333333334 L 98.94175555555557,149.47500000000002 L 99.10084444444438,149.28933333333333 L 99.27551111111103,149.107 L 99.49557777777773,148.85033333333334 L 99.55228888888898,148.71133333333336 L 99.65719999999996,148.48199999999997 L 99.79662222222218,148.32633333333337 L 100.09204444444447,148.10200000000003 L 100.32417777777773,147.96533333333332 L 100.59971111111122,147.85466666666667 L 100.94324444444442,147.80833333333337 L 101.21635555555564,147.7983333333333 L 101.50182222222224,147.72433333333328 L 101.73508888888891,147.75700000000003 L 102.04804444444449,147.7903333333333 L 102.4063777777778,147.9176666666667 L 102.59535555555557,148.09266666666662 L 102.75977777777774,148.22933333333333 L 102.95771111111102,148.35633333333337 L 103.21877777777777,148.565 L 103.35186666666658,148.6953333333333 L 103.53044444444448,148.83600000000004 L 103.66964444444449,148.93433333333329 L 103.79304444444442,149.06466666666665 L 103.75711111111113,149.241 L 103.68764444444452,149.4266666666667 L 103.34093333333331,150.20399999999995 L 103.22917777777772,150.447 L 103.1240888888889,150.6583333333333 L 103.02239999999996,150.85333333333332 L 102.9423333333333,151.01999999999995 L 102.88535555555552,151.30899999999997 L 102.80795555555554,151.54333333333332 L 102.69688888888888,151.8703333333334 L 102.60495555555558,152.10133333333337 L 102.54004444444442,152.35500000000005 L 102.47839999999995,152.59266666666673 L 102.43491111111113,152.81766666666667 L 102.39771111111118,153.01033333333334 L 102.29684444444436,153.3733333333333 L 102.2234444444444,153.6753333333333 L 102.14815555555559,153.82599999999996 L 102.04371111111108,153.88666666666668 L 101.86844444444444,153.8309999999999 L 101.69335555555551,153.69199999999995 L 101.58664444444447,153.5176666666666 L 101.42615555555557,153.29866666666663 L 101.29517777777775,153.08600000000004 L 101.1548666666667,153.00533333333337 L 100.96964444444438,152.999 L 100.89202222222218,153.08266666666668 L 100.7997111111111,153.3303333333333 L 100.74037777777774,153.56866666666673 L 100.69606666666661,153.80999999999997 L 100.74102222222221,154.07066666666668 L 100.80955555555562,154.2863333333333 L 100.99355555555549,154.54366666666667 L 101.19797777777775,154.6046666666666 L 101.37566666666666,154.64366666666672 L 101.48786666666663,154.78566666666666 L 101.49591111111107,155.07200000000006 L 101.4038888888889,155.236 L 101.33568888888895,155.3546666666667 L 101.41782222222221,155.574 L 101.45284444444442,155.71566666666666 L 101.47008888888891,155.86999999999995 L 101.32835555555558,156.05633333333338 L 101.25748888888894,156.19133333333326 L 101.11302222222216,156.39400000000006 Z" fill="#FF0000" fill-opacity="0.1" stroke="#FF0000" stroke-width="0.3" stroke-opacity="0.7"/>
  <path d="M 126.21113333333334,172.07166666666666 L 126.21353333333332,171.98566666666662 L 126.22582222222229,171.91666666666663 L 126.25515555555555,171.8703333333334 L 126.29779999999995,171.82033333333334 L 126.35391111111112,171.78700000000003 L 126.42940000000004,171.79033333333334 L 126.56682222222217,171.8306666666666 L 126.65497777777776,171.87633333333338 L 126.72717777777774,171.92799999999997 L 126.7788888888889,171.97066666666672 L 126.82804444444437,172.03599999999994 L 126.87624444444445,172.17000000000002 L 126.8994444444445,172.281 L 126.90557777777781,172.34866666666667 L 126.90655555555557,172.44766666666663 L 126.87797777777786,172.5656666666667 L 126.81426666666668,172.6393333333333 L 126.72244444444445,172.66699999999994 L 126.65557777777776,172.65466666666666 L 126.5889111111111,172.60566666666668 L 126.55279999999998,172.56633333333335 L 126.59346666666664,172.49300000000008 L 126.63248888888887,172.43699999999998 L 126.67302222222219,172.40700000000004 L 126.71099999999997,172.39233333333334 L 126.7261111111111,172.32833333333332 L 126.70704444444442,172.25500000000005 L 126.67091111111111,172.21566666666672 L 126.61217777777782,172.24433333333332 L 126.55948888888888,172.31366666666662 L 126.53853333333336,172.35766666666666 L 126.4785777777778,172.39399999999995 L 126.43524444444454,172.34233333333327 L 126.46613333333336,172.2653333333333 L 126.50024444444448,172.20400000000004 L 126.53088888888888,172.15000000000003 L 126.55257777777784,172.0806666666667 L 126.52253333333334,172.03199999999998 L 126.46335555555552,172.00633333333334 L 126.36251111111116,172.03933333333336 L 126.31306666666671,172.06733333333335 L 126.25619999999999,172.106 L 126.2112444444444,172.07233333333332 Z" fill="#FF0000" fill-opacity="0.1" stroke="#FF0000" stroke-width="0.3" stroke-opacity="0.7"/>
  <path d="M 133.17002222222226,181.7913333333333 L 133.15784444444444,181.83800000000002 L 133.13233333333335,181.8833333333333 L 133.113,181.93733333333333 L 133.09522222222228,181.98833333333334 L 133.08671111111119,182.04166666666669 L 133.08333333333326,182.099 L 133.09797777777783,182.16933333333333 L 133.11251111111108,182.21800000000005 L 133.13895555555558,182.29266666666672 L 133.15397777777775,182.33333333333331 L 133.17879999999997,182.3896666666667 L 133.19226666666663,182.43366666666665 L 133.21346666666668,182.48299999999998 L 133.25615555555555,182.53133333333335 L 133.30855555555559,182.57366666666664 L 133.3701111111111,182.59733333333332 L 133.4434,182.60399999999996 L 133.48642222222225,182.60133333333334 L 133.5309777777777,182.59533333333331 L 133.5729777777778,182.58766666666665 L 133.6026888888889,182.58399999999997 L 133.65033333333338,182.57200000000003 L 133.6969555555556,182.576 L 133.72257777777781,182.57366666666664 L 133.7215111111112,182.54733333333334 L 133.7045555555556,182.51766666666666 L 133.68606666666665,182.49133333333336 L 133.66504444444445,182.48466666666664 L 133.63733333333334,182.477 L 133.6173111111111,182.45399999999998 L 133.6319333333333,182.42633333333333 L 133.65924444444443,182.4036666666667 L 133.6499777777778,182.37966666666662 L 133.62277777777774,182.36400000000006 L 133.57453333333336,182.34166666666664 L 133.5554666666667,182.3023333333333 L 133.54968888888888,182.24266666666665 L 133.54806666666673,182.203 L 133.55362222222223,182.15600000000003 L 133.55253333333332,182.12966666666665 L 133.5268444444445,182.11066666666667 L 133.49495555555552,182.08333333333334 L 133.4903333333333,182.0016666666667 L 133.4710888888888,181.96766666666667 L 133.45460000000006,181.95166666666663 L 133.42271111111108,181.92400000000004 L 133.3794666666667,181.88400000000004 L 133.34966666666662,181.888 L 133.32957777777779,181.86466666666666 L 133.32124444444435,181.82466666666673 L 133.30520000000004,181.77866666666668 L 133.26866666666658,181.76066666666662 L 133.22495555555554,181.75033333333337 L 133.1920222222223,181.73900000000003 Z" fill="#FF0000" fill-opacity="0.1" stroke="#FF0000" stroke-width="0.3" stroke-opacity="0.7"/>
  <path d="M 103.63582222222227,154.02700000000002 L 103.69777777777776,153.9173333333333 L 103.71855555555562,153.79366666666667 L 103.76591111111111,153.70666666666665 L 103.83782222222217,153.57133333333329 L 103.90437777777785,153.44666666666666 L 103.99424444444448,153.3466666666666 L 104.07648888888889,153.24899999999997 L 104.12859999999995,153.17866666666663 L 104.18571111111117,153.11133333333333 L 104.2483555555556,153.03333333333336 L 104.33693333333326,152.9426666666667 L 104.41893333333337,152.82733333333334 L 104.46906666666669,152.74866666666668 L 104.51091111111106,152.65466666666669 L 104.54511111111114,152.59466666666668 L 104.54011111111106,152.56033333333332 L 104.50082222222221,152.523 L 104.45386666666661,152.551 L 104.38033333333338,152.54233333333335 L 104.35313333333332,152.48766666666666 L 104.33635555555566,152.39366666666663 L 104.34448888888888,152.31466666666665 L 104.36595555555553,152.254 L 104.40182222222222,152.1846666666666 L 104.45597777777786,152.1046666666666 L 104.4447777777778,152.03166666666667 L 104.43086666666667,151.9956666666667 L 104.40642222222225,151.96700000000004 L 104.37868888888895,151.95766666666663 L 104.33655555555559,151.95699999999997 L 104.30775555555556,151.97500000000002 L 104.27846666666669,152.0066666666667 L 104.25251111111118,152.0506666666667 L 104.25766666666672,152.11666666666662 L 104.2965555555555,152.16766666666675 L 104.3248666666667,152.19466666666665 L 104.3172444444445,152.26000000000002 L 104.30526666666663,152.34033333333335 L 104.30211111111109,152.42233333333328 L 104.29786666666665,152.50033333333332 L 104.31131111111114,152.58166666666665 L 104.33793333333332,152.61833333333337 L 104.35902222222228,152.66566666666668 L 104.3768222222222,152.73233333333337 L 104.34275555555566,152.82399999999998 L 104.25737777777772,152.89533333333338 L 104.17591111111113,152.96566666666672 L 104.08071111111114,153.03133333333335 L 104.01975555555563,153.1 L 103.96544444444444,153.162 L 103.89624444444445,153.2153333333333 L 103.8044666666667,153.262 L 103.74864444444442,153.33366666666666 L 103.67126666666664,153.47966666666667 L 103.62435555555561,153.55300000000003 L 103.57591111111103,153.63599999999997 L 103.54986666666673,153.69366666666667 L 103.50511111111106,153.74400000000003 L 103.48117777777776,153.77866666666665 L 103.42224444444446,153.83766666666662 L 103.39222222222224,153.86533333333335 L 103.3818666666667,153.79666666666668 L 103.30108888888896,153.7906666666667 L 103.23517777777775,153.79366666666667 L 103.17175555555558,153.7596666666667 L 103.1431111111111,153.68133333333333 L 103.12255555555554,153.60599999999997 L 103.12991111111111,153.507 L 103.16448888888887,153.407 L 103.19795555555551,153.27733333333336 L 103.24902222222221,153.1866666666667 L 103.31468888888881,153.099 L 103.40846666666667,152.98766666666666 L 103.54046666666665,152.86399999999998 L 103.63288888888889,152.798 L 103.74713333333334,152.70999999999998 L 103.75588888888893,152.6403333333334 L 103.7399777777778,152.5563333333333 L 103.80422222222228,152.46199999999993 L 103.9212,152.30666666666673 L 103.99755555555555,152.23066666666662 L 104.06286666666666,152.114 L 104.11011111111117,152.03233333333333 L 104.16646666666666,151.93333333333328 L 104.20824444444446,151.83133333333328 L 104.30224444444445,151.74299999999997 L 104.41837777777776,151.68466666666671 L 104.56015555555558,151.567 L 104.66268888888885,151.432 L 104.72866666666664,151.31533333333329 L 104.79291111111112,151.19199999999995 L 104.85442222222217,151.13599999999997 L 104.93244444444451,151.14200000000002 L 104.99475555555557,151.21933333333334 L 105.0588666666667,151.3036666666667 L 105.10362222222219,151.39400000000006 L 105.10526666666671,151.50466666666665 L 105.08037777777784,151.5936666666666 L 105.06468888888891,151.6653333333333 L 105.02700000000003,151.75833333333333 L 105.01317777777777,151.83666666666664 L 105.0139777777777,151.91799999999998 L 105.03302222222226,152.01566666666668 L 105.07584444444448,152.09900000000002 L 105.16433333333337,152.14633333333333 L 105.27295555555565,152.16533333333334 L 105.3697555555555,152.16566666666665 L 105.48755555555553,152.167 L 105.55313333333336,152.20666666666668 L 105.66346666666666,152.23266666666672 L 105.75279999999995,152.25766666666667 L 105.84388888888884,152.28933333333333 L 105.92499999999995,152.3096666666667 L 106.05513333333327,152.35966666666667 L 106.07326666666674,152.37633333333332 Z" fill="#FF0000" fill-opacity="0.1" stroke="#FF0000" stroke-width="0.3" stroke-opacity="0.7"/>
  <path d="M 103.63582222222227,154.02700000000002 L 103.69777777777776,153.9173333333333 L 103.71855555555562,153.79366666666667 L 103.76591111111111,153.70666666666665 L 103.83782222222217,153.57133333333329 L 103.90437777777785,153.44666666666666 L 103.99424444444448,153.3466666666666 L 104.07648888888889,153.24899999999997 L 104.12859999999995,153.17866666666663 L 104.18571111111117,153.11133333333333 L 104.2483555555556,153.03333333333336 L 104.33693333333326,152.9426666666667 L 104.41893333333337,152.82733333333334 L 104.46906666666669,152.74866666666668 L 104.51091111111106,152.65466666666669 L 104.54511111111114,152.59466666666668 L 104.54011111111106,152.56033333333332 L 104.50082222222221,152.523 L 104.45386666666661,152.551 L 104.38033333333338,152.54233333333335 L 104.35313333333332,152.48766666666666 L 104.33635555555566,152.39366666666663 L 104.34448888888888,152.31466666666665 L 104.36595555555553,152.254 L 104.40182222222222,152.1846666666666 L 104.45597777777786,152.1046666666666 L 104.4447777777778,152.03166666666667 L 104.43086666666667,151.9956666666667 L 104.40642222222225,151.96700000000004 L 104.37868888888895,151.95766666666663 L 104.33655555555559,151.95699999999997 L 104.30775555555556,151.97500000000002 L 104.27846666666669,152.0066666666667 L 104.25251111111118,152.0506666666667 L 104.25766666666672,152.11666666666662 L 104.2965555555555,152.16766666666675 L 104.3248666666667,152.19466666666665 L 104.3172444444445,152.26000000000002 L 104.30526666666663,152.34033333333335 L 104.30211111111109,152.42233333333328 L 104.29786666666665,152.50033333333332 L 104.31131111111114,152.58166666666665 L 104.33793333333332,152.61833333333337 L 104.35902222222228,152.66566666666668 L 104.3768222222222,152.73233333333337 L 104.34275555555566,152.82399999999998 L 104.25737777777772,152.89533333333338 L 104.17591111111113,152.96566666666672 L 104.08071111111114,153.03133333333335 L 104.01975555555563,153.1 L 103.96544444444444,153.162 L 103.89624444444445,153.2153333333333 L 103.8044666666667,153.262 L 103.74864444444442,153.33366666666666 L 103.67126666666664,153.47966666666667 L 103.62435555555561,153.55300000000003 L 103.57591111111103,153.63599999999997 L 103.54986666666673,153.69366666666667 L 103.50511111111106,153.74400000000003 L 103.48117777777776,153.77866666666665 L 103.42224444444446,153.83766666666662 L 103.39222222222224,153.86533333333335 L 103.3818666666667,153.79666666666668 L 103.30108888888896,153.7906666666667 L 103.23517777777775,153.79366666666667 L 103.17175555555558,153.7596666666667 L 103.1431111111111,153.68133333333333 L 103.12255555555554,153.60599999999997 L 103.12991111111111,153.507 L 103.16448888888887,153.407 L 103.19795555555551,153.27733333333336 L 103.24902222222221,153.1866666666667 L 103.31468888888881,153.099 L 103.40846666666667,152.98766666666666 L 103.54046666666665,152.86399999999998 L 103.63288888888889,152.798 L 103.74713333333334,152.70999999999998 L 103.75588888888893,152.6403333333334 L 103.7399777777778,152.5563333333333 L 103.80422222222228,152.46199999999993 L 103.9212,152.30666666666673 L 103.99755555555555,152.23066666666662 L 104.06286666666666,152.114 L 104.11011111111117,152.03233333333333 L 104.16646666666666,151.93333333333328 L 104.20824444444446,151.83133333333328 L 104.30224444444445,151.74299999999997 L 104.41837777777776,151.68466666666671 L 104.56015555555558,151.567 L 104.66268888888885,151.432 L 104.72866666666664,151.31533333333329 L 104.79291111111112,151.19199999999995 L 104.85442222222217,151.13599999999997 L 104.93244444444451,151.14200000000002 L 104.99475555555557,151.21933333333334 L 105.0588666666667,151.3036666666667 L 105.10362222222219,151.39400000000006 L 105.10526666666671,151.50466666666665 L 105.08037777777784,151.5936666666666 L 105.06468888888891,151.6653333333333 L 105.02700000000003,151.75833333333333 L 105.01317777777777,151.83666666666664 L 105.0139777777777,151.91799999999998 L 105.03302222222226,152.01566666666668 L 105.07584444444448,152.09900000000002 L 105.16433333333337,152.14633333333333 L 105.27295555555565,152.16533333333334 L 105.3697555555555,152.16566666666665 L 105.48755555555553,152.167 L 105.55313333333336,152.20666666666668 L 105.66346666666666,152.23266666666672 L 105.75279999999995,152.25766666666667 L 105.84388888888884,152.28933333333333 L 105.92499999999995,152.3096666666667 L 106.05513333333327,152.35966666666667 L 106.07326666666674,152.37633333333332 L 106.12631111111116,152.50499999999997 L 106.15946666666662,152.67066666666665 L 106.14155555555547,152.86199999999997 L 106.15533333333333,153.06433333333328 L 106.12022222222217,153.18833333333336 L 106.03922222222222,153.35733333333334 L 105.85786666666665,153.6183333333333 L 105.74715555555558,153.74500000000003 L 105.57428888888882,153.9626666666667 L 105.4269555555556,154.20400000000004 L 105.3530666666667,154.43333333333328 L 105.33113333333324,154.60533333333333 L 105.3370222222222,154.738 L 105.20333333333332,154.88233333333335 L 105.17675555555562,154.963 L 105.06711111111109,155.16233333333332 L 104.9226222222222,155.30033333333336 L 104.7244222222222,155.2686666666667 L 104.57124444444439,155.11966666666663 L 104.48313333333329,154.92999999999992 L 104.4249777777778,154.71 L 104.26844444444443,154.4793333333333 L 104.19228888888892,154.2646666666667 L 104.15915555555557,154.14066666666668 L 104.07255555555554,154.28166666666667 L 104.04662222222223,154.435 L 103.97555555555549,154.63333333333333 L 103.91313333333336,154.75666666666666 L 103.80028888888884,154.83366666666663 L 103.66148888888888,154.74299999999997 L 103.57897777777785,154.61366666666666 L 103.53264444444451,154.44166666666672 L 103.55411111111117,154.238 L 103.59259999999999,154.13233333333335 Z" fill="#FF0000" fill-opacity="0.1" stroke="#FF0000" stroke-width="0.3" stroke-opacity="0.7"/>
  
  <!-- Title and info -->
  <text x="400.0" y="25" text-anchor="middle" 
        fill="white" font-size="12.0" font-weight="bold">
    Constellation View
  </text>
  
  <text x="10" y="590" fill="white" font-size="5.0">
    RA: 0.0째 to 360.0째 | DE: -90.0째 to 90.0째 | 
    Stars: 10 | DSO: 17 | Vector SVG
  </text>
  
</svg>