<?xml version="1.0" encoding="UTF-8"?>
<svg width="800" height="600" 
     viewBox="0 0 800 600"
     xmlns="http://www.w3.org/2000/svg"
     style="background-color: #000000;">
     
  <!-- Scalable constellation visualization -->
  <defs>
    <!-- Star symbol -->
    <g id="star">
      <polygon points="0,-1 0.3,-0.3 1,0 0.3,0.3 0,1 -0.3,0.3 -1,0 -0.3,-0.3" 
               fill="currentColor" stroke="none"/>
    </g>
    
    <!-- Bright star symbol -->
    <g id="bright-star">
      <polygon points="0,-1.2 0.35,-0.35 1.2,0 0.35,0.35 0,1.2 -0.35,0.35 -1.2,0 -0.35,-0.35" 
               fill="currentColor" stroke="none"/>
    </g>
  </defs>
  
  <!-- Grid lines -->
  <g id="grid" stroke="#333" stroke-width="0.1" opacity="0.3">
  </g>

  <!-- Constellation elements -->
  <use href="#star" x="633.7704154819511" y="346.5287372531011" transform="scale(0.5940593835033989)" fill="#FFFFFF" opacity="0.9"/>
  <use href="#star" x="534.8990187229554" y="462.80976031064404" transform="scale(0.5504586866995425)" fill="#FFFFFF" opacity="0.9"/>
  <use href="#star" x="471.0583724562577" y="256.1436360872346" transform="scale(0.6593406317012648)" fill="#FFFFFF" opacity="0.9"/>
  <use href="#star" x="427.25485370816506" y="155.5266746387419" transform="scale(0.5172413623006965)" fill="#FFFFFF" opacity="0.9"/>
  <use href="#star" x="425.00093344840957" y="330.76948336638884" transform="scale(0.5940593835033989)" fill="#FFFFFF" opacity="0.9"/>
  <use href="#star" x="326.92586967788804" y="128.38670728689834" transform="scale(0.5263157630561145)" fill="#FFFFFF" opacity="0.9"/>
  <use href="#star" x="259.74119085833786" y="347.8919382458478" transform="scale(0.5)" fill="#FFFFFF" opacity="0.9"/>
  <use href="#star" x="166.22958451804885" y="317.0813131703277" transform="scale(0.5)" fill="#FFFFFF" opacity="0.9"/>
  <line x1="633.7704154819511" y1="346.5287372531011" x2="534.8990187229554" y2="462.80976031064404" stroke="#87CEEB" stroke-width="0.5" opacity="0.8"/>
  <line x1="534.8990187229554" y1="462.80976031064404" x2="425.00093344840957" y2="330.76948336638884" stroke="#87CEEB" stroke-width="0.5" opacity="0.8"/>
  <line x1="425.00093344840957" y1="330.76948336638884" x2="471.0583724562577" y2="256.1436360872346" stroke="#87CEEB" stroke-width="0.5" opacity="0.8"/>
  <line x1="471.0583724562577" y1="256.1436360872346" x2="633.7704154819511" y2="346.5287372531011" stroke="#87CEEB" stroke-width="0.5" opacity="0.8"/>
  <line x1="471.0583724562577" y1="256.1436360872346" x2="427.25485370816506" y2="155.5266746387419" stroke="#87CEEB" stroke-width="0.5" opacity="0.8"/>
  <line x1="427.25485370816506" y1="155.5266746387419" x2="326.92586967788804" y2="128.38670728689834" stroke="#87CEEB" stroke-width="0.5" opacity="0.8"/>
  <line x1="326.92586967788804" y1="128.38670728689834" x2="166.22958451804885" y2="317.0813131703277" stroke="#87CEEB" stroke-width="0.5" opacity="0.8"/>
  <line x1="166.22958451804885" y1="317.0813131703277" x2="259.74119085833786" y2="347.8919382458478" stroke="#87CEEB" stroke-width="0.5" opacity="0.8"/>
  <line x1="259.74119085833786" y1="347.8919382458478" x2="425.00093344840957" y2="330.76948336638884" stroke="#87CEEB" stroke-width="0.5" opacity="0.8"/>
  <ellipse cx="603.1058838874803" cy="471.61329271310166" rx="0.2285185185185185" ry="0.1061111111111111" transform="rotate(76.0000000001 603.1058838874803 471.61329271310166)" fill="none" stroke="#4682B4" stroke-width="0.2" stroke-dasharray="2,1" opacity="0.7"/>
  <text x="605.1058838874803" y="473.61329271310166" fill="#4682B4" font-size="3.5" font-weight="bold" opacity="0.9">NGC3511</text>
  
  <!-- Title and info -->
  <text x="400.0" y="25" text-anchor="middle" 
        fill="white" font-size="12.0" font-weight="bold">
    Constellation View
  </text>
  
  <text x="10" y="590" fill="white" font-size="5.0">
    RA: 159.9째 to 184.0째 | DE: -28.2째 to -4.8째 | 
    Stars: 8 | DSO: 1 | Vector SVG
  </text>
  
</svg>