<?xml version="1.0" encoding="UTF-8"?>
<svg width="800" height="600" 
     viewBox="0 0 800 600"
     xmlns="http://www.w3.org/2000/svg"
     style="background-color: #000000;">
     
  <!-- Scalable constellation visualization -->
  <defs>
    <!-- Star symbol -->
    <g id="star">
      <polygon points="0,-1 0.3,-0.3 1,0 0.3,0.3 0,1 -0.3,0.3 -1,0 -0.3,-0.3" 
               fill="currentColor" stroke="none"/>
    </g>
    
    <!-- Bright star symbol -->
    <g id="bright-star">
      <polygon points="0,-1.2 0.35,-0.35 1.2,0 0.35,0.35 0,1.2 -0.35,0.35 -1.2,0 -0.35,-0.35" 
               fill="currentColor" stroke="none"/>
    </g>
  </defs>
  
  <!-- Grid lines -->
  <g id="grid" stroke="#333" stroke-width="0.1" opacity="0.3">
  </g>

  <!-- Constellation elements -->
  <use href="#star" x="25509.096662498472" y="342.6684259904981" transform="scale(0.5)" fill="#FFFFFF" opacity="0.9"/>
  <use href="#star" x="25756.706776771443" y="248.0724074959761" transform="scale(0.5)" fill="#FFFFFF" opacity="0.9"/>
  <use href="#star" x="25932.798352069698" y="406.5038946082619" transform="scale(0.508474568052218)" fill="#FFFFFF" opacity="0.9"/>
  <use href="#star" x="26336.165084085995" y="398.6972695452319" transform="scale(0.5714285714285714)" fill="#FFFFFF" opacity="0.9"/>
  <use href="#star" x="26509.030882204068" y="193.49610539173813" transform="scale(0.5825242610575063)" fill="#FFFFFF" opacity="0.9"/>
  <use href="#star" x="26797.975344525832" y="406.17919294782274" transform="scale(0.5769230451809602)" fill="#FFFFFF" opacity="0.9"/>
  <use href="#star" x="26830.301708508778" y="293.33337039878205" transform="scale(1.3953487753158935)" fill="#FFFFFF" opacity="0.9"/>
  <line x1="26830.301708508778" y1="293.33337039878205" x2="26509.030882204068" y2="193.49610539173813" stroke="#87CEEB" stroke-width="0.5" opacity="0.8"/>
  <line x1="25756.706776771443" y1="248.0724074959761" x2="25509.096662498472" y2="342.6684259904981" stroke="#87CEEB" stroke-width="0.5" opacity="0.8"/>
  <line x1="25509.096662498472" y1="342.6684259904981" x2="25932.798352069698" y2="406.5038946082619" stroke="#87CEEB" stroke-width="0.5" opacity="0.8"/>
  <line x1="25932.798352069698" y1="406.5038946082619" x2="26336.165084085995" y2="398.6972695452319" stroke="#87CEEB" stroke-width="0.5" opacity="0.8"/>
  <line x1="26336.165084085995" y1="398.6972695452319" x2="26797.975344525832" y2="406.17919294782274" stroke="#87CEEB" stroke-width="0.5" opacity="0.8"/>
  
  <!-- Title and info -->
  <text x="400.0" y="25" text-anchor="middle" 
        fill="white" font-size="12.0" font-weight="bold">
    Constellation View
  </text>
  
  <text x="10" y="590" fill="white" font-size="5.0">
    RA: 0.0째 to -10.6째 | DE: -37.5째 to -22.0째 | 
    Stars: 7 | DSO: 0 | Vector SVG
  </text>
  
</svg>