<?xml version="1.0" encoding="UTF-8"?>
<svg width="800" height="600" 
     viewBox="0 0 800 600"
     xmlns="http://www.w3.org/2000/svg"
     style="background-color: #000000;">
     
  <!-- Scalable constellation visualization -->
  <defs>
    <!-- Star symbol -->
    <g id="star">
      <polygon points="0,-1 0.3,-0.3 1,0 0.3,0.3 0,1 -0.3,0.3 -1,0 -0.3,-0.3" 
               fill="currentColor" stroke="none"/>
    </g>
    
    <!-- Bright star symbol -->
    <g id="bright-star">
      <polygon points="0,-1.2 0.35,-0.35 1.2,0 0.35,0.35 0,1.2 -0.35,0.35 -1.2,0 -0.35,-0.35" 
               fill="currentColor" stroke="none"/>
    </g>
  </defs>
  
  <!-- Grid lines -->
  <g id="grid" stroke="#333" stroke-width="0.1" opacity="0.3">
  </g>

  <!-- Constellation elements -->
  <use href="#star" x="743.6400691160708" y="220.77046878238258" transform="scale(0.6185567131938484)" fill="#FFFFFF" opacity="0.9"/>
  <use href="#star" x="643.1209654273903" y="166.64839258476084" transform="scale(0.6122448860432199)" fill="#FFFFFF" opacity="0.9"/>
  <use href="#star" x="642.6138586170515" y="130.78868361062527" transform="scale(0.8823529164271378)" fill="#FFFFFF" opacity="0.9"/>
  <use href="#star" x="404.4129516967944" y="246.13594991795594" transform="scale(0.6976743876579468)" fill="#FFFFFF" opacity="0.9"/>
  <use href="#star" x="390.70067269515346" y="469.2113163893747" transform="scale(0.5)" fill="#FFFFFF" opacity="0.9"/>
  <use href="#star" x="271.0463679964246" y="157.228826379683" transform="scale(0.6818181670401711)" fill="#FFFFFF" opacity="0.9"/>
  <use href="#star" x="253.70995145768865" y="307.70035276363814" transform="scale(0.6122448860432199)" fill="#FFFFFF" opacity="0.9"/>
  <use href="#star" x="119.72318790797694" y="235.27442539425004" transform="scale(0.5607476735471151)" fill="#FFFFFF" opacity="0.9"/>
  <line x1="390.70067269515346" y1="469.2113163893747" x2="404.4129516967944" y2="246.13594991795594" stroke="#87CEEB" stroke-width="0.5" opacity="0.8"/>
  <line x1="404.4129516967944" y1="246.13594991795594" x2="643.1209654273903" y2="166.64839258476084" stroke="#87CEEB" stroke-width="0.5" opacity="0.8"/>
  <line x1="643.1209654273903" y1="166.64839258476084" x2="390.70067269515346" y2="469.2113163893747" stroke="#87CEEB" stroke-width="0.5" opacity="0.8"/>
  <line x1="404.4129516967944" y1="246.13594991795594" x2="253.70995145768865" y2="307.70035276363814" stroke="#87CEEB" stroke-width="0.5" opacity="0.8"/>
  <line x1="253.70995145768865" y1="307.70035276363814" x2="119.72318790797694" y2="235.27442539425004" stroke="#87CEEB" stroke-width="0.5" opacity="0.8"/>
  <line x1="119.72318790797694" y1="235.27442539425004" x2="404.4129516967944" y2="246.13594991795594" stroke="#87CEEB" stroke-width="0.5" opacity="0.8"/>
  <line x1="404.4129516967944" y1="246.13594991795594" x2="271.0463679964246" y2="157.228826379683" stroke="#87CEEB" stroke-width="0.5" opacity="0.8"/>
  <line x1="271.0463679964246" y1="157.228826379683" x2="643.1209654273903" y2="166.64839258476084" stroke="#87CEEB" stroke-width="0.5" opacity="0.8"/>
  <line x1="643.1209654273903" y1="166.64839258476084" x2="642.6138586170515" y2="130.78868361062527" stroke="#87CEEB" stroke-width="0.5" opacity="0.8"/>
  <line x1="642.6138586170515" y1="130.78868361062527" x2="743.6400691160708" y2="220.77046878238258" stroke="#87CEEB" stroke-width="0.5" opacity="0.8"/>
  <line x1="743.6400691160708" y1="220.77046878238258" x2="643.1209654273903" y2="166.64839258476084" stroke="#87CEEB" stroke-width="0.5" opacity="0.8"/>
  
  <!-- Title and info -->
  <text x="400.0" y="25" text-anchor="middle" 
        fill="white" font-size="12.0" font-weight="bold">
    Constellation View
  </text>
  
  <text x="10" y="590" fill="white" font-size="5.0">
    RA: 0.0째 to 33.4째 | DE: -60.2째 to -37.3째 | 
    Stars: 8 | DSO: 0 | Vector SVG
  </text>
  
</svg>